<svg width="300" height="300" viewBox="0 0 300 300" fill="none" xmlns="http://www.w3.org/2000/svg">
<path d="M200.366 149.355C205.733 184.377 203.866 202.539 203.455 207.189C206.416 218.9 208.172 234.894 193.578 235.155C182.205 235.361 176.178 216.094 176.178 216.094L173.866 216.111C173.866 216.111 168.111 235.461 156.733 235.411C142.133 235.35 143.672 219.333 146.466 207.583C145.989 202.939 143.866 184.811 148.75 149.711L200.366 149.355Z" fill="#848484"/>
<path d="M156.733 235.411C162.444 235.433 166.322 230.572 169.322 225.722C162.95 225.739 149.889 222.761 144.461 221.45C144.433 229.061 147.578 235.378 156.733 235.411Z" fill="white"/>
<path d="M205.655 221.206C199.644 222.728 186.655 225.817 180.85 225.633C183.916 230.444 187.866 235.261 193.577 235.156C202.661 234.994 205.75 228.728 205.655 221.206Z" fill="white"/>
<path d="M200.366 149.355C205.733 184.377 203.866 202.539 203.455 207.189C206.416 218.9 208.172 234.894 193.578 235.155C182.205 235.361 176.178 216.094 176.178 216.094L173.866 216.111C173.866 216.111 168.111 235.461 156.733 235.411C142.133 235.35 143.672 219.333 146.466 207.583C145.989 202.939 143.866 184.811 148.75 149.711L200.366 149.355Z" stroke="black" stroke-width="2.5" stroke-miterlimit="10" stroke-linecap="round" stroke-linejoin="round"/>
<path d="M174.482 207.527C183.88 207.461 191.439 198.859 191.366 188.314C191.292 177.768 183.614 169.272 174.216 169.338C164.818 169.403 157.259 178.005 157.332 188.551C157.406 199.097 165.084 207.592 174.482 207.527Z" fill="white"/>
<path d="M131.623 102.65C128.412 93.3886 128.907 64.0608 139.212 59.7942C149.518 55.5275 162.529 73.2553 162.529 73.2553C162.529 73.2553 169.768 81.2275 149.234 93.6053C132.134 103.911 131.623 102.65 131.623 102.65Z" fill="#848484" stroke="black" stroke-width="2.5" stroke-miterlimit="10" stroke-linecap="round" stroke-linejoin="round"/>
<path d="M141.511 67.2609C145.211 64.7165 152.022 72.3776 153.85 75.261C154.228 75.8554 158.539 82.6332 149.878 87.5998C145.556 90.0776 137.784 89.7554 137.784 89.7554C137.784 89.7554 136.895 70.4387 141.511 67.2609Z" fill="white"/>
<path d="M141.512 67.2609C145.212 64.7165 153.562 74.5943 155.39 77.4721" stroke="black" stroke-width="2.5" stroke-miterlimit="10" stroke-linecap="round" stroke-linejoin="round"/>
<path d="M219.3 110.939C225.883 103.672 236.983 76.4109 229.095 68.5331C219.895 59.3442 196.828 74.6276 196.828 74.6276C196.828 74.6276 192.589 76.2942 206.639 95.722C218.339 111.894 219.3 110.939 219.3 110.939Z" fill="#848484" stroke="black" stroke-width="2.5" stroke-miterlimit="10" stroke-linecap="round" stroke-linejoin="round"/>
<path d="M224.051 74.5053C221.646 70.7164 212.379 75.0997 209.562 77.033C208.979 77.433 204.362 79.2553 206.001 83.9608C210.862 97.8942 217.907 98.7664 217.907 98.7664C217.907 98.7664 227.057 79.2386 224.051 74.5053Z" fill="white"/>
<path d="M224.051 74.505C221.646 70.7161 210.018 75.9773 207.201 77.9161" stroke="black" stroke-width="2.5" stroke-miterlimit="10" stroke-linecap="round" stroke-linejoin="round"/>
<path d="M213.912 91.5829C213.912 91.5829 226.178 102.516 225.356 121.855C234.495 132.788 229.478 139.255 224.54 138.066C225.79 147.35 219.956 148.305 217.473 148.027C214.606 155.227 200.212 164.455 178.562 163.366L168.584 162.861C147.745 161.811 133.54 151.138 131.417 143.683C128.917 143.711 123.212 142.172 125.39 133.061C120.356 133.744 116.017 126.805 126.206 116.85C127.34 97.5274 140.64 87.8829 140.64 87.8829C140.64 87.8829 143.067 85.7718 143.806 85.4385C141.867 83.444 145.134 76.2329 153.878 79.4885C152.001 73.2996 157.606 70.6107 164.662 76.4385C164.662 76.4385 176.917 68.9274 191.478 77.794C199.078 72.7052 204.39 75.944 201.901 81.9163C210.928 79.5607 214.101 86.8996 211.734 88.3496C211.062 88.7607 211.128 88.9552 211.128 88.9552C211.128 88.9552 213.423 91.0385 213.912 91.5829Z" fill="#848484"/>
<path d="M217.468 148.027C219.957 148.311 225.785 147.355 224.535 138.066C229.402 139.233 234.329 132.977 225.752 122.35C220.257 122.289 214.496 124.405 211.99 126.394C204.779 111.1 180.452 108.583 178.179 130.611L174.263 130.411C174.224 108.266 149.763 108.322 141.052 122.811C138.468 120.3 131.818 117.216 125.729 117.322C116.163 127.022 120.429 133.727 125.385 133.055C123.207 142.166 128.913 143.705 131.413 143.677C133.535 151.133 147.74 161.805 168.579 162.855L178.557 163.361C200.207 164.461 214.607 155.233 217.468 148.027Z" fill="white"/>
<path d="M222.624 105.083C224.385 109.627 225.635 115.255 225.351 121.861C234.49 132.794 229.474 139.261 224.535 138.072C225.785 147.355 219.951 148.311 217.468 148.033C214.601 155.233 200.207 164.461 178.557 163.372L168.579 162.866C147.74 161.816 133.535 151.144 131.412 143.689C128.912 143.716 123.207 142.177 125.385 133.066C120.351 133.75 116.012 126.811 126.201 116.855C126.646 109.239 128.985 103.122 131.657 98.5107" stroke="black" stroke-width="2.5" stroke-miterlimit="10" stroke-linecap="round" stroke-linejoin="round"/>
<path d="M143.806 85.4385C141.868 83.444 145.134 76.2329 153.879 79.4885C152.001 73.2996 157.606 70.6107 164.662 76.4385C164.662 76.4385 176.918 68.9274 191.479 77.794C199.079 72.7052 204.39 75.944 201.901 81.9163C210.929 79.5607 214.101 86.8996 211.734 88.3496C211.062 88.7607 211.129 88.9552 211.129 88.9552" stroke="black" stroke-width="2.5" stroke-miterlimit="10" stroke-linecap="round" stroke-linejoin="round"/>
<path d="M168.779 109.988C169.112 108.7 167.99 106.622 164.301 106.433C160.612 106.244 159.645 108.283 159.718 109.305C159.806 110.494 160.506 111.266 163.606 111.35C166.712 111.433 168.229 112.105 168.779 109.988Z" fill="white"/>
<path d="M180.344 132.002C180.421 130.485 178.605 129.161 176.288 129.044C173.972 128.927 172.032 130.062 171.955 131.579C171.878 133.095 173.694 134.42 176.011 134.537C178.328 134.654 180.268 133.519 180.344 132.002Z" fill="black"/>
<path d="M162.278 129.227C164.546 129.227 166.384 127.389 166.384 125.122C166.384 122.854 164.546 121.016 162.278 121.016C160.011 121.016 158.173 122.854 158.173 125.122C158.173 127.389 160.011 129.227 162.278 129.227Z" fill="black"/>
<path d="M187.267 110.922C187.062 109.605 188.395 107.65 192.079 107.839C195.767 108.028 196.523 110.144 196.345 111.161C196.14 112.333 195.362 113.033 192.267 112.805C189.173 112.578 187.606 113.083 187.267 110.922Z" fill="white"/>
<path d="M162.628 139.116C164.856 142.083 172.145 143.639 175.667 139.778C180.189 144.405 186.072 143.155 189.178 140.578" stroke="black" stroke-width="2.5" stroke-miterlimit="10" stroke-linecap="round" stroke-linejoin="round"/>
<path d="M151.628 159.694C144.645 153.9 127.656 137.45 120.084 146.1C113.906 153.155 117.734 160.061 123.3 164.483C130.406 170.128 146.906 187.411 146.906 187.411" fill="#848484"/>
<path d="M120.09 146.1C113.912 153.156 117.74 160.061 123.306 164.483C123.751 164.839 124.234 165.239 124.751 165.678C128.395 160.139 133.829 152.267 137.079 148.117C130.69 143.961 124.079 141.539 120.09 146.1Z" fill="white"/>
<path d="M151.628 159.694C144.645 153.9 127.656 137.45 120.084 146.1C113.906 153.155 117.734 160.061 123.3 164.483C130.406 170.128 145.717 186.922 145.717 186.922" stroke="black" stroke-width="2.5" stroke-miterlimit="10" stroke-linecap="round" stroke-linejoin="round"/>
<path d="M199.272 161.35C206.361 155.694 223.672 139.566 231.072 148.361C237.111 155.539 233.156 162.366 227.506 166.678C220.289 172.183 201.778 190.678 201.778 190.678" fill="#848484"/>
<path d="M231.072 148.367C237.111 155.544 233.155 162.372 227.505 166.683C227.055 167.028 226.561 167.422 226.039 167.85C222.5 162.244 217.222 154.272 214.05 150.056C220.511 146.022 227.166 143.728 231.072 148.367Z" fill="white"/>
<path d="M199.272 161.35C206.361 155.694 223.672 139.566 231.072 148.361C237.111 155.539 233.156 162.366 227.506 166.678C220.289 172.183 204.234 189.739 204.234 189.739" stroke="black" stroke-width="2.5" stroke-miterlimit="10" stroke-linecap="round" stroke-linejoin="round"/>
<path d="M170.584 215.516C170.584 215.516 174.651 216.05 179.267 215.455" stroke="black" stroke-width="2.5" stroke-miterlimit="10" stroke-linecap="round" stroke-linejoin="round"/>
<path d="M187.418 126.633C187.418 126.633 190.607 123.4 195.429 125.056" stroke="black" stroke-width="2.5" stroke-miterlimit="10" stroke-linecap="round" stroke-linejoin="round"/>
<path d="M85.8876 174.316C85.8876 174.316 97.2154 178.966 104.699 180.183C112.182 181.394 111.776 187.061 111.376 189.689C110.971 192.316 107.938 196.161 98.0265 194.544C88.1154 192.928 80.832 189.894 80.832 189.894L85.8876 174.316Z" fill="#8B6D5B"/>
<path d="M104.7 180.183C103.828 180.044 102.906 179.856 101.956 179.633C101.8 183.856 101.422 189.928 100.522 194.856C108.456 195.489 111.006 192.089 111.372 189.694C111.778 187.056 112.184 181.394 104.7 180.183Z" fill="#E7C79D"/>
<path d="M85.8876 174.316C85.8876 174.316 97.2154 178.966 104.699 180.183C112.182 181.394 111.776 187.061 111.376 189.689C110.971 192.316 107.938 196.161 98.0265 194.544C88.1154 192.928 80.832 189.894 80.832 189.894L85.8876 174.316Z" stroke="black" stroke-width="2.5" stroke-miterlimit="10" stroke-linecap="round" stroke-linejoin="round"/>
<path d="M47.018 174.817C47.018 174.817 41.4402 195.994 48.1846 212.122C48.1846 212.122 41.7013 231.989 55.1402 232.266C64.5013 232.455 68.6735 219.828 68.6735 219.828C68.6735 219.828 67.5957 232.728 79.2457 232.728C90.8957 232.728 87.3068 212.661 87.3068 212.661C87.3068 212.661 92.468 198.15 86.3735 173.244C80.2791 148.339 49.7291 160.8 47.018 174.817Z" fill="#8B6D5B"/>
<path d="M87.2779 224.955L69.1445 224.789C70.039 228.422 72.5223 232.728 79.2501 232.728C84.189 232.728 86.3834 229.111 87.2779 224.955Z" fill="#E7C79D"/>
<path d="M46.6443 220.894C46.4387 226.255 47.8832 232.116 55.1443 232.266C59.0165 232.344 61.9998 230.227 64.1721 227.716L46.6443 220.894Z" fill="#E7C79D"/>
<path d="M86.3781 173.244C80.2836 148.339 50.8392 160.805 48.1336 174.816C48.1336 174.816 40.5781 193.227 48.1892 212.122C48.1892 212.122 40.0725 231.039 55.1447 232.266C64.4781 233.022 68.6781 219.827 68.6781 219.827C68.6781 219.827 67.6003 232.727 79.2503 232.727C90.9003 232.727 87.3114 212.661 87.3114 212.661C87.3114 212.661 90.2114 204.5 89.0947 189.911" stroke="black" stroke-width="2.5" stroke-miterlimit="10" stroke-linecap="round" stroke-linejoin="round"/>
<path d="M68.6777 219.828L71.7222 218.928" stroke="black" stroke-width="2.5" stroke-miterlimit="10" stroke-linecap="round" stroke-linejoin="round"/>
<path d="M83.5148 192.57C83.7702 181.169 77.0199 171.771 68.4376 171.578C59.8552 171.386 52.6907 180.473 52.4352 191.874C52.1798 203.275 58.9301 212.674 67.5124 212.866C76.0948 213.058 83.2593 203.972 83.5148 192.57Z" fill="#E7C79D"/>
<path d="M106.767 138.105C114.1 130.783 117.689 102.661 111.522 99.3609C101.644 94.0831 84.2332 109.028 79.8277 112.272C60.6332 104.572 45.061 116.005 45.061 116.005C40.0666 113.766 19.8777 102.861 11.3443 110.116C6.01657 114.65 15.4943 141.366 24.2166 146.966C25.4999 163.1 38.7888 183.133 69.411 179.844C100.033 176.555 107.761 155.539 106.767 138.105Z" fill="#8B6D5B"/>
<path d="M104.849 154.4C101.549 157.633 96.4716 160.978 89.6327 161.317C75.5716 162.011 71.2494 151.044 70.7827 149.072C69.3272 142.861 71.0549 135.178 65.1438 135.817C60.1716 136.35 62.5105 145.172 62.1827 150C62.0438 152.022 60.2549 163.661 46.366 165.972C38.7216 167.244 32.466 164.272 28.5771 161.467C34.7827 172.839 47.7549 182.178 69.4105 179.85C90.7216 177.556 100.938 166.678 104.849 154.4Z" fill="#E7C79D"/>
<path d="M106.767 138.105C114.1 130.783 117.689 102.661 111.522 99.3609C101.644 94.0831 84.2332 109.028 79.8277 112.272C60.6332 104.572 45.061 116.005 45.061 116.005C40.0666 113.766 19.8777 102.861 11.3443 110.116C6.01657 114.65 15.4943 141.366 24.2166 146.966C25.4999 163.1 38.7888 183.133 69.411 179.844C100.033 176.555 107.761 155.539 106.767 138.105Z" stroke="black" stroke-width="2.5" stroke-miterlimit="10" stroke-linecap="round" stroke-linejoin="round"/>
<path d="M53.5054 158.8C56.3006 158.8 58.5666 156.534 58.5666 153.739C58.5666 150.943 56.3006 148.677 53.5054 148.677C50.7103 148.677 48.4443 150.943 48.4443 153.739C48.4443 156.534 50.7103 158.8 53.5054 158.8Z" fill="#957766"/>
<path d="M80.983 155.85C83.7782 155.85 86.0441 153.584 86.0441 150.789C86.0441 147.993 83.7782 145.728 80.983 145.728C78.1878 145.728 75.9219 147.993 75.9219 150.789C75.9219 153.584 78.1878 155.85 80.983 155.85Z" fill="#957766"/>
<path d="M20.3274 115.589C21.8719 113.672 36.2885 118.305 37.7774 120.361C39.2663 122.417 34.1774 125.178 31.9719 129.689C29.7663 134.2 29.7274 137.178 27.583 137.444C24.4441 137.833 20.6052 125.211 20.1719 120.033C19.9108 116.861 19.7719 116.278 20.3274 115.589Z" fill="#E7C79D"/>
<path d="M20.3281 115.589C21.8726 113.672 36.2892 118.305 37.7781 120.361" stroke="black" stroke-width="2.5" stroke-miterlimit="10" stroke-linecap="round" stroke-linejoin="round"/>
<path d="M103.906 106.611C101.989 105.066 88.8833 112.655 87.8666 114.983C86.85 117.311 92.4055 118.928 95.5222 122.866C98.6389 126.805 99.3055 129.705 101.461 129.511C104.611 129.222 105.683 116.078 105.006 110.928C104.583 107.766 104.6 107.166 103.906 106.611Z" fill="#E7C79D"/>
<path d="M103.905 106.611C101.988 105.066 88.8829 112.655 87.8662 114.983" stroke="black" stroke-width="2.5" stroke-miterlimit="10" stroke-linecap="round" stroke-linejoin="round"/>
<path d="M53.5059 157.577C55.626 157.577 57.3448 155.859 57.3448 153.739C57.3448 151.618 55.626 149.9 53.5059 149.9C51.3857 149.9 49.667 151.618 49.667 153.739C49.667 155.859 51.3857 157.577 53.5059 157.577Z" fill="black"/>
<path d="M81.0215 154.622C83.1417 154.622 84.8604 152.903 84.8604 150.783C84.8604 148.663 83.1417 146.944 81.0215 146.944C78.9013 146.944 77.1826 148.663 77.1826 150.783C77.1826 152.903 78.9013 154.622 81.0215 154.622Z" fill="black"/>
<path d="M58.2436 145.083C58.2325 146.633 56.6158 147.161 54.4769 147.278C52.338 147.394 50.5658 146.85 50.3991 145.311C50.2214 143.667 51.7047 142.633 54.2102 142.494C56.7102 142.356 58.2547 143.383 58.2436 145.083Z" fill="#E7C79D"/>
<path d="M74.9609 143.283C75.2998 144.794 76.9887 144.966 79.1053 144.627C81.222 144.289 82.8387 143.383 82.672 141.839C82.4942 140.194 80.8276 139.5 78.3498 139.894C75.872 140.289 74.5887 141.633 74.9609 143.283Z" fill="#E7C79D"/>
<path d="M67.8454 159.199C69.6606 159.004 71.011 157.718 70.8616 156.327C70.7121 154.936 69.1195 153.966 67.3043 154.161C65.4891 154.356 64.1387 155.642 64.2881 157.033C64.4376 158.424 66.0302 159.394 67.8454 159.199Z" fill="black"/>
<path d="M60.5615 164.306C62.5782 166.833 67.2004 165.756 68.4449 163.461C70.3504 165.75 75.2726 165.139 76.5504 162.339" stroke="black" stroke-width="2.5" stroke-miterlimit="10" stroke-linecap="round" stroke-linejoin="round"/>
<path d="M52.3113 179.066C52.3113 179.066 40.1724 171.783 35.9279 170.166C31.6835 168.55 27.6335 168.344 25.0057 173.405C22.5779 178.072 24.1946 182.305 29.6557 185.744C35.1168 189.183 46.2446 197.677 46.2446 197.677" fill="#8B6D5B"/>
<path d="M35.9279 170.166C31.6779 168.55 27.6335 168.344 25.0057 173.405C22.5779 178.072 24.1946 182.305 29.6557 185.744C29.7335 185.794 29.8113 185.844 29.889 185.894C32.139 182.011 36.2446 175.811 39.4668 171.822C38.0613 171.1 36.8168 170.505 35.9279 170.166Z" fill="#E7C79D"/>
<path d="M52.3113 179.066C52.3113 179.066 40.1724 171.783 35.9279 170.166C31.6835 168.55 27.6335 168.344 25.0057 173.405C22.5779 178.072 24.1946 182.305 29.6557 185.744C35.1168 189.183 46.2446 197.677 46.2446 197.677" stroke="black" stroke-width="2.5" stroke-miterlimit="10" stroke-linecap="round" stroke-linejoin="round"/>
<path d="M144.188 199C150.227 192.411 147.232 178.572 141.96 173.106C145.805 170.056 147.132 162.634 142.488 159.978C138.26 157.561 134.005 160.906 132.149 164.356C114.91 157.428 101.26 164.356 101.26 164.356C99.4047 160.906 95.1436 157.567 90.9214 159.978C86.2825 162.628 87.6047 170.056 91.4491 173.106C91.4491 173.106 81.1658 186.989 89.2158 198.7C77.9103 220.189 81.4769 238.284 100.371 238.772C108.332 238.978 109.455 237.656 116.782 237.656C124.11 237.656 125.066 238.611 136.221 238.611C146.049 238.611 150.705 232.622 151.244 224.178C151.571 218.984 149.827 206.172 144.188 199Z" fill="#F2BA67"/>
<path d="M142.961 197.55C143.394 193.439 141.366 189.539 135.988 188.167C129.55 186.528 125.222 190.978 117.261 190.978C109.3 190.978 107.783 187.817 99.7051 188.522C93.1106 189.095 89.9495 193.106 90.544 197.106C90.6773 198.006 90.8217 200.95 90.4884 201.695C87.3606 208.784 81.8106 238.778 100.372 238.778C108.338 238.778 109.455 237.661 116.783 237.661C124.111 237.661 125.066 238.617 136.222 238.617C151.211 238.617 146.783 210.184 143.783 202.234C142.894 199.872 142.877 198.361 142.961 197.55Z" fill="white"/>
<path d="M119.761 161.411C117.639 161.239 115.639 161.245 113.8 161.367C113.756 164.356 114.011 170.283 116.672 170.283C119.061 170.283 119.639 164.939 119.761 161.411Z" fill="#EF9B49"/>
<path d="M110.488 169.156C111.966 168.978 111.416 164.772 110.805 161.678C109.111 161.917 107.599 162.239 106.311 162.578C106.883 164.794 108.344 169.411 110.488 169.156Z" fill="#EF9B49"/>
<path d="M122.728 169.156C124.855 169.411 126.311 164.861 126.894 162.622C125.355 162.222 123.855 161.922 122.405 161.711C121.8 164.806 121.255 168.978 122.728 169.156Z" fill="#EF9B49"/>
<path d="M144.188 199C150.227 192.411 147.232 178.572 141.96 173.106C145.805 170.056 147.132 162.634 142.488 159.978C138.26 157.561 134.005 160.906 132.149 164.356C114.91 157.428 101.26 164.356 101.26 164.356C99.4047 160.906 95.1436 157.567 90.9214 159.978C86.2825 162.628 87.6047 170.056 91.4491 173.106C91.4491 173.106 81.1658 186.989 89.2158 198.7C77.9103 220.189 81.4769 238.284 100.371 238.772C108.332 238.978 109.455 237.656 116.782 237.656C124.11 237.656 125.066 238.611 136.221 238.611C146.049 238.611 150.705 232.622 151.244 224.178C151.571 218.984 149.827 206.172 144.188 199Z" stroke="black" stroke-width="2.5" stroke-miterlimit="10" stroke-linecap="round" stroke-linejoin="round"/>
<path d="M92.3888 164.739C93.5554 163.128 96.1554 164.739 97.0499 166.533L93.8221 169.578C93.8221 169.578 90.5332 167.306 92.3888 164.739Z" fill="#FDCDCE"/>
<path d="M141.022 164.739C139.856 163.128 137.256 164.739 136.361 166.533L139.589 169.578C139.589 169.578 142.878 167.306 141.022 164.739Z" fill="#FDCDCE"/>
<path d="M92.3877 164.739C93.5544 163.128 96.1544 164.739 97.0488 166.533" stroke="black" stroke-width="2.5" stroke-miterlimit="10" stroke-linecap="round" stroke-linejoin="round"/>
<path d="M141.022 164.739C139.856 163.128 137.256 164.739 136.361 166.533" stroke="black" stroke-width="2.5" stroke-miterlimit="10" stroke-linecap="round" stroke-linejoin="round"/>
<path d="M109.128 188.245C110.481 188.245 111.578 187.148 111.578 185.795C111.578 184.442 110.481 183.345 109.128 183.345C107.775 183.345 106.678 184.442 106.678 185.795C106.678 187.148 107.775 188.245 109.128 188.245Z" fill="black"/>
<path d="M126.004 188.245C127.357 188.245 128.454 187.148 128.454 185.795C128.454 184.442 127.357 183.345 126.004 183.345C124.651 183.345 123.554 184.442 123.554 185.795C123.554 187.148 124.651 188.245 126.004 188.245Z" fill="black"/>
<path d="M117.521 189.678C118.393 189.678 119.099 189.096 119.099 188.378C119.099 187.66 118.393 187.078 117.521 187.078C116.65 187.078 115.943 187.66 115.943 188.378C115.943 189.096 116.65 189.678 117.521 189.678Z" fill="black"/>
<path d="M112.411 192.817C113.689 194.734 116.889 194.522 117.667 192.745C118.806 194.945 121.861 194.239 122.711 192.745" stroke="black" stroke-width="2.5" stroke-miterlimit="10" stroke-linecap="round" stroke-linejoin="round"/>
<path d="M101.397 240.708C103.722 239.94 104.776 236.802 103.751 233.7C102.725 230.597 100.01 228.704 97.685 229.473C95.3602 230.241 94.3066 233.378 95.3316 236.481C96.3567 239.584 99.0723 241.476 101.397 240.708Z" fill="#FDCDCE" stroke="black" stroke-width="2.5" stroke-miterlimit="10" stroke-linecap="round" stroke-linejoin="round"/>
<path d="M136.945 236.473C137.97 233.37 136.916 230.232 134.591 229.464C132.267 228.696 129.551 230.589 128.526 233.691C127.501 236.794 128.555 239.932 130.879 240.7C133.204 241.468 135.92 239.576 136.945 236.473Z" fill="#FDCDCE" stroke="black" stroke-width="2.5" stroke-miterlimit="10" stroke-linecap="round" stroke-linejoin="round"/>
<path d="M147.032 208.972C151.126 205.372 154.354 199.545 150.876 196.439C147.404 193.339 141.693 200.039 141.693 200.039C141.693 200.039 139.709 202.522 142.187 206.617C144.676 210.711 147.032 208.972 147.032 208.972Z" fill="#FDCDCE"/>
<path d="M147.033 208.972C151.128 205.372 154.355 199.545 150.878 196.439C147.405 193.339 141.694 200.039 141.694 200.039" stroke="black" stroke-width="2.5" stroke-miterlimit="10" stroke-linecap="round" stroke-linejoin="round"/>
<path d="M86.2103 208.972C82.1159 205.372 78.8881 199.545 82.3659 196.439C85.8381 193.339 91.5492 200.039 91.5492 200.039C91.5492 200.039 93.5325 202.522 91.0548 206.617C88.5714 210.711 86.2103 208.972 86.2103 208.972Z" fill="#FDCDCE"/>
<path d="M91.5497 200.039C91.5497 200.039 85.8441 193.339 82.3664 196.439C78.8941 199.539 82.1164 205.372 86.2108 208.972" stroke="black" stroke-width="2.5" stroke-miterlimit="10" stroke-linecap="round" stroke-linejoin="round"/>
<path d="M270.155 197.011C268.378 194.178 271.411 187.678 273.761 187.544C275.305 187.461 274.994 187.917 274.994 187.917C279.283 181.944 285.005 182.306 288.183 183.817C291.361 185.328 294.389 189.9 291.517 189.522C294.455 191.8 296.75 196.461 294.4 197.772C293.305 198.383 291.539 197.283 291.539 197.283C291.539 197.283 295.183 203.7 291.783 205.617C290.611 206.278 288.422 205.661 288.422 205.661C288.422 205.661 289.711 210.244 286.139 212.578C281.233 215.778 272.217 211.25 272.217 211.25L270.155 197.011Z" fill="#F1AB61" stroke="black" stroke-width="2.5" stroke-miterlimit="10" stroke-linecap="round" stroke-linejoin="round"/>
<path d="M193.056 218.333C193.056 218.333 187.283 220.505 185.494 220.777C183.706 221.044 178.1 222.905 178.494 227.722C178.889 232.539 183.422 234.894 190.028 234.777C196.633 234.661 204.889 234.277 204.889 234.277" fill="#F1AB61"/>
<path d="M193.056 218.333C193.056 218.333 187.283 220.505 185.494 220.777C183.706 221.044 178.1 222.905 178.494 227.722C178.889 232.539 183.422 234.894 190.028 234.777C196.633 234.661 204.889 234.277 204.889 234.277" stroke="black" stroke-width="2.5" stroke-miterlimit="10" stroke-linecap="round" stroke-linejoin="round"/>
<path d="M280.805 217.183C281.211 217.461 287.438 219.472 289.433 222.5C291.427 225.528 291.716 232.616 288.15 234.189C284.583 235.761 276.777 230.322 276.777 230.322L280.805 217.183Z" fill="#F1AB61" stroke="black" stroke-width="2.5" stroke-miterlimit="10" stroke-linecap="round" stroke-linejoin="round"/>
<path d="M260.062 188.322C262.851 187.555 265.789 187.878 267.484 190.205C271.512 189.911 275.834 191.933 275.823 195.494C281.234 197.372 283.389 201.555 282.295 203.872C285.223 207.75 284.595 210.072 283.817 212.233C286.434 216.728 284.267 222.516 282.628 223.655C286.801 226.044 290.306 229.344 290.406 232.555C290.584 238.144 287.023 239.261 277.023 239.089C267.017 238.911 263.662 239.944 263.262 238.116C262.006 240.605 255.723 240.761 253.751 239.611C251.945 240.505 247.673 241.894 244.717 239.705C243.156 240.95 237.578 240.844 235.512 239.894C233.962 240.672 230.206 241.278 226.473 239.555C220.989 241.083 220.228 239.372 217.901 239.372C215.573 239.372 211.662 241.533 208.551 239.183C202.478 237.989 203.245 236.433 198.889 233.772C195.612 234.383 191.878 238.039 190.023 233.2C187.067 231.944 187.073 226.294 189.117 221.466C187.406 220.372 187.645 213.533 190.151 209.178L260.062 188.322Z" fill="#F1AB61" stroke="black" stroke-width="2.5" stroke-miterlimit="10" stroke-linecap="round" stroke-linejoin="round"/>
<path d="M193.172 224.794C193.172 224.794 190.994 225.438 189.206 225.705C187.417 225.972 182.183 227.472 182.578 232.288C182.972 237.105 187.506 239.461 194.111 239.344C200.717 239.227 208.972 238.844 208.972 238.844" fill="#F1AB61"/>
<path d="M193.172 224.794C193.172 224.794 190.994 225.438 189.206 225.705C187.417 225.972 182.183 227.472 182.578 232.288C182.972 237.105 187.506 239.461 194.111 239.344C200.717 239.227 208.972 238.844 208.972 238.844" stroke="black" stroke-width="2.5" stroke-miterlimit="10" stroke-linecap="round" stroke-linejoin="round"/>
<path d="M190.924 174.277C190.924 174.277 196.985 156.261 203.618 156.122C209.363 156 211.535 162.883 211.979 163.444C212.424 164.005 193.368 176.333 190.924 174.277Z" fill="#F1AB61" stroke="black" stroke-width="2.5" stroke-miterlimit="10" stroke-linecap="round" stroke-linejoin="round"/>
<path d="M196.291 170.761C196.291 170.761 200.713 160.644 204.169 160.572C207.163 160.511 206.147 164.561 206.38 164.855C206.608 165.144 197.563 171.833 196.291 170.761Z" fill="#FAEACE"/>
<path d="M260.007 182C260.007 182 261.101 164.15 254.668 162.55C249.09 161.161 244.284 166.366 243.634 166.666C240.646 168.044 257.168 183.466 260.007 182Z" fill="#F1AB61" stroke="black" stroke-width="2.5" stroke-miterlimit="10" stroke-linecap="round" stroke-linejoin="round"/>
<path d="M255.55 177.383C255.55 177.383 256.123 168.083 252.767 167.249C249.862 166.527 247.312 169.161 247.017 169.394C246.728 169.627 254.073 178.15 255.55 177.383Z" fill="#FAEACE"/>
<path d="M226.145 226.45C227.85 228.294 237.517 230.311 239.545 226.972C239.923 228.161 244.395 230.316 247.15 225.022C249.328 226.027 254.673 224.972 256.8 218.455C260.839 222.216 264.534 215.372 263.739 208.783C266.9 210.155 266.217 202.561 262.434 197.683C266.028 197.45 263.684 191.072 258.823 186.705C263.256 185.8 260.534 181.672 256.55 178.555C258.206 176.194 253.05 173.45 250.073 172.738C252.239 171.577 250.539 168.588 243.534 167.422C246.656 164.588 241.484 162.988 236.911 164.005C239.25 161.338 235.628 158.383 228.05 161.233C225.061 158.35 218.995 157.927 219.773 161.2C216.839 158.961 209.873 159.711 211.311 162.8C205.134 162.238 199.873 165.977 202.778 167.322C196.028 167.333 194.511 171.75 194.4 171.611C189.828 173.777 186.261 177.2 190.384 179.061C184.678 182.244 180.984 187.944 184.434 188.966C179.661 192.894 177.323 200.144 180.706 199.505C178.478 205.755 180.573 213.25 185.339 210.472C185.978 217.294 190.956 219.505 193.3 219.005C194.823 224.783 199.656 223.666 200.289 222.589C201.534 226.294 208.828 227.111 210.9 225.683C214.695 230.561 221.2 229.588 226.145 226.45Z" fill="#F1AB61"/>
<path d="M250.178 187.777C242.373 186.149 239.001 191.366 233.306 190.733C228.99 190.249 228.028 184.41 221.484 183.677C214.184 182.86 212.073 189.249 207.417 188.727C202.762 188.205 203.895 183.622 198.356 182.999C190.64 182.138 185.701 186.833 184.006 188.783C184.139 188.849 184.278 188.91 184.439 188.96C179.667 192.888 177.328 200.138 180.712 199.499C178.484 205.749 180.578 213.244 185.345 210.466C185.984 217.288 190.962 219.499 193.306 218.999C194.828 224.772 199.584 224.355 200.217 223.277C201.462 226.983 208.834 227.105 210.906 225.677C214.69 230.56 220.756 230.877 225.701 227.738C227.406 229.583 237.517 230.31 239.545 226.966C239.923 228.155 244.395 230.31 247.151 225.016C249.328 226.022 254.673 224.966 256.801 218.449C260.84 222.21 264.534 215.366 263.74 208.777C266.901 210.149 266.217 202.555 262.434 197.677C262.44 197.683 256.773 189.155 250.178 187.777Z" fill="#FAEACE"/>
<path d="M239.545 226.972C239.923 228.161 244.395 230.316 247.15 225.022C249.328 226.027 254.673 224.972 256.8 218.455C260.839 222.216 264.534 215.372 263.739 208.783C266.9 210.155 266.217 202.561 262.434 197.683C266.028 197.45 263.684 191.072 258.823 186.705C263.256 185.8 260.534 181.672 256.55 178.555" stroke="black" stroke-width="2.5" stroke-miterlimit="10" stroke-linecap="round" stroke-linejoin="round"/>
<path d="M194.406 171.605C189.834 173.772 186.267 177.194 190.39 179.055C184.684 182.239 180.989 187.939 184.439 188.961C179.667 192.889 177.328 200.139 180.712 199.5C178.484 205.75 180.578 213.244 185.345 210.466C185.984 217.289 189.917 219.383 192.267 218.883C193.789 224.661 199.589 224.355 200.223 223.277" stroke="black" stroke-width="2.5" stroke-miterlimit="10" stroke-linecap="round" stroke-linejoin="round"/>
<path d="M243.534 167.416C246.656 164.583 241.484 162.983 236.912 164C239.25 161.333 235.628 158.377 228.05 161.227C225.062 158.344 218.995 157.922 219.773 161.194C216.839 158.955 209.873 159.705 211.312 162.794" stroke="black" stroke-width="2.5" stroke-miterlimit="10" stroke-linecap="round" stroke-linejoin="round"/>
<path d="M212.645 185.294C214.109 185.294 215.295 184.107 215.295 182.644C215.295 181.18 214.109 179.994 212.645 179.994C211.182 179.994 209.995 181.18 209.995 182.644C209.995 184.107 211.182 185.294 212.645 185.294Z" fill="black"/>
<path d="M229.989 187.233C231.452 187.233 232.639 186.047 232.639 184.583C232.639 183.12 231.452 181.933 229.989 181.933C228.525 181.933 227.339 183.12 227.339 184.583C227.339 186.047 228.525 187.233 229.989 187.233Z" fill="black"/>
<path d="M222.947 187.218C223.054 186.258 222.118 185.365 220.855 185.224C219.593 185.083 218.482 185.747 218.375 186.707C218.268 187.668 219.204 188.561 220.466 188.702C221.729 188.843 222.839 188.179 222.947 187.218Z" fill="black"/>
<path d="M229.139 192.005C229.139 192.005 227.472 193.338 225.083 193.072C222.695 192.805 222.006 190.927 220.6 190.772C219.2 190.616 219.25 190.755 216.572 191.738C213.895 192.722 211.733 190.322 211.733 190.322" stroke="black" stroke-width="2.5" stroke-miterlimit="10" stroke-linecap="round" stroke-linejoin="round"/>
<path d="M225.639 193.1C225.461 193.1 225.278 193.089 225.089 193.066C222.883 192.822 222.122 191.205 220.917 190.833L219.261 190.772C218.733 190.889 218.095 191.172 216.578 191.733C215.95 191.966 215.356 192.005 214.806 191.939C215.178 193.828 216.789 197.711 220.095 198.083C223.067 198.416 224.572 195.1 225.639 193.1Z" fill="#FF8053" stroke="black" stroke-width="2.5" stroke-miterlimit="10" stroke-linecap="round" stroke-linejoin="round"/>
</svg>
