<svg width="638" height="638" viewBox="0 0 638 638" fill="none" xmlns="http://www.w3.org/2000/svg">
<path d="M426.115 317.63C437.528 392.11 433.558 430.733 432.684 440.622C438.981 465.528 442.715 499.543 411.677 500.098C387.492 500.535 374.673 459.561 374.673 459.561L369.758 459.597C369.758 459.597 357.518 500.748 333.321 500.641C302.272 500.511 305.545 466.449 311.488 441.461C310.472 431.584 305.958 393.032 316.344 318.386L426.115 317.63Z" fill="#848484"/>
<path d="M333.322 500.641C345.468 500.689 353.714 490.351 360.094 480.036C346.543 480.072 318.766 473.739 307.223 470.951C307.164 487.137 313.851 500.57 333.322 500.641Z" fill="white"/>
<path d="M437.363 470.43C424.579 473.667 396.956 480.236 384.609 479.847C391.131 490.078 399.531 500.322 411.677 500.097C430.994 499.755 437.563 486.427 437.363 470.43Z" fill="white"/>
<path d="M426.115 317.63C437.528 392.11 433.558 430.733 432.684 440.622C438.981 465.528 442.715 499.543 411.677 500.098C387.492 500.535 374.673 459.561 374.673 459.561L369.758 459.597C369.758 459.597 357.518 500.748 333.321 500.641C302.272 500.511 305.545 466.449 311.488 441.461C310.472 431.584 305.958 393.032 316.344 318.386L426.115 317.63Z" stroke="black" stroke-width="5.31667" stroke-miterlimit="10" stroke-linecap="round" stroke-linejoin="round"/>
<path d="M371.068 441.341C391.054 441.201 407.13 422.908 406.973 400.481C406.817 378.054 390.488 359.986 370.501 360.126C350.515 360.265 334.439 378.559 334.596 400.985C334.752 423.412 351.081 441.48 371.068 441.341Z" fill="white"/>
<path d="M279.92 218.303C273.091 198.607 274.142 136.237 296.059 127.163C317.975 118.089 345.645 155.79 345.645 155.79C345.645 155.79 361.04 172.745 317.373 199.068C281.007 220.984 279.92 218.303 279.92 218.303Z" fill="#848484" stroke="black" stroke-width="5.31667" stroke-miterlimit="10" stroke-linecap="round" stroke-linejoin="round"/>
<path d="M300.949 143.043C308.818 137.631 323.302 153.924 327.19 160.056C327.993 161.32 337.161 175.734 318.742 186.297C309.55 191.566 293.021 190.881 293.021 190.881C293.021 190.881 291.131 149.801 300.949 143.043Z" fill="white"/>
<path d="M300.949 143.042C308.818 137.631 326.576 158.638 330.463 164.758" stroke="black" stroke-width="5.31667" stroke-miterlimit="10" stroke-linecap="round" stroke-linejoin="round"/>
<path d="M466.38 235.93C480.381 220.476 503.987 162.501 487.21 145.748C467.644 126.206 418.589 158.709 418.589 158.709C418.589 158.709 409.574 162.253 439.454 203.569C464.336 237.962 466.38 235.93 466.38 235.93Z" fill="#848484" stroke="black" stroke-width="5.31667" stroke-miterlimit="10" stroke-linecap="round" stroke-linejoin="round"/>
<path d="M476.482 158.449C471.366 150.391 451.659 159.713 445.669 163.825C444.429 164.675 434.61 168.55 438.096 178.558C448.434 208.189 463.415 210.044 463.415 210.044C463.415 210.044 482.874 168.515 476.482 158.449Z" fill="white"/>
<path d="M476.483 158.449C471.367 150.391 446.639 161.58 440.648 165.703" stroke="black" stroke-width="5.31667" stroke-miterlimit="10" stroke-linecap="round" stroke-linejoin="round"/>
<path d="M454.92 194.768C454.92 194.768 481.007 218.019 479.259 259.147C498.694 282.398 488.025 296.151 477.522 293.622C480.18 313.365 467.775 315.397 462.493 314.806C456.397 330.118 425.785 349.743 379.743 347.427L358.523 346.352C314.206 344.119 283.995 321.423 279.482 305.567C274.165 305.626 262.032 302.353 266.663 282.977C255.959 284.43 246.731 269.674 268.4 248.502C270.81 207.41 299.095 186.899 299.095 186.899C299.095 186.899 304.258 182.409 305.829 181.701C301.706 177.459 308.653 162.123 327.249 169.047C323.256 155.885 335.177 150.167 350.182 162.561C350.182 162.561 376.245 146.587 407.212 165.443C423.375 154.621 434.67 161.509 429.377 174.21C448.576 169.2 455.322 184.808 450.289 187.892C448.859 188.766 449.001 189.179 449.001 189.179C449.001 189.179 453.88 193.61 454.92 194.768Z" fill="#848484"/>
<path d="M462.482 314.806C467.775 315.409 480.168 313.377 477.51 293.622C487.86 296.103 498.339 282.8 480.097 260.198C468.413 260.068 456.161 264.57 450.832 268.799C435.496 236.273 383.759 230.921 378.927 277.767L370.598 277.341C370.515 230.248 318.494 230.366 299.969 261.179C294.475 255.838 280.332 249.281 267.383 249.506C247.038 270.134 256.112 284.395 266.651 282.965C262.02 302.342 274.153 305.614 279.47 305.555C283.983 321.411 314.194 344.107 358.511 346.34L379.731 347.415C425.773 349.754 456.397 330.13 462.482 314.806Z" fill="white"/>
<path d="M473.446 223.477C477.191 233.142 479.85 245.11 479.247 259.158C498.682 282.41 488.014 296.162 477.51 293.634C480.169 313.376 467.763 315.408 462.482 314.818C456.385 330.13 425.773 349.754 379.731 347.438L358.511 346.363C314.194 344.13 283.984 321.434 279.47 305.579C274.154 305.638 262.02 302.365 266.651 282.989C255.947 284.442 246.72 269.685 268.388 248.513C269.333 232.315 274.307 219.307 279.99 209.5" stroke="black" stroke-width="5.31667" stroke-miterlimit="10" stroke-linecap="round" stroke-linejoin="round"/>
<path d="M305.83 181.701C301.706 177.459 308.654 162.123 327.25 169.047C323.257 155.885 335.178 150.167 350.183 162.561C350.183 162.561 376.246 146.587 407.213 165.443C423.375 154.621 434.67 161.509 429.377 174.21C448.576 169.2 455.323 184.808 450.29 187.892C448.86 188.766 449.002 189.179 449.002 189.179" stroke="black" stroke-width="5.31667" stroke-miterlimit="10" stroke-linecap="round" stroke-linejoin="round"/>
<path d="M358.938 233.91C359.647 231.169 357.26 226.75 349.415 226.348C341.57 225.947 339.514 230.283 339.668 232.457C339.857 234.985 341.346 236.627 347.938 236.804C354.543 236.982 357.768 238.411 358.938 233.91Z" fill="white"/>
<path d="M383.53 280.726C383.693 277.5 379.831 274.683 374.904 274.435C369.978 274.186 365.852 276.6 365.689 279.825C365.526 283.051 369.388 285.868 374.315 286.116C379.242 286.365 383.367 283.951 383.53 280.726Z" fill="black"/>
<path d="M345.114 274.825C349.936 274.825 353.845 270.916 353.845 266.093C353.845 261.271 349.936 257.362 345.114 257.362C340.292 257.362 336.383 261.271 336.383 266.093C336.383 270.916 340.292 274.825 345.114 274.825Z" fill="black"/>
<path d="M398.256 235.895C397.819 233.095 400.655 228.936 408.488 229.338C416.333 229.739 417.94 234.241 417.562 236.403C417.124 238.896 415.47 240.384 408.89 239.9C402.309 239.416 398.977 240.491 398.256 235.895Z" fill="white"/>
<path d="M345.857 295.855C350.595 302.164 366.096 305.472 373.587 297.261C383.204 307.103 395.716 304.444 402.32 298.962" stroke="black" stroke-width="5.31667" stroke-miterlimit="10" stroke-linecap="round" stroke-linejoin="round"/>
<path d="M322.464 339.617C307.613 327.294 271.483 292.31 255.379 310.706C242.241 325.711 250.382 340.397 262.22 349.801C277.331 361.805 312.421 398.561 312.421 398.561" fill="#848484"/>
<path d="M255.391 310.707C242.253 325.712 250.393 340.397 262.232 349.802C263.177 350.558 264.205 351.409 265.304 352.342C273.054 340.563 284.609 323.821 291.521 314.996C277.934 306.158 263.874 301.007 255.391 310.707Z" fill="white"/>
<path d="M322.464 339.617C307.613 327.294 271.483 292.31 255.379 310.706C242.241 325.711 250.382 340.397 262.22 349.801C277.331 361.805 309.893 397.521 309.893 397.521" stroke="black" stroke-width="5.31667" stroke-miterlimit="10" stroke-linecap="round" stroke-linejoin="round"/>
<path d="M423.787 343.138C438.863 331.11 475.678 296.812 491.415 315.515C504.258 330.78 495.846 345.3 483.83 354.468C468.483 366.177 429.116 405.508 429.116 405.508" fill="#848484"/>
<path d="M491.415 315.527C504.258 330.792 495.846 345.312 483.83 354.48C482.873 355.213 481.822 356.052 480.711 356.962C473.185 345.04 461.961 328.086 455.215 319.119C468.955 310.541 483.11 305.662 491.415 315.527Z" fill="white"/>
<path d="M423.787 343.138C438.863 331.11 475.678 296.812 491.415 315.515C504.258 330.78 495.846 345.3 483.83 354.468C468.483 366.177 434.338 403.512 434.338 403.512" stroke="black" stroke-width="5.31667" stroke-miterlimit="10" stroke-linecap="round" stroke-linejoin="round"/>
<path d="M362.775 458.333C362.775 458.333 371.424 459.467 381.242 458.203" stroke="black" stroke-width="5.31667" stroke-miterlimit="10" stroke-linecap="round" stroke-linejoin="round"/>
<path d="M398.576 269.307C398.576 269.307 405.358 262.431 415.613 265.952" stroke="black" stroke-width="5.31667" stroke-miterlimit="10" stroke-linecap="round" stroke-linejoin="round"/>
<path d="M182.658 370.713C182.658 370.713 206.748 380.602 222.663 383.19C238.577 385.765 237.715 397.817 236.864 403.405C236.002 408.993 229.551 417.169 208.473 413.731C187.395 410.293 171.906 403.842 171.906 403.842L182.658 370.713Z" fill="#8B6D5B"/>
<path d="M222.662 383.19C220.807 382.895 218.846 382.493 216.826 382.021C216.495 391 215.691 403.913 213.777 414.393C230.649 415.74 236.072 408.509 236.852 403.417C237.714 397.805 238.577 385.766 222.662 383.19Z" fill="#E7C79D"/>
<path d="M182.658 370.713C182.658 370.713 206.748 380.602 222.663 383.19C238.577 385.765 237.715 397.817 236.864 403.405C236.002 408.993 229.551 417.169 208.473 413.731C187.395 410.293 171.906 403.842 171.906 403.842L182.658 370.713Z" stroke="black" stroke-width="5.31667" stroke-miterlimit="10" stroke-linecap="round" stroke-linejoin="round"/>
<path d="M99.99 371.777C99.99 371.777 88.1279 416.815 102.471 451.113C102.471 451.113 88.6832 493.363 117.263 493.954C137.171 494.355 146.044 467.5 146.044 467.5C146.044 467.5 143.752 494.934 168.528 494.934C193.303 494.934 185.671 452.259 185.671 452.259C185.671 452.259 196.647 421.399 183.686 368.433C170.725 315.467 105.756 341.968 99.99 371.777Z" fill="#8B6D5B"/>
<path d="M185.612 478.406L147.049 478.051C148.951 485.778 154.232 494.935 168.54 494.935C179.043 494.935 183.71 487.243 185.612 478.406Z" fill="#E7C79D"/>
<path d="M99.1971 469.769C98.76 481.17 101.832 493.635 117.274 493.954C125.509 494.119 131.853 489.618 136.473 484.278L99.1971 469.769Z" fill="#E7C79D"/>
<path d="M183.698 368.434C170.737 315.468 108.118 341.981 102.364 371.778C102.364 371.778 86.2962 410.932 102.482 451.114C102.482 451.114 85.221 491.343 117.275 493.955C137.124 495.561 146.056 467.501 146.056 467.501C146.056 467.501 143.763 494.935 168.539 494.935C193.315 494.935 185.682 452.26 185.682 452.26C185.682 452.26 191.85 434.904 189.475 403.878" stroke="black" stroke-width="5.31667" stroke-miterlimit="10" stroke-linecap="round" stroke-linejoin="round"/>
<path d="M146.057 467.501L152.531 465.587" stroke="black" stroke-width="5.31667" stroke-miterlimit="10" stroke-linecap="round" stroke-linejoin="round"/>
<path d="M177.611 409.534C178.154 385.287 163.798 365.3 145.547 364.891C127.295 364.482 112.058 383.806 111.515 408.053C110.972 432.299 125.327 452.287 143.579 452.696C161.831 453.105 177.068 433.78 177.611 409.534Z" fill="#E7C79D"/>
<path d="M227.058 293.705C242.653 278.133 250.286 218.326 237.171 211.308C216.165 200.084 179.137 231.866 169.768 238.766C128.948 222.391 95.8306 246.705 95.8306 246.705C85.2091 241.944 42.2741 218.752 24.1265 234.182C12.7961 243.823 32.9522 300.64 51.5014 312.549C54.2307 346.86 82.4917 389.464 147.615 382.469C212.738 375.475 229.173 330.78 227.058 293.705Z" fill="#8B6D5B"/>
<path d="M222.981 328.357C215.963 335.234 205.164 342.346 190.62 343.067C160.717 344.544 151.525 321.221 150.533 317.027C147.437 303.818 151.111 287.478 138.541 288.837C127.966 289.971 132.94 308.733 132.243 319C131.948 323.301 128.143 348.053 98.6064 352.968C82.3492 355.673 69.0458 349.352 60.7754 343.386C73.9725 367.571 101.56 387.431 147.614 382.481C192.936 377.601 214.663 354.468 222.981 328.357Z" fill="#E7C79D"/>
<path d="M227.058 293.705C242.653 278.133 250.286 218.326 237.171 211.308C216.165 200.084 179.137 231.866 169.768 238.766C128.948 222.391 95.8306 246.705 95.8306 246.705C85.2091 241.944 42.2741 218.752 24.1265 234.182C12.7961 243.823 32.9522 300.64 51.5014 312.549C54.2307 346.86 82.4917 389.464 147.615 382.469C212.738 375.475 229.173 330.78 227.058 293.705Z" stroke="black" stroke-width="5.31667" stroke-miterlimit="10" stroke-linecap="round" stroke-linejoin="round"/>
<path d="M113.791 337.715C119.735 337.715 124.554 332.896 124.554 326.951C124.554 321.007 119.735 316.188 113.791 316.188C107.846 316.188 103.027 321.007 103.027 326.951C103.027 332.896 107.846 337.715 113.791 337.715Z" fill="#957766"/>
<path d="M172.226 331.441C178.171 331.441 182.989 326.622 182.989 320.678C182.989 314.733 178.171 309.915 172.226 309.915C166.282 309.915 161.463 314.733 161.463 320.678C161.463 326.622 166.282 331.441 172.226 331.441Z" fill="#957766"/>
<path d="M43.2308 245.819C46.5153 241.743 77.1748 251.597 80.3412 255.968C83.5075 260.34 72.6852 266.212 67.9947 275.805C63.3042 285.399 63.2215 291.732 58.661 292.299C51.9856 293.126 43.8216 266.282 42.9 255.271C42.3447 248.525 42.0493 247.284 43.2308 245.819Z" fill="#E7C79D"/>
<path d="M43.2305 245.819C46.515 241.743 77.1744 251.597 80.3408 255.968" stroke="black" stroke-width="5.31667" stroke-miterlimit="10" stroke-linecap="round" stroke-linejoin="round"/>
<path d="M220.973 226.727C216.897 223.442 189.026 239.581 186.864 244.532C184.702 249.482 196.517 252.92 203.145 261.297C209.773 269.674 211.191 275.841 215.775 275.427C222.474 274.813 224.754 246.859 223.313 235.907C222.415 229.184 222.45 227.908 220.973 226.727Z" fill="#E7C79D"/>
<path d="M220.975 226.727C216.898 223.442 189.027 239.581 186.865 244.532" stroke="black" stroke-width="5.31667" stroke-miterlimit="10" stroke-linecap="round" stroke-linejoin="round"/>
<path d="M113.789 335.116C118.298 335.116 121.953 331.461 121.953 326.952C121.953 322.443 118.298 318.788 113.789 318.788C109.28 318.788 105.625 322.443 105.625 326.952C105.625 331.461 109.28 335.116 113.789 335.116Z" fill="black"/>
<path d="M172.309 328.83C176.817 328.83 180.473 325.175 180.473 320.666C180.473 316.157 176.817 312.502 172.309 312.502C167.8 312.502 164.145 316.157 164.145 320.666C164.145 325.175 167.8 328.83 172.309 328.83Z" fill="black"/>
<path d="M123.867 308.544C123.844 311.84 120.406 312.963 115.857 313.211C111.308 313.459 107.539 312.301 107.185 309.028C106.807 305.531 109.961 303.334 115.29 303.038C120.606 302.743 123.891 304.929 123.867 308.544Z" fill="#E7C79D"/>
<path d="M159.418 304.716C160.139 307.93 163.731 308.296 168.232 307.575C172.733 306.854 176.172 304.929 175.817 301.644C175.439 298.147 171.895 296.67 166.625 297.509C161.356 298.348 158.627 301.207 159.418 304.716Z" fill="#E7C79D"/>
<path d="M144.285 338.563C148.145 338.149 151.017 335.414 150.699 332.456C150.382 329.497 146.995 327.435 143.134 327.85C139.274 328.264 136.402 330.999 136.72 333.957C137.038 336.916 140.425 338.978 144.285 338.563Z" fill="black"/>
<path d="M128.795 349.424C133.084 354.799 142.914 352.507 145.56 347.628C149.613 352.496 160.081 351.196 162.798 345.241" stroke="black" stroke-width="5.31667" stroke-miterlimit="10" stroke-linecap="round" stroke-linejoin="round"/>
<path d="M111.248 380.815C111.248 380.815 85.4323 365.326 76.4058 361.888C67.3793 358.45 58.7663 358.013 53.1779 368.776C48.0148 378.7 51.4529 387.703 63.0669 395.017C74.6808 402.33 98.3459 420.395 98.3459 420.395" fill="#8B6D5B"/>
<path d="M76.4058 361.888C67.3675 358.45 58.7663 358.013 53.1779 368.776C48.0148 378.7 51.4529 387.703 63.0669 395.017C63.2323 395.123 63.3977 395.229 63.5631 395.336C68.3481 387.077 77.0792 373.892 83.9318 365.409C80.9427 363.873 78.2962 362.609 76.4058 361.888Z" fill="#E7C79D"/>
<path d="M111.248 380.815C111.248 380.815 85.4323 365.326 76.4058 361.888C67.3793 358.45 58.7663 358.013 53.1779 368.776C48.0148 378.7 51.4529 387.703 63.0669 395.017C74.6808 402.33 98.3459 420.395 98.3459 420.395" stroke="black" stroke-width="5.31667" stroke-miterlimit="10" stroke-linecap="round" stroke-linejoin="round"/>
<path d="M306.643 423.207C319.485 409.194 313.117 379.764 301.905 368.138C310.081 361.652 312.905 345.867 303.027 340.219C294.036 335.08 284.986 342.193 281.04 349.53C244.379 334.796 215.35 349.53 215.35 349.53C211.404 342.193 202.342 335.092 193.362 340.219C183.497 345.855 186.309 361.652 194.485 368.138C194.485 368.138 172.615 397.663 189.735 422.569C165.692 468.268 173.277 506.749 213.459 507.789C230.39 508.226 232.777 505.414 248.36 505.414C263.944 505.414 265.976 507.446 289.7 507.446C310.601 507.446 320.502 494.71 321.648 476.751C322.345 465.705 318.635 438.46 306.643 423.207Z" fill="#F2BA67"/>
<path d="M304.032 420.123C304.953 411.38 300.641 403.086 289.204 400.168C275.511 396.682 266.307 406.146 249.376 406.146C232.446 406.146 229.22 399.423 212.041 400.924C198.017 402.141 191.295 410.671 192.559 419.178C192.842 421.092 193.15 427.354 192.441 428.937C185.789 444.013 173.986 507.801 213.459 507.801C230.402 507.801 232.776 505.426 248.36 505.426C263.944 505.426 265.976 507.458 289.7 507.458C321.577 507.458 312.16 446.99 305.78 430.083C303.89 425.062 303.854 421.848 304.032 420.123Z" fill="white"/>
<path d="M254.692 343.267C250.179 342.901 245.926 342.913 242.015 343.173C241.92 349.529 242.464 362.136 248.123 362.136C253.204 362.136 254.432 350.77 254.692 343.267Z" fill="#EF9B49"/>
<path d="M234.973 359.738C238.115 359.36 236.946 350.416 235.646 343.835C232.043 344.343 228.829 345.028 226.088 345.749C227.305 350.463 230.412 360.281 234.973 359.738Z" fill="#EF9B49"/>
<path d="M261 359.738C265.525 360.281 268.621 350.605 269.862 345.843C266.589 344.993 263.399 344.355 260.315 343.906C259.027 350.487 257.869 359.36 261 359.738Z" fill="#EF9B49"/>
<path d="M306.643 423.207C319.485 409.194 313.117 379.764 301.905 368.138C310.081 361.652 312.905 345.867 303.027 340.219C294.036 335.08 284.986 342.193 281.04 349.53C244.379 334.796 215.35 349.53 215.35 349.53C211.404 342.193 202.342 335.092 193.362 340.219C183.497 345.855 186.309 361.652 194.485 368.138C194.485 368.138 172.615 397.663 189.735 422.569C165.692 468.268 173.277 506.749 213.459 507.789C230.39 508.226 232.777 505.414 248.36 505.414C263.944 505.414 265.976 507.446 289.7 507.446C310.601 507.446 320.502 494.71 321.648 476.751C322.345 465.705 318.635 438.46 306.643 423.207Z" stroke="black" stroke-width="5.31667" stroke-miterlimit="10" stroke-linecap="round" stroke-linejoin="round"/>
<path d="M196.482 350.345C198.963 346.918 204.493 350.345 206.395 354.161L199.53 360.635C199.53 360.635 192.536 355.803 196.482 350.345Z" fill="#FDCDCE"/>
<path d="M299.909 350.345C297.428 346.918 291.898 350.345 289.996 354.161L296.86 360.635C296.86 360.635 303.855 355.803 299.909 350.345Z" fill="#FDCDCE"/>
<path d="M196.48 350.345C198.962 346.918 204.491 350.345 206.393 354.161" stroke="black" stroke-width="5.31667" stroke-miterlimit="10" stroke-linecap="round" stroke-linejoin="round"/>
<path d="M299.909 350.345C297.428 346.918 291.898 350.345 289.996 354.161" stroke="black" stroke-width="5.31667" stroke-miterlimit="10" stroke-linecap="round" stroke-linejoin="round"/>
<path d="M232.079 400.333C234.957 400.333 237.29 398.001 237.29 395.123C237.29 392.245 234.957 389.913 232.079 389.913C229.202 389.913 226.869 392.245 226.869 395.123C226.869 398.001 229.202 400.333 232.079 400.333Z" fill="black"/>
<path d="M267.972 400.333C270.85 400.333 273.182 398.001 273.182 395.123C273.182 392.245 270.85 389.913 267.972 389.913C265.094 389.913 262.762 392.245 262.762 395.123C262.762 398.001 265.094 400.333 267.972 400.333Z" fill="black"/>
<path d="M249.932 403.381C251.785 403.381 253.287 402.144 253.287 400.617C253.287 399.09 251.785 397.852 249.932 397.852C248.078 397.852 246.576 399.09 246.576 400.617C246.576 402.144 248.078 403.381 249.932 403.381Z" fill="black"/>
<path d="M239.062 410.057C241.78 414.133 248.585 413.684 250.239 409.903C252.661 414.582 259.16 413.082 260.967 409.903" stroke="black" stroke-width="5.31667" stroke-miterlimit="10" stroke-linecap="round" stroke-linejoin="round"/>
<path d="M215.639 511.906C220.584 510.273 222.824 503.6 220.644 497.001C218.464 490.403 212.689 486.378 207.745 488.012C202.801 489.645 200.56 496.318 202.74 502.917C204.92 509.515 210.695 513.54 215.639 511.906Z" fill="#FDCDCE" stroke="black" stroke-width="5.31667" stroke-miterlimit="10" stroke-linecap="round" stroke-linejoin="round"/>
<path d="M291.236 502.899C293.416 496.301 291.175 489.628 286.231 487.994C281.287 486.361 275.512 490.385 273.332 496.984C271.152 503.582 273.393 510.255 278.337 511.889C283.281 513.522 289.056 509.497 291.236 502.899Z" fill="#FDCDCE" stroke="black" stroke-width="5.31667" stroke-miterlimit="10" stroke-linecap="round" stroke-linejoin="round"/>
<path d="M312.692 444.414C321.4 436.758 328.264 424.364 320.868 417.76C313.484 411.167 301.338 425.416 301.338 425.416C301.338 425.416 297.12 430.697 302.39 439.404C307.683 448.112 312.692 444.414 312.692 444.414Z" fill="#FDCDCE"/>
<path d="M312.692 444.414C321.399 436.758 328.264 424.364 320.868 417.76C313.484 411.167 301.338 425.416 301.338 425.416" stroke="black" stroke-width="5.31667" stroke-miterlimit="10" stroke-linecap="round" stroke-linejoin="round"/>
<path d="M183.343 444.414C174.635 436.758 167.771 424.364 175.167 417.76C182.551 411.167 194.697 425.416 194.697 425.416C194.697 425.416 198.915 430.697 193.645 439.404C188.364 448.112 183.343 444.414 183.343 444.414Z" fill="#FDCDCE"/>
<path d="M194.697 425.416C194.697 425.416 182.564 411.167 175.168 417.76C167.783 424.352 174.636 436.758 183.343 444.414" stroke="black" stroke-width="5.31667" stroke-miterlimit="10" stroke-linecap="round" stroke-linejoin="round"/>
<path d="M574.531 418.977C570.75 412.951 577.201 399.128 582.199 398.844C585.483 398.667 584.822 399.636 584.822 399.636C593.943 386.935 606.112 387.703 612.87 390.917C619.628 394.13 626.067 403.854 619.959 403.051C626.209 407.895 631.088 417.807 626.091 420.596C623.763 421.895 620.006 419.556 620.006 419.556C620.006 419.556 627.757 433.202 620.526 437.278C618.033 438.684 613.378 437.373 613.378 437.373C613.378 437.373 616.119 447.12 608.522 452.082C598.09 458.887 578.914 449.258 578.914 449.258L574.531 418.977Z" fill="#F1AB61" stroke="black" stroke-width="5.31667" stroke-miterlimit="10" stroke-linecap="round" stroke-linejoin="round"/>
<path d="M410.565 464.322C410.565 464.322 398.29 468.942 394.485 469.521C390.681 470.088 378.76 474.046 379.599 484.289C380.438 494.533 390.078 499.542 404.126 499.294C418.174 499.046 435.731 498.231 435.731 498.231" fill="#F1AB61"/>
<path d="M410.565 464.322C410.565 464.322 398.29 468.942 394.485 469.521C390.681 470.088 378.76 474.046 379.599 484.289C380.438 494.533 390.078 499.542 404.126 499.294C418.174 499.046 435.731 498.231 435.731 498.231" stroke="black" stroke-width="5.31667" stroke-miterlimit="10" stroke-linecap="round" stroke-linejoin="round"/>
<path d="M597.179 461.877C598.042 462.468 611.286 466.745 615.527 473.184C619.769 479.623 620.383 494.699 612.798 498.042C605.213 501.386 588.613 489.819 588.613 489.819L597.179 461.877Z" fill="#F1AB61" stroke="black" stroke-width="5.31667" stroke-miterlimit="10" stroke-linecap="round" stroke-linejoin="round"/>
<path d="M553.063 400.499C558.994 398.868 565.244 399.553 568.848 404.504C577.413 403.878 586.605 408.178 586.582 415.752C598.089 419.745 602.674 428.642 600.346 433.568C606.572 441.815 605.237 446.754 603.583 451.35C609.148 460.908 604.54 473.219 601.055 475.641C609.928 480.721 617.383 487.739 617.596 494.568C617.974 506.454 610.4 508.829 589.134 508.462C567.855 508.084 560.719 510.282 559.868 506.395C557.198 511.688 543.836 512.019 539.641 509.573C535.802 511.475 526.716 514.429 520.431 509.774C517.111 512.42 505.249 512.196 500.853 510.176C497.557 511.83 489.57 513.117 481.631 509.455C469.97 512.704 468.351 509.065 463.4 509.065C458.45 509.065 450.132 513.661 443.516 508.663C430.603 506.123 432.233 502.815 422.97 497.156C415.999 498.455 408.06 506.229 404.114 495.939C397.828 493.269 397.84 481.253 402.188 470.986C398.549 468.658 399.057 454.114 404.385 444.851L553.063 400.499Z" fill="#F1AB61" stroke="black" stroke-width="5.31667" stroke-miterlimit="10" stroke-linecap="round" stroke-linejoin="round"/>
<path d="M410.814 478.062C410.814 478.062 406.183 479.433 402.378 480C398.574 480.567 387.444 483.757 388.283 494.001C389.122 504.244 398.763 509.254 412.811 509.006C426.859 508.757 444.415 507.942 444.415 507.942" fill="#F1AB61"/>
<path d="M410.814 478.062C410.814 478.062 406.183 479.433 402.378 480C398.574 480.567 387.444 483.757 388.283 494.001C389.122 504.244 398.763 509.254 412.811 509.006C426.859 508.757 444.415 507.942 444.415 507.942" stroke="black" stroke-width="5.31667" stroke-miterlimit="10" stroke-linecap="round" stroke-linejoin="round"/>
<path d="M406.029 370.631C406.029 370.631 418.919 332.315 433.026 332.02C445.243 331.76 449.862 346.399 450.807 347.592C451.753 348.785 411.228 375.002 406.029 370.631Z" fill="#F1AB61" stroke="black" stroke-width="5.31667" stroke-miterlimit="10" stroke-linecap="round" stroke-linejoin="round"/>
<path d="M417.441 363.152C417.441 363.152 426.846 341.637 434.195 341.484C440.563 341.354 438.401 349.967 438.897 350.593C439.382 351.207 420.147 365.433 417.441 363.152Z" fill="#FAEACE"/>
<path d="M552.947 387.054C552.947 387.054 555.275 349.093 541.593 345.69C529.731 342.736 519.511 353.807 518.129 354.445C511.773 357.375 546.91 390.173 552.947 387.054Z" fill="#F1AB61" stroke="black" stroke-width="5.31667" stroke-miterlimit="10" stroke-linecap="round" stroke-linejoin="round"/>
<path d="M543.472 377.235C543.472 377.235 544.689 357.457 537.553 355.685C531.373 354.149 525.95 359.75 525.324 360.246C524.71 360.742 540.329 378.866 543.472 377.235Z" fill="#FAEACE"/>
<path d="M480.935 481.584C484.562 485.506 505.12 489.795 509.432 482.694C510.236 485.223 519.747 489.807 525.607 478.547C530.238 480.686 541.604 478.441 546.129 464.582C554.719 472.581 562.575 458.025 560.886 444.013C567.609 446.931 566.155 430.78 558.109 420.407C565.754 419.91 560.768 406.347 550.43 397.061C559.858 395.135 554.069 386.356 545.598 379.728C549.118 374.707 538.154 368.87 531.821 367.358C536.429 364.889 532.814 358.532 517.915 356.051C524.555 350.026 513.556 346.623 503.832 348.785C508.806 343.114 501.103 336.829 484.988 342.89C478.631 336.758 465.729 335.86 467.383 342.819C461.145 338.057 446.329 339.652 449.39 346.221C436.251 345.028 425.063 352.98 431.242 355.839C416.887 355.862 413.662 365.255 413.425 364.96C403.702 369.568 396.117 376.845 404.883 380.803C392.749 387.573 384.892 399.695 392.229 401.869C382.081 410.222 377.106 425.641 384.302 424.282C379.564 437.574 384.018 453.512 394.155 447.604C395.514 462.113 406.1 466.815 411.086 465.752C414.323 478.039 424.602 475.665 425.949 473.372C428.595 481.253 444.108 482.99 448.515 479.953C456.585 490.327 470.42 488.259 480.935 481.584Z" fill="#F1AB61"/>
<path d="M532.046 399.341C515.446 395.879 508.274 406.973 496.164 405.626C486.984 404.598 484.94 392.181 471.022 390.621C455.498 388.885 451.008 402.472 441.107 401.361C431.206 400.25 433.617 390.503 421.837 389.18C405.427 387.349 394.923 397.332 391.32 401.479C391.603 401.621 391.899 401.751 392.241 401.857C382.092 410.21 377.118 425.629 384.313 424.27C379.576 437.562 384.03 453.5 394.167 447.592C395.526 462.101 406.112 466.803 411.098 465.74C414.335 478.016 424.448 477.129 425.795 474.837C428.442 482.718 444.12 482.978 448.527 479.941C456.573 490.327 469.475 491 479.99 484.325C483.617 488.247 505.12 489.795 509.432 482.682C510.236 485.211 519.747 489.795 525.607 478.535C530.238 480.674 541.604 478.429 546.129 464.57C554.718 472.569 562.575 458.013 560.886 444.001C567.608 446.919 566.155 430.768 558.109 420.395C558.121 420.406 546.07 402.271 532.046 399.341Z" fill="#FAEACE"/>
<path d="M509.432 482.694C510.235 485.223 519.746 489.807 525.606 478.547C530.238 480.686 541.603 478.441 546.128 464.582C554.718 472.581 562.575 458.025 560.885 444.012C567.608 446.931 566.155 430.78 558.109 420.406C565.753 419.91 560.767 406.347 550.429 397.06C559.857 395.135 554.068 386.356 545.597 379.728" stroke="black" stroke-width="5.31667" stroke-miterlimit="10" stroke-linecap="round" stroke-linejoin="round"/>
<path d="M413.437 364.948C403.713 369.556 396.128 376.834 404.895 380.792C392.761 387.562 384.904 399.684 392.241 401.858C382.092 410.211 377.118 425.629 384.313 424.27C379.576 437.562 384.03 453.5 394.167 447.593C395.526 462.101 403.891 466.556 408.888 465.492C412.125 477.78 424.46 477.13 425.807 474.838" stroke="black" stroke-width="5.31667" stroke-miterlimit="10" stroke-linecap="round" stroke-linejoin="round"/>
<path d="M517.916 356.04C524.556 350.014 513.556 346.611 503.832 348.774C508.807 343.102 501.103 336.817 484.988 342.878C478.631 336.746 465.73 335.848 467.384 342.807C461.146 338.046 446.33 339.641 449.39 346.21" stroke="black" stroke-width="5.31667" stroke-miterlimit="10" stroke-linecap="round" stroke-linejoin="round"/>
<path d="M452.226 394.06C455.338 394.06 457.861 391.537 457.861 388.424C457.861 385.312 455.338 382.789 452.226 382.789C449.113 382.789 446.59 385.312 446.59 388.424C446.59 391.537 449.113 394.06 452.226 394.06Z" fill="black"/>
<path d="M489.11 398.183C492.223 398.183 494.746 395.66 494.746 392.547C494.746 389.435 492.223 386.912 489.11 386.912C485.998 386.912 483.475 389.435 483.475 392.547C483.475 395.66 485.998 398.183 489.11 398.183Z" fill="black"/>
<path d="M474.134 398.152C474.362 396.11 472.371 394.211 469.686 393.91C467.001 393.61 464.64 395.023 464.412 397.066C464.183 399.108 466.174 401.007 468.859 401.308C471.544 401.608 473.905 400.195 474.134 398.152Z" fill="black"/>
<path d="M487.303 408.332C487.303 408.332 483.758 411.167 478.678 410.6C473.598 410.033 472.133 406.04 469.144 405.709C466.166 405.378 466.273 405.674 460.578 407.765C454.883 409.856 450.287 404.752 450.287 404.752" stroke="black" stroke-width="5.31667" stroke-miterlimit="10" stroke-linecap="round" stroke-linejoin="round"/>
<path d="M479.859 410.659C479.481 410.659 479.091 410.636 478.69 410.588C473.999 410.069 472.38 406.631 469.817 405.839L466.296 405.709C465.173 405.957 463.815 406.56 460.589 407.753C459.254 408.249 457.99 408.332 456.82 408.19C457.612 412.207 461.038 420.466 468.068 421.257C474.389 421.966 477.591 414.913 479.859 410.659Z" fill="#FF8053" stroke="black" stroke-width="5.31667" stroke-miterlimit="10" stroke-linecap="round" stroke-linejoin="round"/>
</svg>
