<svg width="28" height="28" viewBox="0 0 28 28" fill="none" xmlns="http://www.w3.org/2000/svg">
<path d="M23.9082 19.4962C23.5554 20.3115 23.1377 21.0618 22.6537 21.7517C21.9941 22.6922 21.454 23.3432 21.0377 23.7048C20.3925 24.2982 19.7011 24.6021 18.9609 24.6193C18.4294 24.6193 17.7884 24.4681 17.0424 24.1613C16.2939 23.856 15.606 23.7048 14.977 23.7048C14.3174 23.7048 13.6099 23.856 12.8532 24.1613C12.0953 24.4681 11.4848 24.628 11.018 24.6438C10.308 24.6741 9.60044 24.3615 8.89413 23.7048C8.4433 23.3116 7.87945 22.6375 7.20393 21.6826C6.47919 20.6629 5.88335 19.4804 5.41655 18.1323C4.91663 16.6762 4.66602 15.2661 4.66602 13.901C4.66602 12.3373 5.00391 10.9886 5.6807 9.85845C6.2126 8.95064 6.92021 8.23453 7.80584 7.70884C8.69146 7.18313 9.6484 6.91522 10.6789 6.8981C11.2428 6.8981 11.9822 7.07252 12.9011 7.4153C13.8174 7.75925 14.4058 7.93366 14.6638 7.93366C14.8566 7.93366 15.5102 7.72971 16.6182 7.32312C17.666 6.94606 18.5504 6.78991 19.2748 6.85143C21.2379 7.00986 22.7128 7.78372 23.6936 9.17792C21.9379 10.2417 21.0694 11.7317 21.0867 13.6431C21.1025 15.1319 21.6427 16.3708 22.7041 17.3546C23.1852 17.8111 23.7224 18.164 24.3201 18.4146C24.1905 18.7905 24.0537 19.1506 23.9082 19.4963V19.4962ZM19.4059 1.77931C19.4059 2.94623 18.9796 4.0358 18.1298 5.04429C17.1043 6.24319 15.864 6.93596 14.5189 6.82664C14.5008 6.67994 14.4918 6.53227 14.4918 6.38446C14.4918 5.26422 14.9795 4.06532 15.8455 3.08507C16.2779 2.58874 16.8278 2.17606 17.4946 1.84686C18.16 1.52256 18.7894 1.34322 19.3814 1.3125C19.3987 1.46849 19.4059 1.62451 19.4059 1.77929V1.77931Z" fill="white"/>
</svg>
