<svg width="176" height="54" viewBox="0 0 176 54" fill="none" xmlns="http://www.w3.org/2000/svg">
<rect width="175.5" height="54" rx="12" fill="#1A1A1A"/>
<path d="M39.559 26.0132C39.574 24.848 39.8835 23.7054 40.4587 22.692C41.0339 21.6785 41.8561 20.8269 42.8489 20.2166C42.2182 19.3159 41.3862 18.5747 40.419 18.0518C39.4517 17.5288 38.3759 17.2387 37.2769 17.2043C34.9324 16.9581 32.6597 18.607 31.465 18.607C30.2473 18.607 28.4079 17.2287 26.4273 17.2694C25.1461 17.3108 23.8975 17.6833 22.8031 18.3507C21.7087 19.0181 20.8059 19.9576 20.1825 21.0777C17.4825 25.7525 19.4965 32.6227 22.0831 36.4014C23.3771 38.2518 24.8893 40.3186 26.8683 40.2453C28.8047 40.165 29.5279 39.0104 31.8655 39.0104C34.1813 39.0104 34.8598 40.2453 36.8789 40.1987C38.9568 40.165 40.2659 38.3402 41.5146 36.4723C42.4444 35.1539 43.1598 33.6968 43.6344 32.1549C42.4272 31.6443 41.397 30.7896 40.6723 29.6975C39.9475 28.6053 39.5603 27.324 39.559 26.0132ZM35.7454 14.7191C36.8783 13.359 37.4365 11.6108 37.3013 9.84585C35.5704 10.0276 33.9715 10.8549 32.8232 12.1628C32.2618 12.8018 31.8318 13.5451 31.5578 14.3503C31.2838 15.1555 31.1713 16.0069 31.2265 16.8556C32.0923 16.8646 32.9488 16.6769 33.7316 16.3068C34.5143 15.9367 35.2029 15.3938 35.7454 14.7191ZM64.0373 35.5611H57.429L55.842 40.247H53.0429L59.3023 22.9102H62.2103L68.4696 40.247H65.6228L64.0373 35.5611ZM58.1134 33.3987H63.3515L60.7693 25.7939H60.697L58.1134 33.3987ZM81.9874 33.9278C81.9874 37.8556 79.8851 40.3792 76.7126 40.3792C75.9089 40.4212 75.1096 40.2361 74.4062 39.845C73.7029 39.4539 73.1239 38.8726 72.7355 38.1678H72.6755V44.4284H70.081V27.6071H72.5924V29.7095H72.6402C73.0463 29.008 73.6351 28.4298 74.3438 28.0363C75.0525 27.6428 75.8546 27.4488 76.6648 27.4749C79.8728 27.4749 81.9874 30.0108 81.9874 33.9277V33.9278ZM79.3206 33.9278C79.3206 31.3688 77.9982 29.6863 75.9804 29.6863C73.998 29.6863 72.6647 31.4041 72.6647 33.9277C72.6647 36.4746 73.998 38.1802 75.9804 38.1802C77.9982 38.1802 79.3206 36.51 79.3206 33.9277V33.9278ZM95.8992 33.9278C95.8992 37.8556 93.797 40.3792 90.6244 40.3792C89.8207 40.4212 89.0215 40.2361 88.3181 39.845C87.6148 39.4539 87.0358 38.8726 86.6475 38.1678H86.5874V44.4284H83.9929V27.6071H86.5042V29.7095H86.552C86.9582 29.008 87.5469 28.4298 88.2556 28.0363C88.9643 27.6428 89.7664 27.4488 90.5766 27.4749C93.7847 27.4749 95.8992 30.0108 95.8992 33.9277V33.9278ZM93.2326 33.9278C93.2326 31.3688 91.91 29.6863 89.8923 29.6863C87.9098 29.6863 86.5765 31.4041 86.5765 33.9277C86.5765 36.4746 87.9098 38.1802 89.8923 38.1802C91.91 38.1802 93.2326 36.51 93.2326 33.9277V33.9278ZM105.094 35.4166C105.286 37.1358 106.956 38.2646 109.239 38.2646C111.425 38.2646 112.999 37.1358 112.999 35.5855C112.999 34.2398 112.05 33.4341 109.803 32.882L107.556 32.3407C104.373 31.5718 102.895 30.083 102.895 27.667C102.895 24.6757 105.502 22.6212 109.203 22.6212C112.866 22.6212 115.378 24.6757 115.462 27.667H112.843C112.686 25.937 111.256 24.8926 109.166 24.8926C107.076 24.8926 105.646 25.9493 105.646 27.4871C105.646 28.7128 106.56 29.4341 108.794 29.9861L110.704 30.4552C114.261 31.2963 115.739 32.7252 115.739 35.2609C115.739 38.5045 113.156 40.5359 109.046 40.5359C105.201 40.5359 102.606 38.5521 102.438 35.4165L105.094 35.4166ZM121.338 24.616V27.6071H123.742V29.6618H121.338V36.6299C121.338 37.7125 121.82 38.2169 122.876 38.2169C123.162 38.2119 123.447 38.1919 123.73 38.1569V40.1993C123.255 40.288 122.772 40.3282 122.289 40.3191C119.73 40.3191 118.732 39.3581 118.732 36.9067V29.6618H116.894V27.6071H118.732V24.616H121.338ZM125.134 33.9278C125.134 29.9507 127.476 27.4517 131.129 27.4517C134.794 27.4517 137.125 29.9507 137.125 33.9278C137.125 37.9156 134.806 40.4037 131.129 40.4037C127.453 40.4037 125.134 37.9156 125.134 33.9278ZM134.481 33.9278C134.481 31.1997 133.231 29.5894 131.129 29.5894C129.027 29.5894 127.778 31.2118 127.778 33.9278C127.778 36.6668 129.027 38.2646 131.129 38.2646C133.231 38.2646 134.481 36.6668 134.481 33.9278ZM139.264 27.6071H141.739V29.7585H141.799C141.966 29.0866 142.36 28.4928 142.913 28.0769C143.467 27.661 144.147 27.4485 144.839 27.4749C145.138 27.4739 145.436 27.5063 145.728 27.5717V29.9985C145.351 29.8832 144.957 29.8302 144.562 29.8417C144.185 29.8264 143.81 29.8929 143.461 30.0365C143.112 30.1801 142.798 30.3976 142.542 30.6738C142.285 30.9501 142.091 31.2787 141.973 31.637C141.855 31.9954 141.816 32.375 141.859 32.7498V40.247H139.264V27.6071ZM157.69 36.5345C157.341 38.8291 155.107 40.4037 152.248 40.4037C148.571 40.4037 146.288 37.9402 146.288 33.9877C146.288 30.0231 148.583 27.4517 152.138 27.4517C155.636 27.4517 157.835 29.854 157.835 33.6864V34.5753H148.907V34.7321C148.866 35.1973 148.924 35.6659 149.078 36.1068C149.232 36.5478 149.478 36.951 149.799 37.2896C150.121 37.6282 150.511 37.8946 150.943 38.0709C151.376 38.2472 151.841 38.3296 152.308 38.3124C152.921 38.3699 153.536 38.2279 154.062 37.9075C154.588 37.5872 154.996 37.1056 155.227 36.5345H157.69ZM148.92 32.7621H155.239C155.262 32.3438 155.199 31.9252 155.053 31.5326C154.906 31.14 154.681 30.7819 154.39 30.4806C154.098 30.1794 153.748 29.9416 153.361 29.7821C152.973 29.6226 152.557 29.545 152.138 29.554C151.716 29.5515 151.297 29.6327 150.906 29.7929C150.515 29.9531 150.16 30.1891 149.861 30.4874C149.561 30.7856 149.324 31.1402 149.163 31.5306C149.001 31.921 148.919 32.3396 148.92 32.7621ZM57.7882 9.86079C58.3321 9.82175 58.878 9.90392 59.3863 10.1014C59.8947 10.2988 60.3529 10.6067 60.7278 11.0026C61.1028 11.3986 61.3852 11.8729 61.5547 12.3912C61.7242 12.9096 61.7765 13.4591 61.7079 14.0001C61.7079 16.6613 60.2695 18.1912 57.7882 18.1912H54.7792V9.86065L57.7882 9.86079ZM56.0731 17.013H57.6437C58.0324 17.0362 58.4213 16.9725 58.7823 16.8264C59.1432 16.6803 59.467 16.4556 59.7302 16.1686C59.9933 15.8817 60.1891 15.5396 60.3034 15.1674C60.4177 14.7952 60.4476 14.4022 60.3908 14.017C60.4434 13.6333 60.4106 13.2427 60.2945 12.8732C60.1785 12.5037 59.9822 12.1645 59.7196 11.8798C59.4571 11.5951 59.1348 11.3719 58.7759 11.2264C58.417 11.0809 58.0304 11.0165 57.6437 11.038H56.0731V17.013ZM63.1695 15.045C63.1299 14.6319 63.1772 14.2151 63.3082 13.8213C63.4392 13.4275 63.651 13.0654 63.9302 12.7583C64.2093 12.4512 64.5496 12.2058 64.9291 12.0379C65.3086 11.87 65.719 11.7832 66.1341 11.7832C66.5491 11.7832 66.9595 11.87 67.3391 12.0379C67.7186 12.2058 68.0588 12.4512 68.338 12.7583C68.6171 13.0654 68.829 13.4275 68.96 13.8213C69.091 14.2151 69.1382 14.6319 69.0987 15.045C69.1391 15.4587 69.0925 15.8762 68.9618 16.2707C68.8312 16.6652 68.6195 17.028 68.3403 17.3358C68.0611 17.6436 67.7206 17.8896 67.3406 18.058C66.9606 18.2263 66.5496 18.3132 66.1341 18.3132C65.7185 18.3132 65.3075 18.2263 64.9275 18.058C64.5476 17.8896 64.207 17.6436 63.9278 17.3358C63.6486 17.028 63.4369 16.6652 63.3063 16.2707C63.1757 15.8762 63.1291 15.4587 63.1695 15.045ZM67.8226 15.045C67.8226 13.6823 67.2105 12.8854 66.1362 12.8854C65.0577 12.8854 64.4511 13.6823 64.4511 15.045C64.4511 16.4187 65.0578 17.2094 66.1362 17.2094C67.2105 17.2094 67.8226 16.4132 67.8226 15.045ZM76.9805 18.191H75.6933L74.3941 13.561H74.2959L73.0022 18.191H71.7274L69.9946 11.9044H71.2528L72.3791 16.7014H72.4718L73.7643 11.9044H74.9545L76.247 16.7014H76.3451L77.4658 11.9044H78.7065L76.9805 18.191ZM80.1639 11.9045H81.3582V12.9032H81.4509C81.6082 12.5444 81.8735 12.2437 82.2097 12.043C82.546 11.8422 82.9366 11.7513 83.327 11.7831C83.6329 11.7601 83.94 11.8062 84.2256 11.918C84.5113 12.0299 84.7681 12.2045 84.9771 12.4291C85.186 12.6536 85.3418 12.9223 85.4328 13.2152C85.5239 13.5082 85.5478 13.8178 85.5029 14.1213V18.1909H84.2622V14.4329C84.2622 13.4226 83.8232 12.9202 82.9056 12.9202C82.698 12.9105 82.4907 12.9459 82.2979 13.0238C82.1052 13.1018 81.9316 13.2205 81.789 13.3718C81.6465 13.5231 81.5383 13.7035 81.4719 13.9005C81.4056 14.0975 81.3826 14.3065 81.4046 14.5133V18.191H80.1639V11.9045ZM87.4798 9.45034H88.7204V18.191H87.4798V9.45034ZM90.4451 15.045C90.4056 14.6319 90.4528 14.215 90.5839 13.8211C90.7149 13.4273 90.9268 13.0652 91.206 12.758C91.4851 12.4508 91.8254 12.2054 92.205 12.0375C92.5846 11.8695 92.9951 11.7828 93.4101 11.7828C93.8252 11.7828 94.2357 11.8695 94.6153 12.0375C94.9949 12.2054 95.3352 12.4508 95.6143 12.758C95.8935 13.0652 96.1054 13.4273 96.2364 13.8211C96.3675 14.215 96.4147 14.6319 96.3752 15.045C96.4154 15.4586 96.3686 15.876 96.2379 16.2704C96.1071 16.6648 95.8953 17.0275 95.6161 17.3351C95.3369 17.6428 94.9964 17.8887 94.6165 18.0569C94.2365 18.2252 93.8256 18.3121 93.4101 18.3121C92.9947 18.3121 92.5837 18.2252 92.2038 18.0569C91.8239 17.8887 91.4834 17.6428 91.2042 17.3351C90.9249 17.0275 90.7132 16.6648 90.5824 16.2704C90.4517 15.876 90.4049 15.4586 90.4451 15.045ZM95.0983 15.045C95.0983 13.6823 94.4861 12.8854 93.4118 12.8854C92.3333 12.8854 91.7267 13.6823 91.7267 15.045C91.7267 16.4187 92.3335 17.2094 93.4118 17.2094C94.4861 17.2094 95.0983 16.4132 95.0983 15.045ZM97.6812 16.4132C97.6812 15.2815 98.5238 14.6292 100.019 14.5365L101.722 14.4383V13.8956C101.722 13.2317 101.283 12.8568 100.435 12.8568C99.7427 12.8568 99.2627 13.111 99.1251 13.5556H97.9239C98.0506 12.4757 99.0664 11.7832 100.493 11.7832C102.069 11.7832 102.957 12.5678 102.957 13.8956V18.191H101.763V17.3076H101.665C101.466 17.6245 101.186 17.8828 100.854 18.0562C100.523 18.2296 100.151 18.3119 99.7768 18.2946C99.5129 18.322 99.2461 18.2939 98.9938 18.2119C98.7414 18.13 98.509 17.9961 98.3116 17.8188C98.1142 17.6416 97.9561 17.4249 97.8475 17.1828C97.7389 16.9407 97.6823 16.6786 97.6812 16.4132ZM101.722 15.876V15.3504L100.187 15.4485C99.3214 15.5065 98.9286 15.801 98.9286 16.3551C98.9286 16.921 99.4195 17.2503 100.094 17.2503C100.292 17.2703 100.492 17.2504 100.682 17.1916C100.872 17.1329 101.048 17.0365 101.2 16.9083C101.352 16.78 101.476 16.6226 101.566 16.4452C101.656 16.2679 101.709 16.0743 101.722 15.876ZM104.588 15.045C104.588 13.0585 105.609 11.8002 107.198 11.8002C107.59 11.7821 107.98 11.8762 108.322 12.0715C108.663 12.2668 108.942 12.5553 109.125 12.9032H109.218V9.4502H110.459V18.1909H109.27V17.1976H109.172C108.974 17.5431 108.686 17.8279 108.338 18.0213C107.99 18.2146 107.596 18.3091 107.198 18.2945C105.598 18.2945 104.588 17.036 104.588 15.0449V15.045ZM105.87 15.045C105.87 16.3783 106.498 17.1808 107.549 17.1808C108.595 17.1808 109.241 16.3669 109.241 15.0504C109.241 13.7403 108.588 12.9147 107.549 12.9147C106.505 12.9147 105.87 13.7225 105.87 15.045ZM115.592 15.045C115.552 14.6319 115.6 14.2151 115.731 13.8213C115.862 13.4275 116.073 13.0654 116.353 12.7583C116.632 12.4512 116.972 12.2058 117.352 12.0379C117.731 11.87 118.141 11.7832 118.556 11.7832C118.972 11.7832 119.382 11.87 119.761 12.0379C120.141 12.2058 120.481 12.4512 120.76 12.7583C121.04 13.0654 121.251 13.4275 121.382 13.8213C121.513 14.2151 121.561 14.6319 121.521 15.045C121.561 15.4587 121.515 15.8762 121.384 16.2707C121.254 16.6652 121.042 17.028 120.763 17.3358C120.484 17.6436 120.143 17.8896 119.763 18.058C119.383 18.2263 118.972 18.3132 118.556 18.3132C118.141 18.3132 117.73 18.2263 117.35 18.058C116.97 17.8896 116.629 17.6436 116.35 17.3358C116.071 17.028 115.859 16.6652 115.729 16.2707C115.598 15.8762 115.551 15.4587 115.592 15.045ZM120.245 15.045C120.245 13.6823 119.633 12.8854 118.559 12.8854C117.48 12.8854 116.873 13.6823 116.873 15.045C116.873 16.4187 117.48 17.2094 118.559 17.2094C119.633 17.2094 120.245 16.4132 120.245 15.045ZM123.186 11.9045H124.38V12.9032H124.473C124.63 12.5444 124.895 12.2437 125.232 12.043C125.568 11.8422 125.959 11.7513 126.349 11.7831C126.655 11.7601 126.962 11.8062 127.248 11.918C127.533 12.0299 127.79 12.2045 127.999 12.4291C128.208 12.6536 128.364 12.9223 128.455 13.2152C128.546 13.5082 128.57 13.8178 128.525 14.1213V18.1909H127.284V14.4329C127.284 13.4226 126.845 12.9202 125.928 12.9202C125.72 12.9105 125.513 12.9459 125.32 13.0238C125.127 13.1018 124.954 13.2205 124.811 13.3718C124.668 13.5231 124.56 13.7035 124.494 13.9005C124.428 14.0975 124.405 14.3065 124.427 14.5133V18.191H123.186L123.186 11.9045ZM135.535 10.3394V11.9332H136.897V12.9781H135.535V16.2106C135.535 16.8692 135.807 17.1576 136.424 17.1576C136.582 17.1571 136.74 17.1475 136.897 17.1289V18.1624C136.674 18.2022 136.449 18.2234 136.222 18.2258C134.843 18.2258 134.293 17.7404 134.293 16.5284V12.9781H133.295V11.933H134.293V10.3395L135.535 10.3394ZM138.592 9.45034H139.822V12.9147H139.92C140.085 12.5527 140.357 12.2503 140.7 12.0488C141.043 11.8472 141.44 11.7563 141.837 11.7885C142.141 11.772 142.445 11.8228 142.728 11.9373C143.01 12.0518 143.264 12.2273 143.471 12.4512C143.677 12.675 143.832 12.9418 143.924 13.2324C144.016 13.523 144.042 13.8302 144.002 14.1323V18.191H142.76V14.4383C142.76 13.4341 142.292 12.9256 141.416 12.9256C141.202 12.9082 140.988 12.9375 140.787 13.0116C140.586 13.0856 140.404 13.2027 140.254 13.3545C140.103 13.5063 139.987 13.6892 139.914 13.8904C139.842 14.0916 139.814 14.3063 139.833 14.5194V18.191H138.592V9.45034ZM151.236 16.4935C151.067 17.0681 150.702 17.5651 150.204 17.8976C149.706 18.2301 149.107 18.3769 148.512 18.3123C148.098 18.3233 147.686 18.244 147.306 18.0799C146.925 17.9158 146.585 17.6709 146.309 17.3622C146.033 17.0534 145.827 16.6883 145.706 16.292C145.585 15.8958 145.551 15.478 145.608 15.0675C145.553 14.6558 145.587 14.2371 145.707 13.8396C145.828 13.4422 146.033 13.0753 146.308 12.7639C146.583 12.4524 146.921 12.2037 147.301 12.0345C147.68 11.8652 148.091 11.7795 148.507 11.7831C150.256 11.7831 151.311 12.9781 151.311 14.9522V15.3851H146.872V15.4547C146.852 15.6854 146.881 15.9176 146.957 16.1364C147.033 16.3552 147.153 16.5559 147.311 16.7254C147.468 16.895 147.66 17.0298 147.872 17.1211C148.085 17.2124 148.315 17.2582 148.546 17.2556C148.843 17.2913 149.143 17.2378 149.41 17.1021C149.676 16.9664 149.896 16.7546 150.042 16.4935H151.236ZM146.872 14.4676H150.047C150.063 14.2566 150.034 14.0447 149.963 13.8455C149.892 13.6462 149.78 13.4641 149.634 13.3107C149.488 13.1573 149.312 13.0361 149.117 12.9549C148.921 12.8737 148.711 12.8342 148.5 12.8391C148.285 12.8364 148.072 12.8767 147.873 12.9576C147.675 13.0384 147.494 13.1583 147.342 13.3101C147.191 13.4619 147.071 13.6425 146.99 13.8413C146.909 14.0401 146.869 14.253 146.872 14.4676Z" fill="white"/>
</svg>
