<svg width="44" height="44" viewBox="0 0 44 44" fill="none" xmlns="http://www.w3.org/2000/svg">
<g clip-path="url(#clip0_422_32835)">
<rect x="0.5" y="0.5" width="43" height="43" rx="11.5" fill="white" stroke="#E0E0E0"/>
<path fill-rule="evenodd" clip-rule="evenodd" d="M21.0026 12.9992V24.585L16.7097 20.2921C16.3191 19.9016 15.686 19.9016 15.2954 20.2921C14.9049 20.6826 14.9049 21.3158 15.2954 21.7063L21.2954 27.7063C21.686 28.0968 22.3191 28.0968 22.7097 27.7063L28.7097 21.7063C29.1002 21.3158 29.1002 20.6826 28.7097 20.2921C28.3191 19.9016 27.686 19.9016 27.2954 20.2921L23.0026 24.585V12.9992C23.0026 12.4469 22.5548 11.9992 22.0026 11.9992C21.4503 11.9992 21.0026 12.4469 21.0026 12.9992ZM31.002 25.9992C30.4497 25.9992 30.002 26.4469 30.002 26.9992V29.9992H14.002V26.9992C14.002 26.4469 13.5542 25.9992 13.002 25.9992C12.4497 25.9992 12.002 26.4469 12.002 26.9992V29.9992C12.002 31.1038 12.8974 31.9992 14.002 31.9992H30.002C31.1065 31.9992 32.002 31.1038 32.002 29.9992V26.9992C32.002 26.4469 31.5542 25.9992 31.002 25.9992Z" fill="#1A1A1A"/>
</g>
<defs>
<clipPath id="clip0_422_32835">
<rect width="44" height="44" fill="white"/>
</clipPath>
</defs>
</svg>
