<svg width="36" height="36" viewBox="0 0 36 36" fill="none" xmlns="http://www.w3.org/2000/svg">
<g clip-path="url(#clip0_406_26617)">
<rect x="0.5" y="0.5" width="35" height="35" rx="7.5" fill="white" stroke="#E0E0E0"/>
<path fill-rule="evenodd" clip-rule="evenodd" d="M17.166 10.4993V20.1541L13.5886 16.5767C13.2632 16.2513 12.7355 16.2513 12.4101 16.5767C12.0847 16.9022 12.0847 17.4298 12.4101 17.7552L17.4101 22.7552C17.7355 23.0807 18.2632 23.0807 18.5886 22.7552L23.5886 17.7552C23.914 17.4298 23.914 16.9022 23.5886 16.5767C23.2632 16.2513 22.7355 16.2513 22.4101 16.5767L18.8327 20.1541V10.4993C18.8327 10.0391 18.4596 9.66599 17.9993 9.66599C17.5391 9.66599 17.166 10.0391 17.166 10.4993ZM25.4993 21.3327C25.0391 21.3327 24.666 21.7057 24.666 22.166V24.666H11.3327V22.166C11.3327 21.7057 10.9596 21.3327 10.4993 21.3327C10.0391 21.3327 9.66602 21.7057 9.66602 22.166V24.666C9.66602 25.5865 10.4122 26.3327 11.3327 26.3327H24.666C25.5865 26.3327 26.3327 25.5865 26.3327 24.666V22.166C26.3327 21.7057 25.9596 21.3327 25.4993 21.3327Z" fill="#1A1A1A"/>
</g>
<defs>
<clipPath id="clip0_406_26617">
<rect width="36" height="36" fill="white"/>
</clipPath>
</defs>
</svg>
