<svg width="32" height="32" viewBox="0 0 32 32" fill="none" xmlns="http://www.w3.org/2000/svg">
<path d="M14.376 27.3325C14.376 28.2294 15.1031 28.9565 16 28.9565C16.8969 28.9565 17.624 28.2294 17.624 27.3325L14.376 27.3325ZM17.1483 3.51751C16.5141 2.8833 15.4859 2.8833 14.8517 3.51751L4.51657 13.8526C3.88236 14.4868 3.88236 15.5151 4.51657 16.1493C5.15078 16.7835 6.17905 16.7835 6.81326 16.1493L16 6.96254L25.1867 16.1493C25.821 16.7835 26.8492 16.7835 27.4834 16.1493C28.1176 15.5151 28.1176 14.4868 27.4834 13.8526L17.1483 3.51751ZM17.624 27.3325L17.624 4.66585L14.376 4.66585L14.376 27.3325L17.624 27.3325Z" fill="white"/>
</svg>
