<svg width="176" height="54" viewBox="0 0 176 54" fill="none" xmlns="http://www.w3.org/2000/svg">
<rect x="0.5" width="175.5" height="54" rx="12" fill="#1A1A1A"/>
<path d="M63.0395 13.7606C63.0395 14.799 62.7324 15.626 62.1175 16.2429C61.419 16.9764 60.5087 17.3435 59.3897 17.3435C58.318 17.3435 57.4068 16.9716 56.6575 16.2269C55.9069 15.4827 55.5322 14.5599 55.5322 13.4588C55.5322 12.3573 55.9069 11.435 56.6575 10.6902C57.4068 9.94613 58.318 9.57373 59.3897 9.57373C59.9214 9.57373 60.4305 9.6779 60.9139 9.88563C61.3973 10.0939 61.785 10.3703 62.075 10.7164L61.4224 11.3705C60.9308 10.7823 60.254 10.4884 59.3897 10.4884C58.6081 10.4884 57.9323 10.7634 57.3619 11.3139C56.7914 11.865 56.5062 12.5796 56.5062 13.4588C56.5062 14.3382 56.7914 15.0527 57.3619 15.6038C57.9323 16.1543 58.608 16.4293 59.3897 16.4293C60.2188 16.4293 60.91 16.1528 61.4635 15.599C61.8227 15.2382 62.0305 14.7366 62.0861 14.0926H59.3896V13.1993H62.9877C63.0224 13.3936 63.0394 13.58 63.0394 13.7606" fill="white"/>
<path d="M63.0401 13.761H62.9163C62.9153 14.7758 62.6194 15.564 62.0306 16.1557L62.0293 16.1567L62.0287 16.1577C61.3525 16.8659 60.4832 17.2184 59.3902 17.2199C58.3472 17.2184 57.4741 16.8621 56.7451 16.1397C56.0177 15.4158 55.658 14.5322 55.6566 13.4593C55.658 12.3859 56.0177 11.5027 56.7451 10.7793C57.4741 10.0564 58.3472 9.69959 59.3902 9.69809C59.9061 9.69809 60.3972 9.79892 60.8656 9.99979C61.3345 10.2022 61.7049 10.4675 61.9808 10.7968L62.0756 10.7168L61.9881 10.6292L61.3355 11.2838L61.4229 11.3709L61.5183 11.2916C61.0038 10.6742 60.2817 10.363 59.3903 10.3648C58.5797 10.3638 57.8667 10.654 57.2768 11.2253C56.6813 11.7985 56.3821 12.5534 56.3831 13.4593C56.3821 14.3652 56.6813 15.12 57.2768 15.6932C57.8667 16.2646 58.5797 16.5547 59.3902 16.5537C60.2468 16.5552 60.9768 16.2641 61.5516 15.687C61.9354 15.3015 62.153 14.7676 62.21 14.1037L62.2215 13.9691H59.514V13.3237H62.9883V13.1997L62.8664 13.2215C62.9003 13.4095 62.9163 13.5881 62.9163 13.761H63.1638C63.1638 13.5726 63.1463 13.3789 63.1101 13.1776L63.0917 13.0758H59.2666V14.217H62.0867V14.093L61.9635 14.0824C61.9089 14.7061 61.7106 15.1757 61.3766 15.5118C60.8449 16.0424 60.1923 16.3043 59.3903 16.3058C58.6377 16.3048 57.9991 16.0453 57.4485 15.5151C56.9033 14.9868 56.632 14.3124 56.6306 13.4593C56.632 12.6061 56.9033 11.9317 57.4485 11.4034C57.9991 10.8733 58.6376 10.6137 59.3903 10.6127C60.2271 10.6147 60.859 10.8916 61.3284 11.4509L61.4154 11.5545L62.1632 10.8045L62.2434 10.7242L62.1703 10.6374C61.8663 10.2744 61.4612 9.9862 60.9633 9.77229C60.4645 9.55771 59.938 9.4502 59.3903 9.4502C58.2901 9.44925 57.3407 9.83658 56.5707 10.6031C55.7977 11.3681 55.4081 12.3297 55.4092 13.4593C55.4081 14.5883 55.7977 15.5505 56.5712 16.3159C57.3407 17.0819 58.2901 17.4688 59.3903 17.4678C60.536 17.4688 61.4864 17.0877 62.2076 16.329L62.1181 16.2433L62.2056 16.331C62.8466 15.6894 63.1646 14.8227 63.1638 13.761H63.04M68.7441 10.6544H65.3627V13.0124H68.4121V13.9061H65.3627V16.2641H68.7441V17.1778H64.4095V9.74076H68.7441V10.6544Z" fill="white"/>
<path d="M68.7435 10.6543V10.5303H65.2384V13.1363H68.2877V13.7817L65.2383 13.782V16.388H68.6197V17.0537H64.5327V9.86459H68.6197V10.6543H68.7435V10.5303V10.6543H68.8672V9.6167H64.2852V17.3016H68.8672V16.1401H65.4859V14.0299H68.5352V12.8884H65.4859V10.7782H68.8672V10.6543H68.7435ZM72.7668 17.1777H71.8121V10.6542H69.7383V9.74059H74.8406V10.6542H72.7668V17.1776" fill="white"/>
<path d="M72.7675 17.1777V17.0537H71.9365V10.5303H69.8627V9.86465H74.7175V10.5303H72.6438V17.1776H72.7675V17.0537V17.1776H72.8913V10.7782H74.965V9.6167H69.6152V10.7782H71.689V17.3015H72.8913V17.1776H72.7675M78.533 17.1777V9.74059H79.4868V17.1776H78.533" fill="white"/>
<path d="M78.5319 17.1777H78.6557V9.86459H79.3619V17.0537H78.5319V17.1776H78.6557H78.5319V17.3016H79.6094V9.6167H78.4082V17.3016H78.5319V17.1776M83.7178 17.1777H82.7631V10.6542H80.6894V9.74059H85.7916V10.6542H83.7178V17.1776" fill="white"/>
<path d="M83.7166 17.1774V17.0534H82.8856V10.53H80.812V9.86435H85.6666V10.53H83.5929V17.1773H83.7166V17.0534V17.1773H83.8404V10.7779H85.9141V9.6164H80.5645V10.7779H82.6381V17.3012H83.8404V17.1773H83.7166M90.7095 15.5937C91.259 16.1509 91.9315 16.4293 92.7267 16.4293C93.5219 16.4293 94.1948 16.1509 94.7435 15.5937C95.2936 15.0364 95.5691 14.324 95.5691 13.4588C95.5691 12.5937 95.2936 11.8814 94.7435 11.3241C94.1948 10.7668 93.5219 10.4884 92.7267 10.4884C91.9315 10.4884 91.259 10.7668 90.7095 11.3241C90.1608 11.8814 89.8853 12.5937 89.8853 13.4588C89.8853 14.324 90.1608 15.0364 90.7095 15.5937ZM95.4492 16.2162C94.7192 16.9681 93.8114 17.3435 92.7267 17.3435C91.641 17.3435 90.7336 16.9681 90.0052 16.2162C89.2747 15.4652 88.9112 14.5459 88.9112 13.4588C88.9112 12.3718 89.2747 11.4523 90.0052 10.7014C90.7336 9.94941 91.641 9.57373 92.7267 9.57373C93.8057 9.57373 94.711 9.95142 95.4444 10.7063C96.1767 11.4611 96.5432 12.3786 96.5432 13.4588C96.5432 14.5459 96.1776 15.4652 95.4492 16.2162Z" fill="white"/>
<path d="M90.712 15.5941L90.624 15.6812C91.194 16.2608 91.9051 16.5552 92.7292 16.5537C93.5529 16.5552 94.265 16.2608 94.834 15.6812C95.4077 15.1011 95.6963 14.3506 95.6954 13.4593C95.6962 12.568 95.4077 11.8174 94.834 11.2373C94.265 10.6577 93.5529 10.3634 92.7292 10.3648C91.9051 10.3634 91.194 10.6577 90.624 11.2373C90.0517 11.8174 89.7626 12.568 89.7641 13.4593C89.7626 14.3506 90.0517 15.1011 90.624 15.6812L90.712 15.5941L90.8 15.5069C90.2751 14.9719 90.0126 14.2988 90.0116 13.4593C90.0126 12.6198 90.2751 11.9467 90.8 11.4116C91.3297 10.8767 91.9625 10.6142 92.7292 10.6128C93.4954 10.6142 94.1296 10.8767 94.658 11.4116C95.1839 11.9467 95.4464 12.6198 95.4474 13.4593C95.4464 14.2988 95.1839 14.9719 94.658 15.5069C94.1296 16.0419 93.4954 16.3043 92.7292 16.3057C91.9625 16.3043 91.3297 16.0419 90.8 15.5069L90.712 15.5941ZM95.4517 16.2167L95.3633 16.1305C94.6537 16.8587 93.7859 17.2185 92.7292 17.2199C91.6721 17.2184 90.8043 16.8587 90.0961 16.1305L90.0927 16.1266L90.0961 16.1305C89.388 15.3998 89.0385 14.5187 89.0375 13.4593C89.0385 12.3998 89.388 11.5187 90.0961 10.788C90.8043 10.0598 91.672 9.6996 92.7292 9.69815C93.7791 9.6996 94.6449 10.0613 95.3584 10.7933C96.069 11.5274 96.4205 12.4071 96.422 13.4593C96.4205 14.5187 96.07 15.3998 95.3633 16.1305L95.4517 16.2167L95.5407 16.3028C96.2909 15.5311 96.6703 14.5738 96.6695 13.4593C96.6704 12.351 96.2894 11.3957 95.5358 10.6206C94.7817 9.84237 93.8372 9.44886 92.7292 9.4502C91.6155 9.44886 90.6681 9.84053 89.9188 10.6157V10.6152C89.1671 11.3874 88.789 12.3447 88.79 13.4593C88.789 14.5738 89.1671 15.5311 89.9188 16.3033L89.9221 16.3068L89.9188 16.3028C90.6681 17.078 91.6155 17.4688 92.7292 17.4678C93.8425 17.4688 94.7899 17.078 95.5407 16.3028L95.4517 16.2167ZM97.8846 17.1778V9.74071H99.0458L102.654 15.5262H102.695L102.654 14.093V9.74071H103.609V17.1777H102.613L98.8379 11.1119H98.7968L98.8379 12.5456V17.1777H97.8847" fill="white"/>
<path d="M97.8847 17.1777H98.0085V9.86459H98.9773L102.586 15.6501H102.823L102.778 14.0911V9.86465H103.485V17.0537H102.682L98.9067 10.9879H98.6699L98.7143 12.5475V17.0537H97.8848V17.1776H98.0085H97.8848V17.3016H98.9618V12.5436L98.9207 11.1085L98.7969 11.1118V11.2357H98.8381V11.1118L98.7331 11.1777L102.545 17.3016H103.733V9.6167H102.531V14.0944L102.572 15.5295L102.696 15.5261V15.4022H102.654V15.5261L102.759 15.4603L99.1145 9.6167H97.7611V17.3016H97.8849V17.1776M136.694 38.2492H139.003V22.7539H136.694L136.694 38.2492ZM157.492 28.3357L154.845 35.0536H154.766L152.019 28.3356H149.531L153.651 37.7253L151.302 42.9482H153.712L160.06 28.3356L157.492 28.3357ZM144.397 36.4892C143.64 36.4892 142.585 36.1106 142.585 35.1732C142.585 33.9772 143.899 33.5188 145.033 33.5188C146.049 33.5188 146.525 33.738 147.143 34.0374C146.964 35.4724 145.73 36.4892 144.397 36.4892ZM144.675 27.9967C143.004 27.9967 141.272 28.7345 140.556 30.3692L142.605 31.2262C143.043 30.3692 143.859 30.0898 144.715 30.0898C145.909 30.0898 147.123 30.8078 147.143 32.0837V32.243C146.725 32.0037 145.83 31.645 144.735 31.645C142.526 31.645 140.276 32.8607 140.276 35.1335C140.276 37.2068 142.088 38.5426 144.117 38.5426C145.67 38.5426 146.525 37.8449 147.064 37.0277H147.143V38.2236H149.372V32.2826C149.372 29.5321 147.322 27.9967 144.675 27.9967ZM130.405 30.2219H127.12V24.9106H130.405C132.131 24.9106 133.111 26.3422 133.111 27.5662C133.111 28.767 132.131 30.2219 130.405 30.2219ZM130.345 22.7539H124.812V38.2492H127.12V32.3785H130.345C132.904 32.3785 135.42 30.5226 135.42 27.5662C135.42 24.6099 132.904 22.7539 130.345 22.7539ZM100.174 36.4921C98.5784 36.4921 97.2428 35.1543 97.2428 33.3168C97.2428 31.4601 98.5784 30.1019 100.174 30.1019C101.749 30.1019 102.985 31.46 102.985 33.3168C102.985 35.1543 101.749 36.4921 100.174 36.4921H100.174ZM102.825 29.2033H102.745C102.227 28.5844 101.23 28.0253 99.9741 28.0253C97.3424 28.0253 94.9303 30.3416 94.9303 33.3168C94.9303 36.2723 97.3423 38.5688 99.9741 38.5688C101.23 38.5688 102.227 38.0095 102.745 37.3709H102.825V38.1296C102.825 40.1468 101.749 41.225 100.014 41.225C98.5987 41.225 97.7214 40.2062 97.3622 39.3478L95.3489 40.1864C95.9271 41.5842 97.4623 43.3017 100.014 43.3017C102.726 43.3017 105.018 41.7038 105.018 37.81V28.3448H102.825V29.2033ZM106.613 38.2492H108.926V22.7534H106.613V38.2492ZM112.335 33.1372C112.275 31.1002 113.91 30.0621 115.086 30.0621C116.004 30.0621 116.781 30.5212 117.04 31.1807L112.335 33.1372ZM119.512 31.3801C119.074 30.2016 117.737 28.0253 115.006 28.0253C112.295 28.0253 110.042 30.1619 110.042 33.297C110.042 36.2525 112.275 38.5688 115.265 38.5688C117.678 38.5688 119.074 37.091 119.652 36.2325L117.858 35.0341C117.26 35.913 116.442 36.4921 115.265 36.4921C114.089 36.4921 113.252 35.9527 112.713 34.8947L119.751 31.9791L119.512 31.3801ZM63.4432 29.6428V31.8793H68.7861C68.6266 33.1372 68.2079 34.0557 67.5698 34.6948C66.7926 35.4738 65.5764 36.3323 63.4431 36.3323C60.1535 36.3323 57.5819 33.6765 57.5819 30.3817C57.5819 27.0869 60.1535 24.4308 63.4432 24.4308C65.2176 24.4308 66.5131 25.1298 67.4702 26.0284L69.0452 24.451C67.7096 23.1727 65.935 22.1943 63.4432 22.1943C58.9373 22.1943 55.1494 25.8687 55.1494 30.3817C55.1494 34.8947 58.9373 38.5688 63.4432 38.5688C65.8756 38.5688 67.7096 37.7704 69.1448 36.2723C70.6202 34.7946 71.0789 32.7179 71.0789 31.0407C71.0789 30.5212 71.0392 30.0423 70.959 29.6428H63.4432ZM77.1533 36.4921C75.558 36.4921 74.1823 35.1741 74.1823 33.297C74.1823 31.3999 75.558 30.1019 77.1533 30.1019C78.7479 30.1019 80.1237 31.3999 80.1237 33.297C80.1237 35.1741 78.7479 36.4921 77.1533 36.4921ZM77.1533 28.0253C74.2422 28.0253 71.8697 30.2417 71.8697 33.297C71.8697 36.3323 74.2422 38.5688 77.1533 38.5688C80.0638 38.5688 82.4363 36.3323 82.4363 33.297C82.4363 30.2417 80.0638 28.0253 77.1533 28.0253ZM88.6784 36.4921C87.0838 36.4921 85.7079 35.1741 85.7079 33.297C85.7079 31.3999 87.0838 30.1019 88.6784 30.1019C90.2732 30.1019 91.6489 31.3999 91.6489 33.297C91.6489 35.1741 90.2732 36.4921 88.6784 36.4921H88.6784ZM88.6784 28.0253C85.7674 28.0253 83.3954 30.2417 83.3954 33.297C83.3954 36.3323 85.7674 38.5688 88.6784 38.5688C91.589 38.5688 93.9616 36.3323 93.9616 33.297C93.9616 30.2417 91.589 28.0253 88.6784 28.0253H88.6784Z" fill="white"/>
<path d="M17.3634 10.4986C16.9481 10.8738 16.7002 11.4998 16.7002 12.3307V12.1429V39.562V39.3814C16.7002 40.1488 16.9128 40.7414 17.2729 41.123L17.3648 41.2112V41.2115C17.6563 41.475 18.03 41.6149 18.4583 41.6144C18.8769 41.6144 19.3477 41.4808 19.8447 41.1986L37.8073 30.976L43.9773 27.4643C44.7609 27.0184 45.2008 26.4432 45.2743 25.8573V25.8549C45.2008 25.2676 44.7609 24.6928 43.9773 24.2469L37.8068 20.7356L19.8448 10.513C19.3467 10.2303 18.8755 10.0962 18.4559 10.0962C18.0281 10.0962 17.6548 10.2356 17.3635 10.4986H17.3634Z" fill="#00C1FF"/>
<path d="M17.3649 41.2109L17.2729 41.1228C16.9128 40.7412 16.7002 40.1486 16.7002 39.3812V39.5618V12.1495V12.3305C16.7002 11.4996 16.9481 10.8736 17.3634 10.4983L32.6958 25.8551L17.3649 41.2109Z" fill="url(#paint0_linear_562_32254)"/>
<path d="M37.8068 30.9756L32.6953 25.855L37.8064 20.7352L43.9769 24.2464C44.7604 24.6924 45.2003 25.2672 45.2739 25.8545V25.8568C45.2003 26.4427 44.7604 27.018 43.9769 27.4638L37.8069 30.9755" fill="url(#paint1_linear_562_32254)"/>
<path d="M18.4596 41.6147C18.0313 41.6151 17.6576 41.4752 17.3662 41.2118V41.2114L32.6971 25.8556L37.8086 30.9763L19.846 41.1988C19.349 41.4811 18.8781 41.6147 18.4596 41.6147Z" fill="url(#paint2_linear_562_32254)"/>
<path d="M32.6948 25.8555L17.3623 10.4987C17.6538 10.2357 18.027 10.0963 18.4548 10.0963C18.8744 10.0963 19.3457 10.2304 19.8436 10.5132L37.8057 20.7357L32.6947 25.8555" fill="url(#paint3_linear_562_32254)"/>
<path d="M18.4593 41.7959C18.031 41.7959 17.6568 41.656 17.3653 41.3926L17.3648 41.393C17.3636 41.3918 17.3623 41.3907 17.361 41.3897L17.2812 41.3117C17.2787 41.3092 17.2764 41.3064 17.2734 41.3036L17.3654 41.2115C17.6568 41.4749 18.0305 41.6148 18.4589 41.6143C18.8773 41.6143 19.3482 41.4807 19.8452 41.1984L37.8077 30.9759L37.9228 31.0912L37.8063 31.1575L19.8451 41.3795C19.3922 41.6366 18.9614 41.7707 18.5723 41.7931C18.5347 41.7949 18.497 41.7958 18.4593 41.7958" fill="url(#paint4_linear_562_32254)"/>
<path d="M17.2729 41.3032C16.9128 40.9216 16.7002 40.3295 16.7002 39.5616V39.381C16.7002 40.1484 16.9128 40.741 17.2729 41.1226L17.3648 41.2108L17.2729 41.3032Z" fill="url(#paint5_linear_562_32254)"/>
<path d="M37.9217 31.0908L37.8066 30.9755L43.9767 27.4637C44.7603 27.0179 45.2002 26.4426 45.2737 25.8567C45.2737 26.0717 45.2258 26.2867 45.1307 26.496C44.9387 26.9176 44.554 27.3161 43.9767 27.6448L37.9217 31.0908" fill="url(#paint6_linear_562_32254)"/>
<path d="M45.2742 25.8545C45.2007 25.2672 44.7608 24.6925 43.9772 24.2465L37.8066 20.7352L37.9217 20.6199H37.9222L43.9772 24.0659C44.8411 24.5578 45.2737 25.2061 45.2742 25.8545Z" fill="url(#paint7_linear_562_32254)"/>
<path d="M16.7002 12.3306V12.1412C16.7002 12.0729 16.702 12.0061 16.7055 11.9412V11.9383C16.7055 11.9374 16.7055 11.9364 16.7059 11.9354V11.9281C16.7431 11.2672 16.9481 10.7516 17.2729 10.4074L17.3634 10.4983C16.9481 10.8737 16.7002 11.4997 16.7002 12.3306Z" fill="url(#paint8_linear_562_32254)"/>
<path d="M37.8072 20.7358L19.8452 10.5132C19.3472 10.2305 18.876 10.0964 18.4564 10.0964C18.0285 10.0964 17.6553 10.2358 17.3639 10.4988L17.2734 10.4077C17.3017 10.3778 17.331 10.3489 17.3615 10.3211C17.3624 10.3201 17.3639 10.3191 17.3649 10.3182C17.654 10.0572 18.0232 9.91781 18.4472 9.9153H18.4564C18.876 9.9153 19.3472 10.0494 19.8452 10.3323L37.9228 20.6201L37.9223 20.6205L37.8072 20.7358Z" fill="url(#paint9_linear_562_32254)"/>
<defs>
<linearGradient id="paint0_linear_562_32254" x1="26.4985" y1="11.8597" x2="13.2854" y2="25.0941" gradientUnits="userSpaceOnUse">
<stop stop-color="#00A0FF"/>
<stop offset="0.00657" stop-color="#00A1FF"/>
<stop offset="0.2601" stop-color="#00BEFF"/>
<stop offset="0.5122" stop-color="#00D2FF"/>
<stop offset="0.7604" stop-color="#00DFFF"/>
<stop offset="1" stop-color="#00E3FF"/>
</linearGradient>
<linearGradient id="paint1_linear_562_32254" x1="46.2286" y1="25.7665" x2="16.2848" y2="25.7665" gradientUnits="userSpaceOnUse">
<stop stop-color="#FFE000"/>
<stop offset="0.4087" stop-color="#FFBD00"/>
<stop offset="0.7754" stop-color="#FFA500"/>
<stop offset="1" stop-color="#FF9C00"/>
</linearGradient>
<linearGradient id="paint2_linear_562_32254" x1="35.0948" y1="30.7241" x2="12.7043" y2="52.987" gradientUnits="userSpaceOnUse">
<stop stop-color="#FF3A44"/>
<stop offset="1" stop-color="#C31162"/>
</linearGradient>
<linearGradient id="paint3_linear_562_32254" x1="13.4107" y1="8.22195" x2="23.3897" y2="18.1593" gradientUnits="userSpaceOnUse">
<stop stop-color="#32A071"/>
<stop offset="0.0685" stop-color="#2DA771"/>
<stop offset="0.4762" stop-color="#15CF74"/>
<stop offset="0.8009" stop-color="#06E775"/>
<stop offset="1" stop-color="#00F076"/>
</linearGradient>
<linearGradient id="paint4_linear_562_32254" x1="35.0829" y1="34.2757" x2="17.1514" y2="52.2362" gradientUnits="userSpaceOnUse">
<stop stop-color="#CC2E36"/>
<stop offset="1" stop-color="#9C0E4E"/>
</linearGradient>
<linearGradient id="paint5_linear_562_32254" x1="18.7427" y1="11.8595" x2="7.10215" y2="23.519" gradientUnits="userSpaceOnUse">
<stop stop-color="#008DE0"/>
<stop offset="0.00657" stop-color="#008DE0"/>
<stop offset="0.2601" stop-color="#00A7E0"/>
<stop offset="0.5122" stop-color="#00B8E0"/>
<stop offset="0.7604" stop-color="#00C4E0"/>
<stop offset="1" stop-color="#00C7E0"/>
</linearGradient>
<linearGradient id="paint6_linear_562_32254" x1="46.2285" y1="25.8556" x2="16.2846" y2="25.8556" gradientUnits="userSpaceOnUse">
<stop stop-color="#E0C500"/>
<stop offset="0.4087" stop-color="#E0A600"/>
<stop offset="0.7754" stop-color="#E09100"/>
<stop offset="1" stop-color="#E08900"/>
</linearGradient>
<linearGradient id="paint7_linear_562_32254" x1="46.229" y1="25.8557" x2="16.2852" y2="25.8557" gradientUnits="userSpaceOnUse">
<stop stop-color="#FFE840"/>
<stop offset="0.4087" stop-color="#FFCE40"/>
<stop offset="0.7754" stop-color="#FFBC40"/>
<stop offset="1" stop-color="#FFB540"/>
</linearGradient>
<linearGradient id="paint8_linear_562_32254" x1="18.7301" y1="11.8809" x2="7.51817" y2="22.6244" gradientUnits="userSpaceOnUse">
<stop stop-color="#40B8FF"/>
<stop offset="0.00657" stop-color="#40B9FF"/>
<stop offset="0.2601" stop-color="#40CEFF"/>
<stop offset="0.5122" stop-color="#40DDFF"/>
<stop offset="0.7604" stop-color="#40E7FF"/>
<stop offset="1" stop-color="#40EAFF"/>
</linearGradient>
<linearGradient id="paint9_linear_562_32254" x1="13.3899" y1="11.4697" x2="21.3971" y2="19.49" gradientUnits="userSpaceOnUse">
<stop stop-color="#65B895"/>
<stop offset="0.0685" stop-color="#62BD95"/>
<stop offset="0.4762" stop-color="#50DB97"/>
<stop offset="0.8009" stop-color="#44ED98"/>
<stop offset="1" stop-color="#40F498"/>
</linearGradient>
</defs>
</svg>
