<svg width="28" height="29" viewBox="0 0 28 29" fill="none" xmlns="http://www.w3.org/2000/svg">
<path fill-rule="evenodd" clip-rule="evenodd" d="M4.79552 3.19757C4.52848 3.48458 4.375 3.92631 4.375 4.50032V24.9175C4.375 25.4915 4.52848 25.9333 4.80551 26.2103L4.87788 26.2714L16.3181 14.8312V14.5742L4.8679 3.13643L4.79552 3.19757Z" fill="url(#paint0_linear_562_24253)"/>
<path fill-rule="evenodd" clip-rule="evenodd" d="M20.1245 18.6596L16.3086 14.8424V14.5754L20.1257 10.7583L20.2081 10.8094L24.7228 13.375C26.0156 14.1037 26.0156 15.3041 24.7228 16.0429L20.2081 18.6084C20.2069 18.6084 20.1245 18.6596 20.1245 18.6596Z" fill="url(#paint1_linear_562_24253)"/>
<path fill-rule="evenodd" clip-rule="evenodd" d="M20.2058 18.6084L16.3075 14.7089L4.79492 26.2215C5.21544 26.6732 5.92297 26.7244 6.7141 26.2827L20.2058 18.6084Z" fill="url(#paint2_linear_562_24253)"/>
<path fill-rule="evenodd" clip-rule="evenodd" d="M20.2058 10.8107L6.7141 3.14645C5.92422 2.69473 5.21544 2.75587 4.79492 3.20759L16.3063 14.709L20.2058 10.8107Z" fill="url(#paint3_linear_562_24253)"/>
<path opacity="0.2" fill-rule="evenodd" clip-rule="evenodd" d="M20.1232 18.5261L6.72387 26.1392C5.97516 26.5697 5.30757 26.5397 4.87706 26.1491L4.80469 26.2215L4.87706 26.2827C5.30757 26.672 5.97516 26.7032 6.72387 26.2727L20.2155 18.6084L20.1232 18.5261Z" fill="#FAFAFA"/>
<path opacity="0.12" fill-rule="evenodd" clip-rule="evenodd" d="M24.7203 15.9093L20.1133 18.5261L20.1956 18.6084L24.7103 16.0429C25.3567 15.6735 25.6749 15.1918 25.6749 14.7089C25.6337 15.1507 25.3056 15.5712 24.7203 15.9093Z" fill="#FAFAFA"/>
<path opacity="0.25" fill-rule="evenodd" clip-rule="evenodd" d="M6.7147 3.27995L24.7211 13.5098C25.3063 13.8379 25.6345 14.2685 25.6857 14.7102C25.6857 14.2285 25.3675 13.7456 24.7211 13.3762L6.7147 3.14643C5.42194 2.40771 4.375 3.0229 4.375 4.50034V4.63386C4.375 3.15642 5.42194 2.55121 6.7147 3.27995Z" fill="white"/>
<defs>
<linearGradient id="paint0_linear_562_24253" x1="15.2908" y1="4.28086" x2="-3.03444" y2="9.16364" gradientUnits="userSpaceOnUse">
<stop stop-color="#00A0FF"/>
<stop offset="0.007" stop-color="#00A1FF"/>
<stop offset="0.26" stop-color="#00BEFF"/>
<stop offset="0.512" stop-color="#00D2FF"/>
<stop offset="0.76" stop-color="#00DFFF"/>
<stop offset="1" stop-color="#00E3FF"/>
</linearGradient>
<linearGradient id="paint1_linear_562_24253" x1="26.405" y1="14.7095" x2="4.06128" y2="14.7095" gradientUnits="userSpaceOnUse">
<stop stop-color="#FFE000"/>
<stop offset="0.409" stop-color="#FFBD00"/>
<stop offset="0.775" stop-color="#FFA500"/>
<stop offset="1" stop-color="#FF9C00"/>
</linearGradient>
<linearGradient id="paint2_linear_562_24253" x1="18.086" y1="16.8303" x2="3.37443" y2="41.5908" gradientUnits="userSpaceOnUse">
<stop stop-color="#FF3A44"/>
<stop offset="1" stop-color="#C31162"/>
</linearGradient>
<linearGradient id="paint3_linear_562_24253" x1="1.89692" y1="-3.59414" x2="8.4602" y2="7.46432" gradientUnits="userSpaceOnUse">
<stop stop-color="#32A071"/>
<stop offset="0.069" stop-color="#2DA771"/>
<stop offset="0.476" stop-color="#15CF74"/>
<stop offset="0.801" stop-color="#06E775"/>
<stop offset="1" stop-color="#00F076"/>
</linearGradient>
</defs>
</svg>
