<svg width="28" height="28" viewBox="0 0 28 28" fill="none" xmlns="http://www.w3.org/2000/svg">
<path d="M9.33333 3.49994C6.11683 3.49994 3.5 6.11677 3.5 9.33327V18.6666C3.5 21.8831 6.11683 24.4999 9.33333 24.4999H18.6667C21.8832 24.4999 24.5 21.8831 24.5 18.6666V9.33327C24.5 6.11677 21.8832 3.49994 18.6667 3.49994H9.33333ZM9.33333 5.83327H18.6667C20.5963 5.83327 22.1667 7.40361 22.1667 9.33327V18.6666C22.1667 20.5963 20.5963 22.1666 18.6667 22.1666H9.33333C7.40367 22.1666 5.83333 20.5963 5.83333 18.6666V9.33327C5.83333 7.40361 7.40367 5.83327 9.33333 5.83327ZM19.8333 6.99994C19.5239 6.99994 19.2272 7.12286 19.0084 7.34165C18.7896 7.56044 18.6667 7.85719 18.6667 8.16661C18.6667 8.47602 18.7896 8.77277 19.0084 8.99156C19.2272 9.21036 19.5239 9.33327 19.8333 9.33327C20.1428 9.33327 20.4395 9.21036 20.6583 8.99156C20.8771 8.77277 21 8.47602 21 8.16661C21 7.85719 20.8771 7.56044 20.6583 7.34165C20.4395 7.12286 20.1428 6.99994 19.8333 6.99994ZM14 8.16661C10.7835 8.16661 8.16667 10.7834 8.16667 13.9999C8.16667 17.2164 10.7835 19.8333 14 19.8333C17.2165 19.8333 19.8333 17.2164 19.8333 13.9999C19.8333 10.7834 17.2165 8.16661 14 8.16661ZM14 10.4999C15.9297 10.4999 17.5 12.0703 17.5 13.9999C17.5 15.9296 15.9297 17.4999 14 17.4999C12.0703 17.4999 10.5 15.9296 10.5 13.9999C10.5 12.0703 12.0703 10.4999 14 10.4999Z" fill="#7F7F7F"/>
</svg>
