<svg width="24" height="24" viewBox="0 0 24 24" fill="none" xmlns="http://www.w3.org/2000/svg">
<path d="M4.38973 10.91C3.62973 9.41 3.04973 4.39 4.70973 3.43C6.36973 2.47 9.51973 5.72 9.51973 5.72C9.51973 5.72 10.4097 6.39 7.18973 8.97C4.50973 11.12 4.38973 10.91 4.38973 10.91Z" fill="#818181" stroke="black" stroke-width="0.7" stroke-miterlimit="10" stroke-linecap="round" stroke-linejoin="round"/>
<path d="M5.4701 4.94C6.0401 4.42 7.3801 5.57 7.7601 6.02C7.8401 6.11 8.7301 7.17 7.3601 8.22C6.6801 8.74 5.3501 8.87 5.3501 8.87C5.3501 8.87 4.7601 5.59 5.4701 4.94Z" fill="white"/>
<path d="M5.83008 4.84C6.56008 5.02 7.62008 6 7.91008 6.34" stroke="black" stroke-width="0.7" stroke-miterlimit="10" stroke-linecap="round" stroke-linejoin="round"/>
<path d="M19.9401 10.91C20.7001 9.4 21.2801 4.39 19.6201 3.42C17.9601 2.45 14.8101 5.71 14.8101 5.71C14.8101 5.71 13.9201 6.38 17.1401 8.96C19.8201 11.12 19.9401 10.91 19.9401 10.91Z" fill="#818181" stroke="black" stroke-width="0.7" stroke-miterlimit="10" stroke-linecap="round" stroke-linejoin="round"/>
<path d="M18.8597 4.94C18.2897 4.42 16.9497 5.57 16.5697 6.02C16.4897 6.11 15.5997 7.17 16.9697 8.22C17.6497 8.74 18.9897 8.86 18.9897 8.86C18.9897 8.86 19.5697 5.59 18.8597 4.94Z" fill="white"/>
<path d="M18.4999 4.84C17.7699 5.02 16.7099 6 16.4199 6.34" stroke="black" stroke-width="0.7" stroke-miterlimit="10" stroke-linecap="round" stroke-linejoin="round"/>
<path d="M18.1599 7.98C18.1599 7.98 20.4899 9.88 20.5199 13.21C21.6799 14.69 21.3799 16.17 20.5199 16.01C20.8199 17.6 19.8199 17.81 19.3899 17.78C18.9599 19.04 16.5599 20.76 12.8299 20.76H11.1099C7.5199 20.76 4.9799 19.05 4.5499 17.78C4.1299 17.8 3.1299 17.59 3.4299 16C2.5699 16.16 2.4099 14.72 3.4299 13.2C3.4499 9.87 5.6599 8.1 5.6599 8.1C5.6599 8.1 6.0599 7.72 6.1799 7.65C5.3599 7.6 7.09991 5.73 9.4699 6.06C9.4699 6.06 12.3399 4.77 14.7699 6.06C17.5999 6.19 18.7599 7.6 18.1599 7.98Z" fill="#818181" stroke="black" stroke-width="0.7" stroke-miterlimit="10" stroke-linecap="round" stroke-linejoin="round"/>
<path d="M18.3701 14.16C16.9801 11.5 12.7101 11.27 12.5101 15.21H11.8301C11.6301 11.27 7.36013 11.5 5.97013 14.16C5.51013 13.75 4.39013 13.29 3.36013 13.32C2.42013 14.79 2.59013 16.16 3.43013 16C3.13013 17.59 4.13013 17.8 4.56013 17.77C4.99013 19.03 7.52013 20.75 11.1201 20.75H12.8401C16.5701 20.75 18.9701 19.04 19.4001 17.77C19.8301 17.8 20.8201 17.58 20.5301 16C21.3701 16.16 21.6601 14.77 20.6101 13.33C19.6901 13.41 18.7701 13.8 18.3701 14.16Z" fill="white"/>
<path d="M14.3701 16.56C13.9401 17.06 12.6301 17.03 12.1601 16.56C12.1601 16.56 10.7801 17.52 9.81006 16.56" stroke="black" stroke-width="0.7" stroke-miterlimit="10" stroke-linecap="round" stroke-linejoin="round"/>
<path d="M12.1603 16.56C12.1603 16.56 11.6403 16.92 11.0103 16.98C11.0103 16.98 11.0103 16.98 11.0103 16.99C11.0503 17.65 11.2403 18.64 12.2003 18.64C13.1503 18.64 13.3403 17.63 13.3703 16.93C12.9103 16.94 12.4103 16.82 12.1603 16.56Z" fill="#FD815D" stroke="black" stroke-width="0.7" stroke-miterlimit="10" stroke-linecap="round" stroke-linejoin="round"/>
<path d="M19.9699 10.54C20.2799 11.28 20.5099 12.17 20.5199 13.2C21.6799 14.68 21.3799 16.16 20.5199 16C20.8199 17.59 19.8199 17.8 19.3899 17.77C18.9599 19.03 16.5599 20.75 12.8299 20.75H11.1099C7.5199 20.75 4.9799 19.04 4.5499 17.77C4.1299 17.8 3.1299 17.59 3.4299 16C2.5699 16.16 2.4099 14.72 3.4299 13.2C3.4399 11.88 3.7899 10.8 4.2099 9.98999" stroke="black" stroke-width="0.7" stroke-miterlimit="10" stroke-linecap="round" stroke-linejoin="round"/>
<path d="M10.5501 11.12C10.6201 10.86 10.4001 10.44 9.66006 10.38C8.92006 10.32 8.71006 10.73 8.72006 10.94C8.73006 11.18 8.87006 11.34 9.50006 11.37C10.1301 11.41 10.4301 11.55 10.5501 11.12Z" fill="white"/>
<path d="M12.1502 15.58C12.5478 15.58 12.8702 15.3696 12.8702 15.11C12.8702 14.8504 12.5478 14.64 12.1502 14.64C11.7525 14.64 11.4302 14.8504 11.4302 15.11C11.4302 15.3696 11.7525 15.58 12.1502 15.58Z" fill="black"/>
<path d="M13.8602 11.06C13.8002 10.8 14.0302 10.39 14.7602 10.36C15.5002 10.33 15.6902 10.74 15.6702 10.94C15.6502 11.18 15.5102 11.33 14.8902 11.34C14.2702 11.36 13.9602 11.49 13.8602 11.06Z" fill="white"/>
<path d="M14.8601 14.89C15.2798 14.89 15.6201 14.5497 15.6201 14.13C15.6201 13.7103 15.2798 13.37 14.8601 13.37C14.4404 13.37 14.1001 13.7103 14.1001 14.13C14.1001 14.5497 14.4404 14.89 14.8601 14.89Z" fill="black"/>
<path d="M9.32982 14.89C9.74956 14.89 10.0898 14.5497 10.0898 14.13C10.0898 13.7103 9.74956 13.37 9.32982 13.37C8.91009 13.37 8.56982 13.7103 8.56982 14.13C8.56982 14.5497 8.91009 14.89 9.32982 14.89Z" fill="black"/>
</svg>
