<svg width="28" height="28" viewBox="0 0 28 28" fill="none" xmlns="http://www.w3.org/2000/svg">
<path d="M14.2209 23.4149C7.96753 23.3916 5.1792 21.2449 4.28086 18.8066C3.4992 16.6949 3.72086 13.5916 5.43586 10.6516C5.43586 10.6516 4.80586 5.13324 6.7892 4.63158C8.77253 4.12991 11.4325 8.21324 11.4325 8.21324C11.4325 8.21324 13.9759 7.19824 17.0092 8.21324C17.0092 8.21324 19.6692 4.12991 21.6525 4.63158C23.6359 5.13324 23.0059 10.6516 23.0059 10.6516C24.4059 13.0782 24.7209 16.6482 23.7409 18.9466C22.6675 21.3849 20.0892 23.4382 14.2209 23.4149Z" fill="#AAA6A7"/>
<path d="M14.8968 7.53691C14.3952 7.51358 13.9168 7.52524 13.4852 7.53691C13.4618 8.56358 13.4618 11.2936 14.1618 11.2936C14.8152 11.2936 14.8968 8.82024 14.8968 7.53691Z" fill="#7F7F7F"/>
<path d="M12.3902 10.6052C12.8335 10.5469 12.7402 8.68021 12.6468 7.59521C12.0868 7.64188 11.6668 7.71188 11.4102 7.75855C11.5268 8.56355 11.9002 10.6752 12.3902 10.6052Z" fill="#7F7F7F"/>
<path d="M16.0162 10.6057C16.5178 10.6757 16.8795 8.56398 16.9962 7.74732C16.5762 7.67732 16.1562 7.61898 15.7595 7.58398C15.6662 8.66898 15.5728 10.5473 16.0162 10.6057Z" fill="#7F7F7F"/>
<path d="M7.29195 12.8918C8.15529 12.9151 8.19029 12.3901 7.45529 11.8768C6.91862 11.5034 5.95029 11.2701 5.48362 11.1768C5.25029 11.6201 5.05195 12.0634 4.87695 12.5068C5.70529 12.6001 6.74362 12.8684 7.29195 12.8918Z" fill="#7F7F7F"/>
<path d="M6.13604 14.4089C6.88271 14.3389 6.98771 13.7089 6.24104 13.5339C5.82104 13.4406 5.09771 13.4289 4.56104 13.4522C4.42104 13.9072 4.31604 14.3506 4.23438 14.7939C4.84104 14.6539 5.69271 14.4556 6.13604 14.4089Z" fill="#7F7F7F"/>
<path d="M22.9377 11.1421C22.5527 11.2121 21.4327 11.4571 20.8377 11.8771C20.1143 12.3788 20.1377 12.9154 21.001 12.8921C21.561 12.8688 22.646 12.5888 23.486 12.4954C23.3227 12.0288 23.136 11.5738 22.9377 11.1421Z" fill="#7F7F7F"/>
<path d="M23.7431 13.4521C23.1948 13.4404 22.4714 13.4404 22.0514 13.5337C21.3048 13.7087 21.3981 14.3271 22.1564 14.4087C22.5881 14.4554 23.3814 14.6304 23.9881 14.7821C23.9298 14.3387 23.8481 13.8954 23.7431 13.4521Z" fill="#7F7F7F"/>
<path d="M14.2209 23.4149C7.96753 23.3916 5.1792 21.2449 4.28086 18.8066C3.4992 16.6949 3.72086 13.5916 5.43586 10.6516C5.43586 10.6516 4.80586 5.13324 6.7892 4.63158C8.77253 4.12991 11.4325 8.21324 11.4325 8.21324C11.4325 8.21324 13.9759 7.19824 17.0092 8.21324C17.0092 8.21324 19.6692 4.12991 21.6525 4.63158C23.6359 5.13324 23.0059 10.6516 23.0059 10.6516C24.4059 13.0782 24.7209 16.6482 23.7409 18.9466C22.6675 21.3849 20.0892 23.4382 14.2209 23.4149Z" stroke="black" stroke-width="0.816667" stroke-miterlimit="10" stroke-linecap="round" stroke-linejoin="round"/>
<path d="M17.2549 17.6517C17.3249 19.0984 16.2866 20.0667 14.2449 20.0667C12.2032 20.0667 11.2349 19.0984 11.2582 17.6984C11.2816 16.3917 12.5999 15.3301 14.2449 15.3301C15.8899 15.3301 17.1966 16.3451 17.2549 17.6517Z" fill="white"/>
<path d="M18.8633 8.71486C19.5166 7.33819 20.7299 6.74319 20.7299 6.74319C20.9049 6.64986 21.2199 6.62653 21.3716 6.96486C21.5466 7.34986 21.5933 8.02653 21.5699 8.52819C21.5466 9.23986 21.4066 9.83486 21.4066 9.83486C21.4066 9.83486 20.0416 9.01819 18.8633 8.71486Z" fill="#FDA6AA"/>
<path d="M9.64781 8.71486C8.99447 7.33819 7.78114 6.74319 7.78114 6.74319C7.60614 6.64986 7.29114 6.62653 7.15114 6.96486C6.97614 7.34986 6.92947 8.03819 6.94114 8.52819C6.96447 9.23986 7.10447 9.83486 7.10447 9.83486C7.10447 9.83486 8.46947 9.01819 9.64781 8.71486Z" fill="#FDA6AA"/>
<path d="M18.8633 8.5869C19.5166 7.21023 20.7299 6.61523 20.7299 6.61523" stroke="black" stroke-width="0.816667" stroke-miterlimit="10" stroke-linecap="round" stroke-linejoin="round"/>
<path d="M9.42526 8.55174C8.77193 7.17508 7.55859 6.58008 7.55859 6.58008" stroke="black" stroke-width="0.816667" stroke-miterlimit="10" stroke-linecap="round" stroke-linejoin="round"/>
<path d="M25.1973 15.5635C25.1973 15.5635 22.6889 15.5635 21.6973 16.0418" stroke="black" stroke-width="0.816667" stroke-miterlimit="10" stroke-linecap="round" stroke-linejoin="round"/>
<path d="M24.9894 18.6548C24.9894 18.6548 22.9711 17.7098 21.7461 17.8965" stroke="black" stroke-width="0.816667" stroke-miterlimit="10" stroke-linecap="round" stroke-linejoin="round"/>
<path d="M2.79883 15.5635C2.79883 15.5635 5.30716 15.5635 6.29883 16.0418" stroke="black" stroke-width="0.816667" stroke-miterlimit="10" stroke-linecap="round" stroke-linejoin="round"/>
<path d="M3.00781 18.6548C3.00781 18.6548 5.02615 17.7098 6.25115 17.8965" stroke="black" stroke-width="0.816667" stroke-miterlimit="10" stroke-linecap="round" stroke-linejoin="round"/>
<path d="M10.8846 15.7146C11.3872 15.7146 11.7946 15.2601 11.7946 14.6996C11.7946 14.139 11.3872 13.6846 10.8846 13.6846C10.382 13.6846 9.97461 14.139 9.97461 14.6996C9.97461 15.2601 10.382 15.7146 10.8846 15.7146Z" fill="black"/>
<path d="M17.5213 15.7146C18.0239 15.7146 18.4313 15.2601 18.4313 14.6996C18.4313 14.139 18.0239 13.6846 17.5213 13.6846C17.0187 13.6846 16.6113 14.139 16.6113 14.6996C16.6113 15.2601 17.0187 15.7146 17.5213 15.7146Z" fill="black"/>
<path d="M14.2451 16.6016C14.6123 16.6016 14.9101 16.3822 14.9101 16.1116C14.9101 15.841 14.6123 15.6216 14.2451 15.6216C13.8778 15.6216 13.5801 15.841 13.5801 16.1116C13.5801 16.3822 13.8778 16.6016 14.2451 16.6016Z" fill="#C02B3A"/>
<path d="M11.9805 17.7217C12.3771 18.3867 13.6138 18.2817 14.1621 17.6284C14.8038 18.305 15.7955 18.2584 16.3438 17.6167" stroke="black" stroke-width="0.816667" stroke-miterlimit="10" stroke-linecap="round" stroke-linejoin="round"/>
</svg>
