<svg width="24" height="24" viewBox="0 0 24 24" fill="none" xmlns="http://www.w3.org/2000/svg">
<path d="M12.0507 4.53003C7.57069 4.53003 4.11069 7.64003 4.16069 11.78C4.20069 15.93 5.65069 19.47 12.0207 19.47C18.3907 19.47 19.8007 15.44 19.6807 11.71C19.5407 7.98003 16.6507 4.53003 12.0507 4.53003Z" fill="#FDF4D2"/>
<path d="M19.5002 11.7099C19.3802 8.25993 17.1702 5.10993 13.1502 4.67993C12.0602 8.29993 11.6302 14.4299 19.0202 15.4099C19.4402 14.2799 19.5402 12.9999 19.5002 11.7099Z" fill="#D58017"/>
<path d="M10.8906 4.76001C7.02062 5.05001 4.12062 7.86001 4.15062 11.78C4.16062 13.13 4.30062 14.38 4.69062 15.46C11.8406 15.2 11.9406 8.46001 10.8906 4.76001Z" fill="#D58017"/>
<path d="M12.0507 4.53003C7.57069 4.53003 4.11069 7.64003 4.16069 11.78C4.20069 15.93 5.65069 19.47 12.0207 19.47C18.3907 19.47 19.8007 15.44 19.6807 11.71C19.5407 7.98003 16.6507 4.53003 12.0507 4.53003Z" stroke="black" stroke-width="0.7" stroke-miterlimit="10" stroke-linecap="round" stroke-linejoin="round"/>
<path d="M9.23016 12.9801C9.68303 12.9801 10.0502 12.613 10.0502 12.1601C10.0502 11.7072 9.68303 11.3401 9.23016 11.3401C8.77728 11.3401 8.41016 11.7072 8.41016 12.1601C8.41016 12.613 8.77728 12.9801 9.23016 12.9801Z" fill="black"/>
<path d="M13.9404 12.0401C14.3004 11.8101 15.2404 11.7301 15.4404 11.7701" stroke="black" stroke-width="0.7" stroke-miterlimit="10" stroke-linecap="round" stroke-linejoin="round"/>
<path d="M11.9908 13.38C12.3498 13.38 12.6408 13.1785 12.6408 12.93C12.6408 12.6815 12.3498 12.48 11.9908 12.48C11.6318 12.48 11.3408 12.6815 11.3408 12.93C11.3408 13.1785 11.6318 13.38 11.9908 13.38Z" fill="black"/>
<path d="M14.6604 14.0601C14.4104 14.7001 12.7604 14.8801 12.1204 14.2901C11.4704 14.9101 9.95039 14.6801 9.65039 14.2201" stroke="black" stroke-width="0.7" stroke-miterlimit="10" stroke-linecap="round" stroke-linejoin="round"/>
<path d="M12.1006 14.3401C12.1906 15.3201 12.7806 16.3701 13.8506 15.9601C14.5206 15.7001 14.5606 14.8901 14.3406 14.3501C13.7006 14.6601 12.6706 14.8601 12.1006 14.3401Z" fill="#FB9D5C" stroke="black" stroke-width="0.7" stroke-miterlimit="10" stroke-linecap="round" stroke-linejoin="round"/>
<path d="M13.29 14.79L13.39 15.01" stroke="black" stroke-width="0.7" stroke-miterlimit="10" stroke-linecap="round" stroke-linejoin="round"/>
<path d="M7.38041 6.07007C5.14041 6.23007 3.06041 8.45007 2.60041 10.3501C1.93041 13.1201 2.63041 14.9601 4.37041 14.9301C6.44041 14.8801 6.81041 12.2401 6.77041 11.6701" fill="#D58017"/>
<path d="M7.38041 6.07007C5.14041 6.23007 3.06041 8.45007 2.60041 10.3501C1.93041 13.1201 2.63041 14.9601 4.37041 14.9301C6.44041 14.8801 6.81041 12.2401 6.77041 11.6701" stroke="black" stroke-width="0.7" stroke-miterlimit="10" stroke-linecap="round" stroke-linejoin="round"/>
<path d="M16.5508 6.04004C18.5808 6.07004 20.7608 8.41004 21.3308 10.32C22.1508 13.05 21.3008 14.93 19.5608 14.9C17.4908 14.85 17.1208 12.21 17.1608 11.64" fill="#D58017"/>
<path d="M16.5508 6.04004C18.5808 6.07004 20.7608 8.41004 21.3308 10.32C22.1508 13.05 21.3008 14.93 19.5608 14.9C17.4908 14.85 17.1208 12.21 17.1608 11.64" stroke="black" stroke-width="0.7" stroke-miterlimit="10" stroke-linecap="round" stroke-linejoin="round"/>
</svg>
