<svg width="28" height="28" viewBox="0 0 28 28" fill="none" xmlns="http://www.w3.org/2000/svg">
<path d="M14.0572 5.28516C8.83052 5.28516 4.79385 8.91349 4.85219 13.7435C4.89885 18.5852 6.59052 22.7152 14.0222 22.7152C21.4539 22.7152 23.0989 18.0135 22.9589 13.6618C22.7955 9.31016 19.4239 5.28516 14.0572 5.28516Z" fill="#FDF4D2"/>
<path d="M22.751 13.6616C22.611 9.63663 20.0327 5.96163 15.3427 5.45996C14.071 9.68329 13.5693 16.835 22.191 17.9783C22.681 16.66 22.7977 15.1666 22.751 13.6616Z" fill="#D58017"/>
<path d="M12.7054 5.55371C8.1904 5.89204 4.80707 9.17038 4.84207 13.7437C4.85373 15.3187 5.01707 16.777 5.47207 18.037C13.8137 17.7337 13.9304 9.87038 12.7054 5.55371Z" fill="#D58017"/>
<path d="M14.0572 5.28516C8.83052 5.28516 4.79385 8.91349 4.85219 13.7435C4.89885 18.5852 6.59052 22.7152 14.0222 22.7152C21.4539 22.7152 23.0989 18.0135 22.9589 13.6618C22.7955 9.31016 19.4239 5.28516 14.0572 5.28516Z" stroke="black" stroke-width="0.816667" stroke-miterlimit="10" stroke-linecap="round" stroke-linejoin="round"/>
<path d="M10.7672 15.1438C11.2956 15.1438 11.7239 14.7155 11.7239 14.1871C11.7239 13.6588 11.2956 13.2305 10.7672 13.2305C10.2389 13.2305 9.81055 13.6588 9.81055 14.1871C9.81055 14.7155 10.2389 15.1438 10.7672 15.1438Z" fill="black"/>
<path d="M16.2617 14.0467C16.6817 13.7784 17.7784 13.6851 18.0117 13.7317" stroke="black" stroke-width="0.816667" stroke-miterlimit="10" stroke-linecap="round" stroke-linejoin="round"/>
<path d="M13.9868 15.6105C14.4057 15.6105 14.7452 15.3755 14.7452 15.0855C14.7452 14.7956 14.4057 14.5605 13.9868 14.5605C13.568 14.5605 13.2285 14.7956 13.2285 15.0855C13.2285 15.3755 13.568 15.6105 13.9868 15.6105Z" fill="black"/>
<path d="M17.1028 16.4033C16.8111 17.15 14.8861 17.36 14.1395 16.6717C13.3811 17.395 11.6078 17.1267 11.2578 16.59" stroke="black" stroke-width="0.816667" stroke-miterlimit="10" stroke-linecap="round" stroke-linejoin="round"/>
<path d="M14.1152 16.7305C14.2202 17.8738 14.9086 19.0988 16.1569 18.6205C16.9386 18.3171 16.9852 17.3721 16.7286 16.7421C15.9819 17.1038 14.7802 17.3371 14.1152 16.7305Z" fill="#FB9D5C" stroke="black" stroke-width="0.816667" stroke-miterlimit="10" stroke-linecap="round" stroke-linejoin="round"/>
<path d="M15.5059 17.2549L15.6225 17.5115" stroke="black" stroke-width="0.816667" stroke-miterlimit="10" stroke-linecap="round" stroke-linejoin="round"/>
<path d="M8.6095 7.08203C5.99617 7.2687 3.5695 9.8587 3.03283 12.0754C2.25117 15.307 3.06783 17.4537 5.09783 17.4187C7.51283 17.3604 7.9445 14.2804 7.89783 13.6154" fill="#D58017"/>
<path d="M8.6095 7.08203C5.99617 7.2687 3.5695 9.8587 3.03283 12.0754C2.25117 15.307 3.06783 17.4537 5.09783 17.4187C7.51283 17.3604 7.9445 14.2804 7.89783 13.6154" stroke="black" stroke-width="0.816667" stroke-miterlimit="10" stroke-linecap="round" stroke-linejoin="round"/>
<path d="M19.3086 7.04639C21.6769 7.08139 24.2203 9.81139 24.8853 12.0397C25.8419 15.2247 24.8503 17.4181 22.8203 17.3831C20.4053 17.3247 19.9736 14.2447 20.0203 13.5797" fill="#D58017"/>
<path d="M19.3086 7.04639C21.6769 7.08139 24.2203 9.81139 24.8853 12.0397C25.8419 15.2247 24.8503 17.4181 22.8203 17.3831C20.4053 17.3247 19.9736 14.2447 20.0203 13.5797" stroke="black" stroke-width="0.816667" stroke-miterlimit="10" stroke-linecap="round" stroke-linejoin="round"/>
</svg>
