<svg width="24" height="24" viewBox="0 0 24 24" fill="none" xmlns="http://www.w3.org/2000/svg">
<path d="M12.1904 20.07C6.83043 20.05 4.44043 18.21 3.67043 16.12C3.00043 14.31 3.19043 11.65 4.66043 9.12996C4.66043 9.12996 4.12043 4.39996 5.82043 3.96996C7.52043 3.53996 9.80043 7.03996 9.80043 7.03996C9.80043 7.03996 11.9804 6.16996 14.5804 7.03996C14.5804 7.03996 16.8604 3.53996 18.5604 3.96996C20.2604 4.39996 19.7204 9.12996 19.7204 9.12996C20.9204 11.21 21.1904 14.27 20.3504 16.24C19.4304 18.33 17.2204 20.09 12.1904 20.07Z" fill="#AAA6A7"/>
<path d="M12.7704 6.46003C12.3404 6.44003 11.9304 6.45003 11.5604 6.46003C11.5404 7.34003 11.5404 9.68003 12.1404 9.68003C12.7004 9.68003 12.7704 7.56003 12.7704 6.46003Z" fill="#7F7F7F"/>
<path d="M10.6213 9.09001C11.0013 9.04001 10.9213 7.44001 10.8413 6.51001C10.3613 6.55001 10.0012 6.61001 9.78125 6.65001C9.88125 7.34001 10.2013 9.15001 10.6213 9.09001Z" fill="#7F7F7F"/>
<path d="M13.7311 9.09C14.1611 9.15 14.4711 7.34 14.5711 6.64C14.2111 6.58 13.8511 6.53 13.5111 6.5C13.4311 7.43 13.3511 9.04 13.7311 9.09Z" fill="#7F7F7F"/>
<path d="M6.25066 11.0501C6.99066 11.0701 7.02066 10.6201 6.39066 10.1801C5.93066 9.86008 5.10066 9.66008 4.70066 9.58008C4.50066 9.96008 4.33066 10.3401 4.18066 10.7201C4.89066 10.8001 5.78066 11.0301 6.25066 11.0501Z" fill="#7F7F7F"/>
<path d="M5.26086 12.3501C5.90086 12.2901 5.99086 11.7501 5.35086 11.6001C4.99086 11.5201 4.37086 11.5101 3.91086 11.5301C3.79086 11.9201 3.70086 12.3001 3.63086 12.6801C4.15086 12.5601 4.88086 12.3901 5.26086 12.3501Z" fill="#7F7F7F"/>
<path d="M19.6607 9.55005C19.3307 9.61005 18.3707 9.82005 17.8607 10.18C17.2407 10.61 17.2607 11.07 18.0007 11.05C18.4807 11.03 19.4107 10.79 20.1307 10.71C19.9907 10.31 19.8307 9.92005 19.6607 9.55005Z" fill="#7F7F7F"/>
<path d="M20.3508 11.5299C19.8808 11.5199 19.2608 11.5199 18.9008 11.5999C18.2608 11.7499 18.3408 12.2799 18.9908 12.3499C19.3608 12.3899 20.0408 12.5399 20.5608 12.6699C20.5108 12.2899 20.4408 11.9099 20.3508 11.5299Z" fill="#7F7F7F"/>
<path d="M12.1904 20.07C6.83043 20.05 4.44043 18.21 3.67043 16.12C3.00043 14.31 3.19043 11.65 4.66043 9.12996C4.66043 9.12996 4.12043 4.39996 5.82043 3.96996C7.52043 3.53996 9.80043 7.03996 9.80043 7.03996C9.80043 7.03996 11.9804 6.16996 14.5804 7.03996C14.5804 7.03996 16.8604 3.53996 18.5604 3.96996C20.2604 4.39996 19.7204 9.12996 19.7204 9.12996C20.9204 11.21 21.1904 14.27 20.3504 16.24C19.4304 18.33 17.2204 20.09 12.1904 20.07Z" stroke="black" stroke-width="0.7" stroke-miterlimit="10" stroke-linecap="round" stroke-linejoin="round"/>
<path d="M14.7907 15.1299C14.8507 16.3699 13.9607 17.1999 12.2107 17.1999C10.4607 17.1999 9.63074 16.3699 9.65074 15.1699C9.67074 14.0499 10.8007 13.1399 12.2107 13.1399C13.6207 13.1399 14.7407 14.0099 14.7907 15.1299Z" fill="white"/>
<path d="M16.1699 7.47002C16.7299 6.29002 17.7699 5.78002 17.7699 5.78002C17.9199 5.70002 18.1899 5.68002 18.3199 5.97002C18.4699 6.30002 18.5099 6.88002 18.4899 7.31002C18.4699 7.92002 18.3499 8.43002 18.3499 8.43002C18.3499 8.43002 17.1799 7.73002 16.1699 7.47002Z" fill="#FDA6AA"/>
<path d="M8.27066 7.47002C7.71066 6.29002 6.67066 5.78002 6.67066 5.78002C6.52066 5.70002 6.25066 5.68002 6.13066 5.97002C5.98066 6.30002 5.94066 6.89002 5.95066 7.31002C5.97066 7.92002 6.09066 8.43002 6.09066 8.43002C6.09066 8.43002 7.26066 7.73002 8.27066 7.47002Z" fill="#FDA6AA"/>
<path d="M16.1699 7.35992C16.7299 6.17992 17.7699 5.66992 17.7699 5.66992" stroke="black" stroke-width="0.7" stroke-miterlimit="10" stroke-linecap="round" stroke-linejoin="round"/>
<path d="M8.08047 7.32989C7.52047 6.14989 6.48047 5.63989 6.48047 5.63989" stroke="black" stroke-width="0.7" stroke-miterlimit="10" stroke-linecap="round" stroke-linejoin="round"/>
<path d="M21.6006 13.3398C21.6006 13.3398 19.4506 13.3398 18.6006 13.7498" stroke="black" stroke-width="0.7" stroke-miterlimit="10" stroke-linecap="round" stroke-linejoin="round"/>
<path d="M21.4206 15.99C21.4206 15.99 19.6906 15.18 18.6406 15.34" stroke="black" stroke-width="0.7" stroke-miterlimit="10" stroke-linecap="round" stroke-linejoin="round"/>
<path d="M2.40039 13.3398C2.40039 13.3398 4.55039 13.3398 5.40039 13.7498" stroke="black" stroke-width="0.7" stroke-miterlimit="10" stroke-linecap="round" stroke-linejoin="round"/>
<path d="M2.58008 15.99C2.58008 15.99 4.31008 15.18 5.36008 15.34" stroke="black" stroke-width="0.7" stroke-miterlimit="10" stroke-linecap="round" stroke-linejoin="round"/>
<path d="M9.33078 13.47C9.76156 13.47 10.1108 13.0805 10.1108 12.6C10.1108 12.1195 9.76156 11.73 9.33078 11.73C8.9 11.73 8.55078 12.1195 8.55078 12.6C8.55078 13.0805 8.9 13.47 9.33078 13.47Z" fill="black"/>
<path d="M15.0202 13.47C15.451 13.47 15.8002 13.0805 15.8002 12.6C15.8002 12.1195 15.451 11.73 15.0202 11.73C14.5895 11.73 14.2402 12.1195 14.2402 12.6C14.2402 13.0805 14.5895 13.47 15.0202 13.47Z" fill="black"/>
<path d="M12.2106 14.2299C12.5254 14.2299 12.7806 14.0419 12.7806 13.8099C12.7806 13.5779 12.5254 13.3899 12.2106 13.3899C11.8958 13.3899 11.6406 13.5779 11.6406 13.8099C11.6406 14.0419 11.8958 14.2299 12.2106 14.2299Z" fill="#C02B3A"/>
<path d="M10.2705 15.1899C10.6105 15.7599 11.6705 15.6699 12.1405 15.1099C12.6905 15.6899 13.5405 15.6499 14.0105 15.0999" stroke="black" stroke-width="0.7" stroke-miterlimit="10" stroke-linecap="round" stroke-linejoin="round"/>
</svg>
