<svg width="24" height="24" viewBox="0 0 24 24" fill="none" xmlns="http://www.w3.org/2000/svg">
<path d="M10.0896 21.0401C6.9896 19.4401 5.5696 16.5701 5.3196 14.9401C5.0696 13.3101 6.0296 10.5801 6.8996 8.32005C6.8996 8.32005 6.1496 7.65005 6.4996 5.97005C6.8496 4.30005 7.7396 3.13005 8.1096 2.90005C8.4896 2.67005 8.9596 2.67005 9.0496 3.49005C9.1896 4.76005 9.8796 6.10005 9.7796 6.77005C9.7796 6.77005 11.9796 5.69005 14.1996 6.77005C14.0996 6.10005 14.7896 4.75005 14.9296 3.49005C15.0196 2.67005 15.4896 2.66005 15.8696 2.90005C16.2496 3.13005 17.1296 4.30005 17.4796 5.97005C17.8296 7.64005 17.0796 8.32005 17.0796 8.32005C17.0796 8.32005 19.2196 12.8101 18.6096 15.0501C17.9096 17.6301 16.0396 19.8701 13.8396 21.0301C13.3296 21.3101 10.4996 21.2901 10.0896 21.0401Z" fill="#585552"/>
<path d="M18.5092 15.38C17.8792 16.38 16.7492 16.93 15.8392 16.93C13.6392 16.93 13.9092 15 11.8492 15C9.78922 15 9.78922 16.98 8.11922 16.98C7.20922 16.98 6.06922 16.32 5.44922 15.55C5.86922 17.24 7.34922 19.62 10.0992 21.04C10.4992 21.3 13.3292 21.31 13.8392 21.04C15.9392 19.92 17.7692 17.85 18.5092 15.38Z" fill="#ECA565"/>
<path d="M10.0896 21.0401C6.9896 19.4401 5.5696 16.5701 5.3196 14.9401C5.0696 13.3101 6.0296 10.5801 6.8996 8.32005C6.8996 8.32005 6.1496 7.65005 6.4996 5.97005C6.8496 4.30005 7.7396 3.13005 8.1096 2.90005C8.4896 2.67005 8.9596 2.67005 9.0496 3.49005C9.1896 4.76005 9.8796 6.10005 9.7796 6.77005C9.7796 6.77005 11.9796 5.69005 14.1996 6.77005C14.0996 6.10005 14.7896 4.75005 14.9296 3.49005C15.0196 2.67005 15.4896 2.66005 15.8696 2.90005C16.2496 3.13005 17.1296 4.30005 17.4796 5.97005C17.8296 7.64005 17.0796 8.32005 17.0796 8.32005C17.0796 8.32005 19.2196 12.8101 18.6096 15.0501C17.9096 17.6301 16.0396 19.8701 13.8396 21.0301C13.3296 21.3101 10.4996 21.2901 10.0896 21.0401Z" stroke="black" stroke-width="0.7" stroke-miterlimit="10" stroke-linecap="round" stroke-linejoin="round"/>
<path d="M8.63984 7.40004C8.84984 6.37004 7.92984 4.94004 7.92984 4.94004C7.69984 4.84004 7.54984 5.14004 7.38984 5.65004C7.24984 6.08004 7.08984 6.93004 7.68984 7.75004C7.68984 7.75004 7.90984 7.65004 8.17984 7.52004C8.42984 7.40004 8.63984 7.40004 8.63984 7.40004Z" fill="#ECA565"/>
<path d="M15.3398 7.40004C15.1298 6.37004 16.0498 4.94004 16.0498 4.94004C16.2798 4.84004 16.4298 5.14004 16.5898 5.65004C16.7298 6.08004 16.8898 6.93004 16.2898 7.75004C16.2898 7.75004 16.0698 7.65004 15.7998 7.52004C15.5498 7.40004 15.3398 7.40004 15.3398 7.40004Z" fill="#ECA565"/>
<path d="M8.63969 7.39994C8.84969 6.36994 7.92969 4.93994 7.92969 4.93994" stroke="black" stroke-width="0.7" stroke-miterlimit="10" stroke-linecap="round" stroke-linejoin="round"/>
<path d="M15.3398 7.39994C15.1298 6.36994 16.0498 4.93994 16.0498 4.93994" stroke="black" stroke-width="0.7" stroke-miterlimit="10" stroke-linecap="round" stroke-linejoin="round"/>
<path d="M9.45926 14.26C9.8569 14.26 10.1793 13.9332 10.1793 13.53C10.1793 13.1269 9.8569 12.8 9.45926 12.8C9.06161 12.8 8.73926 13.1269 8.73926 13.53C8.73926 13.9332 9.06161 14.26 9.45926 14.26Z" fill="black"/>
<path d="M14.3596 14.2701C14.7573 14.2701 15.0796 13.9432 15.0796 13.5401C15.0796 13.1369 14.7573 12.8101 14.3596 12.8101C13.962 12.8101 13.6396 13.1369 13.6396 13.5401C13.6396 13.9432 13.962 14.2701 14.3596 14.2701Z" fill="black"/>
<path d="M13.3595 11.7901C13.2795 11.5301 13.5095 11.2401 13.9095 11.0701C14.3095 10.9001 14.7695 10.9601 14.8695 11.2301C14.9695 11.4901 14.8995 11.7901 14.3395 12.0301C13.7795 12.2701 13.4195 12.0001 13.3595 11.7901Z" fill="#ECA565"/>
<path d="M10.5296 11.86C10.6096 11.6 10.3796 11.31 9.97964 11.14C9.57964 10.97 9.11965 11.03 9.01965 11.3C8.91965 11.57 8.98965 11.86 9.54965 12.1C10.0896 12.34 10.4596 12.07 10.5296 11.86Z" fill="#ECA565"/>
<path d="M11.9294 16.5901C12.3822 16.5901 12.7494 16.317 12.7494 15.9801C12.7494 15.6432 12.3822 15.3701 11.9294 15.3701C11.4765 15.3701 11.1094 15.6432 11.1094 15.9801C11.1094 16.317 11.4765 16.5901 11.9294 16.5901Z" fill="black"/>
<path d="M9.89941 17.77C10.3394 18.47 11.4294 18.59 12.0294 17.82C12.6294 18.57 13.8794 17.84 14.2694 17.27" stroke="black" stroke-width="0.7" stroke-miterlimit="10" stroke-linecap="round" stroke-linejoin="round"/>
</svg>
