<svg width="28" height="28" viewBox="0 0 28 28" fill="none" xmlns="http://www.w3.org/2000/svg">
<path d="M11.7722 24.5468C8.15552 22.6801 6.49885 19.3318 6.20718 17.4301C5.91551 15.5284 7.03551 12.3434 8.05051 9.70677C8.05051 9.70677 7.17551 8.9251 7.58385 6.9651C7.99218 5.01677 9.03051 3.65177 9.46218 3.38344C9.90551 3.1151 10.4538 3.1151 10.5588 4.07177C10.7222 5.55344 11.5272 7.11677 11.4105 7.89844C11.4105 7.89844 13.9772 6.63844 16.5672 7.89844C16.4505 7.11677 17.2555 5.54177 17.4188 4.07177C17.5238 3.1151 18.0722 3.10344 18.5155 3.38344C18.9588 3.65177 19.9855 5.01677 20.3938 6.9651C20.8022 8.91344 19.9272 9.70677 19.9272 9.70677C19.9272 9.70677 22.4238 14.9451 21.7122 17.5584C20.8955 20.5684 18.7138 23.1818 16.1472 24.5351C15.5522 24.8618 12.2505 24.8384 11.7722 24.5468Z" fill="#585552"/>
<path d="M21.596 17.9433C20.861 19.11 19.5427 19.7517 18.481 19.7517C15.9144 19.7517 16.2294 17.5 13.826 17.5C11.4227 17.5 11.4227 19.81 9.47438 19.81C8.41271 19.81 7.08271 19.04 6.35938 18.1417C6.84938 20.1133 8.57604 22.89 11.7844 24.5467C12.251 24.85 15.5527 24.8617 16.1477 24.5467C18.5977 23.24 20.7327 20.825 21.596 17.9433Z" fill="#ECA565"/>
<path d="M11.7722 24.5468C8.15552 22.6801 6.49885 19.3318 6.20718 17.4301C5.91551 15.5284 7.03551 12.3434 8.05051 9.70677C8.05051 9.70677 7.17551 8.9251 7.58385 6.9651C7.99218 5.01677 9.03051 3.65177 9.46218 3.38344C9.90551 3.1151 10.4538 3.1151 10.5588 4.07177C10.7222 5.55344 11.5272 7.11677 11.4105 7.89844C11.4105 7.89844 13.9772 6.63844 16.5672 7.89844C16.4505 7.11677 17.2555 5.54177 17.4188 4.07177C17.5238 3.1151 18.0722 3.10344 18.5155 3.38344C18.9588 3.65177 19.9855 5.01677 20.3938 6.9651C20.8022 8.91344 19.9272 9.70677 19.9272 9.70677C19.9272 9.70677 22.4238 14.9451 21.7122 17.5584C20.8955 20.5684 18.7138 23.1818 16.1472 24.5351C15.5522 24.8618 12.2505 24.8384 11.7722 24.5468Z" stroke="black" stroke-width="0.816667" stroke-miterlimit="10" stroke-linecap="round" stroke-linejoin="round"/>
<path d="M10.0808 8.63354C10.3258 7.43187 9.25245 5.76354 9.25245 5.76354C8.98412 5.64687 8.80912 5.99687 8.62245 6.59187C8.45912 7.09354 8.27245 8.08521 8.97245 9.04187C8.97245 9.04187 9.22912 8.92521 9.54412 8.77354C9.83579 8.63354 10.0808 8.63354 10.0808 8.63354Z" fill="#ECA565"/>
<path d="M17.8977 8.63354C17.6527 7.43187 18.726 5.76354 18.726 5.76354C18.9944 5.64687 19.1694 5.99687 19.356 6.59187C19.5194 7.09354 19.706 8.08521 19.006 9.04187C19.006 9.04187 18.7494 8.92521 18.4344 8.77354C18.1427 8.63354 17.8977 8.63354 17.8977 8.63354Z" fill="#ECA565"/>
<path d="M10.0803 8.63367C10.3253 7.43201 9.25195 5.76367 9.25195 5.76367" stroke="black" stroke-width="0.816667" stroke-miterlimit="10" stroke-linecap="round" stroke-linejoin="round"/>
<path d="M17.8977 8.63367C17.6527 7.43201 18.726 5.76367 18.726 5.76367" stroke="black" stroke-width="0.816667" stroke-miterlimit="10" stroke-linecap="round" stroke-linejoin="round"/>
<path d="M11.0373 16.6369C11.5012 16.6369 11.8773 16.2556 11.8773 15.7853C11.8773 15.3149 11.5012 14.9336 11.0373 14.9336C10.5733 14.9336 10.1973 15.3149 10.1973 15.7853C10.1973 16.2556 10.5733 16.6369 11.0373 16.6369Z" fill="black"/>
<path d="M16.7541 16.6486C17.218 16.6486 17.5941 16.2673 17.5941 15.797C17.5941 15.3266 17.218 14.9453 16.7541 14.9453C16.2901 14.9453 15.9141 15.3266 15.9141 15.797C15.9141 16.2673 16.2901 16.6486 16.7541 16.6486Z" fill="black"/>
<path d="M15.5868 13.7554C15.4935 13.452 15.7618 13.1137 16.2285 12.9154C16.6951 12.717 17.2318 12.787 17.3485 13.102C17.4651 13.4054 17.3835 13.7554 16.7301 14.0354C16.0768 14.3154 15.6568 14.0004 15.5868 13.7554Z" fill="#ECA565"/>
<path d="M12.2847 13.8369C12.3781 13.5336 12.1097 13.1952 11.6431 12.9969C11.1764 12.7986 10.6397 12.8686 10.5231 13.1836C10.4064 13.4986 10.4881 13.8369 11.1414 14.1169C11.7714 14.3969 12.2031 14.0819 12.2847 13.8369Z" fill="#ECA565"/>
<path d="M13.9196 19.355C14.4479 19.355 14.8762 19.0363 14.8762 18.6433C14.8762 18.2503 14.4479 17.9316 13.9196 17.9316C13.3912 17.9316 12.9629 18.2503 12.9629 18.6433C12.9629 19.0363 13.3912 19.355 13.9196 19.355Z" fill="black"/>
<path d="M11.5508 20.7318C12.0641 21.5484 13.3358 21.6884 14.0358 20.7901C14.7358 21.6651 16.1941 20.8134 16.6491 20.1484" stroke="black" stroke-width="0.816667" stroke-miterlimit="10" stroke-linecap="round" stroke-linejoin="round"/>
</svg>
