<svg width="1280" height="80" viewBox="0 0 1280 80" fill="none" xmlns="http://www.w3.org/2000/svg">
<path d="M14.6311 36.3666C12.0978 31.3666 10.1645 14.6333 15.6978 11.4333C21.2311 8.2333 31.7311 19.0666 31.7311 19.0666C31.7311 19.0666 34.6978 21.3 23.9645 29.9C15.0311 37.0666 14.6311 36.3666 14.6311 36.3666Z" fill="#818181" stroke="black" stroke-width="2.32747" stroke-miterlimit="10" stroke-linecap="round" stroke-linejoin="round"/>
<path d="M18.232 16.4666C20.132 14.7333 24.5987 18.5666 25.8654 20.0666C26.132 20.3666 29.0987 23.9 24.532 27.4C22.2654 29.1333 17.832 29.5666 17.832 29.5666C17.832 29.5666 15.8654 18.6333 18.232 16.4666Z" fill="white"/>
<path d="M19.4326 16.1333C21.866 16.7333 25.3993 20 26.3659 21.1333" stroke="black" stroke-width="2.32747" stroke-miterlimit="10" stroke-linecap="round" stroke-linejoin="round"/>
<path d="M66.4662 36.3666C68.9995 31.3333 70.9329 14.6333 65.3996 11.4C59.8662 8.16664 49.3662 19.0333 49.3662 19.0333C49.3662 19.0333 46.3995 21.2666 57.1329 29.8666C66.0662 37.0666 66.4662 36.3666 66.4662 36.3666Z" fill="#818181" stroke="black" stroke-width="2.32747" stroke-miterlimit="10" stroke-linecap="round" stroke-linejoin="round"/>
<path d="M62.865 16.4666C60.965 14.7333 56.4984 18.5666 55.2317 20.0666C54.965 20.3666 51.9984 23.9 56.565 27.4C58.8317 29.1333 63.2984 29.5333 63.2984 29.5333C63.2984 29.5333 65.2317 18.6333 62.865 16.4666Z" fill="white"/>
<path d="M61.6658 16.1333C59.2324 16.7333 55.6991 20 54.7324 21.1333" stroke="black" stroke-width="2.32747" stroke-miterlimit="10" stroke-linecap="round" stroke-linejoin="round"/>
<path d="M60.5324 26.6C60.5324 26.6 68.299 32.9333 68.399 44.0333C72.2657 48.9666 71.2657 53.9 68.399 53.3666C69.399 58.6666 66.0657 59.3666 64.6324 59.2666C63.199 63.4666 55.199 69.2 42.7657 69.2H37.0324C25.0657 69.2 16.599 63.5 15.1657 59.2666C13.7657 59.3333 10.4324 58.6333 11.4324 53.3333C8.5657 53.8666 8.03237 49.0666 11.4324 44C11.499 32.9 18.8657 27 18.8657 27C18.8657 27 20.199 25.7333 20.599 25.5C17.8657 25.3333 23.6657 19.1 31.5657 20.2C31.5657 20.2 41.1324 15.9 49.2324 20.2C58.6657 20.6333 62.5324 25.3333 60.5324 26.6Z" fill="#818181" stroke="black" stroke-width="2.32747" stroke-miterlimit="10" stroke-linecap="round" stroke-linejoin="round"/>
<path d="M61.2338 47.2C56.6004 38.3333 42.3671 37.5666 41.7004 50.7H39.4338C38.7671 37.5666 24.5338 38.3333 19.9004 47.2C18.3671 45.8333 14.6338 44.3 11.2004 44.4C8.06709 49.3 8.63376 53.8666 11.4338 53.3333C10.4338 58.6333 13.7671 59.3333 15.2004 59.2333C16.6338 63.4333 25.0671 69.1666 37.0671 69.1666H42.8004C55.2338 69.1666 63.2338 63.4666 64.6671 59.2333C66.1004 59.3333 69.4004 58.6 68.4338 53.3333C71.2338 53.8666 72.2004 49.2333 68.7004 44.4333C65.6338 44.7 62.5671 46 61.2338 47.2Z" fill="white"/>
<path d="M47.8992 55.2C46.4659 56.8666 42.0992 56.7666 40.5326 55.2C40.5326 55.2 35.9326 58.4 32.6992 55.2" stroke="black" stroke-width="2.32747" stroke-miterlimit="10" stroke-linecap="round" stroke-linejoin="round"/>
<path d="M40.5335 55.2C40.5335 55.2 38.8002 56.4 36.7002 56.6C36.7002 56.6 36.7002 56.6 36.7002 56.6333C36.8335 58.8333 37.4669 62.1333 40.6669 62.1333C43.8335 62.1333 44.4669 58.7667 44.5669 56.4333C43.0335 56.4667 41.3669 56.0666 40.5335 55.2Z" fill="#FD815D" stroke="black" stroke-width="2.32747" stroke-miterlimit="10" stroke-linecap="round" stroke-linejoin="round"/>
<path d="M66.5657 35.1333C67.599 37.5999 68.3657 40.5666 68.399 43.9999C72.2657 48.9333 71.2657 53.8666 68.399 53.3333C69.399 58.6333 66.0657 59.3333 64.6324 59.2333C63.199 63.4333 55.199 69.1666 42.7657 69.1666H37.0324C25.0657 69.1666 16.599 63.4666 15.1657 59.2333C13.7657 59.3333 10.4324 58.6333 11.4324 53.3333C8.5657 53.8666 8.03237 49.0666 11.4324 43.9999C11.4657 39.5999 12.6324 35.9999 14.0324 33.2999" stroke="black" stroke-width="2.32747" stroke-miterlimit="10" stroke-linecap="round" stroke-linejoin="round"/>
<path d="M35.1656 37.0665C35.3989 36.1998 34.6656 34.7998 32.1989 34.5998C29.7322 34.3998 29.0322 35.7665 29.0656 36.4665C29.0989 37.2665 29.5656 37.7998 31.6656 37.8998C33.7656 38.0331 34.7656 38.4998 35.1656 37.0665Z" fill="white"/>
<path d="M40.4996 51.9333C41.8251 51.9333 42.8996 51.2318 42.8996 50.3666C42.8996 49.5013 41.8251 48.7999 40.4996 48.7999C39.1741 48.7999 38.0996 49.5013 38.0996 50.3666C38.0996 51.2318 39.1741 51.9333 40.4996 51.9333Z" fill="black"/>
<path d="M46.1992 36.8666C45.9992 35.9999 46.7659 34.6333 49.1992 34.5333C51.6659 34.4333 52.2992 35.7999 52.2326 36.4666C52.1659 37.2666 51.6992 37.7666 49.6326 37.7999C47.5659 37.8666 46.5326 38.2999 46.1992 36.8666Z" fill="white"/>
<path d="M49.5324 49.6333C50.9315 49.6333 52.0657 48.4991 52.0657 47.1C52.0657 45.7009 50.9315 44.5667 49.5324 44.5667C48.1332 44.5667 46.999 45.7009 46.999 47.1C46.999 48.4991 48.1332 49.6333 49.5324 49.6333Z" fill="black"/>
<path d="M31.0988 49.6333C32.4979 49.6333 33.6321 48.4991 33.6321 47.1C33.6321 45.7009 32.4979 44.5667 31.0988 44.5667C29.6996 44.5667 28.5654 45.7009 28.5654 47.1C28.5654 48.4991 29.6996 49.6333 31.0988 49.6333Z" fill="black"/>
<path d="M104.466 62.9H136.532" stroke="black" stroke-width="2.32747" stroke-miterlimit="10" stroke-linecap="round" stroke-linejoin="round"/>
<path d="M118.5 65.6999C109 65.6999 102.566 64.3332 98.1663 61.9332C87.6663 56.2666 89.2663 44.3332 93.6996 34.2332C91.1329 29.6666 88.8663 18.2666 93.3996 15.1999C98.5996 11.6999 109.9 19.5999 109.9 19.5999C109.9 19.5999 119.466 15.7332 130.433 19.5999C130.433 19.5999 141.733 11.7332 146.933 15.1999C151.5 18.2666 149.2 29.9332 146.666 34.4999C150.666 42.7332 152.2 55.8666 142.266 61.9332C137.533 64.8332 129.966 65.6999 118.5 65.6999Z" fill="#FCB160"/>
<path d="M146.934 15.2C141.734 11.7 130.434 19.6 130.434 19.6C137.134 21.4333 145.367 29.8 146.767 34.3C149.267 29.6 151.4 18.2333 146.934 15.2Z" fill="white"/>
<path d="M109.766 19.4666C108.466 18.6 98.2658 11.9 93.4325 15.1666C88.8991 18.2333 91.1325 29.5666 93.6658 34.1666C96.0325 28.1666 100.766 22.8 109.766 19.4666Z" fill="white"/>
<path d="M118.5 65.6999C109 65.6999 102.566 64.3332 98.1663 61.9332C87.6663 56.2666 89.2663 44.3332 93.6996 34.2332C91.1329 29.6666 88.8663 18.2666 93.3996 15.1999C98.5996 11.6999 109.9 19.5999 109.9 19.5999C109.9 19.5999 119.466 15.7332 130.433 19.5999C130.433 19.5999 141.733 11.7332 146.933 15.1999C151.5 18.2666 149.2 29.9332 146.666 34.4999C150.666 42.7332 152.2 55.8666 142.266 61.9332C137.533 64.8332 129.333 65.6999 118.5 65.6999Z" stroke="black" stroke-width="2.32747" stroke-miterlimit="10" stroke-linecap="round" stroke-linejoin="round"/>
<path d="M127.567 50.3999C127.734 54.3666 125.167 57.0333 120.101 57.0333C115.034 57.0333 112.634 54.3666 112.667 50.5333C112.734 46.9333 116.001 44.0333 120.101 44.0333C124.201 44.0333 127.401 46.8333 127.567 50.3999Z" fill="white"/>
<path d="M105.7 22.8333C102.533 20.2 97.2665 19.7666 97.2665 19.7666C95.9665 20.2666 95.4332 26.0666 97.7999 29.9333C97.7999 29.9333 99.6332 29.1333 102.633 26.4333C105.633 23.7333 105.7 22.8333 105.7 22.8333Z" fill="#FCB160"/>
<path d="M105.699 22.8333C102.532 20.2 97.2656 19.7666 97.2656 19.7666" stroke="black" stroke-width="2.32747" stroke-miterlimit="10" stroke-linecap="round" stroke-linejoin="round"/>
<path d="M134.633 22.8333C137.799 20.2 143.066 19.7666 143.066 19.7666C144.366 20.3 144.899 26.0666 142.533 29.9333C142.533 29.9333 140.699 29.1333 137.699 26.4333C134.733 23.7 134.633 22.8333 134.633 22.8333Z" fill="#FCB160"/>
<path d="M134.633 22.8333C137.799 20.2 143.066 19.7666 143.066 19.7666" stroke="black" stroke-width="2.32747" stroke-miterlimit="10" stroke-linecap="round" stroke-linejoin="round"/>
<path d="M111.533 45C112.858 45 113.933 43.9254 113.933 42.5999C113.933 41.2745 112.858 40.2 111.533 40.2C110.207 40.2 109.133 41.2745 109.133 42.5999C109.133 43.9254 110.207 45 111.533 45Z" fill="black"/>
<path d="M128.366 45C129.691 45 130.766 43.9254 130.766 42.5999C130.766 41.2745 129.691 40.2 128.366 40.2C127.04 40.2 125.966 41.2745 125.966 42.5999C125.966 43.9254 127.04 45 128.366 45Z" fill="black"/>
<path d="M119.899 47.5333C121.04 47.5333 121.965 46.8618 121.965 46.0333C121.965 45.2049 121.04 44.5333 119.899 44.5333C118.757 44.5333 117.832 45.2049 117.832 46.0333C117.832 46.8618 118.757 47.5333 119.899 47.5333Z" fill="black"/>
<path d="M125.999 50.2667C124.832 51.7 121.332 51.6 120.099 50.2667C120.099 50.2667 116.399 53 113.799 50.2667" stroke="black" stroke-width="2.32747" stroke-miterlimit="10" stroke-linecap="round" stroke-linejoin="round"/>
<path d="M112.067 36.9666C113.355 36.9666 114.4 36.1607 114.4 35.1666C114.4 34.1725 113.355 33.3666 112.067 33.3666C110.778 33.3666 109.733 34.1725 109.733 35.1666C109.733 36.1607 110.778 36.9666 112.067 36.9666Z" fill="white"/>
<path d="M128.067 36.9666C129.355 36.9666 130.4 36.1607 130.4 35.1666C130.4 34.1725 129.355 33.3666 128.067 33.3666C126.778 33.3666 125.733 34.1725 125.733 35.1666C125.733 36.1607 126.778 36.9666 128.067 36.9666Z" fill="white"/>
<path d="M98.9997 49.1666C98.133 46.8333 99.033 44.3 102.033 43.7666C105.033 43.2333 107.033 44.3 107.333 46.6C107.6 48.6 108.333 53.0333 105.6 54.4333C102.866 55.8333 100.2 52.3666 98.9997 49.1666Z" fill="white"/>
<path d="M141.234 49.1666C142.101 46.8333 141.201 44.3 138.201 43.7666C135.201 43.2333 133.201 44.3 132.901 46.6C132.634 48.6 131.901 53.0333 134.634 54.4333C137.401 55.8333 140.034 52.3666 141.234 49.1666Z" fill="white"/>
<path d="M193.634 70.1334C183.301 64.8001 178.567 55.2334 177.734 49.8C176.901 44.3667 180.101 35.2667 183.001 27.7334C183.001 27.7334 180.501 25.5 181.667 19.9C182.834 14.3334 185.801 10.4334 187.034 9.66671C188.301 8.90004 189.867 8.90004 190.167 11.6334C190.634 15.8667 192.934 20.3334 192.601 22.5667C192.601 22.5667 199.934 18.9667 207.334 22.5667C207.001 20.3334 209.301 15.8334 209.767 11.6334C210.067 8.90004 211.634 8.86671 212.901 9.66671C214.167 10.4334 217.101 14.3334 218.267 19.9C219.434 25.4667 216.934 27.7334 216.934 27.7334C216.934 27.7334 224.067 42.7 222.034 50.1667C219.701 58.7667 213.467 66.2334 206.134 70.1001C204.434 71.0334 195.001 70.9667 193.634 70.1334Z" fill="#585552"/>
<path d="M221.7 51.2667C219.6 54.6 215.834 56.4333 212.8 56.4333C205.467 56.4333 206.367 50 199.5 50C192.634 50 192.634 56.6 187.067 56.6C184.034 56.6 180.234 54.4 178.167 51.8333C179.567 57.4667 184.5 65.4 193.667 70.1333C195 71 204.434 71.0333 206.134 70.1333C213.134 66.4 219.234 59.5 221.7 51.2667Z" fill="#ECA565"/>
<path d="M193.634 70.1334C183.301 64.8001 178.567 55.2334 177.734 49.8C176.901 44.3667 180.101 35.2667 183.001 27.7334C183.001 27.7334 180.501 25.5 181.667 19.9C182.834 14.3334 185.801 10.4334 187.034 9.66671C188.301 8.90004 189.867 8.90004 190.167 11.6334C190.634 15.8667 192.934 20.3334 192.601 22.5667C192.601 22.5667 199.934 18.9667 207.334 22.5667C207.001 20.3334 209.301 15.8334 209.767 11.6334C210.067 8.90004 211.634 8.86671 212.901 9.66671C214.167 10.4334 217.101 14.3334 218.267 19.9C219.434 25.4667 216.934 27.7334 216.934 27.7334C216.934 27.7334 224.067 42.7 222.034 50.1667C219.701 58.7667 213.467 66.2334 206.134 70.1001C204.434 71.0334 195.001 70.9667 193.634 70.1334Z" stroke="black" stroke-width="2.32747" stroke-miterlimit="10" stroke-linecap="round" stroke-linejoin="round"/>
<path d="M188.8 24.6667C189.5 21.2334 186.434 16.4667 186.434 16.4667C185.667 16.1334 185.167 17.1334 184.634 18.8334C184.167 20.2667 183.634 23.1001 185.634 25.8334C185.634 25.8334 186.367 25.5001 187.267 25.0667C188.1 24.6667 188.8 24.6667 188.8 24.6667Z" fill="#ECA565"/>
<path d="M211.134 24.6667C210.434 21.2334 213.501 16.4667 213.501 16.4667C214.267 16.1334 214.767 17.1334 215.301 18.8334C215.767 20.2667 216.301 23.1001 214.301 25.8334C214.301 25.8334 213.567 25.5001 212.667 25.0667C211.834 24.6667 211.134 24.6667 211.134 24.6667Z" fill="#ECA565"/>
<path d="M188.8 24.6667C189.5 21.2333 186.434 16.4667 186.434 16.4667" stroke="black" stroke-width="2.32747" stroke-miterlimit="10" stroke-linecap="round" stroke-linejoin="round"/>
<path d="M211.134 24.6667C210.434 21.2333 213.501 16.4667 213.501 16.4667" stroke="black" stroke-width="2.32747" stroke-miterlimit="10" stroke-linecap="round" stroke-linejoin="round"/>
<path d="M191.535 47.5334C192.86 47.5334 193.935 46.4439 193.935 45.1C193.935 43.7562 192.86 42.6667 191.535 42.6667C190.209 42.6667 189.135 43.7562 189.135 45.1C189.135 46.4439 190.209 47.5334 191.535 47.5334Z" fill="black"/>
<path d="M207.868 47.5667C209.193 47.5667 210.268 46.4773 210.268 45.1334C210.268 43.7895 209.193 42.7001 207.868 42.7001C206.542 42.7001 205.468 43.7895 205.468 45.1334C205.468 46.4773 206.542 47.5667 207.868 47.5667Z" fill="black"/>
<path d="M204.534 39.3001C204.267 38.4334 205.034 37.4667 206.367 36.9001C207.701 36.3334 209.234 36.5334 209.567 37.4334C209.901 38.3001 209.667 39.3001 207.801 40.1001C205.934 40.9001 204.734 40.0001 204.534 39.3001Z" fill="#ECA565"/>
<path d="M195.101 39.5334C195.368 38.6667 194.601 37.7 193.268 37.1334C191.934 36.5667 190.401 36.7667 190.068 37.6667C189.734 38.5667 189.968 39.5334 191.834 40.3334C193.634 41.1334 194.868 40.2334 195.101 39.5334Z" fill="#ECA565"/>
<path d="M199.767 55.3001C201.276 55.3001 202.5 54.3897 202.5 53.2667C202.5 52.1438 201.276 51.2334 199.767 51.2334C198.257 51.2334 197.033 52.1438 197.033 53.2667C197.033 54.3897 198.257 55.3001 199.767 55.3001Z" fill="black"/>
<path d="M193 59.2334C194.467 61.5667 198.1 61.9667 200.1 59.4C202.1 61.9 206.267 59.4667 207.567 57.5667" stroke="black" stroke-width="2.32747" stroke-miterlimit="10" stroke-linecap="round" stroke-linejoin="round"/>
<path d="M294.333 52.7C299.233 64.8667 309.633 64.4 311.233 62.0667C313.067 59.4 310.067 54.7 308.767 47.7C308.333 45.4334 308.867 41.1667 306.567 33.2C304.033 24.4 296.533 18.9334 292.5 20.4334C292.5 20.4334 290.167 21.9334 291 33.0667C291.833 44.2 294.333 52.7 294.333 52.7Z" fill="#FDD1A3" stroke="black" stroke-width="2.32747" stroke-miterlimit="10" stroke-linecap="round" stroke-linejoin="round"/>
<path d="M303.068 43.3C303.434 47.3 304.001 51.1 305.034 53.8667C306.068 56.6334 306.368 58.2 306.368 58.2C306.368 59.7 304.401 59.0667 302.001 56C299.601 52.9334 298.134 47.7334 297.468 43.7334C296.801 39.7334 302.568 37.9 303.068 43.3Z" fill="#F6A575"/>
<path d="M297.468 43.7334C296.768 39.7667 302.568 37.9 303.068 43.3C303.434 47.3 304.001 51.1 305.034 53.8667C306.068 56.6334 306.368 58.2 306.368 58.2" stroke="black" stroke-width="2.32747" stroke-miterlimit="10" stroke-linecap="round" stroke-linejoin="round"/>
<path d="M265.666 52.7C260.766 64.8667 250.366 64.4 248.766 62.0667C246.933 59.4 249.933 54.7 251.233 47.7C251.666 45.4333 251.133 39.7 253.466 31.7C256 22.9 263.466 18.9333 267.533 20.4333C267.533 20.4333 269.866 21.9333 269.033 33.0667C268.2 44.2 265.666 52.7 265.666 52.7Z" fill="#FDD1A3" stroke="black" stroke-width="2.32747" stroke-miterlimit="10" stroke-linecap="round" stroke-linejoin="round"/>
<path d="M256.933 43.3C256.566 47.3 255.999 51.1 254.966 53.8666C253.933 56.6333 253.633 58.1999 253.633 58.1999C253.633 59.6999 255.599 59.0666 257.999 55.9999C260.399 52.9333 261.866 47.7333 262.533 43.7333C263.199 39.7333 257.433 37.9 256.933 43.3Z" fill="#F6A575"/>
<path d="M262.533 43.7333C263.233 39.7666 257.433 37.9 256.933 43.3C256.566 47.3 255.999 51.1 254.966 53.8666C253.933 56.6333 253.633 58.2 253.633 58.2" stroke="black" stroke-width="2.32747" stroke-miterlimit="10" stroke-linecap="round" stroke-linejoin="round"/>
<path d="M302.067 38.7667C302.067 38.7667 301.4 16.6334 279.2 16.6334C257.667 16.6334 257.733 38.3667 257.733 38.3667C254.167 43.7 250.633 61.4667 279.433 61.4667C308.233 61.4667 305.333 45.7667 302.067 38.7667Z" fill="#FDD1A3"/>
<path d="M292.966 20.7334C289.766 18.5 285.066 16.6334 279.2 16.6334C273.533 16.6334 269.666 18.4667 266.566 20.6667" stroke="black" stroke-width="2.32747" stroke-miterlimit="10" stroke-linecap="round" stroke-linejoin="round"/>
<path d="M259.5 30.0667C257.8 34.5 257.767 38.3333 257.767 38.3333C254.2 43.6667 250.667 61.4334 279.467 61.4334C308.267 61.4334 305.333 45.7333 302.067 38.7333C302.067 38.7333 302 34.7 300.167 30.1" stroke="black" stroke-width="2.32747" stroke-miterlimit="10" stroke-linecap="round" stroke-linejoin="round"/>
<path d="M271.399 41C272.762 41 273.866 39.8957 273.866 38.5333C273.866 37.171 272.762 36.0667 271.399 36.0667C270.037 36.0667 268.933 37.171 268.933 38.5333C268.933 39.8957 270.037 41 271.399 41Z" fill="black"/>
<path d="M287.867 41C289.229 41 290.334 39.8957 290.334 38.5333C290.334 37.171 289.229 36.0667 287.867 36.0667C286.505 36.0667 285.4 37.171 285.4 38.5333C285.4 39.8957 286.505 41 287.867 41Z" fill="black"/>
<path d="M279.699 42.7C280.675 42.7 281.466 42.0881 281.466 41.3333C281.466 40.5786 280.675 39.9667 279.699 39.9667C278.724 39.9667 277.933 40.5786 277.933 41.3333C277.933 42.0881 278.724 42.7 279.699 42.7Z" fill="#DF6223"/>
<path d="M286.133 46.2667C284.366 47.4334 281.366 47.4667 279.799 45.4333C278.166 47.7667 275.566 47.5667 273.699 46.2667" stroke="black" stroke-width="2.32747" stroke-miterlimit="10" stroke-linecap="round" stroke-linejoin="round"/>
<path d="M279.867 52.2C282.234 52.2 282.567 49.2 282.534 47C281.501 46.8333 280.501 46.3667 279.801 45.4667C279.034 46.5667 278.067 47.0667 277.067 47.2C277.067 49.2333 277.434 52.2 279.867 52.2Z" fill="#FD8053" stroke="black" stroke-width="2.32747" stroke-miterlimit="10" stroke-linecap="round" stroke-linejoin="round"/>
<path d="M360.165 15.1C345.232 15.1 333.698 25.4666 333.865 39.2666C333.998 53.1 338.832 64.9 360.065 64.9C381.298 64.9 385.998 51.4666 385.598 39.0333C385.132 26.6 375.498 15.1 360.165 15.1Z" fill="#FDF4D2"/>
<path d="M384.999 39.0333C384.599 27.5333 377.233 17.0333 363.833 15.6C360.199 27.6666 358.766 48.1 383.399 51.3666C384.799 47.6 385.133 43.3333 384.999 39.0333Z" fill="#D58017"/>
<path d="M356.3 15.8667C343.4 16.8334 333.734 26.2 333.834 39.2667C333.867 43.7667 334.334 47.9334 335.634 51.5334C359.467 50.6667 359.8 28.2 356.3 15.8667Z" fill="#D58017"/>
<path d="M360.165 15.1C345.232 15.1 333.698 25.4666 333.865 39.2666C333.998 53.1 338.832 64.9 360.065 64.9C381.298 64.9 385.998 51.4666 385.598 39.0333C385.132 26.6 375.498 15.1 360.165 15.1Z" stroke="black" stroke-width="2.32747" stroke-miterlimit="10" stroke-linecap="round" stroke-linejoin="round"/>
<path d="M350.768 43.2667C352.277 43.2667 353.501 42.0429 353.501 40.5333C353.501 39.0237 352.277 37.8 350.768 37.8C349.258 37.8 348.034 39.0237 348.034 40.5333C348.034 42.0429 349.258 43.2667 350.768 43.2667Z" fill="black"/>
<path d="M366.467 40.1333C367.667 39.3667 370.8 39.1 371.467 39.2333" stroke="black" stroke-width="2.32747" stroke-miterlimit="10" stroke-linecap="round" stroke-linejoin="round"/>
<path d="M359.966 44.6C361.163 44.6 362.133 43.9285 362.133 43.1C362.133 42.2716 361.163 41.6 359.966 41.6C358.77 41.6 357.8 42.2716 357.8 43.1C357.8 43.9285 358.77 44.6 359.966 44.6Z" fill="black"/>
<path d="M368.866 46.8667C368.033 49 362.533 49.6 360.399 47.6333C358.233 49.7 353.166 48.9333 352.166 47.4" stroke="black" stroke-width="2.32747" stroke-miterlimit="10" stroke-linecap="round" stroke-linejoin="round"/>
<path d="M360.334 47.8C360.634 51.0667 362.601 54.5667 366.167 53.2C368.401 52.3333 368.534 49.6333 367.801 47.8333C365.667 48.8667 362.234 49.5333 360.334 47.8Z" fill="#FB9D5C" stroke="black" stroke-width="2.32747" stroke-miterlimit="10" stroke-linecap="round" stroke-linejoin="round"/>
<path d="M364.3 49.3L364.633 50.0334" stroke="black" stroke-width="2.32747" stroke-miterlimit="10" stroke-linecap="round" stroke-linejoin="round"/>
<path d="M344.599 20.2333C337.133 20.7667 330.199 28.1667 328.666 34.5C326.433 43.7333 328.766 49.8667 334.566 49.7667C341.466 49.6 342.699 40.8 342.566 38.9" fill="#D58017"/>
<path d="M344.599 20.2333C337.133 20.7667 330.199 28.1667 328.666 34.5C326.433 43.7333 328.766 49.8667 334.566 49.7667C341.466 49.6 342.699 40.8 342.566 38.9" stroke="black" stroke-width="2.32747" stroke-miterlimit="10" stroke-linecap="round" stroke-linejoin="round"/>
<path d="M375.166 20.1334C381.933 20.2334 389.199 28.0334 391.099 34.4C393.833 43.5 390.999 49.7667 385.199 49.6667C378.299 49.5 377.066 40.7 377.199 38.8" fill="#D58017"/>
<path d="M375.166 20.1334C381.933 20.2334 389.199 28.0334 391.099 34.4C393.833 43.5 390.999 49.7667 385.199 49.6667C378.299 49.5 377.066 40.7 377.199 38.8" stroke="black" stroke-width="2.32747" stroke-miterlimit="10" stroke-linecap="round" stroke-linejoin="round"/>
<path d="M469.499 49.3666C471.099 48.8666 472.132 45.7666 470.966 45.1666C469.799 44.6 468.966 43.9333 467.999 41.1C466.532 36.7666 463.532 33.8333 463.532 33.8333C463.532 33.8333 467.766 30.0666 464.732 27.6666C467.166 22.9333 465.266 16.4 461.966 15.9333C456.266 15.1666 449.532 21.5666 449.532 21.5666C439.232 17.0666 430.866 21.5666 430.666 21.5666C430.666 21.5666 423.899 15.1666 418.232 15.9333C414.932 16.4 413.066 22.9333 415.466 27.7C411.532 30 416.532 33.8666 416.532 33.8666C416.532 33.8666 413.599 36.3666 411.966 41.1333C410.999 43.9666 410.166 44.6 408.999 45.2C407.832 45.7666 408.866 48.8666 410.466 49.4C409.299 50.9333 414.632 64.1333 440.099 64.1333C465.566 64.1333 470.666 50.9333 469.499 49.3666Z" fill="white"/>
<path d="M469.499 49.3666C471.099 48.8666 472.132 45.7666 470.966 45.1666C469.799 44.6 468.966 43.9333 467.999 41.1C466.532 36.7666 463.532 33.8333 463.532 33.8333C463.532 33.8333 467.766 30.0666 464.732 27.6666C467.166 22.9333 465.266 16.4 461.966 15.9333C456.266 15.1666 449.532 21.5666 449.532 21.5666C439.232 17.0666 430.866 21.5666 430.666 21.5666C430.666 21.5666 423.899 15.1666 418.232 15.9333C414.932 16.4 413.066 22.9333 415.466 27.7C411.532 30 416.532 33.8666 416.532 33.8666C416.532 33.8666 413.599 36.3666 411.966 41.1333C410.999 43.9666 410.166 44.6 408.999 45.2C407.832 45.7666 408.866 48.8666 410.466 49.4C409.299 50.9333 414.632 64.1333 440.099 64.1333C465.566 64.1333 470.666 50.9333 469.499 49.3666Z" stroke="black" stroke-width="2.32747" stroke-miterlimit="10" stroke-linecap="round" stroke-linejoin="round"/>
<path d="M419.367 21.2333C420.901 19.8667 425.767 23.2 426.834 25C427.434 26 422.101 30.4 420.734 29.9333C419.367 29.4667 417.567 22.8333 419.367 21.2333Z" fill="#F9C0DA"/>
<path d="M419.366 21.2333C420.9 19.8667 425.766 23.2 426.833 25" stroke="black" stroke-width="2.32747" stroke-miterlimit="10" stroke-linecap="round" stroke-linejoin="round"/>
<path d="M460.767 21.0667C459.233 19.7 454.333 23.0333 453.267 24.8C452.667 25.8 458 30.2 459.367 29.7333C460.767 29.2333 462.533 22.6667 460.767 21.0667Z" fill="#F9C0DA"/>
<path d="M460.767 21.0667C459.233 19.7 454.333 23.0333 453.267 24.8" stroke="black" stroke-width="2.32747" stroke-miterlimit="10" stroke-linecap="round" stroke-linejoin="round"/>
<path d="M428.832 41.5999C428.832 41.5999 431.532 40.4333 434.265 40.5666" stroke="black" stroke-width="2.32747" stroke-miterlimit="10" stroke-linecap="round" stroke-linejoin="round"/>
<path d="M451.533 41.5999C451.533 41.5999 448.833 40.4333 446.1 40.5666" stroke="black" stroke-width="2.32747" stroke-miterlimit="10" stroke-linecap="round" stroke-linejoin="round"/>
<path d="M440.267 45.6333C441.298 45.6333 442.134 44.9915 442.134 44.1999C442.134 43.4083 441.298 42.7666 440.267 42.7666C439.236 42.7666 438.4 43.4083 438.4 44.1999C438.4 44.9915 439.236 45.6333 440.267 45.6333Z" fill="#DA636A"/>
<path d="M433.133 49.8333C435.266 51.3 438.266 51.3667 440.099 48.7333C441.866 51 445.166 51.1333 447.133 49.8333" stroke="black" stroke-width="2.32747" stroke-miterlimit="10" stroke-linecap="round" stroke-linejoin="round"/>
<path d="M456.399 43.9666C456.399 43.9666 460.899 41.7666 464.799 42.2999" stroke="black" stroke-width="2.32747" stroke-miterlimit="10" stroke-linecap="round" stroke-linejoin="round"/>
<path d="M456.765 48.4333C456.665 48.4333 462.065 48.7 464.732 49.9" stroke="black" stroke-width="2.32747" stroke-miterlimit="10" stroke-linecap="round" stroke-linejoin="round"/>
<path d="M424.266 43.9666C424.266 43.9666 419.766 41.7666 415.866 42.2999" stroke="black" stroke-width="2.32747" stroke-miterlimit="10" stroke-linecap="round" stroke-linejoin="round"/>
<path d="M423.933 48.4333C424.033 48.4333 418.633 48.7 415.967 49.9" stroke="black" stroke-width="2.32747" stroke-miterlimit="10" stroke-linecap="round" stroke-linejoin="round"/>
<path d="M549 33.3333C550.466 29.6 546.466 23.9666 542.033 24.5C540.833 18.7333 534.166 17.3 531.2 19.0333C529.066 15.3 522.766 14.4666 520.066 17.8H519.866C517.2 14.4666 510.366 15.0666 508.2 18.8C505.266 17.0666 499.1 18.7333 497.9 24.4666C493.533 23.9666 489.533 29.6 491 33.3333C488.066 34.9333 488.333 40.5666 490.2 42.4333C489.133 46.3 491.8 50.4666 495.7 50.6H495.933C495.933 51.3333 496.033 52.0666 496.366 52.7333C495.566 57.3 499.766 61.2666 503.633 60.9666C504.7 64.3 515.433 65.1333 520.033 63.6666C524.533 65 535.8 64.1 536.9 60.7666C539.3 61.5666 544 57.0666 543.566 52.7333C543.866 52.0666 544 51.3333 544 50.6H544.333C548.2 50.4666 550.9 46.3333 549.833 42.4333C551.7 40.5666 551.966 34.9333 549 33.3333Z" fill="#CC884F"/>
<path d="M544.333 50.6C548.2 50.4666 550.9 46.3333 549.833 42.4333C551.7 40.5666 551.966 34.9333 549.033 33.3333C550.5 29.6 546.5 23.9666 542.066 24.5C540.866 18.7333 534.2 17.3 531.233 19.0333C529.1 15.3 522.8 14.4666 520.1 17.8H519.9C517.233 14.4666 510.4 15.0666 508.233 18.8C505.3 17.0666 499.133 18.7333 497.933 24.4666C493.533 23.9666 489.533 29.6 491 33.3333C488.066 34.9333 488.333 40.5666 490.2 42.4333C489.133 46.3 491.8 50.4666 495.7 50.6" stroke="black" stroke-width="2.32747" stroke-miterlimit="10" stroke-linecap="round" stroke-linejoin="round"/>
<path d="M499.1 39.3333C497.8 40.9333 498.6 44.9666 498.6 44.9666C496.633 46.7333 495.166 50.2333 496.366 52.7666C495.566 57.3333 499.766 61.3 503.633 61C504.7 64.3333 515.433 65.1666 520.033 63.7C524.533 65.0333 535.8 64.1333 536.9 60.8C539.3 61.6 544 57.1 543.566 52.7666C544.866 50.0666 543.066 46.2666 540.9 44.6333C540.9 44.6333 541.5 41.2666 540.7 39.4666" stroke="black" stroke-width="2.32747" stroke-miterlimit="10" stroke-linecap="round" stroke-linejoin="round"/>
<path d="M511.732 41.5333C513.02 41.5333 514.065 40.4887 514.065 39.2C514.065 37.9113 513.02 36.8667 511.732 36.8667C510.443 36.8667 509.398 37.9113 509.398 39.2C509.398 40.4887 510.443 41.5333 511.732 41.5333Z" fill="black"/>
<path d="M528.132 41.5333C529.421 41.5333 530.466 40.4887 530.466 39.2C530.466 37.9113 529.421 36.8667 528.132 36.8667C526.843 36.8667 525.799 37.9113 525.799 39.2C525.799 40.4887 526.843 41.5333 528.132 41.5333Z" fill="black"/>
<path d="M520.067 42.6667C521.098 42.6667 521.934 42.0697 521.934 41.3333C521.934 40.597 521.098 40 520.067 40C519.036 40 518.2 40.597 518.2 41.3333C518.2 42.0697 519.036 42.6667 520.067 42.6667Z" fill="black"/>
<path d="M526.733 45.8333C525.299 47.6 521.599 47.5 520.066 45.8333C520.066 45.8333 516.366 49.2 513.166 45.8333" stroke="black" stroke-width="2.32747" stroke-miterlimit="10" stroke-linecap="round" stroke-linejoin="round"/>
<path d="M520.032 45.8333C520.032 45.8333 518.332 47.3666 516.232 47.3333C516.366 49.6666 516.999 54.2 520.166 54.2C523.299 54.2 523.932 49.5333 524.032 47.1C522.566 47.2333 520.932 46.8 520.032 45.8333Z" fill="#FD8053" stroke="black" stroke-width="2.32747" stroke-miterlimit="10" stroke-linecap="round" stroke-linejoin="round"/>
<path d="M625.2 39.3333C630.1 35.4 634.1 18.6333 630.567 16.2666C624.934 12.4333 613.467 20.3333 610.6 22C599.5 16.1 589.367 22 589.367 22C586.5 20.3333 575.034 12.4333 569.4 16.2666C565.9 18.6666 569.867 35.4 574.767 39.3333C574.5 49.1666 579.334 64.8 599.9 64.8C620.467 64.8 624.667 49.9 625.2 39.3333Z" fill="#896D5C"/>
<path d="M623 50.4333C620.8 52.3333 617.533 54.2 613.367 53.9333C607.267 53.5333 604.567 49.5666 603.467 46.8333C603.033 45.7333 602.733 40.2666 600.233 40.2666C597.733 40.2666 597.267 45.7333 596.833 46.8333C595.733 49.5666 593.033 53.5666 586.933 53.9333C582.233 54.2333 578.667 51.8 576.5 49.6666C579.5 57.6666 586.733 64.8 599.967 64.8C612.967 64.8 619.833 58.3 623 50.4333Z" fill="#E5C59B"/>
<path d="M625.2 39.3333C630.1 35.4 634.1 18.6333 630.567 16.2666C624.934 12.4333 613.467 20.3333 610.6 22C599.5 16.1 589.367 22 589.367 22C586.5 20.3333 575.034 12.4333 569.4 16.2666C565.9 18.6666 569.867 35.4 574.767 39.3333C574.5 49.1666 579.334 64.8 599.9 64.8C620.467 64.8 624.667 49.9 625.2 39.3333Z" stroke="black" stroke-width="2.32747" stroke-miterlimit="10" stroke-linecap="round" stroke-linejoin="round"/>
<path d="M591.234 47.8333C593.056 47.8333 594.534 46.3559 594.534 44.5333C594.534 42.7108 593.056 41.2333 591.234 41.2333C589.411 41.2333 587.934 42.7108 587.934 44.5333C587.934 46.3559 589.411 47.8333 591.234 47.8333Z" fill="#937766"/>
<path d="M609.4 47.8333C611.222 47.8333 612.7 46.3559 612.7 44.5333C612.7 42.7108 611.222 41.2333 609.4 41.2333C607.577 41.2333 606.1 42.7108 606.1 44.5333C606.1 46.3559 607.577 47.8333 609.4 47.8333Z" fill="#937766"/>
<path d="M583.634 24.4667C584.467 25.9 582.034 26.7667 579.234 30.1C577.134 32.6 577.901 33.1 576.867 33.0333C574.834 32.8667 573.134 26.3333 572.767 22.9667C572.134 17.3667 582.834 23.0333 583.634 24.4667Z" fill="#E5C59B"/>
<path d="M574.868 20.7C579.635 21.5666 583.301 24.4 583.368 24.4666" stroke="black" stroke-width="2.32747" stroke-miterlimit="10" stroke-linecap="round" stroke-linejoin="round"/>
<path d="M616.166 24.4667C615.333 25.9 617.766 26.7667 620.566 30.1C622.666 32.6 621.899 33.1 622.933 33.0333C624.966 32.8667 626.666 26.3333 627.033 22.9667C627.666 17.3667 616.966 23.0333 616.166 24.4667Z" fill="#E5C59B"/>
<path d="M624.934 20.7C620.167 21.5666 616.5 24.4 616.434 24.4666" stroke="black" stroke-width="2.32747" stroke-miterlimit="10" stroke-linecap="round" stroke-linejoin="round"/>
<path d="M591.233 47.0333C592.614 47.0333 593.733 45.914 593.733 44.5333C593.733 43.1526 592.614 42.0333 591.233 42.0333C589.853 42.0333 588.733 43.1526 588.733 44.5333C588.733 45.914 589.853 47.0333 591.233 47.0333Z" fill="black"/>
<path d="M609.434 47.0333C610.814 47.0333 611.934 45.914 611.934 44.5333C611.934 43.1526 610.814 42.0333 609.434 42.0333C608.053 42.0333 606.934 43.1526 606.934 44.5333C606.934 45.914 608.053 47.0333 609.434 47.0333Z" fill="black"/>
<path d="M593.902 38.2999C593.802 39.2999 592.735 39.5666 591.335 39.5333C589.935 39.4999 588.835 39.0666 588.802 38.0333C588.768 36.9666 589.768 36.3666 591.402 36.3999C593.035 36.4333 594.002 37.1999 593.902 38.2999Z" fill="#E5C59B"/>
<path d="M606.634 38.3666C606.734 39.3666 607.834 39.5999 609.234 39.5333C610.634 39.4666 611.734 38.9999 611.734 37.9666C611.734 36.8999 610.7 36.3333 609.067 36.3999C607.434 36.4999 606.5 37.2666 606.634 38.3666Z" fill="#E5C59B"/>
<path d="M600.335 49.6334C601.513 49.6334 602.468 48.9021 602.468 48C602.468 47.098 601.513 46.3667 600.335 46.3667C599.156 46.3667 598.201 47.098 598.201 48C598.201 48.9021 599.156 49.6334 600.335 49.6334Z" fill="black"/>
<path d="M595.267 53.0666C596.4 54.8333 599.467 54.4666 600.433 53.0666C601.5 54.6666 604.733 54.6333 605.733 52.9" stroke="black" stroke-width="2.32747" stroke-miterlimit="10" stroke-linecap="round" stroke-linejoin="round"/>
<path d="M706.236 41.1C706.236 41.1 714.803 16.0001 707.503 12.3667C704.436 10.8334 696.936 15.1 689.436 22.3001C678.003 19.1001 670.536 22.3001 670.536 22.3001C663.069 15.1 655.536 10.8334 652.469 12.3667C645.169 16.0001 653.736 41.1 653.736 41.1C651.136 44.4334 649.269 51.3667 651.436 56.8667C653.736 62.6 660.836 67.7667 679.003 67.9667C699.903 68.2001 706.869 62.1334 708.469 55.4334C709.669 50.4667 708.536 44.4334 706.236 41.1Z" fill="#EBAB32"/>
<path d="M695.269 42.5334C691.136 45.0667 689.236 46.3667 685.536 45.3667C681.969 44.4 681.969 40.9334 681.902 39.3334C681.836 37.8 681.802 35.1667 679.902 35.1667C678.002 35.1667 677.902 39.3334 677.902 39.3334C677.769 40.9334 677.836 44.3667 674.269 45.3667C670.569 46.3667 668.669 45.0667 664.536 42.5334C661.102 40.4 656.569 39.9667 653.469 41.4667C651.002 44.9334 649.369 51.5667 651.469 56.8334C653.769 62.5667 660.869 67.7334 679.036 67.9334C699.936 68.1667 706.902 62.1 708.502 55.4C709.636 50.7 708.636 45 706.536 41.5667C703.436 39.9667 698.802 40.3667 695.269 42.5334Z" fill="white"/>
<path d="M695.069 25.6667C695.203 25.3001 697.003 21.5334 698.536 21.8667C699.369 22.0334 699.503 22.7001 699.503 22.7001C699.503 22.7001 702.803 18.2001 704.736 19.0001C706.469 19.7001 704.903 30.7334 703.436 33.1667C703.403 33.2001 700.603 28.1667 695.069 25.6667Z" fill="white"/>
<path d="M695.069 25.6667C695.203 25.3001 697.003 21.5334 698.536 21.8667C699.369 22.0334 699.503 22.7001 699.503 22.7001C699.503 22.7001 702.803 18.2001 704.736 19.0001" stroke="black" stroke-width="2.32747" stroke-miterlimit="10" stroke-linecap="round" stroke-linejoin="round"/>
<path d="M665.102 25.6667C665.002 25.3334 663.169 21.5334 661.669 21.8667C660.836 22.0334 660.702 22.7001 660.702 22.7001C660.702 22.7001 657.402 18.2001 655.469 19.0001C653.736 19.7334 655.302 30.7334 656.769 33.2001C656.769 33.2001 659.569 28.1667 665.102 25.6667Z" fill="white"/>
<path d="M665.102 25.6667C665.002 25.3334 663.169 21.5334 661.669 21.8667C660.835 22.0334 660.702 22.7001 660.702 22.7001C660.702 22.7001 657.402 18.2001 655.469 19.0001" stroke="black" stroke-width="2.32747" stroke-miterlimit="10" stroke-linecap="round" stroke-linejoin="round"/>
<path d="M670.769 44.1334C672.149 44.1334 673.269 43.0141 673.269 41.6334C673.269 40.2526 672.149 39.1334 670.769 39.1334C669.388 39.1334 668.269 40.2526 668.269 41.6334C668.269 43.0141 669.388 44.1334 670.769 44.1334Z" fill="black"/>
<path d="M688.003 44.1334C689.384 44.1334 690.503 43.0141 690.503 41.6334C690.503 40.2526 689.384 39.1334 688.003 39.1334C686.622 39.1334 685.503 40.2526 685.503 41.6334C685.503 43.0141 686.622 44.1334 688.003 44.1334Z" fill="black"/>
<path d="M679.536 46.9334C680.788 46.9334 681.803 46.2021 681.803 45.3001C681.803 44.398 680.788 43.6667 679.536 43.6667C678.284 43.6667 677.27 44.398 677.27 45.3001C677.27 46.2021 678.284 46.9334 679.536 46.9334Z" fill="black"/>
<path d="M687.169 49.5667C685.702 51.2667 681.236 51.1667 679.669 49.5667C679.669 49.5667 674.969 52.8334 671.669 49.5667" stroke="black" stroke-width="2.32747" stroke-miterlimit="10" stroke-linecap="round" stroke-linejoin="round"/>
<path d="M679.669 49.5667C679.669 49.5667 677.902 50.8 675.769 51C675.769 51 675.769 51 675.769 51.0334C675.902 53.3 676.535 57.7 679.802 57.7C683.002 57.7 683.669 53.2 683.802 50.8334C682.202 50.8334 680.502 50.4334 679.669 49.5667Z" fill="#FD815D" stroke="black" stroke-width="2.32747" stroke-miterlimit="10" stroke-linecap="round" stroke-linejoin="round"/>
<path d="M670.536 22.3L668.836 23.0001" stroke="black" stroke-width="2.32747" stroke-miterlimit="10" stroke-linecap="round" stroke-linejoin="round"/>
<path d="M689.403 22.3L691.103 23.0001" stroke="black" stroke-width="2.32747" stroke-miterlimit="10" stroke-linecap="round" stroke-linejoin="round"/>
<path d="M706.235 41.1C706.235 41.1 714.802 16 707.502 12.3667C704.435 10.8334 696.935 15.1 689.435 22.3C678.002 19.1 670.535 22.3 670.535 22.3C663.068 15.1 655.535 10.8334 652.468 12.3667C645.168 16 653.735 41.1 653.735 41.1C651.135 44.4334 649.268 51.3667 651.435 56.8667C653.735 62.6 660.835 67.7667 679.002 67.9667C699.902 68.2 706.868 62.1334 708.468 55.4334C709.668 50.4667 708.535 44.4334 706.235 41.1Z" stroke="black" stroke-width="2.32747" stroke-miterlimit="10" stroke-linecap="round" stroke-linejoin="round"/>
<path d="M786.401 43.3667C787.067 37.8 785.001 32.7 782.434 29.0334C785.867 26.3334 786.967 19.8 782.901 17.3667C778.634 14.8 773.367 17.4334 771.734 20.5C759.567 14.8 747.634 20.2667 747.634 20.2667C745.967 17.2 741.501 14.5667 737.034 17.3667C733.001 19.9 734.067 26.3334 737.501 29.0334C737.501 29.0334 733.101 36.3334 733.734 43.3667C726.934 56.9667 743.034 63.8334 760.101 63.8334C779.234 63.8334 792.367 58.0667 786.401 43.3667Z" fill="#F0B867"/>
<path d="M778.934 42.5333C772.801 40.7333 768.601 45.4333 760.968 45.4333C753.334 45.4333 751.801 41.6667 744.134 42.9C735.068 44.3667 734.034 50.8333 734.501 55.6667C739.001 61.1 749.368 63.8333 760.134 63.8333C772.868 63.8333 782.901 61.2667 786.468 55.2333C786.834 50.8333 786.168 44.6667 778.934 42.5333Z" fill="white"/>
<path d="M762.934 18.6333C760.868 18.4666 758.934 18.4666 757.168 18.6C757.134 21.5 757.368 27.2666 759.968 27.2666C762.234 27.2666 762.801 22.0666 762.934 18.6333Z" fill="#D5833F"/>
<path d="M753.934 26.2C755.367 26.0333 754.834 21.9333 754.234 18.9333C752.6 19.1333 751.134 19.4333 749.9 19.7666C750.434 21.9333 751.867 26.4333 753.934 26.2Z" fill="#D5833F"/>
<path d="M765.8 26.2C767.867 26.4333 769.267 22.0333 769.834 19.8333C768.334 19.4333 766.9 19.1666 765.467 18.9333C764.9 21.9333 764.367 26 765.8 26.2Z" fill="#D5833F"/>
<path d="M786.401 43.3667C787.067 37.8 785.001 32.7 782.434 29.0334C785.867 26.3334 786.967 19.8 782.901 17.3667C778.634 14.8 773.367 17.4334 771.734 20.5C759.567 14.8 747.634 20.2667 747.634 20.2667C745.967 17.2 741.501 14.5667 737.034 17.3667C733.001 19.9 734.067 26.3334 737.501 29.0334C737.501 29.0334 733.101 36.3334 733.734 43.3667C726.934 56.9667 743.034 63.8334 760.101 63.8334C779.234 63.8334 792.367 58.0667 786.401 43.3667Z" stroke="black" stroke-width="2.32747" stroke-miterlimit="10" stroke-linecap="round" stroke-linejoin="round"/>
<path d="M739.168 21C740.201 19.5667 742.501 21 743.301 22.6L740.434 25.3C740.434 25.3 737.501 23.2667 739.168 21Z" fill="#FACBCC"/>
<path d="M780.767 21.1C779.734 19.6667 777.434 21.1 776.634 22.7L779.5 25.4C779.467 25.4334 782.4 23.4 780.767 21.1Z" fill="#FACBCC"/>
<path d="M739.167 21C740.2 19.5667 742.5 21 743.3 22.6" stroke="black" stroke-width="2.32747" stroke-miterlimit="10" stroke-linecap="round" stroke-linejoin="round"/>
<path d="M780.767 21.1C779.734 19.6667 777.434 21.1 776.634 22.7" stroke="black" stroke-width="2.32747" stroke-miterlimit="10" stroke-linecap="round" stroke-linejoin="round"/>
<path d="M752.467 42.0667C753.793 42.0667 754.867 40.9922 754.867 39.6667C754.867 38.3412 753.793 37.2667 752.467 37.2667C751.142 37.2667 750.067 38.3412 750.067 39.6667C750.067 40.9922 751.142 42.0667 752.467 42.0667Z" fill="black"/>
<path d="M768.967 42.0667C770.293 42.0667 771.367 40.9922 771.367 39.6667C771.367 38.3412 770.293 37.2667 768.967 37.2667C767.642 37.2667 766.567 38.3412 766.567 39.6667C766.567 40.9922 767.642 42.0667 768.967 42.0667Z" fill="black"/>
<path d="M760.666 43.9333C761.568 43.9333 762.299 43.3215 762.299 42.5667C762.299 41.8119 761.568 41.2 760.666 41.2C759.763 41.2 759.032 41.8119 759.032 42.5667C759.032 43.3215 759.763 43.9333 760.666 43.9333Z" fill="black"/>
<path d="M755.234 47.3667C756.601 49.2333 760.001 49.0333 760.834 47.3C762.034 49.4667 765.301 48.7667 766.201 47.3" stroke="black" stroke-width="2.32747" stroke-miterlimit="10" stroke-linecap="round" stroke-linejoin="round"/>
<path d="M838.967 66.6666C813.1 66.6666 810.5 54.4999 811.9 48.1333C811.334 48.4333 809.567 42.5999 814.3 37.4999C812.8 35.7999 811.234 31.3999 811.734 29.4333C810.667 28.2666 810.567 23.9666 811.467 21.1666C810.767 14.1333 814.434 12.9666 817.5 13.3999C820.567 13.8666 828.134 17.8999 829.267 20.0999C829.867 17.5333 835.434 15.9999 839.734 19.5333H840.2C844.534 15.9999 850.1 17.5333 850.667 20.0999C851.8 17.8999 859.367 13.8333 862.434 13.3999C865.5 12.9333 869.167 14.1333 868.467 21.1666C869.367 23.9666 869.3 28.2999 868.2 29.4666C868.7 31.4333 867.134 35.8333 865.634 37.5333C870.367 42.6333 868.6 48.4666 868.034 48.1666C869.467 54.5333 866.834 66.6999 840.967 66.6999H838.967V66.6666Z" fill="#7D7D7D"/>
<path d="M853.467 57.7333C853.3 52.9999 851.833 49.3999 846.9 45.9333C841.967 42.4666 842.467 40.9666 842.467 38.7666C842.467 36.9999 842.467 23.4999 842.467 18.2333C841.7 18.5666 840.933 18.9666 840.233 19.5666H839.767C838.967 18.9333 838.133 18.4999 837.3 18.1666C837.3 23.3666 837.3 36.9999 837.3 38.7999C837.3 40.9999 837.8 42.4999 832.867 45.9666C827.933 49.4333 826.467 53.0333 826.3 57.7666C826.2 60.2666 827.333 63.8999 830.667 66.1999C833.133 66.5333 835.867 66.6999 838.967 66.6999H841.033C843.933 66.6999 846.533 66.5333 848.867 66.2333C852.833 63.9333 853.567 60.1999 853.467 57.7333Z" fill="white"/>
<path d="M838.967 66.6666C813.1 66.6666 810.5 54.4999 811.9 48.1333C811.334 48.4333 809.567 42.5999 814.3 37.4999C812.8 35.7999 811.234 31.3999 811.734 29.4333C810.667 28.2666 810.567 23.9666 811.467 21.1666C810.767 14.1333 814.434 12.9666 817.5 13.3999C820.567 13.8666 828.134 17.8999 829.267 20.0999C829.867 17.5333 835.434 15.9999 839.734 19.5333H840.2C844.534 15.9999 850.1 17.5333 850.667 20.0999C851.8 17.8999 859.367 13.8333 862.434 13.3999C865.5 12.9333 869.167 14.1333 868.467 21.1666C869.367 23.9666 869.3 28.2999 868.2 29.4666C868.7 31.4333 867.134 35.8333 865.634 37.5333C870.367 42.6333 868.6 48.4666 868.034 48.1666C869.467 54.5333 866.834 66.6999 840.967 66.6999H838.967V66.6666Z" stroke="black" stroke-width="2.32747" stroke-miterlimit="10" stroke-linecap="round" stroke-linejoin="round"/>
<path d="M855.834 22.0666C855.834 22.0666 860.434 18 863.401 18.1" stroke="black" stroke-width="2.32747" stroke-miterlimit="10" stroke-linecap="round" stroke-linejoin="round"/>
<path d="M855.467 22.6999C855.533 22.4999 857.9 19.9333 859.367 19.7999C859.9 18.7333 862.2 17.5999 863.7 18.0999C864.933 19.2666 865.1 27.3999 862.4 31.3333C861.133 28.9999 858.9 25.5999 855.467 22.6999Z" fill="#454545"/>
<path d="M855.834 22.0666C855.834 22.0666 860.434 18 863.401 18.1" stroke="black" stroke-width="2.32747" stroke-miterlimit="10" stroke-linecap="round" stroke-linejoin="round"/>
<path d="M825.1 22.6999C825 22.4999 822.667 19.9333 821.2 19.7999C820.667 18.7333 818.367 17.5999 816.867 18.0999C815.634 19.2999 815.467 27.3999 818.167 31.3333C819.467 28.9999 821.667 25.5999 825.1 22.6999Z" fill="#454545"/>
<path d="M824.767 22.0666C824.767 22.0666 820.167 18 817.2 18.1" stroke="black" stroke-width="2.32747" stroke-miterlimit="10" stroke-linecap="round" stroke-linejoin="round"/>
<path d="M830.567 43.5999C832.113 43.5999 833.367 42.3612 833.367 40.8333C833.367 39.3053 832.113 38.0666 830.567 38.0666C829.02 38.0666 827.767 39.3053 827.767 40.8333C827.767 42.3612 829.02 43.5999 830.567 43.5999Z" fill="black"/>
<path d="M849.499 43.7333C851.046 43.7333 852.299 42.4946 852.299 40.9666C852.299 39.4386 851.046 38.2 849.499 38.2C847.953 38.2 846.699 39.4386 846.699 40.9666C846.699 42.4946 847.953 43.7333 849.499 43.7333Z" fill="black"/>
<path d="M839.934 46.1C841.204 46.1 842.234 45.2941 842.234 44.3C842.234 43.3059 841.204 42.5 839.934 42.5C838.664 42.5 837.634 43.3059 837.634 44.3C837.634 45.2941 838.664 46.1 839.934 46.1Z" fill="black"/>
<path d="M831.899 50.3667C833.399 52.1 837.433 53 839.999 50.2333C841.499 52.7667 846.533 52.6667 848.399 50.3" stroke="black" stroke-width="2.32747" stroke-miterlimit="10" stroke-linecap="round" stroke-linejoin="round"/>
<path d="M920.166 15.9666C920.166 15.9666 927.148 12.6333 927.581 16.5666C936.99 17.6 941.878 22.7666 944.405 25.1333C946.932 27.5 952.086 38.2666 951.919 43.2333C951.753 48.2333 950.357 47.1666 949.725 45.6666C949.293 54.9333 945.801 56.6 942.477 53.6333C941.18 59.8333 933.1 65.3666 920.399 65.3666H919.368C906.667 65.3666 898.62 59.8666 897.29 53.6333C893.965 56.6 890.474 54.9333 890.042 45.6666C889.443 47.1666 888.047 48.2 887.847 43.2333C887.648 38.2666 892.835 27.5 895.362 25.1333C897.889 22.7666 902.776 17.6333 912.186 16.5666C912.618 12.6333 919.601 15.9666 919.601 15.9666H920.166Z" fill="#FFE89C" stroke="black" stroke-width="2.16123" stroke-miterlimit="10" stroke-linecap="round" stroke-linejoin="round"/>
<path d="M897.357 53.3C897.357 53.3 900.815 48.1667 901.081 43.8667C901.347 39.5667 901.913 37.7 902.278 37.6" stroke="black" stroke-width="2.16123" stroke-miterlimit="10" stroke-linecap="round" stroke-linejoin="round"/>
<path d="M942.01 53.3C942.01 53.3 938.552 48.1667 938.286 43.8667C938.02 39.5667 937.455 37.7 937.089 37.6" stroke="black" stroke-width="2.16123" stroke-miterlimit="10" stroke-linecap="round" stroke-linejoin="round"/>
<path d="M908.396 41.0666C908.396 41.0666 911.089 39.4999 913.084 39.8666" stroke="black" stroke-width="2.16123" stroke-miterlimit="10" stroke-linecap="round" stroke-linejoin="round"/>
<path d="M930.939 41.0666C930.939 41.0666 928.246 39.4999 926.251 39.8666" stroke="black" stroke-width="2.16123" stroke-miterlimit="10" stroke-linecap="round" stroke-linejoin="round"/>
<path d="M912.916 49.0667C914.412 50.6667 918.469 50.5667 919.998 48.6333C921.162 50.4333 924.819 50.7333 927.08 48.9667" stroke="black" stroke-width="2.16123" stroke-miterlimit="10" stroke-linecap="round" stroke-linejoin="round"/>
<path d="M919.766 45.4C921.254 45.4 922.46 44.6091 922.46 43.6334C922.46 42.6577 921.254 41.8667 919.766 41.8667C918.279 41.8667 917.073 42.6577 917.073 43.6334C917.073 44.6091 918.279 45.4 919.766 45.4Z" fill="black"/>
<path d="M1025.1 34.2666C1025.1 34.2666 1030.73 15.5333 1023.63 12.9666C1017.5 10.7333 1008.27 20.4999 1006.27 23.0333C999.832 21.1999 993.465 23.0333 993.465 23.0333C991.465 20.4999 982.265 10.7333 976.099 12.9666C968.999 15.5333 974.632 34.2666 974.632 34.2666C966.899 50.1666 972.065 66.9666 998.632 67.3666C1024.37 67.6999 1032.57 54.5666 1025.1 34.2666Z" fill="#CC884F"/>
<path d="M1001.23 30.8999C1001.26 28.8666 1001.33 24.1999 1001.33 21.2332C999.998 21.1666 998.731 21.2332 997.631 21.2999C997.664 24.2666 997.764 29.1666 997.898 30.9666C998.131 33.5999 1001.16 33.9666 1001.23 30.8999Z" fill="#6A3C21"/>
<path d="M993.497 29.0666C993.597 31.6999 995.997 31.8999 995.897 28.8666C995.83 27.3332 995.697 24.2666 995.597 21.5666C994.33 21.7666 993.43 21.9666 993.063 22.0666C993.23 24.7332 993.463 27.6999 993.497 29.0666Z" fill="#6A3C21"/>
<path d="M1005.83 29.0666C1005.86 27.7 1006.1 24.6333 1006.3 21.9333C1005.43 21.7333 1004.6 21.5666 1003.76 21.4333C1003.63 24.1333 1003.5 27.2666 1003.43 28.8333C1003.33 31.9 1005.73 31.7 1005.83 29.0666Z" fill="#6A3C21"/>
<path d="M979.698 39.5666C982.331 40.1666 982.665 38.5666 981.065 37.7C979.431 36.8333 976.531 36.1333 974.998 35.8C974.531 36.8333 974.131 37.8666 973.798 38.9C975.831 39 978.265 39.2333 979.698 39.5666Z" fill="#6A3C21"/>
<path d="M978.264 42.8665C978.531 42.3665 978.264 41.8665 976.831 41.4331C975.964 41.1665 974.364 40.9998 973.198 40.8665C972.931 41.7998 972.731 42.7331 972.564 43.6331C973.631 43.5998 974.698 43.5665 975.298 43.5998C976.731 43.6998 977.998 43.3665 978.264 42.8665Z" fill="#6A3C21"/>
<path d="M1024.7 35.8665C1023.1 36.2331 1020.43 36.8998 1018.93 37.6998C1017.33 38.5331 1017.66 40.1665 1020.3 39.5665C1021.63 39.2665 1023.73 39.0665 1025.66 38.9331C1025.36 37.9331 1025.06 36.8998 1024.7 35.8665Z" fill="#6A3C21"/>
<path d="M1026.13 40.9332C1025.07 41.0332 1023.87 41.1999 1023.17 41.4332C1021.73 41.8666 1021.47 42.3666 1021.73 42.8666C1022 43.3666 1023.27 43.6999 1024.7 43.6332C1025.17 43.5999 1025.87 43.5999 1026.67 43.6332C1026.5 42.7332 1026.33 41.8332 1026.13 40.9332Z" fill="#6A3C21"/>
<path d="M999.832 62.1999C989.232 62.1999 986.199 57.7999 987.165 52.3999C988.199 46.7333 994.865 45.2666 998.799 47.5999L1000.47 48.1666L1001.97 47.5999C1005.9 45.2666 1012.57 46.7333 1013.6 52.3999C1014.57 57.8333 1011.53 62.1999 1000.93 62.1999H999.832Z" fill="#FDF2CC"/>
<path d="M987.265 25.5666C985.432 21.1999 980.865 17.2666 978.499 17.7999C976.499 18.2666 977.665 29.3999 978.432 30.8666C979.199 32.3332 981.332 30.6666 983.099 29.1999C984.865 27.7332 986.165 26.8999 987.265 25.5666Z" fill="#FDF2CC"/>
<path d="M987.265 25.5666C985.431 21.1999 980.865 17.2666 978.498 17.7999" stroke="black" stroke-width="2.32747" stroke-miterlimit="10" stroke-linecap="round" stroke-linejoin="round"/>
<path d="M1012.5 25.5666C1014.3 21.1999 1018.9 17.2666 1021.26 17.7999C1023.26 18.2666 1022.1 29.3999 1021.33 30.8666C1020.56 32.3332 1018.4 30.6332 1016.63 29.1666C1014.86 27.6999 1013.56 26.8999 1012.5 25.5666Z" fill="#FDF2CC"/>
<path d="M1012.5 25.5666C1014.3 21.1999 1018.9 17.2666 1021.26 17.7999" stroke="black" stroke-width="2.32747" stroke-miterlimit="10" stroke-linecap="round" stroke-linejoin="round"/>
<path d="M1030.6 45.5C1030.6 45.5 1022.83 45.4333 1019.13 47.4" stroke="black" stroke-width="2.32747" stroke-miterlimit="10" stroke-linecap="round" stroke-linejoin="round"/>
<path d="M1030.33 53.8999C1030.33 53.8999 1027.23 52.1666 1019.1 52.1666" stroke="black" stroke-width="2.32747" stroke-miterlimit="10" stroke-linecap="round" stroke-linejoin="round"/>
<path d="M968.998 45.5C968.998 45.5 976.765 45.4333 980.465 47.4" stroke="black" stroke-width="2.32747" stroke-miterlimit="10" stroke-linecap="round" stroke-linejoin="round"/>
<path d="M969.265 53.8999C969.265 53.8999 972.365 52.1666 980.498 52.1666" stroke="black" stroke-width="2.32747" stroke-miterlimit="10" stroke-linecap="round" stroke-linejoin="round"/>
<path d="M991.366 45.9332C992.802 45.9332 993.966 44.7692 993.966 43.3332C993.966 41.8973 992.802 40.7332 991.366 40.7332C989.93 40.7332 988.766 41.8973 988.766 43.3332C988.766 44.7692 989.93 45.9332 991.366 45.9332Z" fill="black"/>
<path d="M1009.3 45.8333C1010.73 45.8333 1011.9 44.6693 1011.9 43.2333C1011.9 41.7974 1010.73 40.6333 1009.3 40.6333C1007.86 40.6333 1006.7 41.7974 1006.7 43.2333C1006.7 44.6693 1007.86 45.8333 1009.3 45.8333Z" fill="black"/>
<path d="M1000.36 48.6999C1001.54 48.6999 1002.5 47.9835 1002.5 47.0999C1002.5 46.2162 1001.54 45.4999 1000.36 45.4999C999.187 45.4999 998.231 46.2162 998.231 47.0999C998.231 47.9835 999.187 48.6999 1000.36 48.6999Z" fill="#AD3319"/>
<path d="M1007.43 51.4C1005.36 53.1666 1001.63 52.9333 1000.23 50.6C998.364 53.6 994.43 52.6666 993.264 51.3333" stroke="black" stroke-width="2.32747" stroke-miterlimit="10" stroke-linecap="round" stroke-linejoin="round"/>
<path d="M1000.33 59.7333C1003.06 59.7333 1003.76 55.5666 1003.96 52.5666C1002.46 52.5333 1001 51.8666 1000.23 50.6C999.363 52 998.029 52.5333 996.763 52.5666C996.863 55.2333 997.429 59.7333 1000.33 59.7333Z" fill="#FD8053" stroke="black" stroke-width="2.32747" stroke-miterlimit="10" stroke-linecap="round" stroke-linejoin="round"/>
<path d="M1025.1 34.2666C1025.1 34.2666 1030.73 15.5333 1023.63 12.9666C1017.5 10.7333 1008.27 20.4999 1006.27 23.0333C999.832 21.1999 993.465 23.0333 993.465 23.0333C991.465 20.4999 982.265 10.7333 976.099 12.9666C968.999 15.5333 974.632 34.2666 974.632 34.2666C966.899 50.1666 972.065 66.9666 998.632 67.3666C1024.37 67.6999 1032.57 54.5666 1025.1 34.2666Z" stroke="black" stroke-width="2.32747" stroke-miterlimit="10" stroke-linecap="round" stroke-linejoin="round"/>
<path d="M1104.7 28.9667C1104.7 28.9667 1105 13.6334 1100.3 13.0001C1096.23 12.4667 1090.9 19.3334 1090.47 19.6001C1088.43 20.8001 1102.8 30.2334 1104.7 28.9667Z" fill="#EFA961" stroke="black" stroke-width="2.28092" stroke-miterlimit="10" stroke-linecap="round" stroke-linejoin="round"/>
<path d="M1101.27 25.3335C1101.27 25.3335 1101.43 17.4668 1098.97 17.1335C1096.83 16.8335 1094.3 20.1335 1094.1 20.3335C1093.93 20.5335 1100.27 25.9668 1101.27 25.3335Z" fill="#F8E8CC"/>
<path d="M1055.47 28.2334C1055.47 28.2334 1055.33 13.6 1060.03 12.9667C1064.1 12.4334 1069.43 19.3 1069.87 19.5667C1071.9 20.8 1057.37 29.5 1055.47 28.2334Z" fill="#EFA961" stroke="black" stroke-width="2.28092" stroke-miterlimit="10" stroke-linecap="round" stroke-linejoin="round"/>
<path d="M1059.03 25.3332C1059.03 25.3332 1058.87 17.4666 1061.33 17.1332C1063.47 16.8332 1066 20.1332 1066.2 20.3332C1066.4 20.5332 1060.03 25.9666 1059.03 25.3332Z" fill="#F8E8CC"/>
<path d="M1091.1 19.0333C1093.73 16.0333 1089.1 14.0666 1083.1 15.9333C1080.53 14.1999 1078.03 14.8666 1076.9 16.0333C1070.8 13.9999 1065.97 15.9999 1068.63 19.0333C1068.63 19.0333 1067.47 19.2333 1063.8 20.3999C1059.37 21.8333 1055.73 28.0666 1055.73 28.0666C1051.13 30.3666 1048.93 40.0333 1051.97 39.4666C1048.6 44.6333 1049.23 51.7999 1051.77 54.3333C1053.13 55.6999 1054.27 54.5333 1054.27 54.5333C1055.7 61.0999 1062.8 65.6999 1065 62.9666C1067.53 65.5666 1072.93 65.9333 1073.97 64.6666C1077.13 68.3333 1083.87 67.3333 1085.97 64.3666C1087.2 66.7666 1092.87 65.8999 1094.63 62.9333C1096.83 65.6666 1103.57 61.7999 1105.37 54.4999C1105.37 54.4999 1106.77 55.2666 1108.13 53.8999C1109.97 52.0666 1111.07 44.5999 1107.7 39.4333C1110.67 40.0999 1108.2 30.9999 1104.13 28.3999C1104.13 28.3999 1100.83 21.4666 1095.57 20.2333C1090.3 18.9999 1090.37 19.5333 1090.37 19.5333" fill="#EFA961"/>
<path d="M1094.7 62.9668C1096.9 65.7001 1103.63 61.8335 1105.43 54.5335C1105.43 54.5335 1106.83 55.3001 1108.2 53.9335C1109.93 52.2001 1110.97 45.4335 1108.2 40.3335C1106.23 38.6335 1103.4 36.7335 1100.5 36.4668C1094.3 35.9001 1094.07 40.1335 1089.6 40.1335C1086.2 40.1335 1084.93 35.7668 1079.8 35.7668C1074.07 35.7668 1072.97 40.8001 1069.3 40.8001C1065.63 40.8001 1064.13 37.2335 1059.8 37.2335C1056.13 37.2335 1053.47 38.6668 1051.63 40.1668C1048.73 45.2668 1049.4 51.9335 1051.83 54.3335C1053.2 55.7001 1054.33 54.5335 1054.33 54.5335C1055.77 61.1001 1062.87 65.7001 1065.07 62.9668C1067.6 65.5668 1073 65.9335 1074.03 64.6668C1077.2 68.3335 1083.93 67.3335 1086.03 64.4001C1087.27 66.8001 1092.93 65.9335 1094.7 62.9668Z" fill="#F8E8CC"/>
<path d="M1055.77 28.0668C1051.17 30.3668 1048.97 40.0335 1052 39.4668C1048.63 44.6335 1049.6 51.7001 1052.13 54.2335C1053.5 55.6001 1054.33 54.5335 1054.33 54.5335C1055.77 61.1001 1062.87 65.7001 1065.07 62.9668C1067.6 65.5668 1073 65.9335 1074.03 64.6668C1077.2 68.3335 1083.93 67.3335 1086.03 64.3668C1087.27 66.7668 1092.93 65.9001 1094.7 62.9335C1096.9 65.6668 1103.63 61.8001 1105.43 54.5001C1105.43 54.5001 1106.53 54.7668 1107.9 53.3668C1109.73 51.5335 1111.13 44.6001 1107.77 39.4335C1110.73 40.1001 1108.27 31.0001 1104.2 28.4001" stroke="black" stroke-width="2.28092" stroke-miterlimit="10" stroke-linecap="round" stroke-linejoin="round"/>
<path d="M1068.63 19.0334C1068.63 19.0334 1066.37 19.7001 1064.1 21.1334" stroke="black" stroke-width="2.28092" stroke-miterlimit="10" stroke-linecap="round" stroke-linejoin="round"/>
<path d="M1071.67 37.5666C1073.07 37.5666 1074.2 36.4324 1074.2 35.0333C1074.2 33.6342 1073.07 32.5 1071.67 32.5C1070.27 32.5 1069.13 33.6342 1069.13 35.0333C1069.13 36.4324 1070.27 37.5666 1071.67 37.5666Z" fill="black"/>
<path d="M1088.27 37.5666C1089.67 37.5666 1090.8 36.4324 1090.8 35.0333C1090.8 33.6342 1089.67 32.5 1088.27 32.5C1086.87 32.5 1085.73 33.6342 1085.73 35.0333C1085.73 36.4324 1086.87 37.5666 1088.27 37.5666Z" fill="black"/>
<path d="M1079.7 39.4C1080.92 39.4 1081.9 38.6538 1081.9 37.7333C1081.9 36.8129 1080.92 36.0667 1079.7 36.0667C1078.48 36.0667 1077.5 36.8129 1077.5 37.7333C1077.5 38.6538 1078.48 39.4 1079.7 39.4Z" fill="black"/>
<path d="M1088.27 42.1667C1088.27 42.1667 1086.83 43.6 1084.53 43.6C1082.23 43.6 1081.4 41.9 1080.07 41.9C1078.73 41.9 1078.8 42.0333 1076.37 43.2333C1073.93 44.4333 1071.63 42.4 1071.63 42.4" stroke="black" stroke-width="2.28092" stroke-miterlimit="10" stroke-linecap="round" stroke-linejoin="round"/>
<path d="M1085.07 43.5667C1084.9 43.5667 1084.73 43.6 1084.53 43.6C1082.43 43.6 1081.53 42.1667 1080.37 41.9334L1078.8 42.0667C1078.3 42.2334 1077.73 42.5667 1076.37 43.2667C1075.8 43.5667 1075.23 43.6667 1074.7 43.6334C1075.27 45.3667 1076.67 48.3334 1079.8 48.3334C1082.67 48.3334 1084.27 45.5667 1085.07 43.5667Z" fill="#FD8053" stroke="black" stroke-width="2.28092" stroke-miterlimit="10" stroke-linecap="round" stroke-linejoin="round"/>
<path d="M1069.1 19.1C1066 17.9 1070.03 13.9667 1075.53 16.0667C1077.1 14.0333 1083.7 14.3667 1083.83 16.0667C1088.33 14.9333 1092.73 17 1090.47 19.5667C1090.47 19.5667 1093.47 19.5333 1095.73 21.1333" stroke="black" stroke-width="2.28092" stroke-miterlimit="10" stroke-linecap="round" stroke-linejoin="round"/>
<path d="M1160.43 66.9001C1142.57 66.8334 1134.6 60.7001 1132.03 53.7334C1129.8 47.7001 1130.43 38.8334 1135.33 30.4334C1135.33 30.4334 1133.53 14.6668 1139.2 13.2334C1144.87 11.8001 1152.47 23.4668 1152.47 23.4668C1152.47 23.4668 1159.73 20.5668 1168.4 23.4668C1168.4 23.4668 1176 11.8001 1181.67 13.2334C1187.33 14.6668 1185.53 30.4334 1185.53 30.4334C1189.53 37.3668 1190.43 47.5668 1187.63 54.1334C1184.57 61.1001 1177.2 66.9668 1160.43 66.9001Z" fill="#AAA6A7"/>
<path d="M1162.36 21.5335C1160.93 21.4668 1159.56 21.5001 1158.33 21.5335C1158.26 24.4668 1158.26 32.2668 1160.26 32.2668C1162.13 32.2668 1162.36 25.2001 1162.36 21.5335Z" fill="#7F7F7F"/>
<path d="M1155.2 30.3C1156.47 30.1334 1156.2 24.8 1155.93 21.7C1154.33 21.8334 1153.13 22.0334 1152.4 22.1667C1152.73 24.4667 1153.8 30.5 1155.2 30.3Z" fill="#7F7F7F"/>
<path d="M1165.57 30.3002C1167 30.5002 1168.03 24.4669 1168.37 22.1335C1167.17 21.9335 1165.97 21.7669 1164.83 21.6669C1164.57 24.7669 1164.3 30.1335 1165.57 30.3002Z" fill="#7F7F7F"/>
<path d="M1140.63 36.8334C1143.1 36.9001 1143.2 35.4001 1141.1 33.9334C1139.56 32.8667 1136.8 32.2001 1135.46 31.9334C1134.8 33.2001 1134.23 34.4667 1133.73 35.7334C1136.1 36.0001 1139.06 36.7667 1140.63 36.8334Z" fill="#7F7F7F"/>
<path d="M1137.33 41.1669C1139.47 40.9669 1139.77 39.1668 1137.63 38.6668C1136.43 38.4002 1134.37 38.3668 1132.83 38.4335C1132.43 39.7335 1132.13 41.0002 1131.9 42.2669C1133.63 41.8669 1136.07 41.3002 1137.33 41.1669Z" fill="#7F7F7F"/>
<path d="M1185.33 31.8335C1184.23 32.0335 1181.03 32.7335 1179.33 33.9335C1177.26 35.3668 1177.33 36.9002 1179.8 36.8335C1181.4 36.7668 1184.5 35.9668 1186.9 35.7002C1186.43 34.3668 1185.9 33.0668 1185.33 31.8335Z" fill="#7F7F7F"/>
<path d="M1187.63 38.4335C1186.06 38.4002 1184 38.4002 1182.8 38.6669C1180.66 39.1669 1180.93 40.9335 1183.1 41.1669C1184.33 41.3002 1186.6 41.8002 1188.33 42.2335C1188.16 40.9669 1187.93 39.7002 1187.63 38.4335Z" fill="#7F7F7F"/>
<path d="M1160.43 66.9001C1142.57 66.8334 1134.6 60.7001 1132.03 53.7334C1129.8 47.7001 1130.43 38.8334 1135.33 30.4334C1135.33 30.4334 1133.53 14.6668 1139.2 13.2334C1144.87 11.8001 1152.47 23.4668 1152.47 23.4668C1152.47 23.4668 1159.73 20.5668 1168.4 23.4668C1168.4 23.4668 1176 11.8001 1181.67 13.2334C1187.33 14.6668 1185.53 30.4334 1185.53 30.4334C1189.53 37.3668 1190.43 47.5668 1187.63 54.1334C1184.57 61.1001 1177.2 66.9668 1160.43 66.9001Z" stroke="black" stroke-width="2.32747" stroke-miterlimit="10" stroke-linecap="round" stroke-linejoin="round"/>
<path d="M1169.1 50.4334C1169.3 54.5667 1166.33 57.3334 1160.5 57.3334C1154.67 57.3334 1151.9 54.5667 1151.97 50.5667C1152.03 46.8334 1155.8 43.8 1160.5 43.8C1165.2 43.8 1168.93 46.7 1169.1 50.4334Z" fill="white"/>
<path d="M1173.7 24.9001C1175.57 20.9667 1179.03 19.2667 1179.03 19.2667C1179.53 19.0001 1180.43 18.9334 1180.87 19.9001C1181.37 21.0001 1181.5 22.9334 1181.43 24.3667C1181.37 26.4001 1180.97 28.1001 1180.97 28.1001C1180.97 28.1001 1177.07 25.7667 1173.7 24.9001Z" fill="#FDA6AA"/>
<path d="M1147.37 24.9001C1145.5 20.9667 1142.03 19.2667 1142.03 19.2667C1141.53 19.0001 1140.63 18.9334 1140.23 19.9001C1139.73 21.0001 1139.6 22.9667 1139.63 24.3667C1139.7 26.4001 1140.1 28.1001 1140.1 28.1001C1140.1 28.1001 1144 25.7667 1147.37 24.9001Z" fill="#FDA6AA"/>
<path d="M1173.7 24.5335C1175.57 20.6002 1179.03 18.9002 1179.03 18.9002" stroke="black" stroke-width="2.32747" stroke-miterlimit="10" stroke-linecap="round" stroke-linejoin="round"/>
<path d="M1146.73 24.4334C1144.87 20.5 1141.4 18.8 1141.4 18.8" stroke="black" stroke-width="2.32747" stroke-miterlimit="10" stroke-linecap="round" stroke-linejoin="round"/>
<path d="M1191.8 44.4668C1191.8 44.4668 1184.63 44.4668 1181.8 45.8335" stroke="black" stroke-width="2.32747" stroke-miterlimit="10" stroke-linecap="round" stroke-linejoin="round"/>
<path d="M1191.2 53.3001C1191.2 53.3001 1185.43 50.6001 1181.93 51.1334" stroke="black" stroke-width="2.32747" stroke-miterlimit="10" stroke-linecap="round" stroke-linejoin="round"/>
<path d="M1127.8 44.4668C1127.8 44.4668 1134.97 44.4668 1137.8 45.8335" stroke="black" stroke-width="2.32747" stroke-miterlimit="10" stroke-linecap="round" stroke-linejoin="round"/>
<path d="M1128.4 53.3001C1128.4 53.3001 1134.17 50.6001 1137.67 51.1334" stroke="black" stroke-width="2.32747" stroke-miterlimit="10" stroke-linecap="round" stroke-linejoin="round"/>
<path d="M1150.9 44.9002C1152.33 44.9002 1153.5 43.6018 1153.5 42.0002C1153.5 40.3985 1152.33 39.1002 1150.9 39.1002C1149.46 39.1002 1148.3 40.3985 1148.3 42.0002C1148.3 43.6018 1149.46 44.9002 1150.9 44.9002Z" fill="black"/>
<path d="M1169.86 44.9002C1171.3 44.9002 1172.46 43.6018 1172.46 42.0002C1172.46 40.3985 1171.3 39.1002 1169.86 39.1002C1168.43 39.1002 1167.26 40.3985 1167.26 42.0002C1167.26 43.6018 1168.43 44.9002 1169.86 44.9002Z" fill="black"/>
<path d="M1160.5 47.4334C1161.55 47.4334 1162.4 46.8066 1162.4 46.0334C1162.4 45.2602 1161.55 44.6334 1160.5 44.6334C1159.45 44.6334 1158.6 45.2602 1158.6 46.0334C1158.6 46.8066 1159.45 47.4334 1160.5 47.4334Z" fill="#C02B3A"/>
<path d="M1154.03 50.6335C1155.17 52.5335 1158.7 52.2335 1160.27 50.3668C1162.1 52.3002 1164.93 52.1668 1166.5 50.3335" stroke="black" stroke-width="2.32747" stroke-miterlimit="10" stroke-linecap="round" stroke-linejoin="round"/>
<path d="M1220.57 61.7001C1207.07 57.1334 1208.83 44.5668 1214.27 37.7001C1214.03 34.9668 1215.13 31.8334 1216.83 28.7334C1209.03 20.6668 1221.03 11.3001 1228.1 19.0668C1228.1 19.0668 1238.27 12.6334 1251.17 18.7001C1258.03 10.6001 1269.4 20.3001 1261.83 28.3001C1261.83 28.3001 1265.07 32.7001 1265.2 38.4001C1270.3 42.5668 1272.2 58.2334 1258.3 61.9334C1251.33 63.7668 1246.2 64.3334 1239.2 64.3334C1232.5 64.3668 1225.03 63.2001 1220.57 61.7001Z" fill="white" stroke="black" stroke-width="2.32747" stroke-miterlimit="10"/>
<path d="M1220.23 24.7667C1217.9 21.8333 1221.2 18.2667 1224.17 21.2C1225.27 22.4333 1221.97 26.1 1220.23 24.7667Z" fill="#F9C7BF"/>
<path d="M1258.7 24.2668C1261.03 21.3335 1257.73 17.7668 1254.77 20.7001C1253.67 21.9335 1257 25.6001 1258.7 24.2668Z" fill="#F9C7BF"/>
<path d="M1270.3 39.7668C1270.3 39.7668 1264.97 37.7335 1260.33 40.5668" stroke="black" stroke-width="2.32747" stroke-miterlimit="10" stroke-linecap="round" stroke-linejoin="round"/>
<path d="M1271.7 47.4001C1271.7 47.4001 1266.5 44.7668 1260.93 45.4668" stroke="black" stroke-width="2.32747" stroke-miterlimit="10" stroke-linecap="round" stroke-linejoin="round"/>
<path d="M1209.3 39.7668C1209.3 39.7668 1214.63 37.7335 1219.27 40.5668" stroke="black" stroke-width="2.32747" stroke-miterlimit="10" stroke-linecap="round" stroke-linejoin="round"/>
<path d="M1207.9 47.4001C1207.9 47.4001 1213.1 44.7668 1218.67 45.4668" stroke="black" stroke-width="2.32747" stroke-miterlimit="10" stroke-linecap="round" stroke-linejoin="round"/>
<path d="M1231.07 41.2002C1232.41 41.2002 1233.5 40.1107 1233.5 38.7668C1233.5 37.4229 1232.41 36.3335 1231.07 36.3335C1229.72 36.3335 1228.63 37.4229 1228.63 38.7668C1228.63 40.1107 1229.72 41.2002 1231.07 41.2002Z" fill="black"/>
<path d="M1247.9 41.2002C1249.24 41.2002 1250.33 40.1107 1250.33 38.7668C1250.33 37.4229 1249.24 36.3335 1247.9 36.3335C1246.56 36.3335 1245.47 37.4229 1245.47 38.7668C1245.47 40.1107 1246.56 41.2002 1247.9 41.2002Z" fill="black"/>
<path d="M1239.3 42.8668C1240.22 42.8668 1240.97 42.2848 1240.97 41.5668C1240.97 40.8488 1240.22 40.2668 1239.3 40.2668C1238.38 40.2668 1237.63 40.8488 1237.63 41.5668C1237.63 42.2848 1238.38 42.8668 1239.3 42.8668Z" fill="#DA636A"/>
<path d="M1232.2 45.9667C1233.77 48.0334 1237.6 47.8001 1239.3 45.6667C1241.87 48.5001 1245.63 47.3667 1246.83 45.6667" stroke="black" stroke-width="2.32747" stroke-miterlimit="10" stroke-linecap="round" stroke-linejoin="round"/>
<path d="M1239.3 45.7001C1238.5 46.7001 1237.27 47.2668 1236 47.4001C1236.07 49.5668 1236.57 53.2335 1239.47 53.2335C1241.9 53.2335 1242.47 49.5335 1242.6 47.4001C1241.47 47.3001 1240.3 46.8001 1239.3 45.7001Z" fill="#FD8053" stroke="black" stroke-width="2.32747" stroke-miterlimit="10" stroke-linecap="round" stroke-linejoin="round"/>
</svg>
