<svg width="2368" height="148" viewBox="0 0 2368 148" fill="none" xmlns="http://www.w3.org/2000/svg">
<path d="M27.0698 67.2783C22.3832 58.0283 18.8065 27.0716 29.0432 21.1516C39.2798 15.2316 58.7048 35.2733 58.7048 35.2733C58.7048 35.2733 64.1932 39.405 44.3365 55.315C27.8098 68.5733 27.0698 67.2783 27.0698 67.2783Z" fill="#818181" stroke="black" stroke-width="4.32659" stroke-miterlimit="10" stroke-linecap="round" stroke-linejoin="round"/>
<path d="M33.7324 30.4634C37.2474 27.2568 45.5108 34.3484 47.8541 37.1234C48.3474 37.6784 53.8358 44.2151 45.3874 50.6901C41.1941 53.8968 32.9924 54.6984 32.9924 54.6984C32.9924 54.6984 29.3541 34.4718 33.7324 30.4634Z" fill="white"/>
<path d="M35.9521 29.8467C40.4538 30.9567 46.9905 37 48.7788 39.0967" stroke="black" stroke-width="4.32659" stroke-miterlimit="10" stroke-linecap="round" stroke-linejoin="round"/>
<path d="M122.963 67.2783C127.65 57.9666 131.227 27.0716 120.99 21.09C110.753 15.1083 91.3284 35.2116 91.3284 35.2116C91.3284 35.2116 85.84 39.3433 105.697 55.2533C122.223 68.5733 122.963 67.2783 122.963 67.2783Z" fill="#818181" stroke="black" stroke-width="4.32659" stroke-miterlimit="10" stroke-linecap="round" stroke-linejoin="round"/>
<path d="M116.302 30.4634C112.787 27.2568 104.523 34.3484 102.18 37.1234C101.687 37.6784 96.1984 44.2151 104.647 50.6901C108.84 53.8968 117.103 54.6368 117.103 54.6368C117.103 54.6368 120.68 34.4718 116.302 30.4634Z" fill="white"/>
<path d="M114.083 29.8467C109.581 30.9567 103.044 37 101.256 39.0967" stroke="black" stroke-width="4.32659" stroke-miterlimit="10" stroke-linecap="round" stroke-linejoin="round"/>
<path d="M111.986 49.21C111.986 49.21 126.355 60.9266 126.54 81.4616C133.693 90.5883 131.843 99.715 126.54 98.7283C128.39 108.533 122.223 109.828 119.571 109.643C116.92 117.413 102.12 128.02 79.1179 128.02H68.5112C46.3729 128.02 30.7096 117.475 28.0579 109.643C25.4679 109.767 19.3012 108.472 21.1512 98.6666C15.8479 99.6533 14.8612 90.7733 21.1512 81.4C21.2746 60.865 34.9029 49.95 34.9029 49.95C34.9029 49.95 37.3696 47.6066 38.1096 47.175C33.0529 46.8666 43.7829 35.335 58.3979 37.37C58.3979 37.37 76.0962 29.415 91.0812 37.37C108.533 38.1716 115.686 46.8666 111.986 49.21Z" fill="#818181" stroke="black" stroke-width="4.32659" stroke-miterlimit="10" stroke-linecap="round" stroke-linejoin="round"/>
<path d="M113.282 87.3199C104.711 70.9166 78.3791 69.4983 77.1458 93.7949H72.9524C71.7191 69.4983 45.3874 70.9166 36.8158 87.3199C33.9791 84.7916 27.0724 81.9549 20.7208 82.1399C14.9241 91.2049 15.9724 99.6533 21.1524 98.6666C19.3024 108.472 25.4691 109.767 28.1208 109.582C30.7724 117.352 46.3741 127.958 68.5741 127.958H79.1808C102.182 127.958 116.982 117.413 119.634 109.582C122.286 109.767 128.391 108.41 126.602 98.6666C131.782 99.6533 133.571 91.0816 127.096 82.2016C121.422 82.6949 115.749 85.0999 113.282 87.3199Z" fill="white"/>
<path d="M88.6151 102.12C85.9634 105.203 77.8851 105.018 74.9868 102.12C74.9868 102.12 66.4768 108.04 60.4951 102.12" stroke="black" stroke-width="4.32659" stroke-miterlimit="10" stroke-linecap="round" stroke-linejoin="round"/>
<path d="M74.9882 102.12C74.9882 102.12 71.7815 104.34 67.8965 104.71C67.8965 104.71 67.8965 104.71 67.8965 104.772C68.1432 108.842 69.3148 114.947 75.2348 114.947C81.0932 114.947 82.2648 108.718 82.4498 104.402C79.6132 104.463 76.5298 103.723 74.9882 102.12Z" fill="#FD815D" stroke="black" stroke-width="4.32659" stroke-miterlimit="10" stroke-linecap="round" stroke-linejoin="round"/>
<path d="M123.148 64.9966C125.06 69.5599 126.478 75.0483 126.54 81.3999C133.693 90.5266 131.843 99.6533 126.54 98.6666C128.39 108.472 122.223 109.767 119.571 109.582C116.92 117.352 102.12 127.958 79.1179 127.958H68.5112C46.3729 127.958 30.7096 117.413 28.0579 109.582C25.4679 109.767 19.3012 108.472 21.1512 98.6666C15.8479 99.6533 14.8612 90.7733 21.1512 81.3999C21.2129 73.2599 23.3712 66.5999 25.9612 61.6049" stroke="black" stroke-width="4.32659" stroke-miterlimit="10" stroke-linecap="round" stroke-linejoin="round"/>
<path d="M65.0586 68.5732C65.4902 66.9699 64.1336 64.3799 59.5702 64.0099C55.0069 63.6399 53.7119 66.1682 53.7736 67.4632C53.8352 68.9432 54.6986 69.9299 58.5836 70.1149C62.4686 70.3616 64.3186 71.2249 65.0586 68.5732Z" fill="white"/>
<path d="M74.9263 96.0763C77.3785 96.0763 79.3663 94.7787 79.3663 93.178C79.3663 91.5773 77.3785 90.2797 74.9263 90.2797C72.4742 90.2797 70.4863 91.5773 70.4863 93.178C70.4863 94.7787 72.4742 96.0763 74.9263 96.0763Z" fill="black"/>
<path d="M85.4711 68.2031C85.1011 66.5998 86.5194 64.0715 91.0211 63.8865C95.5844 63.7015 96.7561 66.2298 96.6328 67.4631C96.5094 68.9431 95.6461 69.8681 91.8228 69.9298C87.9994 70.0531 86.0878 70.8548 85.4711 68.2031Z" fill="white"/>
<path d="M91.6369 91.8216C94.2252 91.8216 96.3235 89.7233 96.3235 87.135C96.3235 84.5466 94.2252 82.4483 91.6369 82.4483C89.0485 82.4483 86.9502 84.5466 86.9502 87.135C86.9502 89.7233 89.0485 91.8216 91.6369 91.8216Z" fill="black"/>
<path d="M57.5333 91.8216C60.1217 91.8216 62.22 89.7233 62.22 87.135C62.22 84.5466 60.1217 82.4483 57.5333 82.4483C54.945 82.4483 52.8467 84.5466 52.8467 87.135C52.8467 89.7233 54.945 91.8216 57.5333 91.8216Z" fill="black"/>
<path d="M193.262 116.365H252.585" stroke="black" stroke-width="4.32659" stroke-miterlimit="10" stroke-linecap="round" stroke-linejoin="round"/>
<path d="M219.223 121.545C201.648 121.545 189.747 119.017 181.607 114.577C162.182 104.094 165.142 82.0169 173.343 63.3319C168.595 54.8836 164.402 33.7936 172.788 28.1203C182.408 21.6453 203.313 36.2603 203.313 36.2603C203.313 36.2603 221.012 29.1069 241.3 36.2603C241.3 36.2603 262.205 21.7069 271.825 28.1203C280.273 33.7936 276.018 55.3769 271.332 63.8253C278.732 79.0569 281.568 103.354 263.192 114.577C254.435 119.942 240.437 121.545 219.223 121.545Z" fill="#FCB160"/>
<path d="M271.825 28.1203C262.205 21.6453 241.3 36.2603 241.3 36.2603C253.695 39.6519 268.926 55.1303 271.516 63.4553C276.141 54.7603 280.088 33.7319 271.825 28.1203Z" fill="white"/>
<path d="M203.066 36.0135C200.661 34.4101 181.791 22.0151 172.849 28.0585C164.463 33.7318 168.594 54.6985 173.281 63.2085C177.659 52.1085 186.416 42.1801 203.066 36.0135Z" fill="white"/>
<path d="M219.223 121.545C201.648 121.545 189.747 119.017 181.607 114.577C162.182 104.094 165.142 82.0169 173.343 63.3319C168.595 54.8836 164.402 33.7936 172.788 28.1203C182.408 21.6453 203.313 36.2603 203.313 36.2603C203.313 36.2603 221.012 29.1069 241.3 36.2603C241.3 36.2603 262.205 21.7069 271.825 28.1203C280.273 33.7936 276.018 55.3769 271.332 63.8253C278.732 79.0569 281.568 103.354 263.192 114.577C254.435 119.942 239.265 121.545 219.223 121.545Z" stroke="black" stroke-width="4.32659" stroke-miterlimit="10" stroke-linecap="round" stroke-linejoin="round"/>
<path d="M235.997 93.2401C236.306 100.578 231.557 105.512 222.184 105.512C212.811 105.512 208.371 100.578 208.432 93.4868C208.556 86.8268 214.599 81.4618 222.184 81.4618C229.769 81.4618 235.689 86.6418 235.997 93.2401Z" fill="white"/>
<path d="M195.542 42.2418C189.683 37.3701 179.94 36.5685 179.94 36.5685C177.535 37.4935 176.548 48.2235 180.927 55.3768C180.927 55.3768 184.318 53.8968 189.868 48.9018C195.418 43.9068 195.542 42.2418 195.542 42.2418Z" fill="#FCB160"/>
<path d="M195.542 42.2418C189.684 37.3701 179.94 36.5685 179.94 36.5685" stroke="black" stroke-width="4.32659" stroke-miterlimit="10" stroke-linecap="round" stroke-linejoin="round"/>
<path d="M249.069 42.2418C254.928 37.3701 264.671 36.5685 264.671 36.5685C267.076 37.5551 268.063 48.2235 263.684 55.3768C263.684 55.3768 260.293 53.8968 254.743 48.9018C249.254 43.8451 249.069 42.2418 249.069 42.2418Z" fill="#FCB160"/>
<path d="M249.069 42.2418C254.928 37.3701 264.671 36.5685 264.671 36.5685" stroke="black" stroke-width="4.32659" stroke-miterlimit="10" stroke-linecap="round" stroke-linejoin="round"/>
<path d="M206.335 83.2502C208.787 83.2502 210.775 81.2624 210.775 78.8102C210.775 76.3581 208.787 74.3702 206.335 74.3702C203.882 74.3702 201.895 76.3581 201.895 78.8102C201.895 81.2624 203.882 83.2502 206.335 83.2502Z" fill="black"/>
<path d="M237.474 83.2502C239.926 83.2502 241.914 81.2624 241.914 78.8102C241.914 76.3581 239.926 74.3702 237.474 74.3702C235.022 74.3702 233.034 76.3581 233.034 78.8102C233.034 81.2624 235.022 83.2502 237.474 83.2502Z" fill="black"/>
<path d="M221.812 87.9367C223.923 87.9367 225.635 86.6943 225.635 85.1617C225.635 83.6291 223.923 82.3867 221.812 82.3867C219.7 82.3867 217.988 83.6291 217.988 85.1617C217.988 86.6943 219.7 87.9367 221.812 87.9367Z" fill="black"/>
<path d="M233.097 92.9934C230.939 95.6451 224.464 95.4601 222.182 92.9934C222.182 92.9934 215.337 98.0501 210.527 92.9934" stroke="black" stroke-width="4.32659" stroke-miterlimit="10" stroke-linecap="round" stroke-linejoin="round"/>
<path d="M207.323 68.3883C209.707 68.3883 211.639 66.8974 211.639 65.0583C211.639 63.2192 209.707 61.7283 207.323 61.7283C204.938 61.7283 203.006 63.2192 203.006 65.0583C203.006 66.8974 204.938 68.3883 207.323 68.3883Z" fill="white"/>
<path d="M236.921 68.3883C239.305 68.3883 241.238 66.8974 241.238 65.0583C241.238 63.2192 239.305 61.7283 236.921 61.7283C234.537 61.7283 232.604 63.2192 232.604 65.0583C232.604 66.8974 234.537 68.3883 236.921 68.3883Z" fill="white"/>
<path d="M183.148 90.9584C181.544 86.6417 183.209 81.9551 188.759 80.9684C194.309 79.9817 198.009 81.9551 198.564 86.2101C199.058 89.9101 200.414 98.1117 195.358 100.702C190.301 103.292 185.368 96.8784 183.148 90.9584Z" fill="white"/>
<path d="M261.281 90.9584C262.884 86.6417 261.219 81.9551 255.669 80.9684C250.119 79.9817 246.419 81.9551 245.864 86.2101C245.371 89.9101 244.014 98.1117 249.071 100.702C254.189 103.292 259.061 96.8784 261.281 90.9584Z" fill="white"/>
<path d="M358.223 129.747C339.106 119.88 330.35 102.182 328.808 92.13C327.266 82.0783 333.186 65.2433 338.551 51.3067C338.551 51.3067 333.926 47.175 336.085 36.815C338.243 26.5167 343.731 19.3017 346.013 17.8833C348.356 16.465 351.255 16.465 351.81 21.5217C352.673 29.3533 356.928 37.6167 356.311 41.7483C356.311 41.7483 369.878 35.0883 383.568 41.7483C382.951 37.6167 387.206 29.2917 388.07 21.5217C388.625 16.465 391.523 16.4033 393.866 17.8833C396.21 19.3017 401.636 26.5167 403.795 36.815C405.953 47.1133 401.328 51.3067 401.328 51.3067C401.328 51.3067 414.525 78.995 410.763 92.8083C406.446 108.718 394.915 122.532 381.348 129.685C378.203 131.412 360.751 131.288 358.223 129.747Z" fill="#585552"/>
<path d="M410.147 94.8433C406.262 101.01 399.294 104.402 393.682 104.402C380.115 104.402 381.78 92.4999 369.077 92.4999C356.374 92.4999 356.374 104.71 346.075 104.71C340.464 104.71 333.434 100.64 329.61 95.8916C332.2 106.313 341.327 120.99 358.285 129.747C360.752 131.35 378.204 131.412 381.349 129.747C394.299 122.84 405.584 110.075 410.147 94.8433Z" fill="#ECA565"/>
<path d="M358.223 129.747C339.106 119.88 330.35 102.182 328.808 92.13C327.266 82.0783 333.186 65.2433 338.551 51.3067C338.551 51.3067 333.926 47.175 336.085 36.815C338.243 26.5167 343.731 19.3017 346.013 17.8833C348.356 16.465 351.255 16.465 351.81 21.5217C352.673 29.3533 356.928 37.6167 356.311 41.7483C356.311 41.7483 369.878 35.0883 383.568 41.7483C382.951 37.6167 387.206 29.2917 388.07 21.5217C388.625 16.465 391.523 16.4033 393.866 17.8833C396.21 19.3017 401.636 26.5167 403.795 36.815C405.953 47.1133 401.328 51.3067 401.328 51.3067C401.328 51.3067 414.525 78.995 410.763 92.8083C406.446 108.718 394.915 122.532 381.348 129.685C378.203 131.412 360.751 131.288 358.223 129.747Z" stroke="black" stroke-width="4.32659" stroke-miterlimit="10" stroke-linecap="round" stroke-linejoin="round"/>
<path d="M349.283 45.6332C350.578 39.2816 344.905 30.4632 344.905 30.4632C343.486 29.8466 342.561 31.6966 341.575 34.8416C340.711 37.4932 339.725 42.7349 343.425 47.7916C343.425 47.7916 344.781 47.1749 346.446 46.3732C347.988 45.6332 349.283 45.6332 349.283 45.6332Z" fill="#ECA565"/>
<path d="M390.598 45.6332C389.303 39.2816 394.977 30.4632 394.977 30.4632C396.395 29.8466 397.32 31.6966 398.307 34.8416C399.17 37.4932 400.157 42.7349 396.457 47.7916C396.457 47.7916 395.1 47.1749 393.435 46.3732C391.893 45.6332 390.598 45.6332 390.598 45.6332Z" fill="#ECA565"/>
<path d="M349.282 45.6332C350.577 39.2815 344.903 30.4632 344.903 30.4632" stroke="black" stroke-width="4.32659" stroke-miterlimit="10" stroke-linecap="round" stroke-linejoin="round"/>
<path d="M390.598 45.6332C389.303 39.2815 394.977 30.4632 394.977 30.4632" stroke="black" stroke-width="4.32659" stroke-miterlimit="10" stroke-linecap="round" stroke-linejoin="round"/>
<path d="M354.338 87.9367C356.791 87.9367 358.778 85.9213 358.778 83.4351C358.778 80.9489 356.791 78.9334 354.338 78.9334C351.886 78.9334 349.898 80.9489 349.898 83.4351C349.898 85.9213 351.886 87.9367 354.338 87.9367Z" fill="black"/>
<path d="M384.555 87.9984C387.007 87.9984 388.995 85.9829 388.995 83.4967C388.995 81.0105 387.007 78.9951 384.555 78.9951C382.103 78.9951 380.115 81.0105 380.115 83.4967C380.115 85.9829 382.103 87.9984 384.555 87.9984Z" fill="black"/>
<path d="M378.387 72.7051C377.894 71.1018 379.312 69.3135 381.779 68.2651C384.246 67.2168 387.082 67.5868 387.699 69.2518C388.316 70.8551 387.884 72.7051 384.431 74.1851C380.977 75.6651 378.757 74.0001 378.387 72.7051Z" fill="#ECA565"/>
<path d="M360.937 73.1366C361.43 71.5333 360.012 69.7449 357.545 68.6966C355.079 67.6483 352.242 68.0183 351.625 69.6833C351.009 71.3483 351.44 73.1366 354.894 74.6166C358.224 76.0966 360.505 74.4316 360.937 73.1366Z" fill="#ECA565"/>
<path d="M369.568 102.305C372.361 102.305 374.625 100.621 374.625 98.5435C374.625 96.466 372.361 94.7818 369.568 94.7818C366.776 94.7818 364.512 96.466 364.512 98.5435C364.512 100.621 366.776 102.305 369.568 102.305Z" fill="black"/>
<path d="M357.051 109.582C359.764 113.898 366.486 114.638 370.186 109.89C373.886 114.515 381.594 110.013 383.999 106.498" stroke="black" stroke-width="4.32659" stroke-miterlimit="10" stroke-linecap="round" stroke-linejoin="round"/>
<path d="M544.517 97.495C553.582 120.003 572.822 119.14 575.782 114.823C579.174 109.89 573.624 101.195 571.219 88.245C570.417 84.0517 571.404 76.1583 567.149 61.42C562.462 45.14 548.587 35.0267 541.125 37.8017C541.125 37.8017 536.809 40.5767 538.35 61.1733C539.892 81.77 544.517 97.495 544.517 97.495Z" fill="#FDD1A3" stroke="black" stroke-width="4.32659" stroke-miterlimit="10" stroke-linecap="round" stroke-linejoin="round"/>
<path d="M560.675 80.1049C561.353 87.5049 562.402 94.5349 564.313 99.6533C566.225 104.772 566.78 107.67 566.78 107.67C566.78 110.445 563.142 109.273 558.702 103.6C554.262 97.9266 551.548 88.3066 550.315 80.9066C549.082 73.5066 559.75 70.1149 560.675 80.1049Z" fill="#F6A575"/>
<path d="M550.314 80.9065C549.019 73.5682 559.749 70.1149 560.674 80.1049C561.353 87.5049 562.401 94.5349 564.313 99.6532C566.224 104.772 566.779 107.67 566.779 107.67" stroke="black" stroke-width="4.32659" stroke-miterlimit="10" stroke-linecap="round" stroke-linejoin="round"/>
<path d="M491.483 97.4949C482.418 120.003 463.178 119.14 460.218 114.823C456.826 109.89 462.376 101.195 464.781 88.2449C465.583 84.0516 464.596 73.4449 468.913 58.6449C473.599 42.3649 487.413 35.0266 494.936 37.8016C494.936 37.8016 499.253 40.5766 497.711 61.1732C496.169 81.7699 491.483 97.4949 491.483 97.4949Z" fill="#FDD1A3" stroke="black" stroke-width="4.32659" stroke-miterlimit="10" stroke-linecap="round" stroke-linejoin="round"/>
<path d="M475.326 80.1047C474.647 87.5047 473.599 94.5347 471.687 99.6531C469.776 104.771 469.221 107.67 469.221 107.67C469.221 110.445 472.859 109.273 477.299 103.6C481.739 97.9264 484.452 88.3064 485.686 80.9064C486.919 73.5064 476.251 70.1147 475.326 80.1047Z" fill="#F6A575"/>
<path d="M485.686 80.9066C486.981 73.5683 476.251 70.1149 475.326 80.1049C474.647 87.5049 473.599 94.5349 471.687 99.6533C469.776 104.772 469.221 107.67 469.221 107.67" stroke="black" stroke-width="4.32659" stroke-miterlimit="10" stroke-linecap="round" stroke-linejoin="round"/>
<path d="M558.824 71.7183C558.824 71.7183 557.591 30.7716 516.521 30.7716C476.684 30.7716 476.807 70.9783 476.807 70.9783C470.209 80.8449 463.672 113.713 516.952 113.713C570.232 113.713 564.867 84.6683 558.824 71.7183Z" fill="#FDD1A3"/>
<path d="M541.986 38.3566C536.066 34.2249 527.371 30.7716 516.518 30.7716C506.035 30.7716 498.881 34.1633 493.146 38.2333" stroke="black" stroke-width="4.32659" stroke-miterlimit="10" stroke-linecap="round" stroke-linejoin="round"/>
<path d="M480.074 55.6234C476.929 63.825 476.868 70.9167 476.868 70.9167C470.269 80.7834 463.733 113.652 517.013 113.652C570.293 113.652 564.866 84.6067 558.823 71.6567C558.823 71.6567 558.699 64.195 555.308 55.685" stroke="black" stroke-width="4.32659" stroke-miterlimit="10" stroke-linecap="round" stroke-linejoin="round"/>
<path d="M502.088 75.8499C504.608 75.8499 506.651 73.8069 506.651 71.2866C506.651 68.7663 504.608 66.7233 502.088 66.7233C499.567 66.7233 497.524 68.7663 497.524 71.2866C497.524 73.8069 499.567 75.8499 502.088 75.8499Z" fill="black"/>
<path d="M532.554 75.8499C535.074 75.8499 537.117 73.8069 537.117 71.2866C537.117 68.7663 535.074 66.7233 532.554 66.7233C530.033 66.7233 527.99 68.7663 527.99 71.2866C527.99 73.8069 530.033 75.8499 532.554 75.8499Z" fill="black"/>
<path d="M517.444 78.9948C519.249 78.9948 520.712 77.8628 520.712 76.4664C520.712 75.0701 519.249 73.9381 517.444 73.9381C515.639 73.9381 514.176 75.0701 514.176 76.4664C514.176 77.8628 515.639 78.9948 517.444 78.9948Z" fill="#DF6223"/>
<path d="M529.345 85.5934C526.077 87.7517 520.527 87.8134 517.629 84.0517C514.607 88.3684 509.797 87.9984 506.344 85.5934" stroke="black" stroke-width="4.32659" stroke-miterlimit="10" stroke-linecap="round" stroke-linejoin="round"/>
<path d="M517.753 96.5698C522.132 96.5698 522.748 91.0198 522.687 86.9498C520.775 86.6414 518.925 85.7781 517.63 84.1131C516.212 86.1481 514.423 87.0731 512.573 87.3198C512.573 91.0814 513.252 96.5698 517.753 96.5698Z" fill="#FD8053" stroke="black" stroke-width="4.32659" stroke-miterlimit="10" stroke-linecap="round" stroke-linejoin="round"/>
<path d="M666.307 27.9348C638.68 27.9348 617.343 47.1131 617.652 72.6431C617.898 98.2348 626.84 120.065 666.122 120.065C705.403 120.065 714.098 95.2131 713.358 72.2115C712.495 49.2098 694.673 27.9348 666.307 27.9348Z" fill="#FDF4D2"/>
<path d="M712.249 72.2114C711.509 50.9364 697.881 31.5114 673.091 28.8597C666.369 51.1831 663.717 88.9847 709.289 95.0281C711.879 88.0597 712.496 80.1664 712.249 72.2114Z" fill="#D58017"/>
<path d="M659.156 29.3532C635.291 31.1415 617.407 48.4699 617.592 72.6432C617.654 80.9682 618.517 88.6765 620.922 95.3365C665.014 93.7332 665.631 52.1699 659.156 29.3532Z" fill="#D58017"/>
<path d="M666.307 27.9348C638.68 27.9348 617.343 47.1131 617.652 72.6431C617.898 98.2348 626.84 120.065 666.122 120.065C705.403 120.065 714.098 95.2131 713.358 72.2115C712.495 49.2098 694.673 27.9348 666.307 27.9348Z" stroke="black" stroke-width="4.32659" stroke-miterlimit="10" stroke-linecap="round" stroke-linejoin="round"/>
<path d="M648.92 80.043C651.713 80.043 653.977 77.7791 653.977 74.9864C653.977 72.1936 651.713 69.9297 648.92 69.9297C646.127 69.9297 643.863 72.1936 643.863 74.9864C643.863 77.7791 646.127 80.043 648.92 80.043Z" fill="black"/>
<path d="M677.963 74.2464C680.183 72.8281 685.98 72.3347 687.213 72.5814" stroke="black" stroke-width="4.32659" stroke-miterlimit="10" stroke-linecap="round" stroke-linejoin="round"/>
<path d="M665.938 82.5098C668.152 82.5098 669.946 81.2674 669.946 79.7348C669.946 78.2023 668.152 76.9598 665.938 76.9598C663.724 76.9598 661.93 78.2023 661.93 79.7348C661.93 81.2674 663.724 82.5098 665.938 82.5098Z" fill="black"/>
<path d="M682.404 86.7031C680.862 90.6497 670.687 91.7597 666.74 88.1214C662.732 91.9447 653.359 90.5264 651.509 87.6897" stroke="black" stroke-width="4.32659" stroke-miterlimit="10" stroke-linecap="round" stroke-linejoin="round"/>
<path d="M666.618 88.4298C667.173 94.4731 670.811 100.948 677.41 98.4198C681.541 96.8165 681.788 91.8215 680.431 88.4915C676.485 90.4031 670.133 91.6365 666.618 88.4298Z" fill="#FB9D5C" stroke="black" stroke-width="4.32659" stroke-miterlimit="10" stroke-linecap="round" stroke-linejoin="round"/>
<path d="M673.955 91.2048L674.572 92.5615" stroke="black" stroke-width="4.32659" stroke-miterlimit="10" stroke-linecap="round" stroke-linejoin="round"/>
<path d="M637.51 37.4316C623.696 38.4183 610.87 52.1083 608.033 63.825C603.901 80.9066 608.218 92.2533 618.948 92.0683C631.713 91.76 633.995 75.48 633.748 71.965" fill="#D58017"/>
<path d="M637.51 37.4316C623.696 38.4183 610.87 52.1083 608.033 63.825C603.901 80.9066 608.218 92.2533 618.948 92.0683C631.713 91.76 633.995 75.48 633.748 71.965" stroke="black" stroke-width="4.32659" stroke-miterlimit="10" stroke-linecap="round" stroke-linejoin="round"/>
<path d="M694.058 37.2466C706.576 37.4316 720.019 51.8616 723.534 63.6399C728.591 80.4749 723.349 92.0682 712.619 91.8833C699.854 91.5749 697.573 75.2949 697.819 71.7799" fill="#D58017"/>
<path d="M694.058 37.2466C706.576 37.4316 720.019 51.8616 723.534 63.6399C728.591 80.4749 723.349 92.0682 712.619 91.8832C699.854 91.5749 697.573 75.2949 697.819 71.7799" stroke="black" stroke-width="4.32659" stroke-miterlimit="10" stroke-linecap="round" stroke-linejoin="round"/>
<path d="M868.574 91.3283C871.534 90.4033 873.446 84.6683 871.287 83.5583C869.129 82.5099 867.587 81.2766 865.799 76.0349C863.086 68.0183 857.536 62.5916 857.536 62.5916C857.536 62.5916 865.367 55.6233 859.756 51.1833C864.257 42.4266 860.742 30.3399 854.637 29.4766C844.092 28.0583 831.636 39.8983 831.636 39.8983C812.581 31.5733 797.102 39.8983 796.732 39.8983C796.732 39.8983 784.214 28.0583 773.731 29.4766C767.626 30.3399 764.172 42.4266 768.612 51.2449C761.336 55.4999 770.586 62.6533 770.586 62.6533C770.586 62.6533 765.159 67.2783 762.137 76.0966C760.349 81.3383 758.807 82.5099 756.649 83.6199C754.491 84.6683 756.402 90.4033 759.362 91.3899C757.204 94.2266 767.071 118.647 814.184 118.647C861.297 118.647 870.732 94.2266 868.574 91.3283Z" fill="white"/>
<path d="M868.574 91.3283C871.534 90.4033 873.446 84.6683 871.287 83.5583C869.129 82.5099 867.587 81.2766 865.799 76.0349C863.086 68.0183 857.536 62.5916 857.536 62.5916C857.536 62.5916 865.367 55.6233 859.756 51.1833C864.257 42.4266 860.742 30.3399 854.637 29.4766C844.092 28.0583 831.636 39.8983 831.636 39.8983C812.581 31.5733 797.102 39.8983 796.732 39.8983C796.732 39.8983 784.214 28.0583 773.731 29.4766C767.626 30.3399 764.172 42.4266 768.612 51.2449C761.336 55.4999 770.586 62.6533 770.586 62.6533C770.586 62.6533 765.159 67.2783 762.137 76.0966C760.349 81.3383 758.807 82.5099 756.649 83.6199C754.491 84.6683 756.402 90.4033 759.362 91.3899C757.204 94.2266 767.071 118.647 814.184 118.647C861.297 118.647 870.732 94.2266 868.574 91.3283Z" stroke="black" stroke-width="4.32659" stroke-miterlimit="10" stroke-linecap="round" stroke-linejoin="round"/>
<path d="M775.83 39.2817C778.667 36.7534 787.67 42.9201 789.643 46.2501C790.753 48.1001 780.887 56.2401 778.358 55.3767C775.83 54.5134 772.5 42.2417 775.83 39.2817Z" fill="#F9C0DA"/>
<path d="M775.829 39.2817C778.666 36.7534 787.669 42.9201 789.642 46.2501" stroke="black" stroke-width="4.32659" stroke-miterlimit="10" stroke-linecap="round" stroke-linejoin="round"/>
<path d="M852.419 38.9733C849.582 36.445 840.517 42.6117 838.544 45.88C837.434 47.73 847.3 55.87 849.829 55.0067C852.419 54.0817 855.687 41.9333 852.419 38.9733Z" fill="#F9C0DA"/>
<path d="M852.419 38.9733C849.582 36.445 840.517 42.6117 838.544 45.88" stroke="black" stroke-width="4.32659" stroke-miterlimit="10" stroke-linecap="round" stroke-linejoin="round"/>
<path d="M793.342 76.9599C793.342 76.9599 798.337 74.8015 803.393 75.0482" stroke="black" stroke-width="4.32659" stroke-miterlimit="10" stroke-linecap="round" stroke-linejoin="round"/>
<path d="M835.337 76.9599C835.337 76.9599 830.342 74.8015 825.285 75.0482" stroke="black" stroke-width="4.32659" stroke-miterlimit="10" stroke-linecap="round" stroke-linejoin="round"/>
<path d="M814.493 84.4215C816.401 84.4215 817.947 83.2343 817.947 81.7698C817.947 80.3054 816.401 79.1182 814.493 79.1182C812.586 79.1182 811.04 80.3054 811.04 81.7698C811.04 83.2343 812.586 84.4215 814.493 84.4215Z" fill="#DA636A"/>
<path d="M801.297 92.1916C805.244 94.9049 810.794 95.0283 814.185 90.1566C817.454 94.35 823.559 94.5966 827.197 92.1916" stroke="black" stroke-width="4.32659" stroke-miterlimit="10" stroke-linecap="round" stroke-linejoin="round"/>
<path d="M844.34 81.3383C844.34 81.3383 852.665 77.2683 859.88 78.2549" stroke="black" stroke-width="4.32659" stroke-miterlimit="10" stroke-linecap="round" stroke-linejoin="round"/>
<path d="M845.016 89.6015C844.831 89.6015 854.821 90.0948 859.755 92.3148" stroke="black" stroke-width="4.32659" stroke-miterlimit="10" stroke-linecap="round" stroke-linejoin="round"/>
<path d="M784.893 81.3383C784.893 81.3383 776.568 77.2683 769.353 78.2549" stroke="black" stroke-width="4.32659" stroke-miterlimit="10" stroke-linecap="round" stroke-linejoin="round"/>
<path d="M784.277 89.6015C784.462 89.6015 774.472 90.0948 769.539 92.3148" stroke="black" stroke-width="4.32659" stroke-miterlimit="10" stroke-linecap="round" stroke-linejoin="round"/>
<path d="M1015.65 61.6666C1018.36 54.7599 1010.96 44.3382 1002.76 45.3249C1000.54 34.6566 988.207 32.0049 982.719 35.2116C978.772 28.3049 967.117 26.7632 962.122 32.9299H961.752C956.819 26.7632 944.177 27.8732 940.169 34.7799C934.742 31.5732 923.334 34.6566 921.114 45.2632C913.036 44.3382 905.636 54.7599 908.349 61.6666C902.922 64.6266 903.416 75.0482 906.869 78.5016C904.896 85.6549 909.829 93.3632 917.044 93.6099H917.476C917.476 94.9666 917.661 96.3232 918.277 97.5566C916.797 106.005 924.567 113.343 931.721 112.788C933.694 118.955 953.551 120.497 962.061 117.783C970.386 120.25 991.229 118.585 993.264 112.418C997.704 113.898 1006.4 105.573 1005.6 97.5566C1006.15 96.3232 1006.4 94.9666 1006.4 93.6099H1007.02C1014.17 93.3632 1019.16 85.7166 1017.19 78.5016C1020.64 75.0482 1021.14 64.6266 1015.65 61.6666Z" fill="#CC884F"/>
<path d="M1007.02 93.6099C1014.17 93.3632 1019.16 85.7166 1017.19 78.5016C1020.64 75.0482 1021.14 64.6266 1015.71 61.6666C1018.42 54.7599 1011.02 44.3382 1002.82 45.3249C1000.6 34.6566 988.269 32.0049 982.781 35.2116C978.834 28.3049 967.179 26.7632 962.184 32.9299H961.814C956.881 26.7632 944.239 27.8732 940.231 34.7799C934.804 31.5732 923.396 34.6566 921.176 45.2632C913.036 44.3382 905.636 54.7599 908.349 61.6666C902.922 64.6266 903.416 75.0482 906.869 78.5016C904.896 85.6549 909.829 93.3632 917.044 93.6099" stroke="black" stroke-width="4.32659" stroke-miterlimit="10" stroke-linecap="round" stroke-linejoin="round"/>
<path d="M923.334 72.7665C920.929 75.7265 922.409 83.1882 922.409 83.1882C918.771 86.4565 916.057 92.9315 918.277 97.6182C916.797 106.067 924.567 113.405 931.721 112.85C933.694 119.017 953.551 120.558 962.061 117.845C970.386 120.312 991.229 118.647 993.264 112.48C997.704 113.96 1006.4 105.635 1005.6 97.6182C1008 92.6232 1004.67 85.5932 1000.66 82.5715C1000.66 82.5715 1001.77 76.3432 1000.29 73.0132" stroke="black" stroke-width="4.32659" stroke-miterlimit="10" stroke-linecap="round" stroke-linejoin="round"/>
<path d="M946.705 76.8367C949.089 76.8367 951.022 74.9041 951.022 72.52C951.022 70.136 949.089 68.2034 946.705 68.2034C944.321 68.2034 942.389 70.136 942.389 72.52C942.389 74.9041 944.321 76.8367 946.705 76.8367Z" fill="black"/>
<path d="M977.044 76.8367C979.428 76.8367 981.361 74.9041 981.361 72.52C981.361 70.136 979.428 68.2034 977.044 68.2034C974.66 68.2034 972.728 70.136 972.728 72.52C972.728 74.9041 974.66 76.8367 977.044 76.8367Z" fill="black"/>
<path d="M962.122 78.9332C964.03 78.9332 965.576 77.8288 965.576 76.4665C965.576 75.1042 964.03 73.9999 962.122 73.9999C960.215 73.9999 958.669 75.1042 958.669 76.4665C958.669 77.8288 960.215 78.9332 962.122 78.9332Z" fill="black"/>
<path d="M974.455 84.7916C971.803 88.06 964.958 87.875 962.121 84.7916C962.121 84.7916 955.276 91.02 949.356 84.7916" stroke="black" stroke-width="4.32659" stroke-miterlimit="10" stroke-linecap="round" stroke-linejoin="round"/>
<path d="M962.059 84.7916C962.059 84.7916 958.914 87.6283 955.029 87.5666C955.276 91.8833 956.448 100.27 962.306 100.27C968.103 100.27 969.274 91.6366 969.459 87.135C966.746 87.3816 963.724 86.58 962.059 84.7916Z" fill="#FD8053" stroke="black" stroke-width="4.32659" stroke-miterlimit="10" stroke-linecap="round" stroke-linejoin="round"/>
<path d="M1156.62 72.7665C1165.69 65.4899 1173.09 34.4715 1166.55 30.0932C1156.13 23.0015 1134.92 37.6165 1129.61 40.6999C1109.08 29.7849 1090.33 40.6999 1090.33 40.6999C1085.03 37.6165 1063.81 23.0015 1053.39 30.0932C1046.92 34.5332 1054.26 65.4899 1063.32 72.7665C1062.83 90.9582 1071.77 119.88 1109.82 119.88C1147.87 119.88 1155.64 92.3149 1156.62 72.7665Z" fill="#896D5C"/>
<path d="M1152.55 93.3016C1148.48 96.8166 1142.44 100.27 1134.73 99.7766C1123.45 99.0366 1118.45 91.6983 1116.42 86.6416C1115.61 84.6066 1115.06 74.4933 1110.43 74.4933C1105.81 74.4933 1104.95 84.6066 1104.14 86.6416C1102.11 91.6983 1097.11 99.0983 1085.83 99.7766C1077.13 100.332 1070.54 95.8299 1066.53 91.8833C1072.08 106.683 1085.46 119.88 1109.94 119.88C1133.99 119.88 1146.69 107.855 1152.55 93.3016Z" fill="#E5C59B"/>
<path d="M1156.62 72.7665C1165.69 65.4899 1173.09 34.4715 1166.55 30.0932C1156.13 23.0015 1134.92 37.6165 1129.61 40.6999C1109.08 29.7849 1090.33 40.6999 1090.33 40.6999C1085.03 37.6165 1063.81 23.0015 1053.39 30.0932C1046.92 34.5332 1054.26 65.4899 1063.32 72.7665C1062.83 90.9582 1071.77 119.88 1109.82 119.88C1147.87 119.88 1155.64 92.3149 1156.62 72.7665Z" stroke="black" stroke-width="4.32659" stroke-miterlimit="10" stroke-linecap="round" stroke-linejoin="round"/>
<path d="M1093.79 88.4914C1097.16 88.4914 1099.89 85.7581 1099.89 82.3864C1099.89 79.0147 1097.16 76.2814 1093.79 76.2814C1090.41 76.2814 1087.68 79.0147 1087.68 82.3864C1087.68 85.7581 1090.41 88.4914 1093.79 88.4914Z" fill="#937766"/>
<path d="M1127.39 88.4914C1130.76 88.4914 1133.5 85.7581 1133.5 82.3864C1133.5 79.0147 1130.76 76.2814 1127.39 76.2814C1124.02 76.2814 1121.29 79.0147 1121.29 82.3864C1121.29 85.7581 1124.02 88.4914 1127.39 88.4914Z" fill="#937766"/>
<path d="M1079.73 45.2633C1081.27 47.915 1076.77 49.5183 1071.59 55.685C1067.7 60.31 1069.12 61.235 1067.21 61.1116C1063.45 60.8033 1060.3 48.7166 1059.62 42.4883C1058.45 32.1283 1078.25 42.6116 1079.73 45.2633Z" fill="#E5C59B"/>
<path d="M1063.51 38.2949C1072.33 39.8983 1079.11 45.1399 1079.23 45.2633" stroke="black" stroke-width="4.32659" stroke-miterlimit="10" stroke-linecap="round" stroke-linejoin="round"/>
<path d="M1139.91 45.2633C1138.37 47.915 1142.87 49.5183 1148.05 55.685C1151.93 60.31 1150.52 61.235 1152.43 61.1116C1156.19 60.8033 1159.33 48.7166 1160.01 42.4883C1161.18 32.1283 1141.39 42.6116 1139.91 45.2633Z" fill="#E5C59B"/>
<path d="M1156.13 38.2949C1147.31 39.8983 1140.53 45.1399 1140.4 45.2633" stroke="black" stroke-width="4.32659" stroke-miterlimit="10" stroke-linecap="round" stroke-linejoin="round"/>
<path d="M1093.78 87.0115C1096.34 87.0115 1098.41 84.9408 1098.41 82.3865C1098.41 79.8322 1096.34 77.7615 1093.78 77.7615C1091.23 77.7615 1089.16 79.8322 1089.16 82.3865C1089.16 84.9408 1091.23 87.0115 1093.78 87.0115Z" fill="black"/>
<path d="M1127.45 87.0115C1130.01 87.0115 1132.08 84.9408 1132.08 82.3865C1132.08 79.8322 1130.01 77.7615 1127.45 77.7615C1124.9 77.7615 1122.83 79.8322 1122.83 82.3865C1122.83 84.9408 1124.9 87.0115 1127.45 87.0115Z" fill="black"/>
<path d="M1098.72 70.8547C1098.53 72.7047 1096.56 73.198 1093.97 73.1363C1091.38 73.0747 1089.35 72.273 1089.28 70.3613C1089.22 68.388 1091.07 67.278 1094.09 67.3397C1097.12 67.4013 1098.9 68.8197 1098.72 70.8547Z" fill="#E5C59B"/>
<path d="M1122.27 70.9782C1122.46 72.8282 1124.49 73.2599 1127.08 73.1366C1129.67 73.0132 1131.71 72.1499 1131.71 70.2382C1131.71 68.2649 1129.8 67.2166 1126.78 67.3399C1123.75 67.5249 1122.03 68.9432 1122.27 70.9782Z" fill="#E5C59B"/>
<path d="M1110.62 91.8215C1112.8 91.8215 1114.57 90.4687 1114.57 88.7999C1114.57 87.131 1112.8 85.7782 1110.62 85.7782C1108.44 85.7782 1106.68 87.131 1106.68 88.7999C1106.68 90.4687 1108.44 91.8215 1110.62 91.8215Z" fill="black"/>
<path d="M1101.25 98.1733C1103.34 101.442 1109.02 100.763 1110.8 98.1733C1112.78 101.133 1118.76 101.072 1120.61 97.865" stroke="black" stroke-width="4.32659" stroke-miterlimit="10" stroke-linecap="round" stroke-linejoin="round"/>
<path d="M1306.53 76.0349C1306.53 76.0349 1322.38 29.5999 1308.88 22.8782C1303.2 20.0415 1289.33 27.9349 1275.45 41.2549C1254.3 35.3349 1240.49 41.2549 1240.49 41.2549C1226.68 27.9349 1212.74 20.0415 1207.07 22.8782C1193.56 29.5999 1209.41 76.0349 1209.41 76.0349C1204.6 82.2015 1201.15 95.0282 1205.15 105.203C1209.41 115.81 1222.54 125.368 1256.15 125.738C1294.82 126.17 1307.71 114.947 1310.67 102.552C1312.89 93.3632 1310.79 82.2015 1306.53 76.0349Z" fill="#EBAB32"/>
<path d="M1286.25 78.6866C1278.6 83.3733 1275.08 85.7783 1268.24 83.9283C1261.64 82.1399 1261.64 75.7266 1261.52 72.7666C1261.39 69.93 1261.33 65.0583 1257.82 65.0583C1254.3 65.0583 1254.12 72.7666 1254.12 72.7666C1253.87 75.7266 1253.99 82.0783 1247.4 83.9283C1240.55 85.7783 1237.04 83.3733 1229.39 78.6866C1223.04 74.74 1214.65 73.9383 1208.92 76.7133C1204.35 83.1266 1201.33 95.3983 1205.22 105.142C1209.47 115.748 1222.61 125.307 1256.21 125.677C1294.88 126.108 1307.77 114.885 1310.73 102.49C1312.82 93.795 1310.97 83.25 1307.09 76.8983C1301.35 73.9383 1292.78 74.6783 1286.25 78.6866Z" fill="white"/>
<path d="M1285.88 47.4833C1286.12 46.8049 1289.45 39.8366 1292.29 40.4533C1293.83 40.7616 1294.08 41.9949 1294.08 41.9949C1294.08 41.9949 1300.18 33.6699 1303.76 35.1499C1306.97 36.4449 1304.07 56.8566 1301.35 61.3583C1301.29 61.4199 1296.11 52.1083 1285.88 47.4833Z" fill="white"/>
<path d="M1285.88 47.4833C1286.12 46.8049 1289.45 39.8366 1292.29 40.4533C1293.83 40.7616 1294.08 41.9949 1294.08 41.9949C1294.08 41.9949 1300.18 33.6699 1303.76 35.1499" stroke="black" stroke-width="4.32659" stroke-miterlimit="10" stroke-linecap="round" stroke-linejoin="round"/>
<path d="M1230.44 47.4833C1230.25 46.8666 1226.86 39.8366 1224.09 40.4533C1222.55 40.7616 1222.3 41.9949 1222.3 41.9949C1222.3 41.9949 1216.19 33.6699 1212.62 35.1499C1209.41 36.5066 1212.31 56.8566 1215.02 61.4199C1215.02 61.4199 1220.2 52.1083 1230.44 47.4833Z" fill="white"/>
<path d="M1230.44 47.4833C1230.25 46.8666 1226.86 39.8366 1224.08 40.4533C1222.54 40.7616 1222.3 41.9949 1222.3 41.9949C1222.3 41.9949 1216.19 33.6699 1212.61 35.1499" stroke="black" stroke-width="4.32659" stroke-miterlimit="10" stroke-linecap="round" stroke-linejoin="round"/>
<path d="M1240.92 81.6465C1243.47 81.6465 1245.54 79.5758 1245.54 77.0215C1245.54 74.4672 1243.47 72.3965 1240.92 72.3965C1238.37 72.3965 1236.29 74.4672 1236.29 77.0215C1236.29 79.5758 1238.37 81.6465 1240.92 81.6465Z" fill="black"/>
<path d="M1272.8 81.6465C1275.36 81.6465 1277.43 79.5758 1277.43 77.0215C1277.43 74.4672 1275.36 72.3965 1272.8 72.3965C1270.25 72.3965 1268.18 74.4672 1268.18 77.0215C1268.18 79.5758 1270.25 81.6465 1272.8 81.6465Z" fill="black"/>
<path d="M1257.14 86.8267C1259.45 86.8267 1261.33 85.4738 1261.33 83.805C1261.33 82.1362 1259.45 80.7833 1257.14 80.7833C1254.82 80.7833 1252.95 82.1362 1252.95 83.805C1252.95 85.4738 1254.82 86.8267 1257.14 86.8267Z" fill="black"/>
<path d="M1271.26 91.6982C1268.55 94.8432 1260.28 94.6582 1257.38 91.6982C1257.38 91.6982 1248.69 97.7415 1242.58 91.6982" stroke="black" stroke-width="4.32659" stroke-miterlimit="10" stroke-linecap="round" stroke-linejoin="round"/>
<path d="M1257.38 91.6982C1257.38 91.6982 1254.12 93.9799 1250.17 94.3499C1250.17 94.3499 1250.17 94.3499 1250.17 94.4115C1250.42 98.6049 1251.59 106.745 1257.63 106.745C1263.55 106.745 1264.78 98.4199 1265.03 94.0415C1262.07 94.0415 1258.93 93.3015 1257.38 91.6982Z" fill="#FD815D" stroke="black" stroke-width="4.32659" stroke-miterlimit="10" stroke-linecap="round" stroke-linejoin="round"/>
<path d="M1240.49 41.2548L1237.35 42.5498" stroke="black" stroke-width="4.32659" stroke-miterlimit="10" stroke-linecap="round" stroke-linejoin="round"/>
<path d="M1275.39 41.2548L1278.54 42.5498" stroke="black" stroke-width="4.32659" stroke-miterlimit="10" stroke-linecap="round" stroke-linejoin="round"/>
<path d="M1306.53 76.035C1306.53 76.035 1322.38 29.6 1308.88 22.8783C1303.2 20.0416 1289.33 27.935 1275.45 41.255C1254.3 35.335 1240.49 41.255 1240.49 41.255C1226.67 27.935 1212.74 20.0416 1207.06 22.8783C1193.56 29.6 1209.41 76.035 1209.41 76.035C1204.6 82.2016 1201.14 95.0283 1205.15 105.203C1209.41 115.81 1222.54 125.368 1256.15 125.738C1294.82 126.17 1307.7 114.947 1310.66 102.552C1312.88 93.3633 1310.79 82.2016 1306.53 76.035Z" stroke="black" stroke-width="4.32659" stroke-miterlimit="10" stroke-linecap="round" stroke-linejoin="round"/>
<path d="M1454.84 80.2283C1456.07 69.93 1452.25 60.495 1447.5 53.7116C1453.85 48.7166 1455.89 36.63 1448.37 32.1283C1440.47 27.38 1430.73 32.2516 1427.71 37.925C1405.2 27.38 1383.12 37.4933 1383.12 37.4933C1380.04 31.82 1371.78 26.9483 1363.51 32.1283C1356.05 36.815 1358.02 48.7166 1364.38 53.7116C1364.38 53.7116 1356.24 67.2166 1357.41 80.2283C1344.83 105.388 1374.61 118.092 1406.19 118.092C1441.58 118.092 1465.88 107.423 1454.84 80.2283Z" fill="#F0B867"/>
<path d="M1441.03 78.6868C1429.68 75.3568 1421.91 84.0518 1407.79 84.0518C1393.67 84.0518 1390.83 77.0835 1376.65 79.3652C1359.88 82.0785 1357.96 94.0418 1358.83 102.983C1367.15 113.035 1386.33 118.092 1406.25 118.092C1429.81 118.092 1448.37 113.343 1454.97 102.182C1455.64 94.0418 1454.41 82.6335 1441.03 78.6868Z" fill="white"/>
<path d="M1411.43 34.4716C1407.6 34.1633 1404.03 34.1633 1400.76 34.4099C1400.7 39.7749 1401.13 50.4433 1405.94 50.4433C1410.13 50.4433 1411.18 40.8233 1411.43 34.4716Z" fill="#D5833F"/>
<path d="M1394.78 48.4698C1397.43 48.1615 1396.44 40.5765 1395.33 35.0265C1392.31 35.3965 1389.6 35.9515 1387.32 36.5682C1388.3 40.5765 1390.95 48.9015 1394.78 48.4698Z" fill="#D5833F"/>
<path d="M1416.73 48.4698C1420.55 48.9015 1423.14 40.7615 1424.19 36.6915C1421.42 35.9515 1418.77 35.4582 1416.11 35.0265C1415.07 40.5765 1414.08 48.0998 1416.73 48.4698Z" fill="#D5833F"/>
<path d="M1454.84 80.2283C1456.07 69.93 1452.25 60.495 1447.5 53.7116C1453.85 48.7166 1455.89 36.63 1448.37 32.1283C1440.47 27.38 1430.73 32.2516 1427.71 37.925C1405.2 27.38 1383.12 37.4933 1383.12 37.4933C1380.04 31.82 1371.78 26.9483 1363.51 32.1283C1356.05 36.815 1358.02 48.7166 1364.38 53.7116C1364.38 53.7116 1356.24 67.2166 1357.41 80.2283C1344.83 105.388 1374.61 118.092 1406.19 118.092C1441.58 118.092 1465.88 107.423 1454.84 80.2283Z" stroke="black" stroke-width="4.32659" stroke-miterlimit="10" stroke-linecap="round" stroke-linejoin="round"/>
<path d="M1367.46 38.8501C1369.37 36.1985 1373.63 38.8501 1375.11 41.8101L1369.8 46.8051C1369.8 46.8051 1364.38 43.0435 1367.46 38.8501Z" fill="#FACBCC"/>
<path d="M1444.42 39.0349C1442.51 36.3832 1438.25 39.0349 1436.77 41.9949L1442.08 46.9899C1442.01 47.0516 1447.44 43.2899 1444.42 39.0349Z" fill="#FACBCC"/>
<path d="M1367.46 38.8501C1369.37 36.1985 1373.62 38.8501 1375.1 41.8101" stroke="black" stroke-width="4.32659" stroke-miterlimit="10" stroke-linecap="round" stroke-linejoin="round"/>
<path d="M1444.42 39.0349C1442.51 36.3832 1438.25 39.0349 1436.77 41.9949" stroke="black" stroke-width="4.32659" stroke-miterlimit="10" stroke-linecap="round" stroke-linejoin="round"/>
<path d="M1392.06 77.8235C1394.52 77.8235 1396.5 75.8357 1396.5 73.3835C1396.5 70.9314 1394.52 68.9435 1392.06 68.9435C1389.61 68.9435 1387.62 70.9314 1387.62 73.3835C1387.62 75.8357 1389.61 77.8235 1392.06 77.8235Z" fill="black"/>
<path d="M1422.59 77.8235C1425.04 77.8235 1427.03 75.8357 1427.03 73.3835C1427.03 70.9314 1425.04 68.9435 1422.59 68.9435C1420.14 68.9435 1418.15 70.9314 1418.15 73.3835C1418.15 75.8357 1420.14 77.8235 1422.59 77.8235Z" fill="black"/>
<path d="M1407.23 81.2768C1408.9 81.2768 1410.25 80.1448 1410.25 78.7484C1410.25 77.3521 1408.9 76.2201 1407.23 76.2201C1405.56 76.2201 1404.21 77.3521 1404.21 78.7484C1404.21 80.1448 1405.56 81.2768 1407.23 81.2768Z" fill="black"/>
<path d="M1397.18 87.6283C1399.71 91.0817 1406 90.7117 1407.54 87.505C1409.76 91.5133 1415.81 90.2183 1417.47 87.505" stroke="black" stroke-width="4.32659" stroke-miterlimit="10" stroke-linecap="round" stroke-linejoin="round"/>
<path d="M1552.09 123.333C1504.24 123.333 1499.43 100.825 1502.02 89.0466C1500.97 89.6016 1497.7 78.81 1506.46 69.375C1503.68 66.23 1500.78 58.09 1501.71 54.4516C1499.73 52.2933 1499.55 44.3383 1501.21 39.1583C1499.92 26.1466 1506.7 23.9883 1512.38 24.79C1518.05 25.6533 1532.05 33.115 1534.14 37.185C1535.25 32.4366 1545.55 29.6 1553.51 36.1366H1554.37C1562.39 29.6 1572.69 32.4366 1573.73 37.185C1575.83 33.115 1589.83 25.5916 1595.5 24.79C1601.18 23.9266 1607.96 26.1466 1606.66 39.1583C1608.33 44.3383 1608.21 52.355 1606.17 54.5133C1607.1 58.1516 1604.2 66.2917 1601.42 69.4366C1610.18 78.8717 1606.91 89.6633 1605.86 89.1083C1608.51 100.887 1603.64 123.395 1555.79 123.395H1552.09V123.333Z" fill="#7D7D7D"/>
<path d="M1578.91 106.807C1578.6 98.0499 1575.89 91.3899 1566.76 84.9766C1557.64 78.5633 1558.56 75.7883 1558.56 71.7183C1558.56 68.4499 1558.56 43.4749 1558.56 33.7316C1557.14 34.3483 1555.73 35.0883 1554.43 36.1983H1553.57C1552.09 35.0266 1550.55 34.2249 1549 33.6083C1549 43.2283 1549 68.4499 1549 71.7799C1549 75.8499 1549.93 78.6249 1540.8 85.0383C1531.68 91.4516 1528.96 98.1116 1528.65 106.868C1528.47 111.493 1530.57 118.215 1536.73 122.47C1541.3 123.087 1546.35 123.395 1552.09 123.395H1555.91C1561.28 123.395 1566.09 123.087 1570.4 122.532C1577.74 118.277 1579.1 111.37 1578.91 106.807Z" fill="white"/>
<path d="M1552.09 123.333C1504.24 123.333 1499.43 100.825 1502.02 89.0466C1500.97 89.6016 1497.7 78.81 1506.46 69.375C1503.68 66.23 1500.78 58.09 1501.71 54.4516C1499.73 52.2933 1499.55 44.3383 1501.21 39.1583C1499.92 26.1466 1506.7 23.9883 1512.38 24.79C1518.05 25.6533 1532.05 33.115 1534.14 37.185C1535.25 32.4366 1545.55 29.6 1553.51 36.1366H1554.37C1562.39 29.6 1572.69 32.4366 1573.73 37.185C1575.83 33.115 1589.83 25.5916 1595.5 24.79C1601.18 23.9266 1607.96 26.1466 1606.66 39.1583C1608.33 44.3383 1608.21 52.355 1606.17 54.5133C1607.1 58.1516 1604.2 66.2917 1601.42 69.4367C1610.18 78.8717 1606.91 89.6633 1605.86 89.1083C1608.51 100.887 1603.64 123.395 1555.79 123.395H1552.09V123.333Z" stroke="black" stroke-width="4.32659" stroke-miterlimit="10" stroke-linecap="round" stroke-linejoin="round"/>
<path d="M1583.29 40.8232C1583.29 40.8232 1591.8 33.2999 1597.29 33.4849" stroke="black" stroke-width="4.32659" stroke-miterlimit="10" stroke-linecap="round" stroke-linejoin="round"/>
<path d="M1582.61 41.995C1582.74 41.625 1587.11 36.8766 1589.83 36.63C1590.81 34.6566 1595.07 32.56 1597.84 33.485C1600.13 35.6433 1600.43 50.69 1595.44 57.9666C1593.1 53.65 1588.96 47.36 1582.61 41.995Z" fill="#454545"/>
<path d="M1583.29 40.8232C1583.29 40.8232 1591.8 33.2999 1597.29 33.4849" stroke="black" stroke-width="4.32659" stroke-miterlimit="10" stroke-linecap="round" stroke-linejoin="round"/>
<path d="M1526.44 41.995C1526.25 41.625 1521.93 36.8766 1519.22 36.63C1518.23 34.6566 1513.98 32.56 1511.2 33.485C1508.92 35.705 1508.61 50.69 1513.61 57.9666C1516.01 53.65 1520.08 47.36 1526.44 41.995Z" fill="#454545"/>
<path d="M1525.82 40.8232C1525.82 40.8232 1517.31 33.2999 1511.82 33.4849" stroke="black" stroke-width="4.32659" stroke-miterlimit="10" stroke-linecap="round" stroke-linejoin="round"/>
<path d="M1536.55 80.6598C1539.41 80.6598 1541.73 78.3683 1541.73 75.5415C1541.73 72.7147 1539.41 70.4232 1536.55 70.4232C1533.69 70.4232 1531.37 72.7147 1531.37 75.5415C1531.37 78.3683 1533.69 80.6598 1536.55 80.6598Z" fill="black"/>
<path d="M1571.57 80.9065C1574.43 80.9065 1576.75 78.615 1576.75 75.7882C1576.75 72.9614 1574.43 70.6699 1571.57 70.6699C1568.71 70.6699 1566.39 72.9614 1566.39 75.7882C1566.39 78.615 1568.71 80.9065 1571.57 80.9065Z" fill="black"/>
<path d="M1553.88 85.2849C1556.23 85.2849 1558.13 83.794 1558.13 81.9549C1558.13 80.1158 1556.23 78.6249 1553.88 78.6249C1551.53 78.6249 1549.62 80.1158 1549.62 81.9549C1549.62 83.794 1551.53 85.2849 1553.88 85.2849Z" fill="black"/>
<path d="M1539.01 93.1783C1541.79 96.385 1549.25 98.05 1554 92.9316C1556.77 97.6183 1566.09 97.4333 1569.54 93.055" stroke="black" stroke-width="4.32659" stroke-miterlimit="10" stroke-linecap="round" stroke-linejoin="round"/>
<path d="M1702.49 29.5384C1702.49 29.5384 1715.44 23.3717 1716.25 30.6484C1733.7 32.56 1742.76 42.1184 1747.45 46.4967C1752.14 50.875 1761.69 70.7934 1761.39 79.9817C1761.08 89.2317 1758.49 87.2584 1757.32 84.4834C1756.51 101.627 1750.04 104.71 1743.87 99.2217C1741.47 110.692 1726.48 120.928 1702.93 120.928H1701.01C1677.46 120.928 1662.53 110.753 1660.07 99.2217C1653.9 104.71 1647.43 101.627 1646.62 84.4834C1645.51 87.2584 1642.92 89.17 1642.55 79.9817C1642.18 70.7934 1651.8 50.875 1656.49 46.4967C1661.18 42.1184 1670.24 32.6217 1687.69 30.6484C1688.5 23.3717 1701.45 29.5384 1701.45 29.5384H1702.49Z" fill="#FFE89C" stroke="black" stroke-width="4.01755" stroke-miterlimit="10" stroke-linecap="round" stroke-linejoin="round"/>
<path d="M1660.19 98.605C1660.19 98.605 1666.6 89.1083 1667.1 81.1533C1667.59 73.1983 1668.64 69.745 1669.32 69.56" stroke="black" stroke-width="4.01755" stroke-miterlimit="10" stroke-linecap="round" stroke-linejoin="round"/>
<path d="M1743.01 98.605C1743.01 98.605 1736.6 89.1083 1736.1 81.1533C1735.61 73.1983 1734.56 69.745 1733.88 69.56" stroke="black" stroke-width="4.01755" stroke-miterlimit="10" stroke-linecap="round" stroke-linejoin="round"/>
<path d="M1680.66 75.9733C1680.66 75.9733 1685.66 73.0749 1689.36 73.7533" stroke="black" stroke-width="4.01755" stroke-miterlimit="10" stroke-linecap="round" stroke-linejoin="round"/>
<path d="M1722.47 75.9733C1722.47 75.9733 1717.48 73.0749 1713.78 73.7533" stroke="black" stroke-width="4.01755" stroke-miterlimit="10" stroke-linecap="round" stroke-linejoin="round"/>
<path d="M1689.05 90.7733C1691.82 93.7333 1699.35 93.5483 1702.18 89.9716C1704.34 93.3016 1711.13 93.8566 1715.32 90.5883" stroke="black" stroke-width="4.01755" stroke-miterlimit="10" stroke-linecap="round" stroke-linejoin="round"/>
<path d="M1701.75 83.99C1704.51 83.99 1706.75 82.5268 1706.75 80.7217C1706.75 78.9167 1704.51 77.4534 1701.75 77.4534C1698.99 77.4534 1696.76 78.9167 1696.76 80.7217C1696.76 82.5268 1698.99 83.99 1701.75 83.99Z" fill="black"/>
<path d="M1896.8 63.3933C1896.8 63.3933 1907.22 28.7367 1894.09 23.9883C1882.74 19.8567 1865.66 37.925 1861.96 42.6117C1850.06 39.22 1838.28 42.6117 1838.28 42.6117C1834.58 37.925 1817.56 19.8567 1806.15 23.9883C1793.02 28.7367 1803.44 63.3933 1803.44 63.3933C1789.13 92.8083 1798.69 123.888 1847.84 124.628C1895.45 125.245 1910.62 100.948 1896.8 63.3933Z" fill="#CC884F"/>
<path d="M1852.65 57.1651C1852.71 53.4034 1852.83 44.7701 1852.83 39.2817C1850.37 39.1584 1848.02 39.2817 1845.99 39.4051C1846.05 44.8934 1846.23 53.9584 1846.48 57.2884C1846.91 62.1601 1852.52 62.8384 1852.65 57.1651Z" fill="#6A3C21"/>
<path d="M1838.34 53.7734C1838.53 58.645 1842.97 59.015 1842.78 53.4034C1842.66 50.5667 1842.41 44.8934 1842.23 39.8984C1839.88 40.2684 1838.22 40.6384 1837.54 40.8234C1837.85 45.7567 1838.28 51.245 1838.34 53.7734Z" fill="#6A3C21"/>
<path d="M1861.16 53.7733C1861.22 51.245 1861.65 45.5717 1862.02 40.5767C1860.42 40.2067 1858.88 39.8983 1857.34 39.6517C1857.09 44.6467 1856.84 50.4433 1856.72 53.3417C1856.54 59.015 1860.98 58.645 1861.16 53.7733Z" fill="#6A3C21"/>
<path d="M1812.81 73.1985C1817.68 74.3085 1818.3 71.3485 1815.34 69.7452C1812.32 68.1418 1806.95 66.8468 1804.12 66.2302C1803.25 68.1418 1802.51 70.0535 1801.9 71.9652C1805.66 72.1502 1810.16 72.5818 1812.81 73.1985Z" fill="#6A3C21"/>
<path d="M1810.16 79.3033C1810.65 78.3783 1810.16 77.4533 1807.51 76.6516C1805.91 76.1583 1802.95 75.8499 1800.79 75.6033C1800.29 77.3299 1799.92 79.0566 1799.62 80.7216C1801.59 80.6599 1803.56 80.5983 1804.67 80.6599C1807.32 80.8449 1809.67 80.2283 1810.16 79.3033Z" fill="#6A3C21"/>
<path d="M1896.06 66.3532C1893.1 67.0315 1888.17 68.2649 1885.4 69.7449C1882.44 71.2865 1883.05 74.3082 1887.92 73.1982C1890.39 72.6432 1894.28 72.2732 1897.85 72.0265C1897.3 70.1765 1896.74 68.2649 1896.06 66.3532Z" fill="#6A3C21"/>
<path d="M1898.72 75.7266C1896.74 75.9116 1894.52 76.22 1893.23 76.6516C1890.58 77.4533 1890.08 78.3783 1890.58 79.3033C1891.07 80.2283 1893.41 80.845 1896.06 80.7216C1896.93 80.66 1898.22 80.66 1899.7 80.7216C1899.39 79.0566 1899.09 77.3916 1898.72 75.7266Z" fill="#6A3C21"/>
<path d="M1850.06 115.07C1830.45 115.07 1824.84 106.93 1826.63 96.9399C1828.54 86.4566 1840.87 83.7433 1848.15 88.0599L1851.23 89.1083L1854.01 88.0599C1861.28 83.7433 1873.62 86.4566 1875.53 96.9399C1877.32 106.992 1871.71 115.07 1852.1 115.07H1850.06Z" fill="#FDF2CC"/>
<path d="M1826.81 47.2983C1823.42 39.22 1814.97 31.9433 1810.59 32.93C1806.89 33.7933 1809.05 54.39 1810.47 57.1033C1811.89 59.8166 1815.84 56.7333 1819.1 54.02C1822.37 51.3066 1824.78 49.765 1826.81 47.2983Z" fill="#FDF2CC"/>
<path d="M1826.81 47.2983C1823.42 39.22 1814.97 31.9433 1810.59 32.93" stroke="black" stroke-width="4.32659" stroke-miterlimit="10" stroke-linecap="round" stroke-linejoin="round"/>
<path d="M1873.49 47.2983C1876.82 39.22 1885.33 31.9433 1889.71 32.93C1893.41 33.7933 1891.25 54.39 1889.83 57.1033C1888.42 59.8166 1884.41 56.6716 1881.14 53.9583C1877.87 51.245 1875.47 49.765 1873.49 47.2983Z" fill="#FDF2CC"/>
<path d="M1873.49 47.2983C1876.82 39.22 1885.33 31.9433 1889.71 32.93" stroke="black" stroke-width="4.32659" stroke-miterlimit="10" stroke-linecap="round" stroke-linejoin="round"/>
<path d="M1906.97 84.1751C1906.97 84.1751 1892.6 84.0517 1885.76 87.6901" stroke="black" stroke-width="4.32659" stroke-miterlimit="10" stroke-linecap="round" stroke-linejoin="round"/>
<path d="M1906.48 99.715C1906.48 99.715 1900.75 96.5084 1885.7 96.5084" stroke="black" stroke-width="4.32659" stroke-miterlimit="10" stroke-linecap="round" stroke-linejoin="round"/>
<path d="M1793.02 84.1751C1793.02 84.1751 1807.39 84.0517 1814.23 87.6901" stroke="black" stroke-width="4.32659" stroke-miterlimit="10" stroke-linecap="round" stroke-linejoin="round"/>
<path d="M1793.51 99.715C1793.51 99.715 1799.25 96.5084 1814.29 96.5084" stroke="black" stroke-width="4.32659" stroke-miterlimit="10" stroke-linecap="round" stroke-linejoin="round"/>
<path d="M1834.4 84.9766C1837.05 84.9766 1839.21 82.8231 1839.21 80.1666C1839.21 77.5101 1837.05 75.3566 1834.4 75.3566C1831.74 75.3566 1829.59 77.5101 1829.59 80.1666C1829.59 82.8231 1831.74 84.9766 1834.4 84.9766Z" fill="black"/>
<path d="M1867.57 84.7918C1870.23 84.7918 1872.38 82.6383 1872.38 79.9818C1872.38 77.3253 1870.23 75.1718 1867.57 75.1718C1864.92 75.1718 1862.76 77.3253 1862.76 79.9818C1862.76 82.6383 1864.92 84.7918 1867.57 84.7918Z" fill="black"/>
<path d="M1851.05 90.0949C1853.23 90.0949 1854.99 88.7696 1854.99 87.1349C1854.99 85.5001 1853.23 84.1749 1851.05 84.1749C1848.87 84.1749 1847.1 85.5001 1847.1 87.1349C1847.1 88.7696 1848.87 90.0949 1851.05 90.0949Z" fill="#AD3319"/>
<path d="M1864.12 95.09C1860.3 98.3583 1853.39 97.9267 1850.8 93.61C1847.35 99.16 1840.07 97.4333 1837.91 94.9666" stroke="black" stroke-width="4.32659" stroke-miterlimit="10" stroke-linecap="round" stroke-linejoin="round"/>
<path d="M1850.98 110.507C1856.04 110.507 1857.33 102.798 1857.7 97.2483C1854.93 97.1867 1852.22 95.9533 1850.8 93.61C1849.19 96.2 1846.73 97.1867 1844.38 97.2483C1844.57 102.182 1845.62 110.507 1850.98 110.507Z" fill="#FD8053" stroke="black" stroke-width="4.32659" stroke-miterlimit="10" stroke-linecap="round" stroke-linejoin="round"/>
<path d="M1896.8 63.3933C1896.8 63.3933 1907.22 28.7366 1894.09 23.9883C1882.74 19.8566 1865.66 37.9249 1861.96 42.6116C1850.06 39.2199 1838.28 42.6116 1838.28 42.6116C1834.58 37.9249 1817.56 19.8566 1806.15 23.9883C1793.02 28.7366 1803.44 63.3933 1803.44 63.3933C1789.13 92.8083 1798.69 123.888 1847.84 124.628C1895.45 125.245 1910.62 100.948 1896.8 63.3933Z" stroke="black" stroke-width="4.32659" stroke-miterlimit="10" stroke-linecap="round" stroke-linejoin="round"/>
<path d="M2044.06 53.5886C2044.06 53.5886 2044.62 25.2219 2035.92 24.0503C2028.4 23.0636 2018.53 35.7669 2017.73 36.2603C2013.97 38.4803 2040.55 55.9319 2044.06 53.5886Z" fill="#EFA961" stroke="black" stroke-width="4.24006" stroke-miterlimit="10" stroke-linecap="round" stroke-linejoin="round"/>
<path d="M2037.71 46.8671C2037.71 46.8671 2038.02 32.3138 2033.46 31.6971C2029.51 31.1421 2024.82 37.2471 2024.45 37.6171C2024.14 37.9871 2035.86 48.0388 2037.71 46.8671Z" fill="#F8E8CC"/>
<path d="M1952.98 52.232C1952.98 52.232 1952.74 25.1603 1961.43 23.9886C1968.96 23.002 1978.82 35.7053 1979.62 36.1986C1983.39 38.4803 1956.5 54.5753 1952.98 52.232Z" fill="#EFA961" stroke="black" stroke-width="4.24006" stroke-miterlimit="10" stroke-linecap="round" stroke-linejoin="round"/>
<path d="M1959.58 46.8666C1959.58 46.8666 1959.27 32.3133 1963.84 31.6967C1967.78 31.1417 1972.47 37.2467 1972.84 37.6167C1973.21 37.9867 1961.43 48.0383 1959.58 46.8666Z" fill="#F8E8CC"/>
<path d="M2018.91 35.2116C2023.78 29.6616 2015.21 26.0233 2004.11 29.4766C1999.36 26.2699 1994.73 27.5032 1992.64 29.6616C1981.35 25.8999 1972.41 29.5999 1977.34 35.2116C1977.34 35.2116 1975.18 35.5816 1968.4 37.7399C1960.2 40.3916 1953.48 51.9233 1953.48 51.9233C1944.97 56.1783 1940.9 74.0616 1946.51 73.0133C1940.28 82.5716 1941.45 95.8299 1946.14 100.517C1948.67 103.045 1950.76 100.887 1950.76 100.887C1953.42 113.035 1966.55 121.545 1970.62 116.488C1975.31 121.298 1985.3 121.977 1987.21 119.633C1993.07 126.417 2005.52 124.567 2009.41 119.078C2011.69 123.518 2022.17 121.915 2025.44 116.427C2029.51 121.483 2041.97 114.33 2045.3 100.825C2045.3 100.825 2047.89 102.243 2050.42 99.7149C2053.81 96.3233 2055.84 82.5099 2049.62 72.9516C2055.1 74.1849 2050.54 57.3499 2043.02 52.5399C2043.02 52.5399 2036.91 39.7133 2027.17 37.4316C2017.43 35.1499 2017.55 36.1366 2017.55 36.1366" fill="#EFA961"/>
<path d="M2025.57 116.489C2029.64 121.545 2042.09 114.392 2045.42 100.887C2045.42 100.887 2048.01 102.305 2050.54 99.7771C2053.75 96.5704 2055.66 84.0521 2050.54 74.6171C2046.9 71.4721 2041.66 67.9571 2036.3 67.4638C2024.83 66.4154 2024.39 74.2471 2016.13 74.2471C2009.84 74.2471 2007.5 66.1688 1998 66.1688C1987.39 66.1688 1985.36 75.4804 1978.58 75.4804C1971.79 75.4804 1969.02 68.8821 1961 68.8821C1954.22 68.8821 1949.28 71.5338 1945.89 74.3088C1940.53 83.7438 1941.76 96.0771 1946.26 100.517C1948.79 103.045 1950.89 100.887 1950.89 100.887C1953.54 113.035 1966.67 121.545 1970.74 116.489C1975.43 121.299 1985.42 121.977 1987.33 119.634C1993.19 126.417 2005.65 124.567 2009.53 119.14C2011.81 123.58 2022.3 121.977 2025.57 116.489Z" fill="#F8E8CC"/>
<path d="M1953.54 51.9238C1945.03 56.1788 1940.96 74.0621 1946.57 73.0138C1940.34 82.5721 1942.13 95.6454 1946.82 100.332C1949.35 102.86 1950.89 100.887 1950.89 100.887C1953.54 113.035 1966.67 121.545 1970.74 116.489C1975.43 121.299 1985.42 121.977 1987.33 119.634C1993.19 126.417 2005.65 124.567 2009.53 119.079C2011.81 123.519 2022.3 121.915 2025.57 116.427C2029.64 121.484 2042.09 114.33 2045.42 100.825C2045.42 100.825 2047.46 101.319 2049.99 98.7288C2053.38 95.3371 2055.97 82.5104 2049.74 72.9521C2055.23 74.1854 2050.66 57.3504 2043.14 52.5404" stroke="black" stroke-width="4.24006" stroke-miterlimit="10" stroke-linecap="round" stroke-linejoin="round"/>
<path d="M1977.34 35.2118C1977.34 35.2118 1973.15 36.4451 1968.96 39.0968" stroke="black" stroke-width="4.24006" stroke-miterlimit="10" stroke-linecap="round" stroke-linejoin="round"/>
<path d="M1982.96 69.4983C1985.54 69.4983 1987.64 67.4 1987.64 64.8116C1987.64 62.2232 1985.54 60.1249 1982.96 60.1249C1980.37 60.1249 1978.27 62.2232 1978.27 64.8116C1978.27 67.4 1980.37 69.4983 1982.96 69.4983Z" fill="black"/>
<path d="M2013.67 69.4983C2016.25 69.4983 2018.35 67.4 2018.35 64.8116C2018.35 62.2232 2016.25 60.1249 2013.67 60.1249C2011.08 60.1249 2008.98 62.2232 2008.98 64.8116C2008.98 67.4 2011.08 69.4983 2013.67 69.4983Z" fill="black"/>
<path d="M1997.82 72.89C2000.06 72.89 2001.89 71.5095 2001.89 69.8067C2001.89 68.1038 2000.06 66.7233 1997.82 66.7233C1995.57 66.7233 1993.75 68.1038 1993.75 69.8067C1993.75 71.5095 1995.57 72.89 1997.82 72.89Z" fill="black"/>
<path d="M2013.67 78.0085C2013.67 78.0085 2011.01 80.6601 2006.76 80.6601C2002.5 80.6601 2000.96 77.5151 1998.5 77.5151C1996.03 77.5151 1996.15 77.7618 1991.65 79.9818C1987.15 82.2018 1982.89 78.4401 1982.89 78.4401" stroke="black" stroke-width="4.24006" stroke-miterlimit="10" stroke-linecap="round" stroke-linejoin="round"/>
<path d="M2007.74 80.5985C2007.44 80.5985 2007.13 80.6602 2006.76 80.6602C2002.87 80.6602 2001.21 78.0085 1999.05 77.5768L1996.15 77.8235C1995.23 78.1318 1994.18 78.7485 1991.65 80.0435C1990.6 80.5985 1989.55 80.7835 1988.57 80.7218C1989.61 83.9285 1992.2 89.4168 1998 89.4168C2003.3 89.4168 2006.26 84.2985 2007.74 80.5985Z" fill="#FD8053" stroke="black" stroke-width="4.24006" stroke-miterlimit="10" stroke-linecap="round" stroke-linejoin="round"/>
<path d="M1978.21 35.3351C1972.47 33.1151 1979.93 25.8384 1990.11 29.7234C1993.01 25.9618 2005.22 26.5784 2005.46 29.7234C2013.79 27.6268 2021.93 31.4501 2017.73 36.1984C2017.73 36.1984 2023.28 36.1368 2027.48 39.0968" stroke="black" stroke-width="4.24006" stroke-miterlimit="10" stroke-linecap="round" stroke-linejoin="round"/>
<path d="M2147.17 123.765C2114.12 123.642 2099.38 112.295 2094.63 99.407C2090.5 88.2453 2091.67 71.842 2100.74 56.302C2100.74 56.302 2097.41 27.1336 2107.89 24.482C2118.37 21.8303 2132.43 43.4136 2132.43 43.4136C2132.43 43.4136 2145.88 38.0486 2161.91 43.4136C2161.91 43.4136 2175.97 21.8303 2186.45 24.482C2196.94 27.1336 2193.61 56.302 2193.61 56.302C2201.01 69.1286 2202.67 87.9986 2197.49 100.147C2191.82 113.035 2178.19 123.889 2147.17 123.765Z" fill="#AAA6A7"/>
<path d="M2150.75 39.8373C2148.1 39.7139 2145.57 39.7756 2143.29 39.8373C2143.16 45.2639 2143.16 59.6939 2146.86 59.6939C2150.32 59.6939 2150.75 46.6206 2150.75 39.8373Z" fill="#7F7F7F"/>
<path d="M2137.49 56.0554C2139.83 55.7471 2139.34 45.8804 2138.85 40.1454C2135.89 40.3921 2133.67 40.7621 2132.31 41.0088C2132.93 45.2638 2134.9 56.4254 2137.49 56.0554Z" fill="#7F7F7F"/>
<path d="M2156.67 56.0557C2159.32 56.4257 2161.23 45.264 2161.85 40.9474C2159.63 40.5774 2157.41 40.269 2155.31 40.084C2154.82 45.819 2154.33 55.7474 2156.67 56.0557Z" fill="#7F7F7F"/>
<path d="M2110.54 68.142C2115.1 68.2654 2115.29 65.4904 2111.4 62.777C2108.57 60.8037 2103.45 59.5704 2100.98 59.077C2099.75 61.4204 2098.7 63.7637 2097.77 66.107C2102.15 66.6004 2107.64 68.0187 2110.54 68.142Z" fill="#7F7F7F"/>
<path d="M2104.44 76.1588C2108.38 75.7888 2108.94 72.4588 2104.99 71.5338C2102.77 71.0405 2098.95 70.9788 2096.11 71.1022C2095.37 73.5072 2094.82 75.8505 2094.38 78.1938C2097.59 77.4538 2102.09 76.4055 2104.44 76.1588Z" fill="#7F7F7F"/>
<path d="M2193.23 58.8923C2191.2 59.2623 2185.28 60.5573 2182.13 62.7773C2178.31 65.4289 2178.43 68.2656 2183 68.1423C2185.96 68.0189 2191.69 66.5389 2196.13 66.0456C2195.27 63.5789 2194.28 61.1739 2193.23 58.8923Z" fill="#7F7F7F"/>
<path d="M2197.49 71.1024C2194.59 71.0407 2190.77 71.0407 2188.55 71.5341C2184.6 72.4591 2185.09 75.7274 2189.1 76.1591C2191.38 76.4057 2195.58 77.3307 2198.78 78.1324C2198.48 75.7891 2198.04 73.4457 2197.49 71.1024Z" fill="#7F7F7F"/>
<path d="M2147.17 123.765C2114.12 123.642 2099.38 112.295 2094.63 99.407C2090.5 88.2453 2091.67 71.842 2100.74 56.302C2100.74 56.302 2097.41 27.1336 2107.89 24.482C2118.37 21.8303 2132.43 43.4136 2132.43 43.4136C2132.43 43.4136 2145.88 38.0486 2161.91 43.4136C2161.91 43.4136 2175.97 21.8303 2186.45 24.482C2196.94 27.1336 2193.61 56.302 2193.61 56.302C2201.01 69.1286 2202.67 87.9986 2197.49 100.147C2191.82 113.035 2178.19 123.889 2147.17 123.765Z" stroke="black" stroke-width="4.32659" stroke-miterlimit="10" stroke-linecap="round" stroke-linejoin="round"/>
<path d="M2163.2 93.3019C2163.57 100.949 2158.08 106.067 2147.29 106.067C2136.5 106.067 2131.38 100.949 2131.51 93.5486C2131.63 86.6419 2138.6 81.0303 2147.29 81.0303C2155.99 81.0303 2162.89 86.3953 2163.2 93.3019Z" fill="white"/>
<path d="M2171.71 46.0654C2175.17 38.7887 2181.58 35.6437 2181.58 35.6437C2182.51 35.1504 2184.17 35.0271 2184.97 36.8154C2185.9 38.8504 2186.14 42.4271 2186.02 45.0787C2185.9 48.8404 2185.16 51.9854 2185.16 51.9854C2185.16 51.9854 2177.94 47.6687 2171.71 46.0654Z" fill="#FDA6AA"/>
<path d="M2123 46.0654C2119.54 38.7887 2113.13 35.6437 2113.13 35.6437C2112.2 35.1504 2110.54 35.0271 2109.8 36.8154C2108.87 38.8504 2108.63 42.4887 2108.69 45.0787C2108.81 48.8404 2109.55 51.9854 2109.55 51.9854C2109.55 51.9854 2116.77 47.6687 2123 46.0654Z" fill="#FDA6AA"/>
<path d="M2171.71 45.3871C2175.17 38.1104 2181.58 34.9654 2181.58 34.9654" stroke="black" stroke-width="4.32659" stroke-miterlimit="10" stroke-linecap="round" stroke-linejoin="round"/>
<path d="M2121.83 45.202C2118.37 37.9253 2111.96 34.7803 2111.96 34.7803" stroke="black" stroke-width="4.32659" stroke-miterlimit="10" stroke-linecap="round" stroke-linejoin="round"/>
<path d="M2205.2 82.2636C2205.2 82.2636 2191.94 82.2636 2186.7 84.7919" stroke="black" stroke-width="4.32659" stroke-miterlimit="10" stroke-linecap="round" stroke-linejoin="round"/>
<path d="M2204.09 98.6055C2204.09 98.6055 2193.42 93.6105 2186.95 94.5971" stroke="black" stroke-width="4.32659" stroke-miterlimit="10" stroke-linecap="round" stroke-linejoin="round"/>
<path d="M2086.8 82.2636C2086.8 82.2636 2100.06 82.2636 2105.3 84.7919" stroke="black" stroke-width="4.32659" stroke-miterlimit="10" stroke-linecap="round" stroke-linejoin="round"/>
<path d="M2087.91 98.6055C2087.91 98.6055 2098.58 93.6105 2105.05 94.5971" stroke="black" stroke-width="4.32659" stroke-miterlimit="10" stroke-linecap="round" stroke-linejoin="round"/>
<path d="M2129.53 83.0654C2132.19 83.0654 2134.34 80.6634 2134.34 77.7004C2134.34 74.7374 2132.19 72.3354 2129.53 72.3354C2126.88 72.3354 2124.72 74.7374 2124.72 77.7004C2124.72 80.6634 2126.88 83.0654 2129.53 83.0654Z" fill="black"/>
<path d="M2164.62 83.0654C2167.28 83.0654 2169.43 80.6634 2169.43 77.7004C2169.43 74.7374 2167.28 72.3354 2164.62 72.3354C2161.96 72.3354 2159.81 74.7374 2159.81 77.7004C2159.81 80.6634 2161.96 83.0654 2164.62 83.0654Z" fill="black"/>
<path d="M2147.3 87.752C2149.24 87.752 2150.81 86.5924 2150.81 85.162C2150.81 83.7316 2149.24 82.572 2147.3 82.572C2145.35 82.572 2143.78 83.7316 2143.78 85.162C2143.78 86.5924 2145.35 87.752 2147.3 87.752Z" fill="#C02B3A"/>
<path d="M2135.33 93.6721C2137.43 97.1871 2143.96 96.6321 2146.86 93.1787C2150.25 96.7554 2155.5 96.5087 2158.39 93.1171" stroke="black" stroke-width="4.32659" stroke-miterlimit="10" stroke-linecap="round" stroke-linejoin="round"/>
<path d="M2258.42 114.145C2233.45 105.697 2236.71 82.4484 2246.77 69.7451C2246.33 64.6884 2248.37 58.8918 2251.51 53.1568C2237.08 38.2334 2259.28 20.9051 2272.36 35.2734C2272.36 35.2734 2291.17 23.3718 2315.03 34.5951C2327.73 19.6101 2348.76 37.5551 2334.76 52.3551C2334.76 52.3551 2340.75 60.4951 2340.99 71.0401C2350.43 78.7484 2353.94 107.732 2328.23 114.577C2315.34 117.968 2305.84 119.017 2292.89 119.017C2280.5 119.078 2266.68 116.92 2258.42 114.145Z" fill="white" stroke="black" stroke-width="4.32659" stroke-miterlimit="10"/>
<path d="M2257.81 45.8182C2253.49 40.3915 2259.59 33.7932 2265.08 39.2199C2267.12 41.5015 2261.01 48.2849 2257.81 45.8182Z" fill="#F9C7BF"/>
<path d="M2328.97 44.8935C2333.28 39.4669 2327.18 32.8685 2321.69 38.2952C2319.66 40.5769 2325.82 47.3602 2328.97 44.8935Z" fill="#F9C7BF"/>
<path d="M2350.43 73.5686C2350.43 73.5686 2340.56 69.8069 2331.99 75.0486" stroke="black" stroke-width="4.32659" stroke-miterlimit="10" stroke-linecap="round" stroke-linejoin="round"/>
<path d="M2353.02 87.69C2353.02 87.69 2343.4 82.8183 2333.1 84.1133" stroke="black" stroke-width="4.32659" stroke-miterlimit="10" stroke-linecap="round" stroke-linejoin="round"/>
<path d="M2237.58 73.5686C2237.58 73.5686 2247.44 69.8069 2256.02 75.0486" stroke="black" stroke-width="4.32659" stroke-miterlimit="10" stroke-linecap="round" stroke-linejoin="round"/>
<path d="M2234.99 87.69C2234.99 87.69 2244.61 82.8183 2254.91 84.1133" stroke="black" stroke-width="4.32659" stroke-miterlimit="10" stroke-linecap="round" stroke-linejoin="round"/>
<path d="M2277.85 76.2203C2280.33 76.2203 2282.35 74.2048 2282.35 71.7186C2282.35 69.2324 2280.33 67.2169 2277.85 67.2169C2275.36 67.2169 2273.34 69.2324 2273.34 71.7186C2273.34 74.2048 2275.36 76.2203 2277.85 76.2203Z" fill="black"/>
<path d="M2308.99 76.2203C2311.47 76.2203 2313.49 74.2048 2313.49 71.7186C2313.49 69.2324 2311.47 67.2169 2308.99 67.2169C2306.5 67.2169 2304.49 69.2324 2304.49 71.7186C2304.49 74.2048 2306.5 76.2203 2308.99 76.2203Z" fill="black"/>
<path d="M2293.08 79.3035C2294.78 79.3035 2296.16 78.2268 2296.16 76.8985C2296.16 75.5703 2294.78 74.4935 2293.08 74.4935C2291.37 74.4935 2289.99 75.5703 2289.99 76.8985C2289.99 78.2268 2291.37 79.3035 2293.08 79.3035Z" fill="#DA636A"/>
<path d="M2279.94 85.0385C2282.84 88.8618 2289.93 88.4301 2293.08 84.4835C2297.83 89.7251 2304.79 87.6285 2307.01 84.4835" stroke="black" stroke-width="4.32659" stroke-miterlimit="10" stroke-linecap="round" stroke-linejoin="round"/>
<path d="M2293.08 84.5451C2291.6 86.3951 2289.32 87.4434 2286.97 87.6901C2287.1 91.6984 2288.02 98.4818 2293.39 98.4818C2297.89 98.4818 2298.94 91.6368 2299.18 87.6901C2297.09 87.5051 2294.93 86.5801 2293.08 84.5451Z" fill="#FD8053" stroke="black" stroke-width="4.32659" stroke-miterlimit="10" stroke-linecap="round" stroke-linejoin="round"/>
</svg>
