<svg width="678" height="480" viewBox="0 0 678 480" fill="none" xmlns="http://www.w3.org/2000/svg">
<g clip-path="url(#clip0_412_30972)">
<path d="M513.653 199.229C513.653 199.229 540.64 190.297 554.975 194.526C569.293 198.737 578.33 212.775 568.96 223.952C559.59 235.129 544.026 233.866 530.006 239.077C515.513 244.464 505.213 254.623 505.213 254.623" fill="#ACA8A9"/>
<path d="M541.676 235.866C552.063 233.62 562.135 232.076 568.961 223.952C578.348 212.775 569.294 198.737 554.976 194.526C549.729 192.982 542.781 193.21 536.078 194.105C541.36 203.879 546.255 218.723 541.676 235.866Z" fill="white"/>
<path d="M513.653 199.229C513.653 199.229 540.64 190.297 554.975 194.526C569.293 198.737 578.33 212.775 568.96 223.952C559.59 235.129 544.026 233.866 530.006 239.077C515.513 244.464 505.213 254.623 505.213 254.623" stroke="black" stroke-width="4.97741" stroke-miterlimit="10" stroke-linecap="round" stroke-linejoin="round"/>
<path d="M410.9 171.61C410.9 171.61 366.875 285.927 452.257 293.209C554.169 301.894 518.724 202.773 516.759 195.614C514.794 188.455 410.9 171.61 410.9 171.61Z" fill="#ACA8A9"/>
<path d="M516.759 195.632C514.794 188.472 410.9 171.61 410.9 171.61C410.9 171.61 366.875 285.927 452.257 293.209C525.164 299.42 529.2 254.711 524.058 223.724" stroke="black" stroke-width="4.97741" stroke-miterlimit="10" stroke-linecap="round" stroke-linejoin="round"/>
<path d="M453.469 63.821C453.469 63.821 419.499 24.7446 405.409 32.9915C391.319 41.2385 397.145 87.1406 397.145 87.1406" fill="#ACA8A9"/>
<path d="M453.469 63.821C453.469 63.821 419.499 24.7446 405.409 32.9915C391.319 41.2385 397.145 87.1406 397.145 87.1406" stroke="black" stroke-width="4.97741" stroke-miterlimit="10" stroke-linecap="round" stroke-linejoin="round"/>
<path d="M438.974 68.3656C434.903 56.5743 419.128 46.9762 414.496 45.9234C409.864 44.8706 406.214 63.7859 407.898 81.1571C409.583 98.5283 438.974 68.3656 438.974 68.3656Z" fill="#FFA8AC"/>
<path d="M438.974 68.3657C434.903 56.5743 419.128 46.9763 414.496 45.9235" stroke="black" stroke-width="4.97741" stroke-miterlimit="10" stroke-linecap="round" stroke-linejoin="round"/>
<path d="M508.477 69.5763C508.477 69.5763 552.712 42.6422 563.626 54.802C574.54 66.9619 555.063 108.898 555.063 108.898" fill="#ACA8A9"/>
<path d="M508.477 69.5763C508.477 69.5763 552.712 42.6422 563.626 54.802C574.54 66.9619 555.063 108.898 555.063 108.898" stroke="black" stroke-width="4.97741" stroke-miterlimit="10" stroke-linecap="round" stroke-linejoin="round"/>
<path d="M517.531 78.5252C517.531 78.5252 537.798 62.7507 549.589 65.9968C554.923 67.4708 552.8 86.1053 545.185 102.634C537.57 119.163 517.531 78.5252 517.531 78.5252Z" fill="#FFA8AC"/>
<path d="M517.531 78.5252C517.531 78.5252 537.798 62.7507 549.589 65.9968" stroke="black" stroke-width="4.97741" stroke-miterlimit="10" stroke-linecap="round" stroke-linejoin="round"/>
<path d="M375.716 122.585C380.454 83.5259 419.425 43.3616 484.541 57.241C549.657 71.1204 566.712 114.198 563.799 146.308C560.886 178.401 541.936 214.056 461.186 202.527C380.787 191.052 371.646 156.134 375.716 122.585Z" fill="#ACA8A9"/>
<path d="M488.896 58.6798C484.404 57.6621 480.158 56.8374 476.297 56.1707C474.771 62.0488 471.297 77.8408 477.631 79.1217C483.421 80.2798 487.282 66.1021 488.896 58.6798Z" fill="#7F7F7F"/>
<path d="M463.137 73.77C467.103 74.2262 468.647 63.242 469.208 56.8199C464.172 56.1181 460.26 55.732 457.961 55.5566C458.014 60.4346 458.61 73.2436 463.137 73.77Z" fill="#7F7F7F"/>
<path d="M493.616 79.3499C497.985 80.6132 503.898 69.0851 506.003 64.6458C502.319 63.4526 498.704 62.3998 495.16 61.4698C492.984 67.5585 489.773 78.2269 493.616 79.3499Z" fill="#7F7F7F"/>
<path d="M412.093 83.912C419.094 86.4387 420.726 82.1748 416.128 76.1388C414.251 73.6647 411.18 71.1906 408.197 69.1201C404.67 71.4889 401.407 74.0683 398.389 76.8407C403.547 79.5779 408.759 82.7012 412.093 83.912Z" fill="#7F7F7F"/>
<path d="M401.792 86.4212C399.598 85.0876 396.124 83.7716 392.72 82.6486C390.176 85.5263 387.877 88.5443 385.824 91.6676C390.544 92.0712 395.738 92.6151 398.651 93.2644C404.95 94.6155 407.407 89.8077 401.792 86.4212Z" fill="#7F7F7F"/>
<path d="M549.643 93.9662C546.993 94.5101 544.396 95.2646 542.361 96.2823C535.588 99.7039 535.184 104.248 542.589 105.038C545.835 105.389 551.257 104.968 556.644 104.722C554.679 101.055 552.345 97.4579 549.643 93.9662Z" fill="#7F7F7F"/>
<path d="M559.188 109.951C557.135 109.776 555.205 109.723 553.696 109.863C547.151 110.46 547.256 115.864 553.503 117.373C555.802 117.935 559.364 119.163 562.926 120.497C561.961 116.97 560.732 113.443 559.188 109.951Z" fill="#7F7F7F"/>
<path d="M554.345 99.897C563.733 115.198 565.119 131.955 563.821 146.308C560.908 178.401 541.957 214.056 461.208 202.527C380.809 191.052 371.667 156.134 375.738 122.585C377.773 105.828 384.897 89.0882 399.163 76.4546" stroke="black" stroke-width="4.97741" stroke-miterlimit="10" stroke-linecap="round" stroke-linejoin="round"/>
<path d="M444.66 55.9426C456.627 54.1879 469.962 54.4335 484.544 57.241C496.23 59.487 506.407 62.7331 515.233 66.7338" stroke="black" stroke-width="4.97741" stroke-miterlimit="10" stroke-linecap="round" stroke-linejoin="round"/>
<path d="M495.122 142.026C493.859 155.239 484.243 162.907 467.609 160.591C450.975 158.275 444.395 148.361 446.36 135.675C448.203 123.813 460.222 115.654 473.61 117.531C487.016 119.374 496.263 130.06 495.122 142.026Z" fill="white"/>
<path d="M455.768 110.228C456.402 105.679 453.618 101.531 449.548 100.963C445.479 100.396 441.666 103.624 441.031 108.173C440.397 112.723 443.182 116.871 447.251 117.438C451.321 118.005 455.134 114.777 455.768 110.228Z" fill="black"/>
<path d="M507.083 117.386C507.717 112.837 504.932 108.689 500.863 108.121C496.793 107.554 492.98 110.782 492.346 115.331C491.712 119.88 494.496 124.028 498.566 124.596C502.635 125.163 506.448 121.935 507.083 117.386Z" fill="black"/>
<path d="M478.547 122.878C478.855 120.67 476.669 118.541 473.665 118.122C470.661 117.703 467.976 119.153 467.669 121.361C467.361 123.568 469.547 125.697 472.551 126.116C475.555 126.535 478.24 125.085 478.547 122.878Z" fill="#C22B3A"/>
<path d="M489.175 134.727C483.928 139.201 475.769 138.394 471.452 132.077C466.188 136.727 456.011 135.973 453.625 130.147" stroke="black" stroke-width="4.97741" stroke-miterlimit="10" stroke-linecap="round" stroke-linejoin="round"/>
<path d="M481.366 137.534C477.646 137.482 473.926 135.692 471.452 132.077C468.855 134.376 465.065 135.341 461.608 135.043C461.363 141.746 461.977 153.818 469.627 154.625C476.698 155.397 479.98 144.764 481.366 137.534Z" fill="#FF835D" stroke="black" stroke-width="4.97741" stroke-miterlimit="10" stroke-linecap="round" stroke-linejoin="round"/>
<path d="M358.068 100.055C358.068 100.055 386.318 104.301 396.829 110.407" stroke="black" stroke-width="4.97741" stroke-miterlimit="10" stroke-linecap="round" stroke-linejoin="round"/>
<path d="M356.084 129.235C356.084 129.235 380.07 123.813 393.634 127.673" stroke="black" stroke-width="4.97741" stroke-miterlimit="10" stroke-linecap="round" stroke-linejoin="round"/>
<path d="M584.911 134.218C584.911 134.218 556.66 129.972 544.816 132.692" stroke="black" stroke-width="4.97741" stroke-miterlimit="10" stroke-linecap="round" stroke-linejoin="round"/>
<path d="M578.208 162.696C578.208 162.696 556.889 150.466 542.781 150.133" stroke="black" stroke-width="4.97741" stroke-miterlimit="10" stroke-linecap="round" stroke-linejoin="round"/>
<path d="M425.29 194.667C425.29 194.667 398.233 166.258 376.457 167.329C354.033 168.434 354.208 191.842 364.859 199.527C375.527 207.212 404.813 234.866 404.813 234.866" fill="#ACA8A9"/>
<path d="M376.457 167.329C354.033 168.434 354.208 191.842 364.859 199.527C367.667 201.545 371.773 204.966 376.3 208.897C380.16 199.246 387.863 182.7 398.303 173.681C391.214 169.768 383.564 166.978 376.457 167.329Z" fill="white"/>
<path d="M425.29 194.667C425.29 194.667 398.233 166.258 376.457 167.329C354.033 168.434 354.208 191.842 364.859 199.527C375.527 207.212 404.813 234.866 404.813 234.866" stroke="black" stroke-width="4.97741" stroke-miterlimit="10" stroke-linecap="round" stroke-linejoin="round"/>
<path d="M463.505 271.521C478.351 271.521 490.386 258.127 490.386 241.604C490.386 225.081 478.351 211.687 463.505 211.687C448.658 211.687 436.623 225.081 436.623 241.604C436.623 258.127 448.658 271.521 463.505 271.521Z" fill="white"/>
<path d="M237.627 222.127C244.664 230.076 258.912 249.237 263.456 271.293C269.404 300.28 265.246 309.457 256.56 311.264C247.875 313.054 244.014 301.561 239.786 284.611C235.557 267.661 224.801 207.651 237.627 222.127Z" fill="#575552"/>
<path d="M265.964 287.769C267.315 303.982 263.297 309.86 256.541 311.264C248.979 312.826 245.066 304.316 241.398 290.91C249.733 289.84 259.454 288.594 265.964 287.769Z" fill="#EEA865"/>
<path d="M237.627 222.127C244.664 230.076 258.912 249.237 263.456 271.293C269.404 300.28 265.246 309.457 256.56 311.264C247.875 313.054 244.014 301.561 239.786 284.611C235.557 267.661 224.801 207.651 237.627 222.127Z" stroke="black" stroke-width="4.97741" stroke-miterlimit="10" stroke-linecap="round" stroke-linejoin="round"/>
<path d="M237.046 219.495C237.046 219.495 250.802 299.508 254.294 321.617C257.786 343.725 260.541 365.571 261.278 373.906C262.014 382.223 263.085 395.892 249.749 397.594C236.414 399.296 230.378 383.241 227.781 375.836C225.184 368.431 221.306 358.833 219.639 358.71L215.814 359.202C214.235 359.746 212.884 370.01 212.235 377.836C211.585 385.662 209.796 402.717 196.443 404.419C183.09 406.121 180.703 392.628 179.317 384.399C177.931 376.169 175.106 354.306 172.93 332.039C170.754 309.773 164.42 228.689 164.42 228.689L237.046 219.495Z" fill="#575552"/>
<path d="M195.707 403.753C205.498 402.507 209.06 393.014 210.534 384.943C197.813 386.574 186.741 387.978 179.564 388.856C181.266 396.559 184.899 405.139 195.707 403.753Z" fill="#EEA865"/>
<path d="M229.922 382.451C233.379 389.891 239.222 398.19 249.013 396.944C259.821 395.558 261.172 386.346 260.909 378.468C250.873 379.749 240.239 381.135 229.922 382.451Z" fill="#EEA865"/>
<path d="M171.351 257.027C174.036 252.939 179.844 253.623 184.529 256.764C189.214 259.905 191.811 262.081 191.653 267.819C191.495 273.556 190.776 281.856 184.003 283.435C177.247 285.014 174.071 274.17 172.72 270.591C171.369 267.011 169.299 260.168 171.351 257.027Z" fill="#EEA865"/>
<path d="M237.153 248.622C233.521 245.341 228.081 247.464 224.344 251.693C220.606 255.922 218.624 258.677 220.22 264.169C221.817 269.679 224.607 277.522 231.538 277.364C238.469 277.188 238.82 265.906 239.224 262.098C239.627 258.291 239.943 251.149 237.153 248.622Z" fill="#EEA865"/>
<path d="M243.119 253.483C246.892 278.013 251.612 308.597 253.577 320.985C257.069 343.094 259.823 364.939 260.56 373.274C261.297 381.591 262.368 395.26 249.032 396.962C235.697 398.664 229.661 382.609 227.064 375.204C224.467 367.799 220.589 358.201 218.922 358.079L215.097 358.57C213.518 359.114 212.167 369.379 211.517 377.204C210.868 385.03 209.078 402.086 195.725 403.788C182.372 405.49 179.986 391.996 178.6 383.767C177.214 375.538 174.389 353.674 172.213 331.408C171.02 319.23 168.195 295.49 165.703 271.1" stroke="black" stroke-width="4.97741" stroke-miterlimit="10" stroke-linecap="round" stroke-linejoin="round"/>
<path d="M183.6 245.008C149.613 231.918 134.136 201.018 129.434 183.91C124.714 166.802 127.591 138.622 133.505 113.303C133.505 113.303 124.872 107.126 126.17 88.7548C127.469 70.3835 134.066 49.6608 137.593 46.6779C141.12 43.695 146.015 43.0808 148.051 51.784C151.157 65.1194 161.597 90.2814 161.492 97.5808C161.492 97.5808 182.653 83.1925 206.92 91.7728C204.972 84.7191 208.762 57.7323 208.411 44.0635C208.183 35.1322 213.079 34.5005 217.255 36.5008C221.431 38.4836 233.029 56.8901 238.89 74.349C244.768 91.8079 237.96 99.9496 237.96 99.9496C237.96 99.9496 261.525 142.377 258.56 167.136C255.138 195.649 243.031 224.759 222.063 240.095C217.185 243.674 188.11 247.254 183.6 245.008Z" fill="#575552"/>
<path d="M258.033 170.838C253.19 182.349 246.347 192.456 237.012 193.649C214.429 196.527 214.587 175.523 193.373 178.243C172.159 180.945 174.879 202.054 157.789 204.229C148.489 205.423 138.68 197.737 131.486 190.28C137.926 207.862 153.49 233.427 183.6 245.008C188.109 247.236 217.167 243.657 222.045 240.095C242.101 225.426 254.05 198.141 258.033 170.838Z" fill="#EEA865"/>
<path d="M183.6 245.008C149.613 231.918 134.136 201.018 129.434 183.91C124.714 166.802 127.591 138.622 133.505 113.303C133.505 113.303 124.872 107.126 126.17 88.7548C127.469 70.3835 134.066 49.6608 137.593 46.6779C141.12 43.695 146.015 43.0808 148.051 51.784C151.157 65.1194 161.597 90.2814 161.492 97.5808C161.492 97.5808 182.653 83.1925 206.92 91.7728C204.972 84.7191 208.762 57.7323 208.411 44.0635C208.183 35.1322 213.079 34.5005 217.255 36.5008C221.431 38.4836 233.029 56.8901 238.89 74.349C244.768 91.8079 237.96 99.9496 237.96 99.9496C237.96 99.9496 261.525 142.377 258.56 167.136C255.138 195.649 243.031 224.759 222.063 240.095C217.185 243.674 188.11 247.254 183.6 245.008Z" stroke="black" stroke-width="4.97741" stroke-miterlimit="10" stroke-linecap="round" stroke-linejoin="round"/>
<path d="M150.051 101.248C150.841 89.948 139.383 75.8756 139.383 75.8756C136.856 75.1737 135.786 78.5602 134.768 84.2278C133.926 88.9654 133.47 98.2827 140.682 106.302C140.682 106.302 142.822 104.95 145.384 103.231C147.928 101.529 150.051 101.248 150.051 101.248Z" fill="#EEA865"/>
<path d="M218.885 92.4571C215.27 81.7186 222.833 65.2071 222.833 65.2071C225.096 63.8911 226.991 66.8916 229.395 72.1381C231.413 76.5072 234.186 85.4209 229.237 95.0014C229.237 95.0014 226.816 94.2293 223.921 93.2116C221.008 92.1939 218.885 92.4571 218.885 92.4571Z" fill="#EEA865"/>
<path d="M150.051 101.248C150.841 89.9479 139.383 75.8755 139.383 75.8755" stroke="black" stroke-width="4.97741" stroke-miterlimit="10" stroke-linecap="round" stroke-linejoin="round"/>
<path d="M218.885 92.4572C215.27 81.7186 222.833 65.2072 222.833 65.2072" stroke="black" stroke-width="4.97741" stroke-miterlimit="10" stroke-linecap="round" stroke-linejoin="round"/>
<path d="M169.185 175.861C172.905 175.386 175.513 171.814 175.011 167.882C174.509 163.951 171.086 161.149 167.366 161.624C163.646 162.1 161.038 165.672 161.54 169.603C162.042 173.535 165.465 176.336 169.185 175.861Z" fill="black"/>
<path d="M217.365 169.702C221.085 169.227 223.693 165.655 223.191 161.723C222.689 157.792 219.266 154.99 215.546 155.465C211.826 155.94 209.218 159.513 209.72 163.444C210.222 167.376 213.645 170.177 217.365 169.702Z" fill="black"/>
<path d="M205.251 147.238C204.268 144.992 205.918 142.097 209.181 140.149C212.445 138.201 216.516 138.219 217.691 140.482C218.867 142.746 218.551 145.536 214.077 148.308C209.585 151.081 206.04 149.01 205.251 147.238Z" fill="#EEA865"/>
<path d="M175.283 151.063C175.669 148.642 173.353 146.255 169.703 145.185C166.053 144.115 162.123 145.167 161.561 147.659C161 150.151 162 152.765 167.018 154.327C172.054 155.871 174.985 152.976 175.283 151.063Z" fill="#EEA865"/>
<path d="M195.711 195.012C200.084 194.453 203.279 191.257 202.847 187.874C202.415 184.49 198.519 182.2 194.146 182.759C189.772 183.317 186.577 186.513 187.009 189.897C187.441 193.28 191.337 195.57 195.711 195.012Z" fill="black"/>
<path d="M180.426 208.634C185.093 214.477 194.656 214.354 199.025 206.721C205.149 212.845 215.116 204.826 217.853 199.299" stroke="black" stroke-width="4.97741" stroke-miterlimit="10" stroke-linecap="round" stroke-linejoin="round"/>
<path d="M300.378 326.407C300.378 326.407 292.868 330.653 289.604 336.321C287.323 340.286 289.552 343.392 292.377 344.199C299.799 346.34 318.767 345.147 320.276 337.409C322.294 327.074 314.538 322.722 314.538 322.722L300.378 326.407Z" fill="#FBC9C1" stroke="black" stroke-width="4.97741" stroke-miterlimit="10" stroke-linecap="round" stroke-linejoin="round"/>
<path d="M387.742 326.021C387.742 326.021 395.287 330.197 398.586 335.847C400.885 339.795 398.709 342.918 395.884 343.743C388.479 345.936 369.511 344.919 367.915 337.18C365.809 326.863 373.53 322.459 373.53 322.459L387.742 326.021Z" fill="#FBC9C1" stroke="black" stroke-width="4.97741" stroke-miterlimit="10" stroke-linecap="round" stroke-linejoin="round"/>
<path d="M296.236 187.42C271.723 239.762 267.109 284.663 275.373 307.264C283.638 329.864 299.044 329.162 314.748 325.951C330.452 322.74 345.525 321.108 364.405 324.793C381.987 328.232 401.2 331.232 410.202 304.789C419.203 278.347 400.972 203.931 386.128 186.086C371.266 168.241 304.641 169.47 296.236 187.42Z" fill="white" stroke="black" stroke-width="4.97741" stroke-miterlimit="10" stroke-linecap="round" stroke-linejoin="round"/>
<path d="M295.236 190.824C261.774 179.682 266.021 151.625 279.444 134.552C278.83 127.814 282.883 118.988 287.041 111.285C270.688 92.2291 295.92 71.1907 309.712 90.2639C309.712 90.2639 339.769 71.6644 374.038 89.9831C387.672 70.7871 413.079 91.5974 396.901 110.811C396.901 110.811 404.973 121.69 405.341 135.78C418.01 145.992 422.853 181.77 388.566 191.017C353.631 200.422 316.976 198.053 295.236 190.824Z" fill="white"/>
<path d="M295.236 190.824C261.774 179.682 266.021 151.625 279.444 134.552C278.83 127.814 282.883 118.988 287.041 111.285C270.688 92.2291 295.92 71.1907 309.712 90.2639C309.712 90.2639 339.769 71.6644 374.038 89.9831C387.672 70.7871 413.079 91.5974 396.901 110.811C396.901 110.811 404.973 121.69 405.341 135.78C418.01 145.992 422.853 181.77 388.566 191.017" stroke="black" stroke-width="4.97741" stroke-miterlimit="10" stroke-linecap="round" stroke-linejoin="round"/>
<path d="M293.553 102.547C288.973 96.8088 295.413 89.8252 301.203 95.5454C303.379 97.9493 296.922 105.179 293.553 102.547Z" fill="#FBC9C1"/>
<path d="M390.304 102.125C394.831 96.3526 388.321 89.4217 382.601 95.1945C380.443 97.616 386.953 104.793 390.304 102.125Z" fill="#FBC9C1"/>
<path d="M265.355 143.079C265.355 143.079 281.183 138.026 294.887 144.904" stroke="black" stroke-width="4.97741" stroke-miterlimit="10" stroke-linecap="round" stroke-linejoin="round"/>
<path d="M261.318 161.977C261.318 161.977 276.707 155.397 293.201 157.064" stroke="black" stroke-width="4.97741" stroke-miterlimit="10" stroke-linecap="round" stroke-linejoin="round"/>
<path d="M421.644 142.413C421.644 142.413 405.782 137.482 392.131 144.501" stroke="black" stroke-width="4.97741" stroke-miterlimit="10" stroke-linecap="round" stroke-linejoin="round"/>
<path d="M425.837 161.275C425.837 161.275 410.396 154.836 393.902 156.643" stroke="black" stroke-width="4.97741" stroke-miterlimit="10" stroke-linecap="round" stroke-linejoin="round"/>
<path d="M323.756 144.186C326.663 144.174 329.01 141.815 328.998 138.917C328.985 136.02 326.618 133.681 323.711 133.693C320.804 133.706 318.457 136.065 318.47 138.962C318.482 141.86 320.849 144.199 323.756 144.186Z" fill="black"/>
<path d="M359.94 144.028C362.847 144.016 365.194 141.657 365.181 138.759C365.169 135.862 362.802 133.523 359.895 133.535C356.988 133.548 354.641 135.907 354.653 138.804C354.666 141.702 357.033 144.041 359.94 144.028Z" fill="black"/>
<path d="M341.453 148.292C343.449 148.284 345.062 147.028 345.056 145.487C345.049 143.946 343.425 142.704 341.429 142.713C339.433 142.721 337.82 143.977 337.826 145.518C337.833 147.059 339.457 148.301 341.453 148.292Z" fill="#F99998"/>
<path d="M326.172 154.414C329.558 158.836 337.805 158.345 341.455 153.73C346.982 159.819 355.071 157.345 357.651 153.66" stroke="black" stroke-width="4.97741" stroke-miterlimit="10" stroke-linecap="round" stroke-linejoin="round"/>
<path d="M341.454 153.73C339.77 155.853 337.103 157.099 334.383 157.38C334.523 162.012 335.681 169.943 341.893 169.908C347.157 169.891 348.332 161.925 348.561 157.362C346.122 157.152 343.595 156.099 341.454 153.73Z" fill="#FF8053" stroke="black" stroke-width="4.97741" stroke-miterlimit="10" stroke-linecap="round" stroke-linejoin="round"/>
<path d="M333.944 205.493C335.506 206.002 337.348 205.703 338.278 204.352L344.999 194.561C345.929 193.21 345.543 191.385 344.49 190.104C341.647 186.613 341.296 181.542 343.981 177.646C347.227 172.909 353.702 171.698 358.439 174.944C360.106 176.085 361.317 177.611 362.072 179.331C362.966 181.384 365.493 183.103 367.722 183.209C369.599 183.296 371.459 183.875 373.126 185.016C377.864 188.262 379.074 194.737 375.828 199.474C373.161 203.37 368.301 204.879 364.019 203.475C362.458 202.966 360.615 203.264 359.685 204.616L352.965 214.407C352.035 215.758 352.421 217.583 353.474 218.863C356.316 222.355 356.667 227.426 353.983 231.322C350.736 236.059 344.262 237.27 339.524 234.024C337.857 232.883 336.646 231.357 335.892 229.637C334.997 227.584 332.47 225.865 330.242 225.759C328.364 225.672 326.504 225.093 324.838 223.952C320.1 220.706 318.889 214.231 322.135 209.494C324.802 205.616 329.663 204.107 333.944 205.493Z" fill="#E3B04D" stroke="black" stroke-width="4.97741" stroke-miterlimit="10" stroke-linecap="round" stroke-linejoin="round"/>
<path d="M298.516 212.143C299.691 211.757 329.029 193.754 334.907 204.317C340.522 214.424 333.732 218.004 327.871 222.706C322.011 227.409 313.781 236.006 313.781 236.006" fill="white"/>
<path d="M334.907 204.317C332.45 199.895 325.87 200.492 318.957 202.685C320.22 208.739 323.256 217.267 330.608 220.565C335.539 216.74 339.645 212.862 334.907 204.317Z" fill="#FBC9C1"/>
<path d="M298.516 212.143C299.691 211.757 329.029 193.754 334.907 204.317C340.522 214.424 333.732 218.004 327.871 222.706C322.011 227.409 313.781 236.006 313.781 236.006" stroke="black" stroke-width="4.97741" stroke-miterlimit="10" stroke-linecap="round" stroke-linejoin="round"/>
<path d="M388.705 216.512C387.617 215.916 362.017 192.912 354.331 202.247C346.979 211.16 353.015 215.933 357.928 221.601C362.859 227.286 369.369 237.235 369.369 237.235" fill="white"/>
<path d="M357.086 220.636C364.491 217.39 367.579 208.862 368.86 202.773C362.964 199.86 357.297 198.615 354.331 202.229C347.4 210.652 352.366 215.372 357.086 220.636Z" fill="#FBC9C1"/>
<path d="M388.705 216.512C387.617 215.916 362.017 192.912 354.331 202.247C346.979 211.16 353.015 215.933 357.928 221.601C362.859 227.286 369.369 237.235 369.369 237.235" stroke="black" stroke-width="4.97741" stroke-miterlimit="10" stroke-linecap="round" stroke-linejoin="round"/>
<path d="M124.436 416.685C124.436 416.685 98.485 442.952 95.9407 469.641C93.3964 496.329 241.104 485.397 255.896 477.852C267.021 472.167 255.457 427.143 243.561 407.245C234.858 392.716 126.56 412.982 124.436 416.685Z" fill="#FFE9A7" stroke="black" stroke-width="4.97741" stroke-miterlimit="10" stroke-linecap="round" stroke-linejoin="round"/>
<path d="M128.453 425.405C124.979 425.019 122.189 424.001 120.101 422.896C116.749 421.124 115.118 419.141 115.118 419.141C108.66 419.562 94.9916 414.158 88.4467 394.611C88.4467 394.611 85.6041 402.226 78.0415 403.489C64.3376 405.788 58.7051 389.891 54.722 369.607C50.9319 377.713 43.457 370.432 45.7557 348.867C37.0876 354.64 35.2803 345.41 39.8073 330.741C43.7202 318.055 58.5823 287.471 69.5138 280.329C81.3228 272.609 89.8329 268.38 96.1672 262.186C94.1318 250.342 130.085 244.797 130.085 244.797C126.962 233.831 145.052 234.217 156.896 239.182L156.422 239.253C166.442 231.216 183.725 225.882 183.743 237.287C183.743 237.287 219.836 232.725 221.135 244.675C228.925 248.886 238.278 250.623 251.754 254.799C264.229 258.659 286.935 283.997 294.181 295.104C302.551 307.948 303.358 317.318 293.444 314.159C301.569 334.25 296.392 343.322 290.514 336.566C292.269 357.166 291.163 373.625 277.407 375.555C268.475 376.801 264.352 370.572 264.352 370.572C267.774 389.435 255.719 398.383 246.525 401.489C246.525 401.489 239.699 413.263 226.1 414.596" fill="#FFE9A7"/>
<path d="M128.453 425.405C124.979 425.019 122.189 424.001 120.101 422.896C116.749 421.124 115.118 419.141 115.118 419.141C108.66 419.562 94.9916 414.158 88.4467 394.611C88.4467 394.611 85.6041 402.226 78.0415 403.489C64.3376 405.788 58.7051 389.891 54.722 369.607C50.9319 377.713 43.457 370.432 45.7557 348.867C37.0876 354.64 35.2803 345.41 39.8073 330.741C43.7202 318.055 58.5823 287.471 69.5138 280.329C81.3228 272.609 89.8329 268.38 96.1672 262.186C94.1318 250.342 130.085 244.797 130.085 244.797C126.962 233.831 145.052 234.217 156.896 239.182L156.422 239.253C166.442 231.216 183.725 225.882 183.743 237.287C183.743 237.287 219.836 232.725 221.135 244.675C228.925 248.886 238.278 250.623 251.754 254.799C264.229 258.659 286.935 283.997 294.181 295.104C302.551 307.948 303.358 317.318 293.444 314.159C301.569 334.25 296.392 343.322 290.514 336.566C292.269 357.166 291.163 373.625 277.407 375.555C268.475 376.801 264.352 370.572 264.352 370.572C267.774 389.435 255.719 398.383 246.525 401.489C246.525 401.489 239.699 413.263 226.1 414.596" stroke="black" stroke-width="4.97741" stroke-miterlimit="10" stroke-linecap="round" stroke-linejoin="round"/>
<path d="M87.9375 395.681C87.9375 395.681 97.2899 376.275 94.5701 356.956C91.7978 337.216 91.1134 323.652 93.8858 320.459" stroke="black" stroke-width="4.97741" stroke-miterlimit="10" stroke-linecap="round" stroke-linejoin="round"/>
<path d="M264.615 370.905C264.615 370.905 250.297 354.815 247.595 335.496C244.822 315.756 241.769 302.526 238.225 300.21" stroke="black" stroke-width="4.97741" stroke-miterlimit="10" stroke-linecap="round" stroke-linejoin="round"/>
<path d="M131.734 338.865C131.734 338.865 139.788 332.601 147.246 331.776" stroke="black" stroke-width="4.97741" stroke-miterlimit="10" stroke-linecap="round" stroke-linejoin="round"/>
<path d="M210.062 327.881C210.062 327.881 200.604 324.073 193.199 325.337" stroke="black" stroke-width="4.97741" stroke-miterlimit="10" stroke-linecap="round" stroke-linejoin="round"/>
<path d="M147.037 365.273C153.828 370.783 169.971 368.08 175.024 359.57C180.639 366.15 195.448 365.185 203.432 356.921" stroke="black" stroke-width="4.97741" stroke-miterlimit="10" stroke-linecap="round" stroke-linejoin="round"/>
<path d="M172.665 349.952C178.049 349.198 182.015 345.746 181.524 342.244C181.033 338.741 176.271 336.513 170.887 337.267C165.503 338.022 161.537 341.473 162.028 344.976C162.519 348.479 167.281 350.707 172.665 349.952Z" fill="black"/>
<path d="M577.121 379.609C577.121 379.609 600.458 423.493 593.141 473.974C585.824 524.474 436.432 497.312 431.905 469.798C427.378 442.285 436.432 360.448 456.628 359.061C476.824 357.675 571.208 373.695 577.121 379.609Z" fill="#EDAD32"/>
<path d="M456.646 359.079C436.45 360.465 427.396 442.303 431.923 469.816C434.221 483.801 473.964 497.698 513.462 501.347C544.502 464.657 519.217 379.766 519.217 379.766L517.936 365.887C492.371 361.658 466.191 358.412 456.646 359.079Z" fill="white"/>
<path d="M577.121 379.609C577.121 379.609 600.458 423.493 593.141 473.974C585.824 524.474 436.432 497.312 431.905 469.798C427.378 442.285 436.432 360.448 456.628 359.061C476.824 357.675 571.208 373.695 577.121 379.609Z" stroke="black" stroke-width="4.97741" stroke-miterlimit="10" stroke-linecap="round" stroke-linejoin="round"/>
<path d="M502.25 184.735C512.006 187.402 517.779 234.006 517.779 234.006C517.779 234.006 544.415 224.689 575.473 244.218C585.229 234.901 624.288 214.933 636.728 223.794C649.151 232.673 615.865 308.123 615.865 308.123C615.865 308.123 635.833 379.573 584.79 390.242C529.746 401.735 458.735 381.363 432.994 347.182C409.587 316.089 425.449 273.942 447.189 271.293C447.207 271.275 482.879 179.454 502.25 184.735Z" fill="#EDAD32"/>
<path d="M433.011 347.165C458.752 381.346 529.764 401.7 584.808 390.224C630.552 380.679 619.252 322.301 616.427 310.282C601.547 299.473 578.807 308.79 562.172 315.212C542.643 322.757 539.537 313.879 538.642 304.123C537.747 294.367 538.204 286.365 533.308 284.155C523.71 279.785 522.219 298.35 513.34 306.351C504.461 314.352 489.81 306.351 480.931 294.367C472.053 282.382 459.63 268.626 447.207 271.293C425.466 273.942 409.587 316.09 433.011 347.165Z" fill="white"/>
<path d="M433.011 347.165C409.604 316.072 425.466 273.925 447.207 271.275C447.207 271.275 482.879 179.454 502.25 184.718C512.006 187.385 517.779 233.989 517.779 233.989C517.779 233.989 544.415 224.671 575.473 244.201C585.229 234.884 624.288 214.915 636.728 223.777C649.151 232.655 615.865 308.106 615.865 308.106C615.865 308.106 635.833 379.556 584.79 390.224C582.123 390.786 579.403 391.259 576.666 391.681" stroke="black" stroke-width="4.97741" stroke-miterlimit="10" stroke-linecap="round" stroke-linejoin="round"/>
<path d="M547.871 307.158C547.871 307.158 552.96 302.193 560.259 305.333" stroke="black" stroke-width="4.97741" stroke-miterlimit="10" stroke-linecap="round" stroke-linejoin="round"/>
<path d="M503.813 303.877C507.767 303.877 510.972 300.672 510.972 296.718C510.972 292.764 507.767 289.559 503.813 289.559C499.86 289.559 496.654 292.764 496.654 296.718C496.654 300.672 499.86 303.877 503.813 303.877Z" fill="black"/>
<path d="M533.183 312.239C533.571 309.407 530.695 306.673 526.759 306.134C522.822 305.594 519.317 307.452 518.928 310.284C518.54 313.116 521.416 315.85 525.352 316.39C529.288 316.93 532.794 315.072 533.183 312.239Z" fill="black"/>
<path d="M587.684 254.817C588.368 253.764 597.387 243.148 601.984 245.464C604.511 246.745 604.353 248.938 604.353 248.938C604.353 248.938 618.759 237.287 624.286 241.464C629.234 245.201 615.021 279.312 608.196 285.909C608.196 285.927 603.388 267.503 587.684 254.817Z" fill="white"/>
<path d="M587.684 254.817C588.368 253.764 597.387 243.148 601.984 245.464C604.511 246.745 604.353 248.938 604.353 248.938C604.353 248.938 618.759 237.287 624.286 241.464" stroke="black" stroke-width="4.97741" stroke-miterlimit="10" stroke-linecap="round" stroke-linejoin="round"/>
<path d="M504.374 239.376C504.708 238.217 507.059 224.689 503.357 222.32C501.321 221.022 499.988 222.443 499.988 222.443C499.988 222.443 500.374 203.949 495.04 201.913C490.249 200.089 475.475 231.585 474.598 240.972C474.598 240.972 488.653 234.076 504.374 239.376Z" fill="white"/>
<path d="M504.376 236.533C504.709 235.375 507.06 224.689 503.358 222.32C501.323 221.022 499.989 222.443 499.989 222.443C499.989 222.443 500.375 203.949 495.041 201.913" stroke="black" stroke-width="4.97741" stroke-miterlimit="10" stroke-linecap="round" stroke-linejoin="round"/>
<path d="M544.224 326.442C541.75 328.425 534.837 332.127 524.958 322.248C508.903 330.162 501.48 320.266 501.48 320.266" stroke="black" stroke-width="4.97741" stroke-miterlimit="10" stroke-linecap="round" stroke-linejoin="round"/>
<path d="M534.608 328.39C531.854 327.67 528.607 325.881 524.958 322.248C519.887 324.74 515.676 325.46 512.307 325.284C512.377 332.689 513.798 349.99 525.467 349.428C532.906 349.06 534.363 335.812 534.608 328.39Z" fill="#FF835D" stroke="black" stroke-width="4.97741" stroke-miterlimit="10" stroke-linecap="round" stroke-linejoin="round"/>
<path d="M498.494 316.809C498.494 316.809 503.863 321.003 504.706 332.338" stroke="black" stroke-width="4.97741" stroke-miterlimit="10" stroke-linecap="round" stroke-linejoin="round"/>
<path d="M550.626 393.786C549.485 393.786 537.764 391.891 522.621 386.978C507.479 382.065 487.054 372.59 476.456 390.382C467.7 405.069 476.842 420.282 490.844 428.23C504.847 436.179 529.061 439.583 529.061 439.583" fill="#EDAD32"/>
<path d="M476.456 390.365C467.7 405.051 476.842 420.264 490.844 428.213C490.844 428.213 492.81 429.792 501.232 414.737C509.654 399.682 514.234 391.172 513.708 383.942C500.214 379.468 485.089 375.906 476.456 390.365Z" fill="white"/>
<path d="M550.626 393.786C549.485 393.786 541.081 394.032 522.621 386.978C507.759 381.293 487.054 372.59 476.456 390.382C467.7 405.069 476.842 420.282 490.844 428.23C504.847 436.179 529.061 439.583 529.061 439.583" stroke="black" stroke-width="4.97741" stroke-miterlimit="10" stroke-linecap="round" stroke-linejoin="round"/>
<path d="M290.124 407.174C271.788 419.65 256.698 439.46 249.539 460.885C242.38 482.309 240.432 506.12 264.682 512.173C288.931 518.209 296.231 468.903 298.266 461.797C301.074 451.971 308.899 394.4 290.124 407.174Z" fill="#848484"/>
<path d="M245.994 474.132C242.695 491.293 245.397 507.348 264.681 512.156C278.806 515.683 287.193 500.4 292.124 485.625L245.994 474.132Z" fill="white"/>
<path d="M290.124 407.174C271.788 419.65 256.698 439.46 249.539 460.885C242.38 482.309 240.432 506.12 264.682 512.173C288.931 518.209 296.231 468.903 298.266 461.797C301.074 451.971 308.899 394.4 290.124 407.174Z" stroke="black" stroke-width="4.97741" stroke-miterlimit="10" stroke-linecap="round" stroke-linejoin="round"/>
<path d="M283.126 406.753C283.126 406.753 278.563 485.327 279.95 495.381C281.318 505.436 411.251 506.822 412.164 494.469C413.076 482.116 411.251 415.807 404.391 401.629C397.53 387.452 287.214 394.032 283.126 406.753Z" fill="#848484"/>
<path d="M375.296 502.575C377.946 496.785 379.472 490.205 379.472 483.239C379.472 459.867 362.592 440.934 341.764 440.934C320.937 440.934 304.057 459.867 304.057 483.239C304.057 489.924 305.443 496.241 307.899 501.856C327.534 503.488 353.959 503.804 375.296 502.575Z" fill="white"/>
<path d="M285.667 444.32C274.613 470.044 275.034 493.17 279.947 495.381C289.212 499.54 411.249 506.822 412.161 494.469C413.074 482.116 411.249 415.807 404.388 401.629C397.527 387.452 287.229 394.032 283.123 406.753" stroke="black" stroke-width="4.97741" stroke-miterlimit="10" stroke-linecap="round" stroke-linejoin="round"/>
<path d="M244.714 295.841C234.94 276.434 227.465 211.897 248.837 199.492C270.209 187.104 303.969 222.232 303.969 222.232C303.969 222.232 322.2 237.621 280.737 270.819C246.188 298.455 244.714 295.841 244.714 295.841Z" fill="#848484" stroke="black" stroke-width="4.97741" stroke-miterlimit="10" stroke-linecap="round" stroke-linejoin="round"/>
<path d="M256.065 215.231C263.435 208.564 280.648 223.39 285.508 229.181C286.508 230.374 297.966 244.008 280.385 257.449C271.611 264.151 254.451 265.731 254.451 265.731C254.451 265.731 246.853 223.566 256.065 215.231Z" fill="white"/>
<path d="M256.068 215.231C263.438 208.563 284.669 227.812 289.547 233.603" stroke="black" stroke-width="4.97741" stroke-miterlimit="10" stroke-linecap="round" stroke-linejoin="round"/>
<path d="M443.096 295.841C452.87 276.434 460.345 211.897 438.973 199.492C417.601 187.104 383.841 222.232 383.841 222.232C383.841 222.232 365.61 237.621 407.073 270.819C441.605 298.455 443.096 295.841 443.096 295.841Z" fill="#848484" stroke="black" stroke-width="4.97741" stroke-miterlimit="10" stroke-linecap="round" stroke-linejoin="round"/>
<path d="M431.727 215.231C424.357 208.564 407.144 223.39 402.283 229.181C401.283 230.374 392.492 237.007 398.774 246.078C417.391 272.96 432.938 270.661 432.938 270.661C432.938 270.661 440.939 223.566 431.727 215.231Z" fill="white"/>
<path d="M431.728 215.231C424.359 208.564 402.636 226.654 397.758 232.462" stroke="black" stroke-width="4.97741" stroke-miterlimit="10" stroke-linecap="round" stroke-linejoin="round"/>
<path d="M423.515 259.642C423.515 259.642 451.87 282.47 452.221 325.354C473.663 348.533 463.293 363.395 452.221 361.325C456.029 381.732 443.237 384.504 437.693 384.153C432.165 400.401 401.336 422.44 353.311 422.44H331.184C284.949 422.44 252.33 400.419 246.802 384.153C241.275 384.504 228.466 381.732 232.274 361.325C221.202 363.395 210.832 348.533 232.274 325.354C232.625 282.47 260.98 259.642 260.98 259.642C260.98 259.642 266.121 254.694 267.718 253.887C263.209 249.693 269.631 233.357 289.353 239.586C284.51 226.093 296.617 219.53 312.866 231.637C312.866 231.637 339.151 213.652 372.349 231.637C388.597 219.53 400.704 226.11 395.861 239.586C415.566 233.357 423.427 249.237 418.339 252.729C416.9 253.711 417.075 254.132 417.075 254.132C417.075 254.132 422.374 258.484 423.515 259.642Z" fill="#848484"/>
<path d="M437.692 384.153C443.219 384.504 456.028 381.732 452.221 361.325C463.117 363.36 473.329 348.972 453.168 326.407C441.008 326.881 428.497 332.215 423.163 336.9C405.511 303.859 351.38 301.017 348.818 350.007H340.132C337.571 301.017 283.457 303.859 265.787 336.9C259.786 331.618 244.731 325.547 231.273 326.477C211.182 349.007 221.377 363.378 232.273 361.325C228.465 381.732 241.257 384.504 246.802 384.153C252.329 400.401 284.948 422.44 331.184 422.44H353.31C401.335 422.44 432.165 400.401 437.692 384.153Z" fill="white"/>
<path d="M444.308 288.541C448.712 298.402 452.098 310.703 452.221 325.354C473.663 348.533 463.293 363.395 452.221 361.325C456.029 381.732 443.237 384.504 437.693 384.153C432.165 400.401 401.336 422.44 353.311 422.44H331.184C284.949 422.44 252.33 400.419 246.802 384.153C241.275 384.504 228.466 381.732 232.274 361.325C221.202 363.395 210.832 348.533 232.274 325.354C232.414 308.439 236.906 294.665 242.293 284.155" stroke="black" stroke-width="4.97741" stroke-miterlimit="10" stroke-linecap="round" stroke-linejoin="round"/>
<path d="M267.699 253.887C263.19 249.693 269.612 233.357 289.334 239.586C284.491 226.093 296.599 219.53 312.847 231.637C312.847 231.637 339.132 213.652 372.33 231.637C388.578 219.53 400.685 226.11 395.843 239.586C415.548 233.357 423.408 249.237 418.32 252.729C416.881 253.711 417.057 254.132 417.057 254.132" stroke="black" stroke-width="4.97741" stroke-miterlimit="10" stroke-linecap="round" stroke-linejoin="round"/>
<path d="M323.568 303.28C324.165 300.385 321.445 295.911 313.268 295.911C305.091 295.911 303.179 300.526 303.46 302.789C303.793 305.404 305.425 307.035 312.286 306.878C319.146 306.72 322.585 308.018 323.568 303.28Z" fill="white"/>
<path d="M344.468 357.535C349.604 357.535 353.767 354.809 353.767 351.446C353.767 348.083 349.604 345.357 344.468 345.357C339.332 345.357 335.168 348.083 335.168 351.446C335.168 354.809 339.332 357.535 344.468 357.535Z" fill="black"/>
<path d="M364.593 303.28C363.996 300.385 366.716 295.911 374.893 295.911C383.069 295.911 384.982 300.526 384.701 302.789C384.368 305.404 382.736 307.035 375.875 306.878C368.997 306.702 365.575 308.018 364.593 303.28Z" fill="white"/>
<path d="M377.281 346.586C382.3 346.586 386.37 342.516 386.37 337.496C386.37 332.477 382.3 328.407 377.281 328.407C372.261 328.407 368.191 332.477 368.191 337.496C368.191 342.516 372.261 346.586 377.281 346.586Z" fill="black"/>
<path d="M374.262 367.431C367.682 373.485 354.802 376.906 344.274 367.168C336.905 376.117 320.604 373.485 315.34 367.168" stroke="black" stroke-width="4.97741" stroke-miterlimit="10" stroke-linecap="round" stroke-linejoin="round"/>
<path d="M301.268 336.18C301.268 336.18 309.83 332.829 319.972 337.496" stroke="black" stroke-width="4.97741" stroke-miterlimit="10" stroke-linecap="round" stroke-linejoin="round"/>
<path d="M357.347 373.169C352.978 372.783 348.451 371.01 344.292 367.168C340.958 371.221 335.782 372.87 330.641 372.905C331.378 380.275 334.325 393.558 344.467 393.961C353.837 394.33 356.557 381.416 357.347 373.169Z" fill="#FF835D" stroke="black" stroke-width="4.97741" stroke-miterlimit="10" stroke-linecap="round" stroke-linejoin="round"/>
<path d="M375.07 420.791C375.07 420.791 408.146 388.663 433.852 385.153C457.452 381.925 466.752 389.277 469.191 403.718C471.63 418.159 451.293 424.037 441.906 426.441C432.518 428.844 410.918 462.043 410.918 462.043" fill="#848484"/>
<path d="M375.07 420.791C375.07 420.791 408.146 388.663 433.852 385.153C457.452 381.925 466.752 389.277 469.191 403.718C471.63 418.159 451.293 424.037 441.906 426.441C432.518 428.844 410.918 462.043 410.918 462.043" stroke="black" stroke-width="4.97741" stroke-miterlimit="10" stroke-linecap="round" stroke-linejoin="round"/>
<path d="M429.271 366.08C430.938 367.782 433.5 368.624 435.588 367.501L450.748 359.395C452.836 358.272 453.556 355.675 453.082 353.341C451.748 346.972 454.696 340.234 460.715 337.005C468.049 333.092 477.156 335.847 481.069 343.182C482.437 345.743 482.999 348.533 482.823 351.236C482.613 354.464 484.701 358.377 487.508 359.991C489.86 361.342 491.86 363.36 493.246 365.922C497.159 373.257 494.404 382.363 487.07 386.276C481.034 389.505 473.805 388.206 469.242 383.556C467.575 381.854 465.014 381.012 462.926 382.135L447.765 390.242C445.677 391.365 444.958 393.979 445.432 396.295C446.765 402.665 443.817 409.403 437.799 412.631C430.464 416.544 421.358 413.789 417.445 406.455C416.076 403.893 415.514 401.103 415.69 398.401C415.9 395.172 413.812 391.259 411.005 389.645C408.654 388.294 406.653 386.276 405.267 383.714C401.354 376.38 404.109 367.273 411.444 363.36C417.462 360.132 424.709 361.43 429.271 366.08Z" fill="#E3B04D" stroke="black" stroke-width="4.97741" stroke-miterlimit="10" stroke-linecap="round" stroke-linejoin="round"/>
<path d="M472.888 414.018C484.696 404.303 488.959 389.973 482.408 382.01C475.858 374.048 460.975 375.469 449.166 385.184C437.358 394.899 433.095 409.229 439.646 417.192C446.197 425.154 461.079 423.733 472.888 414.018Z" fill="white" stroke="black" stroke-width="4.97741" stroke-miterlimit="10" stroke-linecap="round" stroke-linejoin="round"/>
<path d="M123.89 244.78C119.696 235.568 131.049 225.285 144.718 223.847C158.387 222.408 164.054 228.654 163.51 234.392C162.914 240.674 159.931 244.148 147.367 247.886C134.804 251.605 126.68 250.904 123.89 244.78Z" fill="#EEA865" stroke="black" stroke-width="4.97741" stroke-miterlimit="10" stroke-linecap="round" stroke-linejoin="round"/>
<rect y="460" width="678" height="20" fill="white"/>
<path d="M119.717 444.04C125.121 435.302 134.631 428.371 155.705 429.845C174.989 431.196 180.656 438.828 181.095 448.462C181.428 455.901 173.989 465.377 152.669 465.377C131.35 465.377 129.753 458.551 129.753 458.551" fill="#FFE9A7"/>
<path d="M119.717 444.04C125.121 435.302 134.631 428.371 155.705 429.845C174.989 431.196 180.656 438.828 181.095 448.462C181.428 455.901 173.989 465.377 152.669 465.377C131.35 465.377 129.753 458.551 129.753 458.551" stroke="black" stroke-width="4.97741" stroke-miterlimit="10" stroke-linecap="round" stroke-linejoin="round"/>
<path d="M241.615 438.056C235.579 429.739 224.49 426.651 203.574 429.651C184.431 432.406 179.342 440.425 179.605 450.058C179.816 457.516 187.922 466.412 209.189 464.868C230.456 463.323 230.806 458.568 230.806 458.568" fill="#FFE9A7"/>
<path d="M241.615 438.056C235.579 429.739 224.49 426.651 203.574 429.651C184.431 432.406 179.342 440.425 179.605 450.058C179.816 457.516 187.922 466.412 209.189 464.868C230.456 463.323 230.806 458.568 230.806 458.568" stroke="black" stroke-width="4.97741" stroke-miterlimit="10" stroke-linecap="round" stroke-linejoin="round"/>
<path d="M167.584 407.841C168.321 410.104 170.251 412 172.62 411.929L189.798 411.385C192.167 411.315 193.974 409.28 194.571 406.981C196.203 400.682 201.818 395.944 208.661 395.716C216.96 395.453 223.909 401.963 224.172 410.28C224.26 413.193 223.523 415.93 222.172 418.281C220.557 421.089 220.698 425.51 222.488 428.195C223.997 430.459 224.909 433.143 224.997 436.056C225.26 444.356 218.75 451.304 210.433 451.567C203.607 451.778 197.694 447.409 195.659 441.232C194.922 438.969 192.992 437.074 190.623 437.144L173.445 437.688C171.076 437.758 169.269 439.793 168.672 442.092C167.04 448.391 161.425 453.129 154.582 453.357C146.282 453.62 139.334 447.11 139.071 438.793C138.983 435.881 139.72 433.143 141.071 430.792C142.685 427.985 142.545 423.563 140.755 420.878C139.246 418.615 138.334 415.93 138.246 413.017C137.983 404.718 144.493 397.769 152.81 397.506C159.653 397.295 165.566 401.665 167.584 407.841Z" fill="#E3B04D" stroke="black" stroke-width="4.97741" stroke-miterlimit="10" stroke-linecap="round" stroke-linejoin="round"/>
</g>
<defs>
<clipPath id="clip0_412_30972">
<rect width="678" height="480" fill="white"/>
</clipPath>
</defs>
</svg>
