<svg width="343" height="247" viewBox="0 0 343 247" fill="none" xmlns="http://www.w3.org/2000/svg">
<path d="M257.532 103.765C257.532 103.765 271.587 99.1132 279.054 101.316C286.511 103.509 291.217 110.82 286.337 116.642C281.457 122.463 273.351 121.805 266.049 124.519C258.5 127.325 253.136 132.616 253.136 132.616" fill="#ACA8A9"/>
<path d="M272.126 122.847C277.536 121.677 282.782 120.873 286.337 116.642C291.227 110.82 286.511 103.509 279.054 101.316C276.321 100.512 272.702 100.63 269.211 101.096C271.962 106.187 274.511 113.918 272.126 122.847Z" fill="white"/>
<path d="M257.532 103.765C257.532 103.765 271.587 99.1132 279.054 101.316C286.511 103.509 291.217 110.82 286.337 116.642C281.457 122.463 273.351 121.805 266.049 124.519C258.5 127.325 253.136 132.616 253.136 132.616" stroke="black" stroke-width="2.5924" stroke-miterlimit="10" stroke-linecap="round" stroke-linejoin="round"/>
<path d="M204.015 89.3803C204.015 89.3803 181.085 148.92 225.555 152.713C278.634 157.237 260.173 105.611 259.149 101.882C258.126 98.1536 204.015 89.3803 204.015 89.3803Z" fill="#ACA8A9"/>
<path d="M259.149 101.891C258.126 98.1628 204.015 89.3803 204.015 89.3803C204.015 89.3803 181.085 148.92 225.555 152.713C263.527 155.948 265.629 132.662 262.951 116.523" stroke="black" stroke-width="2.5924" stroke-miterlimit="10" stroke-linecap="round" stroke-linejoin="round"/>
<path d="M226.186 33.2401C226.186 33.2401 208.493 12.8878 201.155 17.1831C193.816 21.4784 196.85 45.3857 196.85 45.3857" fill="#ACA8A9"/>
<path d="M226.186 33.2401C226.186 33.2401 208.493 12.8878 201.155 17.1831C193.816 21.4784 196.85 45.3857 196.85 45.3857" stroke="black" stroke-width="2.5924" stroke-miterlimit="10" stroke-linecap="round" stroke-linejoin="round"/>
<path d="M218.635 35.6071C216.515 29.4658 208.299 24.4668 205.886 23.9185C203.474 23.3701 201.573 33.2219 202.45 42.2694C203.327 51.3169 218.635 35.6071 218.635 35.6071Z" fill="#FFA8AC"/>
<path d="M218.635 35.6071C216.515 29.4658 208.299 24.4668 205.887 23.9185" stroke="black" stroke-width="2.5924" stroke-miterlimit="10" stroke-linecap="round" stroke-linejoin="round"/>
<path d="M254.835 36.2377C254.835 36.2377 277.874 22.2095 283.558 28.5427C289.243 34.876 279.099 56.7179 279.099 56.7179" fill="#ACA8A9"/>
<path d="M254.835 36.2377C254.835 36.2377 277.874 22.2095 283.558 28.5427C289.243 34.876 279.099 56.7179 279.099 56.7179" stroke="black" stroke-width="2.5924" stroke-miterlimit="10" stroke-linecap="round" stroke-linejoin="round"/>
<path d="M259.551 40.8985C259.551 40.8985 270.106 32.6827 276.248 34.3734C279.026 35.141 277.92 44.8465 273.954 53.4554C269.987 62.0642 259.551 40.8985 259.551 40.8985Z" fill="#FFA8AC"/>
<path d="M259.551 40.8985C259.551 40.8985 270.106 32.6827 276.248 34.3734" stroke="black" stroke-width="2.5924" stroke-miterlimit="10" stroke-linecap="round" stroke-linejoin="round"/>
<path d="M185.689 63.8463C188.157 43.5031 208.454 22.5842 242.369 29.813C276.283 37.0419 285.166 59.4779 283.649 76.202C282.132 92.9171 272.262 111.487 230.205 105.483C188.33 99.5062 183.569 81.3198 185.689 63.8463Z" fill="#ACA8A9"/>
<path d="M244.637 30.5624C242.297 30.0324 240.086 29.6028 238.075 29.2556C237.28 32.3171 235.471 40.5421 238.77 41.2092C241.786 41.8124 243.796 34.4282 244.637 30.5624Z" fill="#7F7F7F"/>
<path d="M231.221 38.4219C233.287 38.6595 234.091 32.9386 234.383 29.5937C231.761 29.2282 229.723 29.0271 228.525 28.9357C228.553 31.4763 228.864 38.1477 231.221 38.4219Z" fill="#7F7F7F"/>
<path d="M247.095 41.3281C249.371 41.9861 252.45 35.9818 253.547 33.6697C251.628 33.0482 249.745 32.4999 247.899 32.0155C246.766 35.1867 245.094 40.7432 247.095 41.3281Z" fill="#7F7F7F"/>
<path d="M204.635 43.7042C208.281 45.0202 209.131 42.7994 206.736 39.6556C205.759 38.367 204.159 37.0785 202.606 36.0001C200.769 37.2338 199.069 38.5772 197.497 40.0212C200.184 41.4469 202.898 43.0736 204.635 43.7042Z" fill="#7F7F7F"/>
<path d="M199.27 45.0111C198.128 44.3165 196.319 43.6311 194.546 43.0462C193.221 44.545 192.023 46.1169 190.954 47.7436C193.412 47.9538 196.118 48.2371 197.635 48.5752C200.915 49.2789 202.195 46.7749 199.27 45.0111Z" fill="#7F7F7F"/>
<path d="M276.275 48.9407C274.895 49.224 273.542 49.617 272.482 50.1471C268.955 51.9291 268.744 54.2961 272.601 54.7074C274.292 54.8901 277.116 54.6708 279.921 54.5429C278.898 52.6328 277.682 50.7594 276.275 48.9407Z" fill="#7F7F7F"/>
<path d="M281.248 57.2662C280.179 57.1749 279.173 57.1474 278.388 57.2206C274.979 57.5313 275.034 60.346 278.287 61.132C279.484 61.4244 281.339 62.0642 283.195 62.7587C282.692 60.9218 282.052 59.0849 281.248 57.2662Z" fill="#7F7F7F"/>
<path d="M278.726 52.0297C283.615 59.9988 284.337 68.7264 283.661 76.202C282.144 92.9171 272.274 111.487 230.216 105.483C188.342 99.5062 183.581 81.3198 185.701 63.8463C186.761 55.1186 190.471 46.4001 197.901 39.8201" stroke="black" stroke-width="2.5924" stroke-miterlimit="10" stroke-linecap="round" stroke-linejoin="round"/>
<path d="M221.597 29.1368C227.829 28.2229 234.775 28.3508 242.369 29.813C248.456 30.9828 253.756 32.6735 258.353 34.7572" stroke="black" stroke-width="2.5924" stroke-miterlimit="10" stroke-linecap="round" stroke-linejoin="round"/>
<path d="M247.88 73.9721C247.222 80.8537 242.214 84.8474 233.55 83.6411C224.887 82.4347 221.459 77.2713 222.483 70.6639C223.443 64.486 229.703 60.2364 236.676 61.2142C243.658 62.1738 248.474 67.7394 247.88 73.9721Z" fill="white"/>
<path d="M227.382 57.4105C227.712 55.0411 226.262 52.8807 224.143 52.5851C222.023 52.2896 220.037 53.9708 219.707 56.3403C219.376 58.7097 220.827 60.8701 222.946 61.1656C225.066 61.4612 227.052 59.7799 227.382 57.4105Z" fill="black"/>
<path d="M254.109 61.1385C254.439 58.7691 252.989 56.6087 250.869 56.3131C248.75 56.0176 246.764 57.6988 246.433 60.0683C246.103 62.4377 247.553 64.5981 249.673 64.8936C251.792 65.1892 253.778 63.508 254.109 61.1385Z" fill="black"/>
<path d="M239.246 63.9987C239.407 62.849 238.268 61.7401 236.704 61.5219C235.139 61.3037 233.741 62.0589 233.58 63.2087C233.42 64.3584 234.558 65.4673 236.123 65.6855C237.688 65.9036 239.086 65.1485 239.246 63.9987Z" fill="#C22B3A"/>
<path d="M244.782 70.1703C242.049 72.5008 237.8 72.0804 235.552 68.7904C232.81 71.2122 227.509 70.8192 226.267 67.7851" stroke="black" stroke-width="2.5924" stroke-miterlimit="10" stroke-linecap="round" stroke-linejoin="round"/>
<path d="M240.715 71.6326C238.778 71.6051 236.841 70.673 235.552 68.7904C234.199 69.9876 232.225 70.4902 230.425 70.3348C230.297 73.8259 230.617 80.1134 234.602 80.5338C238.285 80.9359 239.994 75.3978 240.715 71.6326Z" fill="#FF835D" stroke="black" stroke-width="2.5924" stroke-miterlimit="10" stroke-linecap="round" stroke-linejoin="round"/>
<path d="M176.498 52.1119C176.498 52.1119 191.212 54.3236 196.686 57.5039" stroke="black" stroke-width="2.5924" stroke-miterlimit="10" stroke-linecap="round" stroke-linejoin="round"/>
<path d="M175.464 67.3099C175.464 67.3099 187.957 64.486 195.021 66.4966" stroke="black" stroke-width="2.5924" stroke-miterlimit="10" stroke-linecap="round" stroke-linejoin="round"/>
<path d="M294.645 69.9053C294.645 69.9053 279.931 67.6937 273.763 69.1103" stroke="black" stroke-width="2.5924" stroke-miterlimit="10" stroke-linecap="round" stroke-linejoin="round"/>
<path d="M291.154 84.7378C291.154 84.7378 280.05 78.3679 272.702 78.1943" stroke="black" stroke-width="2.5924" stroke-miterlimit="10" stroke-linecap="round" stroke-linejoin="round"/>
<path d="M211.508 101.389C211.508 101.389 197.416 86.593 186.075 87.1504C174.395 87.7262 174.487 99.9175 180.034 103.92C185.59 107.923 200.843 122.326 200.843 122.326" fill="#ACA8A9"/>
<path d="M186.075 87.1505C174.395 87.7262 174.487 99.9175 180.034 103.92C181.496 104.971 183.635 106.753 185.993 108.8C188.003 103.774 192.015 95.1561 197.453 90.4587C193.761 88.4208 189.776 86.9677 186.075 87.1505Z" fill="white"/>
<path d="M211.508 101.389C211.508 101.389 197.416 86.593 186.075 87.1504C174.395 87.7262 174.487 99.9175 180.034 103.92C185.59 107.923 200.843 122.326 200.843 122.326" stroke="black" stroke-width="2.5924" stroke-miterlimit="10" stroke-linecap="round" stroke-linejoin="round"/>
<path d="M231.413 141.417C239.145 141.417 245.414 134.441 245.414 125.835C245.414 117.23 239.145 110.254 231.413 110.254C223.68 110.254 217.412 117.23 217.412 125.835C217.412 134.441 223.68 141.417 231.413 141.417Z" fill="white"/>
<path d="M113.765 115.691C117.43 119.831 124.85 129.811 127.217 141.298C130.315 156.396 128.149 161.175 123.626 162.117C119.102 163.049 117.091 157.063 114.889 148.235C112.686 139.407 107.084 108.152 113.765 115.691Z" fill="#575552"/>
<path d="M128.524 149.88C129.228 158.324 127.135 161.386 123.616 162.117C119.677 162.93 117.64 158.498 115.729 151.516C120.07 150.958 125.133 150.309 128.524 149.88Z" fill="#EEA865"/>
<path d="M113.765 115.691C117.43 119.831 124.85 129.811 127.217 141.298C130.315 156.396 128.149 161.175 123.626 162.117C119.102 163.049 117.091 157.063 114.889 148.235C112.686 139.407 107.084 108.152 113.765 115.691Z" stroke="black" stroke-width="2.5924" stroke-miterlimit="10" stroke-linecap="round" stroke-linejoin="round"/>
<path d="M113.463 114.32C113.463 114.32 120.627 155.994 122.446 167.509C124.265 179.024 125.7 190.402 126.083 194.743C126.467 199.074 127.025 206.194 120.079 207.08C113.134 207.967 109.99 199.604 108.637 195.748C107.285 191.891 105.265 186.892 104.397 186.828L102.405 187.084C101.582 187.367 100.878 192.714 100.54 196.79C100.202 200.866 99.2699 209.749 92.3152 210.635C85.3605 211.522 84.1176 204.494 83.3956 200.208C82.6737 195.921 81.2023 184.534 80.0691 172.937C78.9359 161.34 75.6367 119.109 75.6367 119.109L113.463 114.32Z" fill="#575552"/>
<path d="M91.9332 210.288C97.0327 209.639 98.8879 204.695 99.6555 200.491C93.0298 201.341 87.2632 202.072 83.5254 202.529C84.4119 206.541 86.3036 211.01 91.9332 210.288Z" fill="#EEA865"/>
<path d="M109.752 199.193C111.552 203.068 114.596 207.391 119.695 206.742C125.325 206.02 126.028 201.222 125.891 197.119C120.664 197.786 115.126 198.508 109.752 199.193Z" fill="#EEA865"/>
<path d="M79.2475 133.868C80.6457 131.739 83.6707 132.095 86.1108 133.731C88.5509 135.367 89.9034 136.5 89.8212 139.489C89.7389 142.477 89.3642 146.8 85.8366 147.622C82.3181 148.445 80.664 142.797 79.9603 140.933C79.2566 139.068 78.1782 135.504 79.2475 133.868Z" fill="#EEA865"/>
<path d="M113.519 129.491C111.627 127.782 108.794 128.888 106.848 131.09C104.901 133.293 103.868 134.727 104.7 137.588C105.532 140.458 106.985 144.543 110.595 144.46C114.204 144.369 114.387 138.493 114.597 136.51C114.808 134.526 114.972 130.807 113.519 129.491Z" fill="#EEA865"/>
<path d="M116.625 132.022C118.59 144.799 121.049 160.728 122.072 167.18C123.891 178.695 125.326 190.073 125.71 194.414C126.093 198.745 126.651 205.865 119.705 206.751C112.76 207.638 109.616 199.275 108.263 195.419C106.911 191.562 104.891 186.563 104.023 186.499L102.031 186.755C101.208 187.038 100.504 192.385 100.166 196.461C99.8282 200.537 98.896 209.42 91.9413 210.306C84.9866 211.193 83.7437 204.165 83.0218 199.879C82.2998 195.592 80.8284 184.205 79.6952 172.608C79.0738 166.266 77.6024 153.901 76.3047 141.198" stroke="black" stroke-width="2.5924" stroke-miterlimit="10" stroke-linecap="round" stroke-linejoin="round"/>
<path d="M85.6264 127.608C67.9244 120.791 59.8639 104.697 57.4146 95.7867C54.9563 86.8762 56.4551 72.1992 59.5349 59.0118C59.5349 59.0118 55.0385 55.7949 55.7148 46.2265C56.3911 36.6581 59.8273 25.865 61.6642 24.3114C63.5011 22.7578 66.0509 22.4379 67.111 26.9708C68.7286 33.9164 74.1662 47.0216 74.1114 50.8233C74.1114 50.8233 85.1329 43.3294 97.772 47.7984C96.7576 44.1245 98.7316 30.0689 98.5488 22.9497C98.43 18.298 100.98 17.969 103.155 19.0109C105.33 20.0436 111.371 29.6303 114.423 38.7234C117.485 47.8166 113.939 52.0571 113.939 52.0571C113.939 52.0571 126.212 74.1549 124.668 87.0499C122.886 101.901 116.58 117.062 105.659 125.049C103.118 126.914 87.9751 128.778 85.6264 127.608Z" fill="#575552"/>
<path d="M124.394 88.9782C121.872 94.9733 118.308 100.237 113.446 100.859C101.684 102.358 101.766 91.4183 90.7172 92.8348C79.6683 94.2422 81.0848 105.236 72.1836 106.37C67.34 106.991 62.2313 102.988 58.4844 99.1041C61.8383 108.261 69.9445 121.577 85.6269 127.608C87.9756 128.769 103.11 126.905 105.65 125.049C116.096 117.409 122.32 103.198 124.394 88.9782Z" fill="#EEA865"/>
<path d="M85.6264 127.608C67.9244 120.791 59.8639 104.697 57.4146 95.7867C54.9563 86.8762 56.4551 72.1992 59.5349 59.0118C59.5349 59.0118 55.0385 55.7949 55.7148 46.2265C56.3911 36.6581 59.8273 25.865 61.6642 24.3114C63.5011 22.7578 66.0509 22.4379 67.111 26.9708C68.7286 33.9164 74.1662 47.0216 74.1114 50.8233C74.1114 50.8233 85.1329 43.3294 97.772 47.7984C96.7576 44.1245 98.7316 30.0689 98.5488 22.9497C98.43 18.298 100.98 17.969 103.155 19.0109C105.33 20.0436 111.371 29.6303 114.423 38.7234C117.485 47.8166 113.939 52.0571 113.939 52.0571C113.939 52.0571 126.212 74.1549 124.668 87.0499C122.886 101.901 116.58 117.062 105.659 125.049C103.118 126.914 87.9751 128.778 85.6264 127.608Z" stroke="black" stroke-width="2.5924" stroke-miterlimit="10" stroke-linecap="round" stroke-linejoin="round"/>
<path d="M68.1535 52.7334C68.5647 46.848 62.597 39.5186 62.597 39.5186C61.281 39.153 60.7236 40.9168 60.1935 43.8687C59.7548 46.3362 59.5172 51.1889 63.2733 55.3654C63.2733 55.3654 64.3882 54.6617 65.7225 53.7661C67.0477 52.8796 68.1535 52.7334 68.1535 52.7334Z" fill="#EEA865"/>
<path d="M104.004 48.1548C102.121 42.5618 106.06 33.9621 106.06 33.9621C107.239 33.2766 108.226 34.8394 109.478 37.5719C110.529 39.8475 111.973 44.4901 109.396 49.4799C109.396 49.4799 108.135 49.0778 106.627 48.5477C105.11 48.0177 104.004 48.1548 104.004 48.1548Z" fill="#EEA865"/>
<path d="M68.1521 52.7333C68.5634 46.8479 62.5957 39.5185 62.5957 39.5185" stroke="black" stroke-width="2.5924" stroke-miterlimit="10" stroke-linecap="round" stroke-linejoin="round"/>
<path d="M104.004 48.1548C102.121 42.5618 106.06 33.9621 106.06 33.9621" stroke="black" stroke-width="2.5924" stroke-miterlimit="10" stroke-linecap="round" stroke-linejoin="round"/>
<path d="M78.1174 91.5944C80.0548 91.347 81.4134 89.4864 81.1519 87.4388C80.8903 85.3912 79.1077 83.9319 77.1702 84.1794C75.2327 84.4269 73.8741 86.2874 74.1357 88.335C74.3972 90.3826 76.1799 91.8419 78.1174 91.5944Z" fill="black"/>
<path d="M103.212 88.3866C105.15 88.1391 106.508 86.2785 106.247 84.2309C105.985 82.1833 104.202 80.724 102.265 80.9715C100.327 81.219 98.9689 83.0795 99.2304 85.1271C99.492 87.1748 101.275 88.6341 103.212 88.3866Z" fill="black"/>
<path d="M96.9028 76.6864C96.391 75.5166 97.2501 74.0087 98.9499 72.9943C100.65 71.9799 102.77 71.989 103.382 73.1679C103.995 74.3469 103.83 75.7999 101.5 77.2439C99.1601 78.6878 97.3141 77.6094 96.9028 76.6864Z" fill="#EEA865"/>
<path d="M81.2945 78.6787C81.4955 77.4175 80.2892 76.1746 78.3883 75.6172C76.4874 75.0597 74.4403 75.608 74.1479 76.9058C73.8554 78.2035 74.3763 79.5652 76.9901 80.3785C79.6129 81.1827 81.1391 79.6748 81.2945 78.6787Z" fill="#EEA865"/>
<path d="M91.9338 101.569C94.2117 101.278 95.8758 99.6131 95.6507 97.8509C95.4256 96.0886 93.3966 94.8959 91.1186 95.1869C88.8407 95.4779 87.1766 97.1423 87.4017 98.9046C87.6268 100.667 89.6559 101.86 91.9338 101.569Z" fill="black"/>
<path d="M83.9727 108.663C86.4036 111.707 91.3843 111.643 93.6599 107.667C96.8493 110.857 102.04 106.68 103.466 103.801" stroke="black" stroke-width="2.5924" stroke-miterlimit="10" stroke-linecap="round" stroke-linejoin="round"/>
<path d="M146.449 170.004C146.449 170.004 142.537 172.215 140.837 175.167C139.649 177.233 140.81 178.85 142.281 179.271C146.147 180.385 156.026 179.764 156.812 175.734C157.863 170.351 153.824 168.085 153.824 168.085L146.449 170.004Z" fill="#FBC9C1" stroke="black" stroke-width="2.5924" stroke-miterlimit="10" stroke-linecap="round" stroke-linejoin="round"/>
<path d="M191.951 169.803C191.951 169.803 195.881 171.978 197.599 174.92C198.796 176.977 197.663 178.603 196.191 179.033C192.335 180.175 182.456 179.645 181.624 175.615C180.527 170.241 184.549 167.947 184.549 167.947L191.951 169.803Z" fill="#FBC9C1" stroke="black" stroke-width="2.5924" stroke-miterlimit="10" stroke-linecap="round" stroke-linejoin="round"/>
<path d="M144.291 97.6145C131.524 124.876 129.121 148.262 133.425 160.033C137.73 171.804 145.754 171.438 153.933 169.766C162.112 168.094 169.963 167.244 179.796 169.163C188.953 170.954 198.96 172.517 203.649 158.745C208.337 144.972 198.841 106.214 191.11 96.92C183.369 87.6257 148.669 88.2654 144.291 97.6145Z" fill="white" stroke="black" stroke-width="2.5924" stroke-miterlimit="10" stroke-linecap="round" stroke-linejoin="round"/>
<path d="M143.771 99.3874C126.343 93.5842 128.554 78.9712 135.546 70.079C135.226 66.5697 137.337 61.9728 139.503 57.9608C130.985 48.036 144.127 37.0785 151.31 47.0125C151.31 47.0125 166.965 37.3252 184.813 46.8662C191.914 36.8683 205.147 47.707 196.721 57.7141C196.721 57.7141 200.925 63.3802 201.117 70.7187C207.715 76.0376 210.238 94.6718 192.38 99.488C174.185 104.386 155.094 103.153 143.771 99.3874Z" fill="white"/>
<path d="M143.771 99.3874C126.343 93.5842 128.554 78.9712 135.546 70.079C135.226 66.5697 137.337 61.9728 139.503 57.9608C130.985 48.036 144.127 37.0785 151.31 47.0125C151.31 47.0125 166.965 37.3252 184.813 46.8662C191.914 36.8683 205.147 47.707 196.721 57.7141C196.721 57.7141 200.925 63.3802 201.117 70.7187C207.715 76.0376 210.238 94.6718 192.38 99.488" stroke="black" stroke-width="2.5924" stroke-miterlimit="10" stroke-linecap="round" stroke-linejoin="round"/>
<path d="M142.893 53.4097C140.507 50.4213 143.861 46.784 146.877 49.7632C148.011 51.0153 144.647 54.7805 142.893 53.4097Z" fill="#FBC9C1"/>
<path d="M193.284 53.1904C195.642 50.1837 192.252 46.5738 189.272 49.5805C188.148 50.8417 191.539 54.5795 193.284 53.1904Z" fill="#FBC9C1"/>
<path d="M128.207 74.5205C128.207 74.5205 136.45 71.8885 143.588 75.471" stroke="black" stroke-width="2.5924" stroke-miterlimit="10" stroke-linecap="round" stroke-linejoin="round"/>
<path d="M126.104 84.3631C126.104 84.3631 134.119 80.936 142.71 81.8042" stroke="black" stroke-width="2.5924" stroke-miterlimit="10" stroke-linecap="round" stroke-linejoin="round"/>
<path d="M209.607 74.1732C209.607 74.1732 201.345 71.6052 194.235 75.2608" stroke="black" stroke-width="2.5924" stroke-miterlimit="10" stroke-linecap="round" stroke-linejoin="round"/>
<path d="M211.792 83.9976C211.792 83.9976 203.75 80.6436 195.159 81.5849" stroke="black" stroke-width="2.5924" stroke-miterlimit="10" stroke-linecap="round" stroke-linejoin="round"/>
<path d="M158.624 75.097C160.139 75.0905 161.361 73.8619 161.354 72.3527C161.348 70.8436 160.115 69.6255 158.601 69.6319C157.087 69.6384 155.865 70.8671 155.871 72.3762C155.878 73.8853 157.11 75.1035 158.624 75.097Z" fill="black"/>
<path d="M177.469 75.0148C178.983 75.0083 180.206 73.7796 180.199 72.2705C180.193 70.7614 178.96 69.5432 177.446 69.5497C175.932 69.5562 174.709 70.7849 174.716 72.294C174.722 73.8031 175.955 75.0213 177.469 75.0148Z" fill="black"/>
<path d="M167.841 77.2356C168.881 77.2312 169.721 76.577 169.718 75.7745C169.714 74.972 168.869 74.325 167.829 74.3295C166.789 74.3339 165.949 74.9881 165.953 75.7906C165.956 76.5931 166.802 77.2401 167.841 77.2356Z" fill="#F99998"/>
<path d="M159.883 80.4242C161.647 82.7272 165.942 82.4713 167.843 80.0678C170.722 83.239 174.935 81.9504 176.278 80.0312" stroke="black" stroke-width="2.5924" stroke-miterlimit="10" stroke-linecap="round" stroke-linejoin="round"/>
<path d="M167.842 80.0678C166.965 81.1736 165.576 81.8225 164.159 81.9687C164.232 84.3814 164.835 88.5122 168.071 88.4939C170.812 88.4848 171.425 84.3357 171.543 81.9596C170.273 81.8499 168.957 81.3016 167.842 80.0678Z" fill="#FF8053" stroke="black" stroke-width="2.5924" stroke-miterlimit="10" stroke-linecap="round" stroke-linejoin="round"/>
<path d="M163.93 107.028C164.743 107.293 165.703 107.137 166.187 106.434L169.687 101.334C170.172 100.63 169.971 99.6799 169.422 99.0128C167.942 97.1941 167.759 94.553 169.157 92.5241C170.848 90.0566 174.22 89.4261 176.688 91.1168C177.556 91.7108 178.187 92.5059 178.58 93.4015C179.046 94.4707 180.362 95.3663 181.522 95.4212C182.5 95.4669 183.469 95.7685 184.337 96.3625C186.805 98.0532 187.435 101.425 185.744 103.893C184.355 105.922 181.824 106.708 179.594 105.977C178.781 105.712 177.821 105.867 177.337 106.571L173.836 111.67C173.352 112.374 173.553 113.324 174.102 113.991C175.582 115.81 175.765 118.451 174.367 120.48C172.676 122.947 169.304 123.578 166.836 121.887C165.968 121.293 165.337 120.498 164.944 119.603C164.478 118.533 163.162 117.638 162.002 117.583C161.024 117.537 160.055 117.236 159.187 116.642C156.719 114.951 156.089 111.579 157.779 109.111C159.169 107.092 161.7 106.306 163.93 107.028Z" fill="#E3B04D" stroke="black" stroke-width="2.5924" stroke-miterlimit="10" stroke-linecap="round" stroke-linejoin="round"/>
<path d="M145.478 110.491C146.09 110.29 161.37 100.914 164.432 106.415C167.356 111.679 163.819 113.544 160.767 115.993C157.715 118.442 153.428 122.92 153.428 122.92" fill="white"/>
<path d="M164.432 106.415C163.153 104.112 159.726 104.423 156.125 105.565C156.783 108.718 158.364 113.16 162.193 114.878C164.761 112.886 166.9 110.866 164.432 106.415Z" fill="#FBC9C1"/>
<path d="M145.478 110.491C146.09 110.29 161.37 100.914 164.432 106.415C167.356 111.679 163.819 113.544 160.767 115.993C157.715 118.442 153.428 122.92 153.428 122.92" stroke="black" stroke-width="2.5924" stroke-miterlimit="10" stroke-linecap="round" stroke-linejoin="round"/>
<path d="M192.453 112.767C191.886 112.456 178.552 100.475 174.55 105.337C170.72 109.979 173.864 112.465 176.423 115.417C178.991 118.378 182.382 123.56 182.382 123.56" fill="white"/>
<path d="M175.984 114.914C179.841 113.224 181.449 108.782 182.116 105.611C179.046 104.094 176.094 103.445 174.549 105.328C170.94 109.714 173.526 112.173 175.984 114.914Z" fill="#FBC9C1"/>
<path d="M192.453 112.767C191.886 112.456 178.552 100.475 174.55 105.337C170.72 109.979 173.864 112.465 176.423 115.417C178.991 118.378 182.382 123.56 182.382 123.56" stroke="black" stroke-width="2.5924" stroke-miterlimit="10" stroke-linecap="round" stroke-linejoin="round"/>
<path d="M54.8126 217.023C54.8126 217.023 41.2962 230.704 39.971 244.604C38.6459 258.505 115.577 252.811 123.281 248.881C129.075 245.92 123.053 222.47 116.856 212.107C112.324 204.54 55.9184 215.095 54.8126 217.023Z" fill="#FFE9A7" stroke="black" stroke-width="2.5924" stroke-miterlimit="10" stroke-linecap="round" stroke-linejoin="round"/>
<path d="M56.9047 221.565C55.0952 221.364 53.6421 220.834 52.5545 220.258C50.809 219.335 49.9591 218.303 49.9591 218.303C46.596 218.522 39.4768 215.707 36.068 205.526C36.068 205.526 34.5875 209.493 30.6486 210.151C23.5112 211.348 20.5776 203.068 18.503 192.504C16.529 196.726 12.6359 192.933 13.8331 181.701C9.31846 184.708 8.37715 179.901 10.735 172.261C12.773 165.653 20.5136 149.724 26.2071 146.005C32.3576 141.984 36.79 139.781 40.0891 136.555C39.029 130.387 57.7546 127.499 57.7546 127.499C56.1278 121.787 65.55 121.988 71.7188 124.574L71.472 124.611C76.6903 120.425 85.6922 117.647 85.7013 123.587C85.7013 123.587 104.5 121.211 105.176 127.435C109.234 129.628 114.105 130.533 121.124 132.708C127.621 134.718 139.447 147.915 143.221 153.7C147.581 160.389 148.001 165.27 142.838 163.625C147.069 174.089 144.373 178.814 141.311 175.295C142.225 186.024 141.65 194.596 134.485 195.602C129.833 196.251 127.685 193.006 127.685 193.006C129.467 202.83 123.189 207.491 118.4 209.109C118.4 209.109 114.845 215.241 107.763 215.936" fill="#FFE9A7"/>
<path d="M56.9047 221.565C55.0952 221.364 53.6421 220.834 52.5545 220.258C50.809 219.335 49.9591 218.303 49.9591 218.303C46.596 218.522 39.4768 215.707 36.068 205.526C36.068 205.526 34.5875 209.493 30.6486 210.151C23.5112 211.348 20.5776 203.068 18.503 192.504C16.529 196.726 12.6359 192.933 13.8331 181.701C9.31846 184.708 8.37715 179.901 10.735 172.261C12.773 165.653 20.5136 149.724 26.2071 146.005C32.3576 141.984 36.79 139.781 40.0891 136.555C39.029 130.387 57.7546 127.499 57.7546 127.499C56.1278 121.787 65.55 121.988 71.7188 124.574L71.472 124.611C76.6903 120.425 85.6922 117.647 85.7013 123.587C85.7013 123.587 104.5 121.211 105.176 127.435C109.234 129.628 114.105 130.533 121.124 132.708C127.621 134.718 139.447 147.915 143.221 153.7C147.581 160.389 148.001 165.27 142.838 163.625C147.069 174.089 144.373 178.814 141.311 175.295C142.225 186.024 141.65 194.596 134.485 195.602C129.833 196.251 127.685 193.006 127.685 193.006C129.467 202.83 123.189 207.491 118.4 209.109C118.4 209.109 114.845 215.241 107.763 215.936" stroke="black" stroke-width="2.5924" stroke-miterlimit="10" stroke-linecap="round" stroke-linejoin="round"/>
<path d="M35.8018 206.084C35.8018 206.084 40.6728 195.976 39.2563 185.914C37.8123 175.633 37.4559 168.569 38.8998 166.906" stroke="black" stroke-width="2.5924" stroke-miterlimit="10" stroke-linecap="round" stroke-linejoin="round"/>
<path d="M127.822 193.18C127.822 193.18 120.365 184.799 118.957 174.738C117.513 164.456 115.923 157.566 114.077 156.359" stroke="black" stroke-width="2.5924" stroke-miterlimit="10" stroke-linecap="round" stroke-linejoin="round"/>
<path d="M58.6143 176.492C58.6143 176.492 62.809 173.23 66.693 172.8" stroke="black" stroke-width="2.5924" stroke-miterlimit="10" stroke-linecap="round" stroke-linejoin="round"/>
<path d="M99.4084 170.771C99.4084 170.771 94.4826 168.788 90.626 169.446" stroke="black" stroke-width="2.5924" stroke-miterlimit="10" stroke-linecap="round" stroke-linejoin="round"/>
<path d="M66.584 190.246C70.1207 193.116 78.5285 191.709 81.1605 187.276C84.085 190.703 91.7982 190.201 95.9564 185.896" stroke="black" stroke-width="2.5924" stroke-miterlimit="10" stroke-linecap="round" stroke-linejoin="round"/>
<path d="M79.9309 182.267C82.735 181.874 84.8008 180.076 84.5451 178.252C84.2894 176.427 81.809 175.267 79.0049 175.66C76.2009 176.053 74.135 177.851 74.3907 179.675C74.6464 181.499 77.1269 182.66 79.9309 182.267Z" fill="black"/>
<path d="M290.585 197.713C290.585 197.713 302.74 220.569 298.929 246.862C295.118 273.163 217.31 259.016 214.952 244.687C212.594 230.357 217.31 187.733 227.829 187.011C238.347 186.289 287.506 194.633 290.585 197.713Z" fill="#EDAD32"/>
<path d="M227.837 187.02C217.319 187.742 212.603 230.366 214.961 244.696C216.158 251.979 236.858 259.217 257.429 261.118C273.596 242.009 260.427 197.795 260.427 197.795L259.76 190.566C246.444 188.364 232.809 186.673 227.837 187.02Z" fill="white"/>
<path d="M290.585 197.713C290.585 197.713 302.74 220.569 298.929 246.862C295.118 273.163 217.31 259.016 214.952 244.687C212.594 230.357 217.31 187.733 227.829 187.011C238.347 186.289 287.506 194.633 290.585 197.713Z" stroke="black" stroke-width="2.5924" stroke-miterlimit="10" stroke-linecap="round" stroke-linejoin="round"/>
<path d="M251.591 96.2164C256.672 97.6055 259.678 121.878 259.678 121.878C259.678 121.878 273.551 117.026 289.727 127.197C294.808 122.345 315.152 111.944 321.631 116.56C328.101 121.184 310.765 160.481 310.765 160.481C310.765 160.481 321.165 197.695 294.58 203.251C265.911 209.237 228.926 198.627 215.519 180.824C203.328 164.63 211.59 142.679 222.913 141.299C222.922 141.289 241.501 93.4656 251.591 96.2164Z" fill="#EDAD32"/>
<path d="M215.529 180.815C228.936 198.617 265.921 209.219 294.59 203.242C318.415 198.27 312.529 167.865 311.058 161.605C303.308 155.975 291.464 160.828 282.801 164.173C272.629 168.103 271.011 163.478 270.545 158.397C270.079 153.316 270.317 149.149 267.767 147.997C262.768 145.722 261.991 155.391 257.367 159.558C252.743 163.725 245.112 159.558 240.488 153.316C235.863 147.074 229.393 139.909 222.923 141.298C211.6 142.678 203.329 164.63 215.529 180.815Z" fill="white"/>
<path d="M215.528 180.815C203.337 164.621 211.598 142.669 222.921 141.289C222.921 141.289 241.501 93.4654 251.59 96.2071C256.671 97.5962 259.678 121.869 259.678 121.869C259.678 121.869 273.551 117.016 289.727 127.188C294.808 122.335 315.151 111.935 321.631 116.55C328.101 121.175 310.764 160.472 310.764 160.472C310.764 160.472 321.165 197.685 294.58 203.242C293.19 203.534 291.774 203.781 290.348 204" stroke="black" stroke-width="2.5924" stroke-miterlimit="10" stroke-linecap="round" stroke-linejoin="round"/>
<path d="M275.352 159.978C275.352 159.978 278.002 157.392 281.804 159.028" stroke="black" stroke-width="2.5924" stroke-miterlimit="10" stroke-linecap="round" stroke-linejoin="round"/>
<path d="M252.404 158.269C254.464 158.269 256.133 156.6 256.133 154.541C256.133 152.481 254.464 150.812 252.404 150.812C250.345 150.812 248.676 152.481 248.676 154.541C248.676 156.6 250.345 158.269 252.404 158.269Z" fill="black"/>
<path d="M267.701 162.625C267.903 161.15 266.405 159.726 264.355 159.445C262.305 159.163 260.479 160.131 260.277 161.606C260.074 163.081 261.572 164.505 263.622 164.786C265.672 165.068 267.498 164.1 267.701 162.625Z" fill="black"/>
<path d="M296.088 132.717C296.444 132.169 301.142 126.64 303.536 127.846C304.852 128.513 304.77 129.655 304.77 129.655C304.77 129.655 312.273 123.587 315.152 125.762C317.729 127.709 310.326 145.475 306.771 148.911C306.771 148.92 304.267 139.324 296.088 132.717Z" fill="white"/>
<path d="M296.088 132.717C296.444 132.169 301.142 126.64 303.536 127.846C304.852 128.513 304.77 129.655 304.77 129.655C304.77 129.655 312.273 123.587 315.152 125.762" stroke="black" stroke-width="2.5924" stroke-miterlimit="10" stroke-linecap="round" stroke-linejoin="round"/>
<path d="M252.696 124.675C252.87 124.072 254.094 117.026 252.166 115.792C251.106 115.115 250.411 115.856 250.411 115.856C250.411 115.856 250.613 106.223 247.834 105.163C245.339 104.213 237.644 120.617 237.188 125.506C237.187 125.506 244.508 121.915 252.696 124.675Z" fill="white"/>
<path d="M252.697 123.194C252.87 122.591 254.095 117.026 252.167 115.792C251.107 115.115 250.412 115.856 250.412 115.856C250.412 115.856 250.613 106.223 247.835 105.163" stroke="black" stroke-width="2.5924" stroke-miterlimit="10" stroke-linecap="round" stroke-linejoin="round"/>
<path d="M273.451 170.022C272.162 171.055 268.562 172.983 263.416 167.838C255.054 171.959 251.188 166.805 251.188 166.805" stroke="black" stroke-width="2.5924" stroke-miterlimit="10" stroke-linecap="round" stroke-linejoin="round"/>
<path d="M268.443 171.036C267.008 170.662 265.317 169.729 263.416 167.838C260.775 169.135 258.582 169.51 256.827 169.419C256.864 173.275 257.604 182.286 263.681 181.994C267.556 181.802 268.315 174.902 268.443 171.036Z" fill="#FF835D" stroke="black" stroke-width="2.5924" stroke-miterlimit="10" stroke-linecap="round" stroke-linejoin="round"/>
<path d="M249.634 165.005C249.634 165.005 252.43 167.189 252.869 173.093" stroke="black" stroke-width="2.5924" stroke-miterlimit="10" stroke-linecap="round" stroke-linejoin="round"/>
<path d="M276.786 205.097C276.192 205.097 270.087 204.11 262.201 201.551C254.314 198.992 243.676 194.057 238.156 203.324C233.596 210.973 238.357 218.897 245.65 223.037C252.943 227.177 265.554 228.95 265.554 228.95" fill="#EDAD32"/>
<path d="M238.156 203.315C233.596 210.964 238.357 218.888 245.65 223.027C245.65 223.027 246.674 223.85 251.06 216.009C255.447 208.168 257.832 203.735 257.558 199.97C250.53 197.64 242.652 195.784 238.156 203.315Z" fill="white"/>
<path d="M276.786 205.097C276.192 205.097 271.815 205.225 262.201 201.551C254.46 198.59 243.676 194.057 238.156 203.324C233.596 210.973 238.357 218.897 245.65 223.037C252.943 227.176 265.554 228.949 265.554 228.949" stroke="black" stroke-width="2.5924" stroke-miterlimit="10" stroke-linecap="round" stroke-linejoin="round"/>
<path d="M141.108 212.07C131.558 218.568 123.699 228.885 119.97 240.044C116.241 251.203 115.227 263.604 127.857 266.757C140.487 269.901 144.289 244.22 145.349 240.519C146.811 235.401 150.887 205.417 141.108 212.07Z" fill="#848484"/>
<path d="M118.124 246.944C116.406 255.882 117.814 264.244 127.857 266.748C135.214 268.585 139.583 260.625 142.151 252.93L118.124 246.944Z" fill="white"/>
<path d="M141.108 212.07C131.558 218.568 123.699 228.885 119.97 240.044C116.241 251.203 115.227 263.604 127.857 266.757C140.487 269.901 144.289 244.22 145.349 240.519C146.811 235.401 150.887 205.417 141.108 212.07Z" stroke="black" stroke-width="2.5924" stroke-miterlimit="10" stroke-linecap="round" stroke-linejoin="round"/>
<path d="M137.464 211.851C137.464 211.851 135.087 252.775 135.809 258.011C136.522 263.248 204.196 263.97 204.671 257.536C205.146 251.102 204.196 216.566 200.622 209.182C197.049 201.798 139.593 205.225 137.464 211.851Z" fill="#848484"/>
<path d="M185.469 261.758C186.849 258.742 187.644 255.315 187.644 251.687C187.644 239.514 178.853 229.653 168.005 229.653C157.157 229.653 148.365 239.514 148.365 251.687C148.365 255.169 149.087 258.459 150.367 261.383C160.593 262.233 174.356 262.398 185.469 261.758Z" fill="white"/>
<path d="M138.788 231.417C133.031 244.815 133.25 256.86 135.809 258.011C140.634 260.177 204.195 263.97 204.67 257.536C205.146 251.102 204.195 216.566 200.622 209.182C197.049 201.798 139.602 205.225 137.463 211.851" stroke="black" stroke-width="2.5924" stroke-miterlimit="10" stroke-linecap="round" stroke-linejoin="round"/>
<path d="M117.457 154.084C112.367 143.976 108.474 110.363 119.605 103.902C130.736 97.45 148.319 115.746 148.319 115.746C148.319 115.746 157.815 123.761 136.219 141.052C118.225 155.445 117.457 154.084 117.457 154.084Z" fill="#848484" stroke="black" stroke-width="2.5924" stroke-miterlimit="10" stroke-linecap="round" stroke-linejoin="round"/>
<path d="M123.369 112.1C127.207 108.627 136.172 116.349 138.704 119.365C139.225 119.986 145.192 127.087 136.035 134.088C131.466 137.579 122.528 138.401 122.528 138.401C122.528 138.401 118.571 116.441 123.369 112.1Z" fill="white"/>
<path d="M123.371 112.1C127.209 108.627 138.267 118.652 140.808 121.668" stroke="black" stroke-width="2.5924" stroke-miterlimit="10" stroke-linecap="round" stroke-linejoin="round"/>
<path d="M220.782 154.084C225.872 143.976 229.765 110.363 218.634 103.902C207.503 97.45 189.92 115.746 189.92 115.746C189.92 115.746 180.424 123.761 202.02 141.052C220.005 155.445 220.782 154.084 220.782 154.084Z" fill="#848484" stroke="black" stroke-width="2.5924" stroke-miterlimit="10" stroke-linecap="round" stroke-linejoin="round"/>
<path d="M214.86 112.1C211.022 108.627 202.057 116.349 199.525 119.365C199.004 119.986 194.426 123.441 197.698 128.166C207.394 142.167 215.491 140.969 215.491 140.969C215.491 140.969 219.658 116.441 214.86 112.1Z" fill="white"/>
<path d="M214.86 112.1C211.022 108.627 199.708 118.049 197.167 121.074" stroke="black" stroke-width="2.5924" stroke-miterlimit="10" stroke-linecap="round" stroke-linejoin="round"/>
<path d="M210.583 135.23C210.583 135.23 225.351 147.12 225.534 169.455C236.702 181.528 231.301 189.268 225.534 188.19C227.517 198.819 220.855 200.262 217.967 200.08C215.088 208.542 199.031 220.021 174.018 220.021H162.494C138.413 220.021 121.424 208.551 118.545 200.08C115.666 200.262 108.995 198.819 110.978 188.19C105.211 189.268 99.8104 181.528 110.978 169.455C111.161 147.12 125.929 135.23 125.929 135.23C125.929 135.23 128.607 132.653 129.439 132.233C127.09 130.048 130.435 121.54 140.707 124.784C138.185 117.757 144.49 114.339 152.953 120.644C152.953 120.644 166.643 111.277 183.934 120.644C192.396 114.339 198.702 117.766 196.18 124.784C206.443 121.54 210.537 129.811 207.887 131.629C207.137 132.141 207.229 132.361 207.229 132.361C207.229 132.361 209.989 134.627 210.583 135.23Z" fill="#848484"/>
<path d="M217.967 200.08C220.845 200.262 227.517 198.819 225.534 188.19C231.209 189.25 236.528 181.756 226.027 170.004C219.694 170.25 213.178 173.029 210.4 175.469C201.206 158.26 173.012 156.78 171.678 182.295H167.154C165.82 156.78 137.636 158.26 128.433 175.469C125.307 172.718 117.466 169.556 110.457 170.04C99.9927 181.774 105.302 189.259 110.978 188.19C108.994 198.819 115.657 200.262 118.545 200.08C121.423 208.542 138.413 220.021 162.494 220.021H174.018C199.031 220.021 215.088 208.542 217.967 200.08Z" fill="white"/>
<path d="M221.412 150.282C223.706 155.418 225.47 161.824 225.534 169.455C236.702 181.528 231.301 189.268 225.534 188.19C227.517 198.819 220.855 200.262 217.967 200.08C215.088 208.542 199.031 220.021 174.018 220.021H162.494C138.413 220.021 121.424 208.551 118.545 200.08C115.666 200.262 108.995 198.819 110.978 188.19C105.211 189.268 99.8104 181.528 110.978 169.455C111.051 160.645 113.391 153.471 116.196 147.997" stroke="black" stroke-width="2.5924" stroke-miterlimit="10" stroke-linecap="round" stroke-linejoin="round"/>
<path d="M129.429 132.233C127.08 130.048 130.425 121.54 140.697 124.784C138.175 117.757 144.481 114.339 152.943 120.644C152.943 120.644 166.633 111.277 183.924 120.644C192.387 114.339 198.693 117.766 196.17 124.784C206.433 121.54 210.528 129.811 207.877 131.629C207.128 132.141 207.219 132.361 207.219 132.361" stroke="black" stroke-width="2.5924" stroke-miterlimit="10" stroke-linecap="round" stroke-linejoin="round"/>
<path d="M158.528 157.959C158.838 156.451 157.422 154.12 153.163 154.12C148.904 154.12 147.908 156.524 148.055 157.703C148.228 159.064 149.078 159.914 152.651 159.832C156.225 159.75 158.016 160.426 158.528 157.959Z" fill="white"/>
<path d="M169.412 186.216C172.087 186.216 174.256 184.796 174.256 183.045C174.256 181.293 172.087 179.874 169.412 179.874C166.737 179.874 164.568 181.293 164.568 183.045C164.568 184.796 166.737 186.216 169.412 186.216Z" fill="black"/>
<path d="M179.895 157.959C179.584 156.451 181 154.12 185.259 154.12C189.518 154.12 190.514 156.524 190.368 157.703C190.194 159.064 189.344 159.914 185.771 159.832C182.189 159.741 180.406 160.426 179.895 157.959Z" fill="white"/>
<path d="M186.502 180.513C189.117 180.513 191.236 178.394 191.236 175.779C191.236 173.165 189.117 171.045 186.502 171.045C183.888 171.045 181.769 173.165 181.769 175.779C181.769 178.394 183.888 180.513 186.502 180.513Z" fill="black"/>
<path d="M184.931 191.37C181.503 194.523 174.796 196.305 169.312 191.233C165.474 195.894 156.984 194.523 154.242 191.233" stroke="black" stroke-width="2.5924" stroke-miterlimit="10" stroke-linecap="round" stroke-linejoin="round"/>
<path d="M146.913 175.094C146.913 175.094 151.373 173.348 156.655 175.779" stroke="black" stroke-width="2.5924" stroke-miterlimit="10" stroke-linecap="round" stroke-linejoin="round"/>
<path d="M176.12 194.359C173.845 194.158 171.487 193.235 169.321 191.233C167.585 193.344 164.889 194.203 162.211 194.222C162.595 198.06 164.13 204.978 169.412 205.188C174.293 205.38 175.709 198.654 176.12 194.359Z" fill="#FF835D" stroke="black" stroke-width="2.5924" stroke-miterlimit="10" stroke-linecap="round" stroke-linejoin="round"/>
<path d="M185.352 219.162C185.352 219.162 202.578 202.428 215.967 200.601C228.259 198.919 233.102 202.748 234.373 210.27C235.643 217.791 225.051 220.852 220.162 222.104C215.272 223.356 204.022 240.647 204.022 240.647" fill="#848484"/>
<path d="M185.352 219.162C185.352 219.162 202.578 202.428 215.967 200.601C228.259 198.919 233.102 202.748 234.373 210.27C235.643 217.791 225.051 220.852 220.162 222.104C215.272 223.356 204.022 240.647 204.022 240.647" stroke="black" stroke-width="2.5924" stroke-miterlimit="10" stroke-linecap="round" stroke-linejoin="round"/>
<path d="M213.58 190.667C214.448 191.553 215.782 191.992 216.87 191.407L224.766 187.185C225.853 186.6 226.228 185.247 225.981 184.032C225.287 180.714 226.822 177.205 229.957 175.524C233.777 173.486 238.52 174.92 240.558 178.74C241.271 180.075 241.563 181.528 241.472 182.935C241.362 184.617 242.45 186.655 243.912 187.495C245.136 188.199 246.178 189.25 246.9 190.584C248.938 194.404 247.503 199.148 243.683 201.186C240.54 202.867 236.774 202.191 234.398 199.769C233.53 198.883 232.196 198.444 231.108 199.029L223.212 203.251C222.125 203.836 221.75 205.197 221.997 206.404C222.691 209.721 221.156 213.231 218.021 214.912C214.201 216.95 209.458 215.515 207.42 211.695C206.707 210.361 206.415 208.908 206.506 207.5C206.616 205.819 205.529 203.781 204.066 202.94C202.842 202.236 201.8 201.186 201.078 199.851C199.04 196.031 200.475 191.288 204.295 189.25C207.429 187.569 211.204 188.245 213.58 190.667Z" fill="#E3B04D" stroke="black" stroke-width="2.5924" stroke-miterlimit="10" stroke-linecap="round" stroke-linejoin="round"/>
<path d="M236.299 215.634C242.449 210.574 244.669 203.111 241.257 198.964C237.845 194.817 230.094 195.557 223.944 200.617C217.793 205.677 215.573 213.14 218.985 217.287C222.397 221.434 230.148 220.694 236.299 215.634Z" fill="white" stroke="black" stroke-width="2.5924" stroke-miterlimit="10" stroke-linecap="round" stroke-linejoin="round"/>
<path d="M54.5278 127.489C52.3436 122.692 58.2565 117.336 65.3757 116.587C72.4949 115.837 75.4467 119.091 75.1634 122.079C74.8527 125.351 73.2991 127.16 66.7557 129.107C60.2122 131.045 55.9809 130.679 54.5278 127.489Z" fill="#EEA865" stroke="black" stroke-width="2.5924" stroke-miterlimit="10" stroke-linecap="round" stroke-linejoin="round"/>
</svg>
