<svg width="188" height="140" viewBox="0 0 188 140" fill="none" xmlns="http://www.w3.org/2000/svg">
<path d="M55.4086 162.206C46.4628 157.258 41.6952 148.977 45.0046 147.095C39.9197 144.356 37.4074 131.191 41.5706 132.574C39.1339 127.538 40.9245 121.236 44.2528 118.479C47.581 115.717 49.0468 120.424 49.0468 120.424C51.8726 115.649 52.5828 134.632 66.0279 142.834C78.0034 150.14 69.5639 168.765 55.4086 162.206Z" fill="#848484" stroke="black" stroke-width="2.45255" stroke-miterlimit="10" stroke-linecap="round" stroke-linejoin="round"/>
<path d="M121.963 138.697C130.769 139.955 145.997 128.69 137.014 109.102C128.03 89.5145 117.426 111.078 117.426 111.078L121.963 138.697Z" fill="#848484" stroke="black" stroke-width="2.45255" stroke-miterlimit="10" stroke-linecap="round" stroke-linejoin="round"/>
<path d="M73.9893 109.937C73.9893 109.937 51.5796 148.603 68.0582 164.862C69.5958 170.793 72.21 190.547 88.9304 189.029C96.18 188.371 98.1558 183.536 99.2551 181.998C101.673 185.512 105.847 189.248 114.415 187.491C122.983 185.734 124.302 177.386 121.227 163.106C125.035 156.88 126.236 147.934 123.807 134.969C122.25 126.676 123.478 117.308 121.888 111.036C117.317 93.0354 78.3829 102.026 73.9893 109.937Z" fill="#848484"/>
<path d="M121.884 111.033C117.317 93.0316 78.3829 102.026 73.9893 109.933C73.9893 109.933 52.5051 143.193 68.0582 164.858C69.5958 170.79 72.21 190.544 88.9304 189.025C96.18 188.368 98.1558 183.532 99.2551 181.994C101.673 185.508 105.847 189.244 114.415 187.487C122.983 185.731 124.302 177.382 121.227 163.102C126.236 153.876 125.428 144.421 123.807 135.505" stroke="black" stroke-width="2.45255" stroke-miterlimit="10" stroke-linecap="round" stroke-linejoin="round"/>
<path d="M116.118 145.848C118.241 135.669 112.676 125.897 103.687 124.022C94.6988 122.147 85.6908 128.879 83.5674 139.058C81.444 149.237 87.0093 159.009 95.9979 160.884C104.986 162.759 113.994 156.027 116.118 145.848Z" fill="white"/>
<path d="M71.8705 114.501C71.8705 114.501 61.1416 121.531 53.0874 132.74C49.7101 137.439 46.2912 146.831 52.6416 151.685C57.821 155.644 63.3781 154.318 66.4381 150.9C69.5018 147.481 75.773 142.309 77.3483 141.123" fill="#848484"/>
<path d="M52.442 133.696C49.314 138.622 46.696 147.137 52.6422 151.685C57.8215 155.644 63.3786 154.318 66.4386 150.9C67.5078 149.706 68.9735 148.297 70.4884 146.918C65.974 137.968 56.8355 134.753 52.442 133.696Z" fill="white"/>
<path d="M71.8705 114.501C71.8705 114.501 61.1416 121.531 53.0874 132.74C49.7101 137.439 46.2912 146.831 52.6416 151.685C57.821 155.644 63.3781 154.318 66.4381 150.9C69.5018 147.481 75.773 142.309 77.3483 141.123" stroke="black" stroke-width="2.45255" stroke-miterlimit="10" stroke-linecap="round" stroke-linejoin="round"/>
<path d="M48.3468 66.8705C43.1675 58.7596 36.953 30.6529 45.8157 24.2269C54.6783 17.8009 71.1419 31.7598 71.1419 31.7598C71.1419 31.7598 79.8723 37.7174 63.0915 54.2187C49.1212 67.9585 48.3468 66.8705 48.3468 66.8705Z" fill="#848484" stroke="black" stroke-width="2.45255" stroke-miterlimit="10" stroke-linecap="round" stroke-linejoin="round"/>
<path d="M49.7186 30.838C52.6691 27.5664 60.916 33.3238 63.3224 35.6584C63.8211 36.142 69.4802 41.6273 62.344 48.3442C58.7853 51.6951 51.2902 53.1609 51.2902 53.1609C51.2902 53.1609 46.0315 34.9256 49.7186 30.838Z" fill="white"/>
<path d="M49.7188 30.838C52.6692 27.5665 62.8919 35.088 65.2983 37.4227" stroke="black" stroke-width="2.45255" stroke-miterlimit="10" stroke-linecap="round" stroke-linejoin="round"/>
<path d="M134.967 54.6494C136.95 45.2314 131.707 16.7394 121.148 13.8569C110.585 10.9745 101.243 29.8445 101.243 29.8445C101.243 29.8445 95.1793 38.4994 116.701 48.0156C134.623 55.9376 134.967 54.6494 134.967 54.6494Z" fill="#848484" stroke="black" stroke-width="2.45255" stroke-miterlimit="10" stroke-linecap="round" stroke-linejoin="round"/>
<path d="M119.029 21.6467C114.919 19.6482 109.834 27.88 108.632 30.8833C108.383 31.5067 105.644 35.3033 109.649 38.4427C121.511 47.7436 127.752 45.016 127.752 45.016C127.752 45.016 124.167 24.1438 119.029 21.6467Z" fill="white"/>
<path d="M119.03 21.6467C114.92 19.6483 108.403 29.7765 107.202 32.7836" stroke="black" stroke-width="2.45255" stroke-miterlimit="10" stroke-linecap="round" stroke-linejoin="round"/>
<path d="M125.516 42.8514C125.516 42.8514 139.044 51.6309 141.129 70.5122C151.624 79.7565 147.722 86.7794 142.754 86.3638C145.349 95.1849 139.837 96.9794 137.382 97.0776C135.678 104.49 123.087 115.589 101.924 117.757L92.1694 118.754C71.7958 120.84 56.4278 112.604 53.2545 105.691C50.8329 106.091 45.068 105.453 45.8236 96.288C41.0409 97.7009 35.7974 91.6149 44.1991 80.4365C42.416 61.5211 53.8854 50.184 53.8854 50.184C53.8854 50.184 55.9254 47.7738 56.5903 47.3394C54.4143 45.696 56.5071 38.2085 65.4756 40.0634C62.7329 34.3363 67.7725 30.8947 75.4791 35.496C75.4791 35.496 86.2496 26.384 101.697 32.81C108.316 26.7429 113.944 29.0927 112.418 35.2543C120.824 31.62 124.998 38.2689 122.917 40.0331C122.327 40.5318 122.422 40.7094 122.422 40.7094C122.422 40.7094 124.957 42.3942 125.516 42.8514Z" fill="#848484"/>
<path d="M137.383 97.0776C139.838 96.9794 145.35 95.1849 142.755 86.3638C147.651 86.7718 151.496 79.968 141.595 70.9354C136.257 71.6947 130.983 74.6036 128.845 76.9118C119.571 63.1494 95.5929 64.3356 96.6734 86.0389L92.8427 86.4318C89.5032 64.9589 65.7825 68.6536 59.4887 84.014C56.6101 81.9589 49.6929 79.9605 43.8072 80.9767C35.9721 91.8114 41.1136 97.682 45.8169 96.2918C45.0614 105.457 50.8263 106.099 53.2478 105.695C56.4212 112.608 71.7892 120.844 92.1627 118.758L101.917 117.761C123.088 115.592 135.679 104.493 137.383 97.0776Z" fill="white"/>
<path d="M109.253 92.4536C106.764 95.5287 101.335 97.8596 96.0952 94.2745C93.4432 98.668 86.1294 98.5698 83.417 96.1407" stroke="black" stroke-width="2.45255" stroke-miterlimit="10" stroke-linecap="round" stroke-linejoin="round"/>
<path d="M96.094 94.2745C94.7642 96.4769 92.2633 97.5498 89.7549 97.7689C90.1742 100.957 91.7458 108.615 97.1102 108.112C102.973 107.561 103.468 100.115 103.279 95.948C101.058 96.3371 98.5571 95.9593 96.094 94.2745Z" fill="#FF8053" stroke="black" stroke-width="2.45255" stroke-miterlimit="10" stroke-linecap="round" stroke-linejoin="round"/>
<path d="M135.1 52.2013C137.488 56.3456 140.415 64.0636 141.129 70.5122C151.624 79.7564 147.722 86.7793 142.754 86.3638C145.349 95.1849 139.837 96.9793 137.382 97.0776C135.678 104.49 123.087 115.589 101.924 117.757L92.1694 118.754C71.7958 120.84 56.4278 112.604 53.2545 105.691C50.8329 106.091 45.068 105.453 45.8236 96.288C41.0409 97.7009 35.7974 91.6149 44.1991 80.4365C43.4965 72.9791 44.8527 66.7005 46.7529 61.8271" stroke="black" stroke-width="2.45255" stroke-miterlimit="10" stroke-linecap="round" stroke-linejoin="round"/>
<path d="M56.59 47.3431C54.414 45.6998 56.5069 38.2123 65.4753 40.0671C62.7326 34.34 67.7722 30.8985 75.4789 35.4998C75.4789 35.4998 86.2493 26.3878 101.697 32.8138C108.315 26.7467 113.944 29.0965 112.418 35.258C120.824 31.6238 124.998 38.2727 122.916 40.0369C122.327 40.5356 122.422 40.7131 122.422 40.7131" stroke="black" stroke-width="2.45255" stroke-miterlimit="10" stroke-linecap="round" stroke-linejoin="round"/>
<path d="M83.4396 66.5871C83.5718 65.2876 82.1702 63.4402 78.5662 63.8067C74.9622 64.1769 74.3238 66.2925 74.5504 67.2785C74.8111 68.4156 75.6082 69.0654 78.6267 68.6838C81.6451 68.3022 83.2204 68.7216 83.4396 66.5871Z" fill="white"/>
<path d="M95.1613 90.1653C97.4258 89.9333 99.1382 88.5422 98.9862 87.0582C98.8342 85.5742 96.8753 84.5592 94.6109 84.7911C92.3464 85.0231 90.634 86.4141 90.786 87.8982C90.938 89.3822 92.8969 90.3972 95.1613 90.1653Z" fill="black"/>
<path d="M79.3844 86.2694C81.6106 86.2694 83.4153 84.4647 83.4153 82.2385C83.4153 80.0123 81.6106 78.2076 79.3844 78.2076C77.1582 78.2076 75.3535 80.0123 75.3535 82.2385C75.3535 84.4647 77.1582 86.2694 79.3844 86.2694Z" fill="black"/>
<path d="M101.7 66.1451C101.307 64.8985 102.305 62.8056 105.909 62.4354C109.513 62.0651 110.567 64.0107 110.544 65.0194C110.518 66.1867 109.872 66.9838 106.834 67.2218C103.804 67.4598 102.35 68.1927 101.7 66.1451Z" fill="white"/>
<path d="M110.114 83.9649C112.823 83.9649 115.018 81.7695 115.018 79.0614C115.018 76.3532 112.823 74.1578 110.114 74.1578C107.406 74.1578 105.211 76.3532 105.211 79.0614C105.211 81.7695 107.406 83.9649 110.114 83.9649Z" fill="black"/>
<path d="M128.536 115.464L126.16 116.62C124.724 117.319 122.998 116.718 122.299 115.286L113.402 96.9831C112.703 95.5476 113.304 93.8211 114.736 93.1222L117.112 91.9662C118.547 91.2673 120.274 91.868 120.973 93.2998L129.869 111.603C130.568 113.039 129.971 114.769 128.536 115.464Z" fill="#636565" stroke="black" stroke-width="2.45255" stroke-miterlimit="10" stroke-linecap="round" stroke-linejoin="round"/>
<path opacity="0.3" d="M110.188 91.5469C116.704 91.5469 121.986 86.2647 121.986 79.7489C121.986 73.233 116.704 67.9509 110.188 67.9509C103.672 67.9509 98.3896 73.233 98.3896 79.7489C98.3896 86.2647 103.672 91.5469 110.188 91.5469Z" fill="#C1FFFF"/>
<path d="M103.555 63.4931C94.7076 67.2218 90.5596 77.4142 94.2882 86.2618C98.0169 95.1093 108.209 99.2573 117.057 95.5286C125.904 91.8 130.052 81.6075 126.324 72.76C122.591 63.9124 112.399 59.7644 103.555 63.4931ZM114.632 89.7751C108.961 92.1664 102.429 89.5069 100.038 83.8364C97.6467 78.166 100.306 71.6342 105.977 69.2429C111.647 66.8515 118.179 69.5111 120.57 75.1815C122.962 80.852 120.302 87.3875 114.632 89.7751Z" fill="#C9CACA" stroke="black" stroke-width="2.45255" stroke-miterlimit="10" stroke-linecap="round" stroke-linejoin="round"/>
<path d="M118.405 117.47C117.332 112.623 117.392 102.355 125.696 100.175C134 97.9994 138.778 103.451 140.12 111.577C141.461 119.703 137.743 125.808 131.468 127.451C125.197 129.094 119.814 123.824 118.405 117.47Z" fill="white" stroke="black" stroke-width="2.45255" stroke-miterlimit="10" stroke-linecap="round" stroke-linejoin="round"/>
</svg>
