<svg width="300" height="224" viewBox="0 0 300 224" fill="none" xmlns="http://www.w3.org/2000/svg">
<path d="M88.3291 259.212C74.0334 251.304 66.4146 238.071 71.7031 235.064C63.5772 230.687 59.5626 209.648 66.2154 211.858C62.3215 203.81 65.1831 193.741 70.5017 189.334C75.8203 184.92 78.1627 192.443 78.1627 192.443C82.6784 184.812 83.8134 215.148 105.299 228.254C124.437 239.93 110.95 269.693 88.3291 259.212Z" fill="#848484" stroke="black" stroke-width="3.92407" stroke-miterlimit="10" stroke-linecap="round" stroke-linejoin="round"/>
<path d="M194.686 221.644C208.758 223.654 233.094 205.652 218.738 174.35C204.381 143.048 187.436 177.507 187.436 177.507L194.686 221.644Z" fill="#848484" stroke="black" stroke-width="3.92407" stroke-miterlimit="10" stroke-linecap="round" stroke-linejoin="round"/>
<path d="M118.022 175.684C118.022 175.684 82.2106 237.473 108.544 263.456C111.001 272.934 115.179 304.502 141.899 302.075C153.484 301.025 156.641 293.297 158.398 290.84C162.262 296.455 168.933 302.425 182.625 299.618C196.317 296.811 198.424 283.469 193.509 260.649C199.595 250.7 201.515 236.404 197.633 215.685C195.145 202.434 197.108 187.462 194.566 177.441C187.261 148.674 125.043 163.042 118.022 175.684Z" fill="#848484"/>
<path d="M194.56 177.435C187.261 148.668 125.043 163.042 118.022 175.678C118.022 175.678 83.6897 228.828 108.544 263.45C111.001 272.928 115.179 304.496 141.899 302.069C153.484 301.019 156.641 293.291 158.398 290.834C162.262 296.449 168.933 302.419 182.625 299.612C196.317 296.805 198.424 283.463 193.509 260.643C201.515 245.901 200.223 230.79 197.633 216.542" stroke="black" stroke-width="3.92407" stroke-miterlimit="10" stroke-linecap="round" stroke-linejoin="round"/>
<path d="M185.344 233.071C188.738 216.804 179.844 201.188 165.48 198.192C151.116 195.196 136.721 205.953 133.328 222.22C129.934 238.487 138.828 254.103 153.192 257.099C167.556 260.096 181.951 249.338 185.344 233.071Z" fill="white"/>
<path d="M114.635 182.977C114.635 182.977 97.49 194.211 84.6191 212.123C79.222 219.633 73.7585 234.641 83.9067 242.399C92.1835 248.726 101.064 246.607 105.954 241.143C110.85 235.68 120.871 227.415 123.389 225.52" fill="#848484"/>
<path d="M83.5877 213.651C78.589 221.523 74.4054 235.131 83.9076 242.399C92.1844 248.726 101.065 246.607 105.955 241.143C107.663 239.236 110.006 236.984 112.427 234.78C105.212 220.479 90.6088 215.341 83.5877 213.651Z" fill="white"/>
<path d="M114.635 182.977C114.635 182.977 97.49 194.211 84.6191 212.123C79.222 219.633 73.7585 234.641 83.9067 242.399C92.1835 248.726 101.064 246.607 105.954 241.143C110.85 235.68 120.871 227.415 123.389 225.52" stroke="black" stroke-width="3.92407" stroke-miterlimit="10" stroke-linecap="round" stroke-linejoin="round"/>
<path d="M77.0427 106.862C68.7659 93.9001 58.835 48.9845 72.9979 38.7155C87.1608 28.4465 113.47 50.7534 113.47 50.7534C113.47 50.7534 127.422 60.2738 100.605 86.6435C78.2803 108.6 77.0427 106.862 77.0427 106.862Z" fill="#848484" stroke="black" stroke-width="3.92407" stroke-miterlimit="10" stroke-linecap="round" stroke-linejoin="round"/>
<path d="M79.2363 49.2803C83.9512 44.0522 97.1301 53.2527 100.976 56.9836C101.773 57.7563 110.816 66.5221 99.4121 77.2559C93.7252 82.6108 81.7477 84.9532 81.7477 84.9532C81.7477 84.9532 73.3442 55.8124 79.2363 49.2803Z" fill="white"/>
<path d="M79.2363 49.2803C83.9513 44.0522 100.287 56.072 104.133 59.8029" stroke="black" stroke-width="3.92407" stroke-miterlimit="10" stroke-linecap="round" stroke-linejoin="round"/>
<path d="M215.466 87.3318C218.635 72.2814 210.256 26.7501 193.382 22.1438C176.503 17.5376 161.573 47.6926 161.573 47.6926C161.573 47.6926 151.883 61.5234 186.276 76.7307C214.916 89.3904 215.466 87.3318 215.466 87.3318Z" fill="#848484" stroke="black" stroke-width="3.92407" stroke-miterlimit="10" stroke-linecap="round" stroke-linejoin="round"/>
<path d="M189.997 34.5922C183.428 31.3986 175.302 44.5533 173.383 49.3528C172.984 50.3489 168.607 56.4161 175.007 61.4329C193.963 76.2961 203.936 71.9373 203.936 71.9373C203.936 71.9373 198.207 38.5827 189.997 34.5922Z" fill="white"/>
<path d="M189.998 34.5922C183.429 31.3986 173.015 47.5839 171.096 52.3894" stroke="black" stroke-width="3.92407" stroke-miterlimit="10" stroke-linecap="round" stroke-linejoin="round"/>
<path d="M200.363 68.4781C200.363 68.4781 221.982 82.5082 225.314 112.681C242.085 127.454 235.849 138.677 227.91 138.013C232.057 152.109 223.249 154.977 219.325 155.134C216.603 166.978 196.481 184.715 162.662 188.18L147.074 189.774C114.516 193.107 89.9577 179.946 84.8866 168.898C81.0168 169.538 71.8043 168.518 73.0117 153.872C65.3688 156.13 56.9894 146.404 70.4158 128.541C67.5663 98.3131 85.8947 80.196 85.8947 80.196C85.8947 80.196 89.1547 76.3444 90.2173 75.6501C86.7399 73.024 90.0844 61.0586 104.416 64.0228C100.033 54.8706 108.087 49.3709 120.402 56.724C120.402 56.724 137.614 42.1627 162.299 52.4317C172.876 42.7362 181.872 46.4912 179.433 56.3376C192.865 50.53 199.536 61.1552 196.21 63.9745C195.268 64.7714 195.419 65.0551 195.419 65.0551C195.419 65.0551 199.47 67.7476 200.363 68.4781Z" fill="#848484"/>
<path d="M219.326 155.134C223.25 154.977 232.058 152.109 227.91 138.013C235.734 138.665 241.88 127.792 226.057 113.357C217.527 114.571 209.099 119.219 205.682 122.908C190.861 100.915 152.544 102.811 154.271 137.494L148.149 138.121C142.812 103.807 104.906 109.711 94.848 134.258C90.2477 130.974 79.1939 127.78 69.7882 129.404C57.2674 146.718 65.4838 156.1 72.9999 153.878C71.7925 168.524 81.005 169.55 84.8748 168.904C89.9459 179.952 114.505 193.113 147.062 189.78L162.65 188.187C196.481 184.721 216.603 166.984 219.326 155.134Z" fill="white"/>
<path d="M174.373 147.744C170.395 152.659 161.72 156.383 153.346 150.654C149.108 157.675 137.421 157.518 133.086 153.637" stroke="black" stroke-width="3.92407" stroke-miterlimit="10" stroke-linecap="round" stroke-linejoin="round"/>
<path d="M153.347 150.654C151.222 154.174 147.225 155.888 143.217 156.239C143.887 161.334 146.398 173.571 154.971 172.768C164.34 171.887 165.131 159.988 164.829 153.329C161.28 153.95 157.283 153.347 153.347 150.654Z" fill="#FF8053" stroke="black" stroke-width="3.92407" stroke-miterlimit="10" stroke-linecap="round" stroke-linejoin="round"/>
<path d="M215.679 83.4198C219.494 90.0424 224.173 102.376 225.314 112.681C242.085 127.454 235.849 138.677 227.91 138.013C232.057 152.109 223.249 154.977 219.325 155.134C216.603 166.978 196.481 184.715 162.662 188.18L147.074 189.774C114.516 193.107 89.9577 179.946 84.8866 168.898C81.0168 169.538 71.8043 168.518 73.0117 153.872C65.3688 156.13 56.9894 146.404 70.4158 128.541C69.2929 116.623 71.4602 106.59 74.4968 98.8021" stroke="black" stroke-width="3.92407" stroke-miterlimit="10" stroke-linecap="round" stroke-linejoin="round"/>
<path d="M90.2166 75.6561C86.7393 73.03 90.0838 61.0646 104.416 64.0288C100.033 54.8767 108.086 49.3769 120.402 56.73C120.402 56.73 137.613 42.1687 162.299 52.4377C172.876 42.7422 181.871 46.4973 179.432 56.3437C192.864 50.536 199.535 61.1612 196.209 63.9805C195.267 64.7774 195.418 65.0611 195.418 65.0611" stroke="black" stroke-width="3.92407" stroke-miterlimit="10" stroke-linecap="round" stroke-linejoin="round"/>
<path d="M133.124 106.409C133.335 104.332 131.095 101.38 125.336 101.966C119.577 102.557 118.556 105.938 118.919 107.514C119.335 109.331 120.609 110.369 125.432 109.759C130.256 109.15 132.774 109.82 133.124 106.409Z" fill="white"/>
<path d="M151.856 144.088C155.474 143.717 158.211 141.494 157.968 139.122C157.725 136.751 154.595 135.129 150.976 135.499C147.357 135.87 144.621 138.093 144.864 140.465C145.107 142.836 148.237 144.458 151.856 144.088Z" fill="black"/>
<path d="M126.643 137.862C130.2 137.862 133.084 134.978 133.084 131.42C133.084 127.863 130.2 124.979 126.643 124.979C123.085 124.979 120.201 127.863 120.201 131.42C120.201 134.978 123.085 137.862 126.643 137.862Z" fill="black"/>
<path d="M162.306 105.702C161.678 103.71 163.272 100.366 169.031 99.7741C174.79 99.1825 176.475 102.292 176.438 103.903C176.396 105.769 175.364 107.043 170.51 107.423C165.668 107.803 163.344 108.975 162.306 105.702Z" fill="white"/>
<path d="M175.752 134.179C180.08 134.179 183.588 130.671 183.588 126.343C183.588 122.015 180.08 118.507 175.752 118.507C171.424 118.507 167.916 122.015 167.916 126.343C167.916 130.671 171.424 134.179 175.752 134.179Z" fill="black"/>
<path d="M205.19 184.516L201.392 186.363C199.098 187.48 196.339 186.52 195.222 184.232L181.005 154.983C179.888 152.689 180.848 149.93 183.136 148.813L186.934 146.966C189.228 145.849 191.987 146.809 193.103 149.097L207.321 178.346C208.438 180.64 207.484 183.405 205.19 184.516Z" fill="#636565" stroke="black" stroke-width="3.92407" stroke-miterlimit="10" stroke-linecap="round" stroke-linejoin="round"/>
<path opacity="0.3" d="M175.869 146.296C186.282 146.296 194.723 137.854 194.723 127.442C194.723 117.029 186.282 108.588 175.869 108.588C165.457 108.588 157.016 117.029 157.016 127.442C157.016 137.854 165.457 146.296 175.869 146.296Z" fill="#C1FFFF"/>
<path d="M165.268 101.464C151.13 107.423 144.501 123.711 150.46 137.85C156.418 151.988 172.706 158.617 186.845 152.659C200.984 146.7 207.612 130.412 201.654 116.273C195.689 102.135 179.401 95.5059 165.268 101.464ZM182.969 143.464C173.908 147.286 163.469 143.035 159.648 133.974C155.827 124.912 160.077 114.474 169.138 110.653C178.2 106.831 188.638 111.081 192.459 120.143C196.281 129.205 192.031 139.649 182.969 143.464Z" fill="#C9CACA" stroke="black" stroke-width="3.92407" stroke-miterlimit="10" stroke-linecap="round" stroke-linejoin="round"/>
<path d="M189.001 187.722C187.286 179.976 187.383 163.567 200.652 160.084C213.922 156.607 221.559 165.318 223.702 178.304C225.845 191.29 219.904 201.045 209.877 203.672C199.855 206.298 191.253 197.876 189.001 187.722Z" fill="white" stroke="black" stroke-width="3.92407" stroke-miterlimit="10" stroke-linecap="round" stroke-linejoin="round"/>
</svg>
